<svg width="43" height="43" viewBox="0 0 43 43" fill="none" xmlns="http://www.w3.org/2000/svg">
<circle cx="21.5" cy="21.5" r="21.5" fill="#4FAAE1"/>
<path d="M25.4658 11.9566C25.4648 11.1301 25.2185 10.3226 24.7578 9.6359C24.2972 8.94923 23.643 8.4143 22.8778 8.09872C22.1127 7.78314 21.2711 7.70107 20.4592 7.86289C19.6474 8.02472 18.9019 8.42316 18.3168 9.00787C17.7318 9.59258 17.3335 10.3373 17.1724 11.1479C17.0112 11.9585 17.0944 12.7986 17.4115 13.562C17.7285 14.3255 18.2651 14.9779 18.9535 15.437C19.6419 15.896 20.4512 16.141 21.2791 16.141C22.3899 16.1397 23.4548 15.6983 24.2398 14.9137C25.0249 14.1291 25.4658 13.0655 25.4658 11.9566ZM18.3202 11.9566C18.3202 11.3724 18.4937 10.8013 18.8189 10.3156C19.144 9.82984 19.6061 9.45125 20.1468 9.22769C20.6874 9.00413 21.2823 8.94564 21.8563 9.05961C22.4303 9.17358 22.9575 9.45489 23.3713 9.86797C23.7851 10.2811 24.0669 10.8074 24.181 11.3803C24.2952 11.9533 24.2366 12.5472 24.0127 13.0869C23.7887 13.6266 23.4095 14.0879 22.9229 14.4125C22.4363 14.737 21.8643 14.9103 21.2791 14.9103C20.4943 14.9103 19.7417 14.5991 19.1868 14.0452C18.6319 13.4912 18.3202 12.7399 18.3202 11.9566Z" fill="white"/>
<path d="M25.3624 25.4794C28.3212 21.3442 32.0148 15.4712 32.0148 11.9563C32.0148 9.11396 30.8838 6.38804 28.8704 4.37821C26.8571 2.36837 24.1264 1.23926 21.2791 1.23926C18.4319 1.23926 15.7012 2.36837 13.6879 4.37821C11.6745 6.38804 10.5435 9.11396 10.5435 11.9563C10.5435 15.4712 14.2371 21.3392 17.1959 25.4794C13.1226 26.1538 10.5435 27.7685 10.5435 29.7081C10.5435 32.3024 15.1593 34.2617 21.2791 34.2617C27.399 34.2617 32.0148 32.2926 32.0148 29.7081C32.0148 27.7636 29.4357 26.1538 25.3624 25.4794ZM21.2791 2.48966C23.7952 2.49225 26.2078 3.48984 27.9888 5.26405C29.7698 7.03826 30.7742 9.44458 30.782 11.9563C30.782 16.5789 23.2517 26.3409 21.2791 28.8417C19.3066 26.3409 11.7763 16.5789 11.7763 11.9612C11.7828 9.44865 12.7866 7.04107 14.5677 5.26579C16.3489 3.49052 18.7622 2.49226 21.2791 2.48966ZM21.2791 33.0113C15.6771 33.0113 11.7763 31.2588 11.7763 29.6884C11.7763 28.5758 13.956 27.1334 18.0096 26.5821C19.489 28.6103 20.6676 30.0281 20.8008 30.1954C20.8586 30.2656 20.9313 30.322 21.0136 30.3608C21.0958 30.3996 21.1857 30.4197 21.2767 30.4197C21.3677 30.4197 21.4575 30.3996 21.5398 30.3608C21.6221 30.322 21.6947 30.2656 21.7526 30.1954C21.8906 30.0281 23.0545 28.6103 24.5437 26.5821C28.6023 27.1531 30.782 28.5808 30.782 29.7081C30.782 31.2785 26.8812 33.0113 21.2791 33.0113Z" fill="white"/>
</svg>
