<svg width="38" height="120" viewBox="0 0 38 120" fill="none" xmlns="http://www.w3.org/2000/svg">
<path fill-rule="evenodd" clip-rule="evenodd" d="M26.1547 0C25.7012 0.303358 25.6246 1.20424 25.642 1.94782L25.6123 6.23569C24.9913 6.29289 24.8514 6.47981 24.8779 6.86896C24.8994 7.19173 25.1323 7.36843 25.3529 7.41337L25.31 16.9308C23.6431 16.9625 24.1599 18.4864 24.927 18.4864L24.9249 24.2819C23.161 24.2033 23.2651 25.8528 24.4377 25.7895L24.4081 36.9249C23.6236 37.9381 22.8719 39.03 22.5716 40.1219H29.65C29.3721 39.031 28.6857 37.9381 27.9013 36.9249L27.8717 25.7895C29.0443 25.8528 29.1484 24.2033 27.3845 24.2819L27.3824 18.4864C28.1505 18.4864 28.6663 16.9625 26.9994 16.9308L26.9565 7.41337C27.1771 7.36843 27.41 7.19173 27.4315 6.86896C27.458 6.47878 27.3181 6.29289 26.6971 6.23569L26.6674 1.94782C26.6848 1.20424 26.6082 0.304379 26.1547 0ZM21.9771 40.8113L21.9802 44.182L22.2213 44.1902H29.9931L30.2342 44.182L30.2373 40.8113H21.9771ZM22.496 44.8796C22.7013 46.8693 23.7993 48.2288 24.8728 49.5066L24.8984 108.15L27.411 108.561L27.4376 49.5066C28.5193 48.2176 29.4191 47.0286 29.6908 44.8796H22.496Z" fill="#4FAAE1"/>
<path d="M26.8943 49.9621C26.642 49.6629 26.6808 49.2155 26.9801 48.9632C27.2794 48.7109 27.7267 48.7497 27.979 49.049C29.6899 51.0836 30.4937 53.1949 30.4927 55.3368C30.4917 57.5614 29.6225 59.784 28.0015 61.9575C24.1069 67.18 22.6524 70.9909 22.5891 74.0898C22.5268 77.1356 23.8331 79.5594 25.4756 81.9914C25.4848 82.0047 25.4929 82.018 25.5001 82.0302L32.6448 93.1687C33.5191 93.1472 34.2566 93.28 34.7959 93.5711C35.6304 94.0215 36.0277 94.7723 35.8347 95.8335C35.4527 97.9397 34.1483 100.008 32.3772 101.756C30.4999 103.608 28.0832 105.118 25.688 105.931C25.6114 105.957 25.5409 105.978 25.4745 105.996C24.7105 106.191 23.588 106.15 22.6085 105.889C21.5299 105.603 20.5769 105.033 20.2868 104.179C20.2817 104.164 20.2756 104.144 20.2684 104.118C20.2603 104.097 20.2541 104.074 20.248 104.051C19.3635 100.583 22.1386 99.8906 25.3591 99.0857C28.0822 98.4054 31.1914 97.6281 31.8614 94.6569C31.7787 94.6681 31.6949 94.6804 31.6091 94.6947C30.3936 94.8918 28.9443 95.3514 27.4173 96.0623C21.9446 98.6087 15.5853 104.33 15.5414 112.656C15.5403 113.048 15.2206 113.364 14.8294 113.363C14.4372 113.362 14.1216 113.042 14.1226 112.651C14.1706 103.645 20.9712 97.4943 26.8228 94.7713C28.3396 94.0655 29.8012 93.5875 31.0719 93.3464L24.305 82.7983L24.2979 82.7871C22.5176 80.1508 21.1019 77.5013 21.1724 74.0612C21.2408 70.6753 22.7709 66.5917 26.8626 61.1057C28.3028 59.1742 29.075 57.2356 29.075 55.3358C29.076 53.5289 28.3784 51.7251 26.8953 49.9601L26.8943 49.9621ZM33.3179 94.6068L33.3169 94.6089C32.6346 98.7353 28.932 99.6607 25.7033 100.468C23.2285 101.086 21.0968 101.619 21.6279 103.701L21.6341 103.724C21.7495 104.065 22.3092 104.34 22.9711 104.515C23.732 104.718 24.5757 104.757 25.1252 104.617C25.1712 104.605 25.2069 104.594 25.2325 104.586C27.4305 103.839 29.6521 102.451 31.3813 100.744C32.9574 99.1889 34.1116 97.383 34.4374 95.5843C34.5038 95.2176 34.3822 94.9664 34.1218 94.8254C33.9144 94.713 33.6427 94.6405 33.3169 94.6068H33.3179Z" fill="#4FAAE1"/>
<path d="M0.876942 118.263C0.495961 118.354 0.111912 118.121 0.0199848 117.74C-0.0719415 117.359 0.161961 116.975 0.542946 116.883C8.95015 114.832 16.7731 111.374 22.8208 107.534C29.1587 103.509 33.5047 99.1071 34.4506 95.5281C34.5507 95.1481 34.9388 94.9214 35.3188 95.0215C35.6987 95.1216 35.9255 95.5097 35.8254 95.8897C34.7866 99.818 30.2138 104.525 23.5838 108.735C17.4227 112.647 9.44961 116.17 0.877972 118.262L0.876942 118.263Z" fill="#4FAAE1"/>
<path d="M22.4195 71.6681C21.5901 77.296 20.7352 83.7054 20.1325 90.3517C19.5299 97.0031 19.1775 103.904 19.3532 110.518L18.8803 110.53C18.7046 103.896 19.058 96.9775 19.6617 90.3088C20.2663 83.6349 21.1213 77.2225 21.9506 71.5986L22.4195 71.6671V71.6681Z" fill="#4FAAE1"/>
<path d="M31.3556 108H23.1016C22.8134 108 22.5797 108.234 22.5797 108.522V108.673C22.5797 108.961 22.8134 109.195 23.1016 109.195H31.3556C31.6439 109.195 31.8775 108.961 31.8775 108.673V108.522C31.8775 108.234 31.6439 108 31.3556 108Z" fill="#4FAAE1"/>
<path d="M33.7938 111.456H19.4073C18.9041 111.456 18.4962 111.69 18.4962 111.978V112.128C18.4962 112.416 18.9041 112.65 19.4073 112.65H33.7938C34.297 112.65 34.7049 112.416 34.7049 112.128V111.978C34.7049 111.69 34.297 111.456 33.7938 111.456Z" fill="#4FAAE1"/>
<path d="M36.2421 114.911H15.8579C15.1454 114.911 14.5678 115.145 14.5678 115.433V115.583C14.5678 115.872 15.1454 116.105 15.8579 116.105H36.2421C36.9546 116.105 37.5321 115.872 37.5321 115.583V115.433C37.5321 115.145 36.9546 114.911 36.2421 114.911Z" fill="#4FAAE1"/>
<path d="M23.8658 69.3341L26.0669 74.5126L22.6901 77.6504L26.12 83.9014L20.3746 88.6744L25.0863 95.426L24.6982 95.6966L19.7382 88.5887L25.5174 83.787L22.0977 77.5554L25.5 74.3921L23.4296 69.519L23.8658 69.3341Z" fill="#4FAAE1"/>
<path d="M20.0559 88.3946L26.1598 88.3517L26.1608 88.8246L20.0569 88.8685L20.0559 88.3946Z" fill="#4FAAE1"/>
<path d="M19.4736 95.4055L24.8891 95.3248L24.8952 95.7977L19.4797 95.8784L19.4736 95.4055Z" fill="#4FAAE1"/>
<path d="M29.6151 108.672H22.5797V112.084H29.6151V108.672Z" fill="#4FAAE1"/>
<path d="M33.7622 112.65H19.438V116.105H33.7622V112.65Z" fill="#4FAAE1"/>
<path d="M19.438 112.602H33.8092V116.152H19.39V112.602H19.437H19.438ZM33.7142 112.697H19.485V116.057H33.7142V112.697Z" fill="#4FAAE1"/>
<path d="M36.4004 115.854H15.5106V120H36.4004V115.854Z" fill="#4FAAE1"/>
</svg>
