<svg width="43" height="43" viewBox="0 0 43 43" fill="none" xmlns="http://www.w3.org/2000/svg">
<circle cx="21.5" cy="21.5" r="21.5" fill="#4FAAE1"/>
<path d="M23.2914 23.8025C23.7462 23.5053 23.7462 23.5053 24.2923 23.1487C24.7989 22.8179 25.1972 22.5582 25.4511 22.3931C26.7161 21.5708 28.118 21.8599 28.9535 23.1174C29.73 24.2863 30.5149 25.4788 31.3118 26.7001C32.1534 27.9904 31.8559 29.39 30.5645 30.2462C30.3089 30.4156 29.91 30.5976 29.3766 30.8032C29.2576 30.849 29.1329 30.8956 29.0031 30.9428C28.6535 31.0698 28.2826 31.1956 27.9132 31.315C27.6915 31.3866 27.519 31.4403 27.4342 31.4657C26.0804 31.9129 24.0849 31.6584 22.9259 30.9122C22.8074 30.8477 22.5972 30.7243 22.3101 30.5417C21.8375 30.2412 21.3179 29.8809 20.7661 29.4604C19.1922 28.2611 17.6698 26.8169 16.3187 25.1233C15.7761 24.4433 15.2714 23.7344 14.8093 22.9967C14.4364 22.4015 14.0915 21.7903 13.7734 21.1653C12.7261 19.1073 12.0082 16.9879 11.5587 14.9233C11.4011 14.1996 11.2883 13.5335 11.2127 12.9394C11.1668 12.5787 11.1435 12.3192 11.1407 12.2294C10.9372 10.8272 11.6133 8.91944 12.6436 7.92724C12.7088 7.86107 12.8226 7.74793 12.9714 7.60378C13.2193 7.36358 13.4747 7.12475 13.7247 6.90282C13.8331 6.80653 13.9385 6.71531 14.0403 6.62984C14.3013 6.41059 14.5338 6.23283 14.7365 6.10209C16.0019 5.28644 17.4009 5.57663 18.2397 6.82677C18.5816 7.33607 20.0512 9.57192 20.5818 10.386C21.4402 11.7044 21.1556 13.0882 19.8457 13.9527C19.6492 14.0824 19.2226 14.3631 18.6342 14.7498C18.1344 15.0782 18.1344 15.0782 17.7192 15.351C17.5049 15.4917 17.4289 15.5417 17.3796 15.5741C17.4123 15.7634 17.4706 16.0576 17.5566 16.4265C17.7233 17.1408 17.934 17.8637 18.1912 18.5476C18.4715 19.2927 18.7901 19.9441 19.1446 20.4685C19.472 20.9527 19.8813 21.4405 20.3563 21.9244C20.9108 22.4891 21.5241 23.0187 22.1485 23.4961C22.472 23.7434 22.7343 23.9289 22.9143 24.049C22.9682 24.0137 23.0491 23.9609 23.2914 23.8025ZM17.3659 15.4918C17.3663 15.4943 17.3667 15.4968 17.3671 15.4994C17.3669 15.4971 17.3664 15.4945 17.3659 15.4918ZM30.2645 27.3819C29.4695 26.1635 28.6866 24.9738 27.912 23.8079C27.4555 23.121 26.8225 22.9904 26.1324 23.439C25.8794 23.6035 25.4816 23.8629 24.9786 24.1913C24.4299 24.5496 24.4299 24.5496 23.9752 24.8467C23.6116 25.0844 23.6116 25.0844 23.5207 25.1438C23.1591 25.3802 22.6386 25.3726 22.2983 25.1385C22.109 25.0164 21.7903 24.7945 21.3884 24.4873C20.7201 23.9764 20.0633 23.4092 19.4637 22.7984C18.9388 22.2638 18.4818 21.7191 18.1088 21.1674C17.6935 20.5531 17.3334 19.817 17.0213 18.9871C16.7432 18.2476 16.5176 17.474 16.3395 16.7105C16.2324 16.2516 16.1645 15.8954 16.1337 15.7004C16.0585 15.2824 16.2653 14.8125 16.6177 14.5811C16.7007 14.5265 16.7007 14.5265 17.0329 14.3084C17.448 14.0357 17.448 14.0357 17.9462 13.7083C18.5352 13.3212 18.9615 13.0407 19.1571 12.9116C19.8926 12.4262 20.019 11.8118 19.5341 11.0671C19.0066 10.2577 17.5394 8.02554 17.2014 7.52211C16.7415 6.83659 16.1055 6.70468 15.4138 7.15052C15.2626 7.24805 15.0686 7.39639 14.8444 7.58474C14.7518 7.66254 14.6549 7.74637 14.5547 7.83541C14.3197 8.04397 14.0771 8.27082 13.8413 8.49927C13.6999 8.6363 13.5928 8.74285 13.5224 8.81395C12.767 9.54168 12.2324 11.0499 12.383 12.1036C12.3896 12.2194 12.4103 12.4502 12.4525 12.7813C12.5236 13.3402 12.6303 13.9705 12.7799 14.6574C13.2079 16.6234 13.892 18.6429 14.8876 20.5993C15.1892 21.1919 15.516 21.7709 15.8689 22.3343C16.3054 23.0311 16.7826 23.7014 17.2963 24.3452C18.5791 25.9531 20.0279 27.3276 21.5246 28.468C22.0474 28.8665 22.5382 29.2067 22.9818 29.4888C23.2445 29.6559 23.4306 29.7651 23.5637 29.8395C24.4444 30.405 26.0475 30.6095 27.0575 30.2761C27.1503 30.248 27.3155 30.1965 27.5292 30.1275C27.8854 30.0124 28.2426 29.8912 28.5764 29.7699C28.6989 29.7254 28.8162 29.6816 28.9274 29.6388C29.3798 29.4644 29.7161 29.311 29.8737 29.2065C30.5958 28.7278 30.7301 28.0957 30.2645 27.3819Z" fill="white"/>
</svg>
