<svg width="58" height="120" viewBox="0 0 58 120" fill="none" xmlns="http://www.w3.org/2000/svg">
<path d="M10.6177 25.0236V14.9383H13.0094C13.8211 14.9383 14.4143 15.1276 14.7911 15.5072C15.1678 15.8867 15.3581 16.4697 15.3581 17.2579V17.6178C15.3581 18.6478 15.017 19.3254 14.3328 19.6496C15.1229 19.9542 15.5165 20.6721 15.5165 21.808V22.6319C15.5165 23.4097 15.3122 24.003 14.9045 24.4116C14.4959 24.8202 13.8979 25.0236 13.1107 25.0236H10.6186H10.6177ZM9.80607 29.3254H57.4268V29.4492V33.0499V37.0237V42.0847V120H55.9104H54.394H39.4389H3.03282H0V37.3958V37.1474V37.0237H54.395V33.0499H9.80701V29.3245L9.80607 29.3254ZM39.4379 42.0856V116.378H43.2234V42.0856H39.4379ZM45.4652 42.0856V116.378H48.6929V42.0856H45.4652ZM50.9348 42.0856V116.378H54.3931V42.0856H50.9348ZM10.7301 116.378H12.972V42.7698H10.7301V116.378ZM16.1997 116.378H18.4415V42.7698H16.1997V116.378ZM23.3966 116.378H25.6384V42.7698H23.3966V116.378ZM28.8662 116.378H31.108V42.7698H28.8662V116.378ZM34.3489 25.0246V14.9392H35.9337V23.5841H37.735V14.9392H39.3199V23.6122H40.0115V26.3788H38.4267V25.0246H34.3498H34.3489ZM22.1763 10.0854V0H23.7612V4.32243H25.5625V0H27.1473V10.0854H25.5625V5.76293H23.7612V10.0854H22.1763ZM28.7575 17.7293V7.64392H33.0799V9.08442H30.3423V11.8942H32.5035V13.3347H30.3423V16.2878H33.0799V17.7283H28.7575V17.7293ZM16.2766 17.7293V7.64392H20.599V9.08442H17.8614V11.8942H20.0226V13.3347H17.8614V16.2878H20.599V17.7283H16.2766V17.7293ZM12.2025 23.5841H13.1097C13.3862 23.5841 13.5924 23.51 13.7264 23.3582C13.8632 23.2092 13.9307 22.9524 13.9307 22.5925V21.7115C13.9307 21.2532 13.8511 20.9336 13.6955 20.7537C13.539 20.5756 13.2775 20.4875 12.9129 20.4875H12.2025V23.585V23.5841ZM12.2025 19.0461H12.822C13.1369 19.0461 13.374 18.9645 13.5324 18.8033C13.6936 18.6421 13.7723 18.3685 13.7723 17.9842V17.42C13.7723 17.0601 13.7095 16.7958 13.583 16.6299C13.4556 16.464 13.2512 16.3806 12.971 16.3806H12.2025V19.0461Z" fill="#4FAAE1"/>
</svg>
