<svg width="32" height="120" viewBox="0 0 32 120" fill="none" xmlns="http://www.w3.org/2000/svg">
<path fill-rule="evenodd" clip-rule="evenodd" d="M31.4147 120L28.377 83.5501C29.0212 83.4967 29.5302 82.9638 29.5302 82.3036C29.5302 81.6087 28.9661 81.0472 28.2729 81.0472V61.5713C28.9678 61.5713 29.5302 61.009 29.5302 60.315C29.5302 59.6218 28.9661 59.0586 28.2729 59.0586V42.0954L27.0166 40.839V29.5302L28.2729 28.2739L23.2467 25.7603C23.2467 21.6114 21.2305 17.9375 18.1324 15.6509L16.392 2.30803C16.7363 2.08382 16.965 1.69766 16.965 1.25634C16.9641 0.563217 16.4027 0 15.7078 0C15.0129 0 14.4514 0.562328 14.4514 1.25634C14.4514 1.69944 14.6792 2.08471 15.0244 2.30803L13.2841 15.6491C10.1841 17.9358 8.16976 21.6087 8.16976 25.7585L3.14352 28.2721L4.40075 29.5284V40.8373L3.14352 42.0936V59.056C2.45039 59.056 1.88718 59.6183 1.88718 60.3123C1.88718 61.0054 2.4495 61.5686 3.14352 61.5686V81.0446C2.45039 81.0446 1.88718 81.6069 1.88718 82.3009C1.88718 82.9593 2.39523 83.4941 3.0403 83.5475L0 120H31.4129H31.4147ZM13.1951 57.175V47.7516C13.1951 46.3636 14.3206 45.238 15.7087 45.238C17.0967 45.238 18.2222 46.3636 18.2222 47.7516V57.175H13.196H13.1951ZM16.9641 64.7139C16.9641 65.4088 16.4018 65.9703 15.7078 65.9703C15.0146 65.9703 14.4514 65.408 14.4514 64.7139C14.4514 64.0208 15.0138 63.4576 15.7078 63.4576C16.4009 63.4576 16.9641 64.0199 16.9641 64.7139ZM16.3359 107.436H15.0796V101.153H16.3359V107.436ZM16.3359 94.8696H15.0796V88.5871H16.3359V94.8696ZM17.5932 78.5355H13.8224V70.3675C13.8224 69.3273 14.6668 68.4838 15.7078 68.4838C16.7488 68.4838 17.5932 69.3282 17.5932 70.3675V78.5355ZM24.5039 107.437H23.2476V101.154H24.5039V107.437ZM24.5039 94.8705H23.2476V88.588H24.5039V94.8705ZM25.7603 78.5363H21.9912V70.3684C21.9912 69.3282 22.8365 68.4847 23.8749 68.4847C24.9159 68.4847 25.7603 69.3291 25.7603 70.3684V78.5363ZM22.6203 64.7157C22.6203 64.0208 23.1826 63.4594 23.8749 63.4594C24.5698 63.4594 25.1321 64.0217 25.1321 64.7157C25.1321 65.4088 24.5698 65.9721 23.8749 65.9721C23.1817 65.973 22.6203 65.4106 22.6203 64.7157ZM22.6203 32.0456H25.1339V38.9572H22.6203V32.0456ZM21.3613 47.7534C21.3613 46.3653 22.4895 45.2398 23.8749 45.2398C25.2629 45.2398 26.3884 46.3653 26.3884 47.7534V57.1768H21.3622V47.7534H21.3613ZM20.7349 110.578V116.861H18.2213V110.578H20.7349ZM15.7087 30.7892C17.4437 30.7892 18.8486 32.1968 18.8486 33.9301C18.8486 35.6651 17.4419 37.0709 15.7087 37.0709C13.9736 37.0709 12.5678 35.6633 12.5678 33.9301C12.5678 32.1968 13.9745 30.7892 15.7087 30.7892ZM8.16976 107.437H6.91342V101.154H8.16976V107.437ZM8.16976 94.8705H6.91342V88.588H8.16976V94.8705ZM9.4261 78.5363H5.65709V70.3684C5.65709 69.3282 6.50147 68.4847 7.54248 68.4847C8.58261 68.4847 9.42788 69.3291 9.42788 70.3684V78.5363H9.42699H9.4261ZM6.28525 64.7157C6.28525 64.0208 6.84758 63.4594 7.54159 63.4594C8.23472 63.4594 8.79793 64.0217 8.79793 64.7157C8.79793 65.4088 8.23561 65.9721 7.54159 65.9721C6.84847 65.9721 6.28525 65.4106 6.28525 64.7157ZM6.28525 32.0456H8.79882V38.9572H6.28525V32.0456ZM5.02892 47.7534C5.02892 46.3653 6.15446 45.2398 7.54248 45.2398C8.93051 45.2398 10.056 46.3653 10.056 47.7534V57.1768H5.0298V47.7534H5.02892Z" fill="#4FAAE1"/>
</svg>
