<svg width="140" height="132" viewBox="0 0 140 132" fill="none" xmlns="http://www.w3.org/2000/svg">
<path d="M17.1554 35.1879H7.16042C4.05557 35.1879 2.71552 31.2539 5.17437 29.3573L41.3675 1.45025C41.9358 1.01116 42.635 0.773056 43.3535 0.773056H53.3486C56.4534 0.773056 57.7935 4.7079 55.3346 6.60355L19.1415 34.5107C18.5732 34.9498 17.874 35.1879 17.1554 35.1879Z" fill="#FAD730"/>
<path d="M49.9085 35.1879H39.9135C36.8078 35.1879 35.4678 31.2539 37.9275 29.3573L74.1198 1.45025C74.6889 1.01116 75.3872 0.773056 76.1058 0.773056H86.1009C89.2065 0.773056 90.5466 4.7079 88.0868 6.60355L51.8946 34.5107C51.3263 34.9498 50.6262 35.1879 49.9085 35.1879Z" fill="#FAD730"/>
<path d="M82.6608 36.734H72.6657C69.5609 36.734 68.22 32.8 70.6797 30.9034L106.872 2.99633C107.442 2.55724 108.14 2.31914 108.858 2.31914H118.854C121.959 2.31914 123.299 6.25399 120.839 8.14963L84.6468 36.0567C84.0785 36.4958 83.3785 36.734 82.6608 36.734Z" fill="#FAD730"/>
<path d="M139.156 15.5025V14.7654L139.098 14.7764C138.44 9.79277 132.433 7.25371 128.375 10.6009L92.6694 40.939C91.1504 42.1912 89.7486 43.5921 89.7486 45.5595V46.1405C89.7486 48.5428 90.9536 50.4764 92.6694 51.6164V131.092L108.085 118.783V44.9972L124.639 31.3476V104.519L139.156 91.5332V16.3858C139.156 16.3461 139.158 16.3064 139.158 16.2667V15.6858C139.158 15.6242 139.157 15.5634 139.156 15.5025H139.156Z" fill="#EC6A9A"/>
<path d="M74.3326 40.939H92.6694V131.092H74.3326V40.939Z" fill="#78C8D3"/>
<path d="M36.5148 40.939H54.8508V131.092H36.5148V40.939Z" fill="#78C8D3"/>
<path d="M12.6912 40.939H18.3056V131.092H0V47.6569C0.448752 41.4339 5.95859 40.939 12.6912 40.939H12.6912Z" fill="#78C8D3"/>
<path d="M1.49706 51.895V48.3198C1.49706 44.2431 4.80202 40.9391 8.8779 40.9391H82.9969C87.0728 40.9391 90.3777 44.2432 90.3777 48.3198V51.895C90.3777 55.9709 87.0727 59.2749 82.9969 59.2749H8.8779C4.80202 59.2749 1.49706 55.9709 1.49706 51.895Z" fill="#78C8D3"/>
</svg>
