<svg width="32" height="120" viewBox="0 0 32 120" fill="none" xmlns="http://www.w3.org/2000/svg">
<path fill-rule="evenodd" clip-rule="evenodd" d="M31.5473 120L28.5096 83.5501C29.1538 83.4967 29.6628 82.9638 29.6628 82.3036C29.6628 81.6087 29.0987 81.0472 28.4055 81.0472V61.5713C29.1004 61.5713 29.6628 61.009 29.6628 60.315C29.6628 59.6218 29.0987 59.0586 28.4055 59.0586V42.0954L27.1492 40.839V29.5302L28.4055 28.2739L23.3793 25.7603C23.3793 21.6114 21.3631 17.9375 18.265 15.6509L16.5246 2.30803C16.8689 2.08382 17.0976 1.69766 17.0976 1.25634C17.0967 0.563217 16.5353 0 15.8404 0C15.1455 0 14.584 0.562328 14.584 1.25634C14.584 1.69944 14.8118 2.08471 15.157 2.30803L13.4167 15.6491C10.3167 17.9358 8.30233 21.6087 8.30233 25.7585L3.27609 28.2721L4.53332 29.5284V40.8373L3.27609 42.0936V59.056C2.58296 59.056 2.01975 59.6183 2.01975 60.3123C2.01975 61.0054 2.58207 61.5686 3.27609 61.5686V81.0446C2.58296 81.0446 2.01975 81.6069 2.01975 82.3009C2.01975 82.9593 2.5278 83.4941 3.17287 83.5475L0.132568 120H31.5455H31.5473ZM13.3277 57.175V47.7516C13.3277 46.3636 14.4532 45.238 15.8413 45.238C17.2293 45.238 18.3548 46.3636 18.3548 47.7516V57.175H13.3286H13.3277ZM17.0967 64.7139C17.0967 65.4088 16.5344 65.9703 15.8404 65.9703C15.1472 65.9703 14.584 65.408 14.584 64.7139C14.584 64.0208 15.1464 63.4576 15.8404 63.4576C16.5335 63.4576 17.0967 64.0199 17.0967 64.7139ZM16.4685 107.436H15.2122V101.153H16.4685V107.436ZM16.4685 94.8696H15.2122V88.5871H16.4685V94.8696ZM17.7258 78.5355H13.955V70.3675C13.955 69.3273 14.7994 68.4838 15.8404 68.4838C16.8814 68.4838 17.7258 69.3282 17.7258 70.3675V78.5355ZM24.6365 107.437H23.3802V101.154H24.6365V107.437ZM24.6365 94.8705H23.3802V88.588H24.6365V94.8705ZM25.8929 78.5363H22.1238V70.3684C22.1238 69.3282 22.9691 68.4847 24.0075 68.4847C25.0485 68.4847 25.8929 69.3291 25.8929 70.3684V78.5363ZM22.7529 64.7157C22.7529 64.0208 23.3152 63.4594 24.0075 63.4594C24.7024 63.4594 25.2647 64.0217 25.2647 64.7157C25.2647 65.4088 24.7024 65.9721 24.0075 65.9721C23.3143 65.973 22.7529 65.4106 22.7529 64.7157ZM22.7529 32.0456H25.2665V38.9572H22.7529V32.0456ZM21.4939 47.7534C21.4939 46.3653 22.6221 45.2398 24.0075 45.2398C25.3955 45.2398 26.521 46.3653 26.521 47.7534V57.1768H21.4948V47.7534H21.4939ZM20.8675 110.578V116.861H18.3539V110.578H20.8675ZM15.8413 30.7892C17.5763 30.7892 18.9812 32.1968 18.9812 33.9301C18.9812 35.6651 17.5745 37.0709 15.8413 37.0709C14.1062 37.0709 12.7004 35.6633 12.7004 33.9301C12.7004 32.1968 14.1071 30.7892 15.8413 30.7892ZM8.30233 107.437H7.04599V101.154H8.30233V107.437ZM8.30233 94.8705H7.04599V88.588H8.30233V94.8705ZM9.55867 78.5363H5.78966V70.3684C5.78966 69.3282 6.63404 68.4847 7.67505 68.4847C8.71518 68.4847 9.56045 69.3291 9.56045 70.3684V78.5363H9.55956H9.55867ZM6.41782 64.7157C6.41782 64.0208 6.98015 63.4594 7.67416 63.4594C8.36729 63.4594 8.9305 64.0217 8.9305 64.7157C8.9305 65.4088 8.36818 65.9721 7.67416 65.9721C6.98104 65.9721 6.41782 65.4106 6.41782 64.7157ZM6.41782 32.0456H8.93139V38.9572H6.41782V32.0456ZM5.16149 47.7534C5.16149 46.3653 6.28703 45.2398 7.67505 45.2398C9.06308 45.2398 10.1886 46.3653 10.1886 47.7534V57.1768H5.16237V47.7534H5.16149Z" fill="white"/>
</svg>
