<svg width="38" height="120" viewBox="0 0 38 120" fill="none" xmlns="http://www.w3.org/2000/svg">
<path fill-rule="evenodd" clip-rule="evenodd" d="M26.2873 0C25.8338 0.303358 25.7572 1.20424 25.7746 1.94782L25.7449 6.23569C25.1239 6.29289 24.984 6.47981 25.0105 6.86896C25.032 7.19173 25.2649 7.36843 25.4855 7.41337L25.4426 16.9308C23.7757 16.9625 24.2925 18.4864 25.0596 18.4864L25.0575 24.2819C23.2936 24.2033 23.3977 25.8528 24.5703 25.7895L24.5407 36.9249C23.7562 37.9381 23.0045 39.03 22.7042 40.1219H29.7826C29.5047 39.031 28.8183 37.9381 28.0339 36.9249L28.0043 25.7895C29.1769 25.8528 29.281 24.2033 27.5171 24.2819L27.515 18.4864C28.2831 18.4864 28.7989 16.9625 27.132 16.9308L27.0891 7.41337C27.3097 7.36843 27.5426 7.19173 27.5641 6.86896C27.5906 6.47878 27.4507 6.29289 26.8297 6.23569L26.8 1.94782C26.8174 1.20424 26.7408 0.304379 26.2873 0V0ZM22.1097 40.8113L22.1128 44.182L22.3539 44.1902H30.1257L30.3668 44.182L30.3699 40.8113H22.1097ZM22.6286 44.8796C22.8339 46.8693 23.9319 48.2288 25.0054 49.5066L25.031 108.15L27.5436 108.561L27.5702 49.5066C28.6519 48.2176 29.5517 47.0286 29.8234 44.8796H22.6286Z" fill="white"/>
<path d="M27.0268 49.9621C26.7745 49.6629 26.8133 49.2155 27.1126 48.9632C27.4119 48.7109 27.8592 48.7497 28.1115 49.049C29.8224 51.0836 30.6262 53.1949 30.6252 55.3368C30.6242 57.5614 29.755 59.784 28.134 61.9575C24.2394 67.18 22.7849 70.9909 22.7216 74.0898C22.6593 77.1356 23.9656 79.5594 25.6081 81.9914C25.6173 82.0047 25.6254 82.018 25.6326 82.0302L32.7773 93.1687C33.6516 93.1472 34.3891 93.28 34.9284 93.5711C35.7629 94.0215 36.1602 94.7723 35.9672 95.8335C35.5852 97.9397 34.2808 100.008 32.5097 101.756C30.6324 103.608 28.2157 105.118 25.8205 105.931C25.7439 105.957 25.6734 105.978 25.607 105.996C24.843 106.191 23.7205 106.15 22.741 105.889C21.6624 105.603 20.7094 105.033 20.4193 104.179C20.4142 104.164 20.4081 104.144 20.4009 104.118C20.3928 104.097 20.3866 104.074 20.3805 104.051C19.496 100.583 22.2711 99.8906 25.4916 99.0857C28.2147 98.4054 31.3239 97.6281 31.9939 94.6569C31.9112 94.6681 31.8274 94.6804 31.7416 94.6947C30.5261 94.8918 29.0768 95.3514 27.5498 96.0623C22.0771 98.6087 15.7178 104.33 15.6739 112.656C15.6728 113.048 15.3531 113.364 14.9619 113.363C14.5697 113.362 14.2541 113.042 14.2551 112.651C14.3031 103.645 21.1037 97.4943 26.9553 94.7713C28.4721 94.0655 29.9337 93.5875 31.2044 93.3464L24.4375 82.7983L24.4304 82.7871C22.6501 80.1508 21.2344 77.5013 21.3049 74.0612C21.3733 70.6753 22.9034 66.5917 26.9951 61.1057C28.4353 59.1742 29.2075 57.2356 29.2075 55.3358C29.2085 53.5289 28.5109 51.7251 27.0278 49.9601L27.0268 49.9621ZM33.4504 94.6068L33.4494 94.6089C32.7671 98.7353 29.0645 99.6607 25.8358 100.468C23.361 101.086 21.2293 101.619 21.7604 103.701L21.7666 103.724C21.882 104.065 22.4417 104.34 23.1036 104.515C23.8645 104.718 24.7082 104.757 25.2577 104.617C25.3037 104.605 25.3394 104.594 25.365 104.586C27.563 103.839 29.7846 102.451 31.5138 100.744C33.0899 99.1889 34.2441 97.383 34.5699 95.5843C34.6363 95.2176 34.5147 94.9664 34.2543 94.8254C34.0469 94.713 33.7752 94.6405 33.4494 94.6068H33.4504Z" fill="white"/>
<path d="M1.00951 118.263C0.628529 118.354 0.24448 118.121 0.152553 117.74C0.0606267 117.359 0.294529 116.975 0.675514 116.883C9.08272 114.832 16.9057 111.374 22.9534 107.534C29.2913 103.509 33.6373 99.1071 34.5832 95.5281C34.6833 95.1481 35.0714 94.9214 35.4514 95.0215C35.8313 95.1216 36.0581 95.5097 35.958 95.8897C34.9192 99.818 30.3464 104.525 23.7164 108.735C17.5553 112.647 9.58218 116.17 1.01054 118.262L1.00951 118.263Z" fill="white"/>
<path d="M22.5521 71.6681C21.7227 77.296 20.8678 83.7054 20.2651 90.3517C19.6625 97.0031 19.3101 103.904 19.4858 110.518L19.0129 110.53C18.8372 103.896 19.1906 96.9775 19.7943 90.3088C20.3989 83.6349 21.2539 77.2225 22.0832 71.5986L22.5521 71.6671V71.6681Z" fill="white"/>
<path d="M31.4882 108H23.2342C22.946 108 22.7123 108.234 22.7123 108.522V108.673C22.7123 108.961 22.946 109.195 23.2342 109.195H31.4882C31.7765 109.195 32.0101 108.961 32.0101 108.673V108.522C32.0101 108.234 31.7765 108 31.4882 108Z" fill="white"/>
<path d="M33.9264 111.456H19.5399C19.0367 111.456 18.6288 111.69 18.6288 111.978V112.128C18.6288 112.416 19.0367 112.65 19.5399 112.65H33.9264C34.4296 112.65 34.8375 112.416 34.8375 112.128V111.978C34.8375 111.69 34.4296 111.456 33.9264 111.456Z" fill="white"/>
<path d="M36.3747 114.911H15.9905C15.278 114.911 14.7004 115.145 14.7004 115.433V115.583C14.7004 115.872 15.278 116.105 15.9905 116.105H36.3747C37.0872 116.105 37.6647 115.872 37.6647 115.583V115.433C37.6647 115.145 37.0872 114.911 36.3747 114.911Z" fill="white"/>
<path d="M23.9984 69.3341L26.1995 74.5126L22.8227 77.6504L26.2526 83.9014L20.5072 88.6744L25.2189 95.426L24.8308 95.6966L19.8708 88.5887L25.65 83.787L22.2303 77.5554L25.6326 74.3921L23.5622 69.519L23.9984 69.3341Z" fill="white"/>
<path d="M20.1885 88.3946L26.2924 88.3517L26.2934 88.8246L20.1895 88.8685L20.1885 88.3946Z" fill="white"/>
<path d="M19.6062 95.4055L25.0217 95.3248L25.0278 95.7977L19.6123 95.8784L19.6062 95.4055Z" fill="white"/>
<path d="M29.7477 108.672H22.7123V112.084H29.7477V108.672Z" fill="white"/>
<path d="M33.8948 112.65H19.5706V116.105H33.8948V112.65Z" fill="white"/>
<path d="M19.5706 112.602H33.9418V116.152H19.5226V112.602H19.5696H19.5706ZM33.8468 112.697H19.6176V116.057H33.8468V112.697Z" fill="white"/>
<path d="M36.533 115.854H15.6432V120H36.533V115.854Z" fill="white"/>
</svg>
