<svg width="58" height="120" viewBox="0 0 58 120" fill="none" xmlns="http://www.w3.org/2000/svg">
<path d="M10.7503 25.0236V14.9383H13.142C13.9537 14.9383 14.5469 15.1276 14.9237 15.5072C15.3004 15.8867 15.4907 16.4697 15.4907 17.2579V17.6178C15.4907 18.6478 15.1496 19.3254 14.4654 19.6496C15.2555 19.9542 15.6491 20.6721 15.6491 21.808V22.6319C15.6491 23.4097 15.4448 24.003 15.0371 24.4116C14.6285 24.8202 14.0305 25.0236 13.2433 25.0236H10.7512H10.7503ZM9.93864 29.3254H57.5594V29.4492V33.0499V37.0237V42.0847V120H56.043H54.5266H39.5715H3.16539H0.132568V37.3958V37.1474V37.0237H54.5276V33.0499H9.93958V29.3245L9.93864 29.3254ZM39.5705 42.0856V116.378H43.356V42.0856H39.5705ZM45.5978 42.0856V116.378H48.8255V42.0856H45.5978ZM51.0674 42.0856V116.378H54.5257V42.0856H51.0674ZM10.8627 116.378H13.1046V42.7698H10.8627V116.378ZM16.3323 116.378H18.5741V42.7698H16.3323V116.378ZM23.5292 116.378H25.771V42.7698H23.5292V116.378ZM28.9988 116.378H31.2406V42.7698H28.9988V116.378ZM34.4815 25.0246V14.9392H36.0663V23.5841H37.8676V14.9392H39.4525V23.6122H40.1441V26.3788H38.5593V25.0246H34.4824H34.4815ZM22.3089 10.0854V0H23.8938V4.32243H25.6951V0H27.2799V10.0854H25.6951V5.76293H23.8938V10.0854H22.3089ZM28.8901 17.7293V7.64392H33.2125V9.08442H30.4749V11.8942H32.6361V13.3347H30.4749V16.2878H33.2125V17.7283H28.8901V17.7293ZM16.4092 17.7293V7.64392H20.7316V9.08442H17.994V11.8942H20.1552V13.3347H17.994V16.2878H20.7316V17.7283H16.4092V17.7293ZM12.3351 23.5841H13.2423C13.5188 23.5841 13.725 23.51 13.859 23.3582C13.9958 23.2092 14.0633 22.9524 14.0633 22.5925V21.7115C14.0633 21.2532 13.9837 20.9336 13.8281 20.7537C13.6716 20.5756 13.4101 20.4875 13.0455 20.4875H12.3351V23.585V23.5841ZM12.3351 19.0461H12.9546C13.2695 19.0461 13.5066 18.9645 13.665 18.8033C13.8262 18.6421 13.9049 18.3685 13.9049 17.9842V17.42C13.9049 17.0601 13.8421 16.7958 13.7156 16.6299C13.5882 16.464 13.3838 16.3806 13.1036 16.3806H12.3351V19.0461Z" fill="white"/>
</svg>
