<svg width="36" height="120" viewBox="0 0 36 120" fill="none" xmlns="http://www.w3.org/2000/svg">
<path fill-rule="evenodd" clip-rule="evenodd" d="M17.5669 72.1724C14.0209 72.2505 11.1848 75.1502 11.1848 78.6977C11.1848 78.7137 11.1848 78.7304 11.1848 78.7462C11.1851 82.3509 14.1084 85.2742 17.7133 85.2742C21.3182 85.2742 24.2415 82.3509 24.2415 78.746C24.2418 78.7302 24.2418 78.7134 24.2418 78.6974C24.2418 75.0933 21.3189 72.1704 17.7148 72.1704C17.6662 72.1704 17.6145 72.1712 17.5667 72.1721H17.5669V72.1724ZM18.2882 75.4303C18.2961 75.4301 18.3039 75.4299 18.3118 75.4299C18.7339 75.4299 19.0776 75.7701 19.0818 76.1922V78.7228L21.2766 79.9854C21.4936 80.1278 21.6247 80.3705 21.6247 80.6302C21.6247 81.056 21.2795 81.4012 20.8537 81.4012C20.732 81.4012 20.612 81.3724 20.5036 81.3172L17.5472 79.6126V76.1922C17.5514 75.7807 17.8784 75.4451 18.2894 75.4303H18.2884H18.2882ZM24.3788 81.5848C30.861 81.5848 23.0122 81.5848 24.3788 81.5848V81.5848Z" fill="white"/>
<path fill-rule="evenodd" clip-rule="evenodd" d="M5.92358 68.4692V89.0211H29.5062V68.4692H5.92358ZM17.5462 70.6107C17.6017 70.61 17.6598 70.609 17.7158 70.609C22.1703 70.609 25.7831 74.2216 25.7831 78.6761C25.7831 78.6987 25.7831 78.7224 25.7831 78.745C25.7828 83.2003 22.1698 86.8128 17.7148 86.8128C13.2598 86.8128 9.647 83.2 9.647 78.745C9.64676 78.7224 9.64676 78.6987 9.64676 78.6761C9.64676 74.2864 13.1588 70.7014 17.5465 70.6107L17.5462 70.6105V70.6107Z" fill="white"/>
<path fill-rule="evenodd" clip-rule="evenodd" d="M12.9503 3.4642H12.9501C12.8111 3.4642 12.6985 3.57681 12.6985 3.71578C12.6985 3.79783 12.7387 3.87496 12.8059 3.92177L15.6366 5.9041L14.4541 9.15196C14.444 9.1798 14.4388 9.20913 14.4388 9.23845C14.4388 9.37742 14.5514 9.49003 14.6904 9.49003C14.7424 9.49003 14.7932 9.47376 14.8356 9.44395L17.686 7.44832L20.5351 9.44395C20.5775 9.47376 20.6283 9.49003 20.6803 9.49003C20.8192 9.49003 20.9318 9.37742 20.9318 9.23845C20.9318 9.20913 20.9267 9.1798 20.9166 9.15196L19.7341 5.9041L22.5648 3.92177C22.632 3.87471 22.6722 3.79783 22.6722 3.71553C22.6722 3.57656 22.5596 3.46396 22.4206 3.46396H22.4204H18.965L17.925 0.167555C17.8895 0.067022 17.7944 0 17.6879 0C17.5815 0 17.4864 0.067022 17.4509 0.167555L16.4108 3.46396H12.9503V3.4642Z" fill="white"/>
<path fill-rule="evenodd" clip-rule="evenodd" d="M35.295 90.5615V119.999H25.1545V110.079C25.1545 105.97 21.8223 102.638 17.7133 102.638C13.6042 102.638 10.2721 105.97 10.2721 110.079V119.999H0.132568V90.5615H35.2947H35.295Z" fill="white"/>
<path fill-rule="evenodd" clip-rule="evenodd" d="M11.8147 119.999H23.6158V110.08C23.6158 106.822 20.9733 104.18 17.7151 104.18C14.4569 104.18 11.8147 106.822 11.8147 110.08V120V119.999Z" fill="white"/>
<path fill-rule="evenodd" clip-rule="evenodd" d="M12.9526 58.0394H9.0022V41.4966H12.9526V58.0394Z" fill="white"/>
<path fill-rule="evenodd" clip-rule="evenodd" d="M20.9352 58.0394V41.4966H14.4905V58.0394H20.9352Z" fill="white"/>
<path fill-rule="evenodd" clip-rule="evenodd" d="M26.4254 58.0394V41.4966H22.4763V58.0394H26.4254Z" fill="white"/>
<path fill-rule="evenodd" clip-rule="evenodd" d="M9.0022 59.5776H26.4267V66.9299H9.0022V59.5776Z" fill="white"/>
<path fill-rule="evenodd" clip-rule="evenodd" d="M17.7134 11.6211L12.1077 39.9554H23.3213L17.7134 11.6211Z" fill="white"/>
</svg>
