<svg width="1093" height="382" viewBox="0 0 1093 382" fill="none" xmlns="http://www.w3.org/2000/svg">
<line x1="22.1299" y1="30.8397" x2="22.1299" y2="219.328" stroke="#5F9FC7"/>
<path d="M113.814 349.107L113.814 216.238" stroke="#5F9FC7"/>
<path d="M205.998 30.8397L205.998 210.058" stroke="#5F9FC7"/>
<path d="M296.637 347.047L296.637 203.878" stroke="#5F9FC7"/>
<line x1="388.806" y1="30.8397" x2="388.806" y2="196.668" stroke="#5F9FC7"/>
<line x1="479.476" y1="349.107" x2="479.476" y2="184.308" stroke="#5F9FC7"/>
<path d="M571.645 30.8397L572.675 171.948" stroke="#5F9FC7"/>
<path d="M664.344 349.107L664.344 155.469" stroke="#5F9FC7"/>
<path d="M754.983 30.8397L754.983 129.719" stroke="#5F9FC7"/>
<path d="M846.652 348.077L846.652 103.969" stroke="#5F9FC7"/>
<path d="M938.322 30.8397L938.322 120.449" stroke="#5F9FC7"/>
<path d="M0 216.238C369.767 216.238 720 183 1092 1" stroke="white" stroke-width="2"/>
<circle cx="22.1449" cy="215.723" r="5.19494" fill="#4A79BD" stroke="#BFA082" stroke-width="3"/>
<circle cx="113.814" cy="215.723" r="5.19494" fill="#4A79BD" stroke="#BFA082" stroke-width="3"/>
<circle cx="206.513" cy="210.573" r="5.19494" fill="#4A79BD" stroke="#BFA082" stroke-width="3"/>
<circle cx="297.152" cy="204.393" r="5.19494" fill="#4A79BD" stroke="#BFA082" stroke-width="3"/>
<circle cx="388.821" cy="196.153" r="5.19494" fill="#4A79BD" stroke="#BFA082" stroke-width="3"/>
<circle cx="480.491" cy="187.913" r="5.19494" fill="#4A79BD" stroke="#BFA082" stroke-width="3"/>
<circle cx="573.19" cy="171.373" r="5.19494" fill="#4A79BD" stroke="#BFA082" stroke-width="3"/>
<circle cx="663.829" cy="152.894" r="5.19494" fill="#4A79BD" stroke="#BFA082" stroke-width="3"/>
<circle cx="755.498" cy="130.234" r="5.19494" fill="#4A79BD" stroke="#BFA082" stroke-width="3"/>
<circle cx="847.167" cy="100.454" r="5.19494" fill="#4A79BD" stroke="#BFA082" stroke-width="3"/>
<circle cx="938.866" cy="67.4044" r="5.19494" fill="#4A79BD" stroke="#BFA082" stroke-width="3"/>
</svg>
