<svg width="72" height="60" viewBox="0 0 72 60" fill="none" xmlns="http://www.w3.org/2000/svg">
<path d="M52.7988 31.4011H62.2416C62.539 31.4011 62.8242 31.283 63.0345 31.0727C63.2449 30.8623 63.363 30.5771 63.363 30.2797C63.363 29.9822 63.2449 29.697 63.0345 29.4867C62.8242 29.2764 62.539 29.1582 62.2416 29.1582H53.4212C53.2601 29.9179 53.0523 30.667 52.7988 31.4011Z" fill="#BFA082"/>
<path d="M50.5669 35.887H62.2413C62.5388 35.887 62.824 35.7688 63.0343 35.5585C63.2446 35.3482 63.3628 35.0629 63.3628 34.7655C63.3628 34.4681 63.2446 34.1828 63.0343 33.9725C62.824 33.7622 62.5388 33.644 62.2413 33.644H51.8678C51.4856 34.4203 51.0509 35.1697 50.5669 35.887Z" fill="#BFA082"/>
<path d="M46.333 40.3728H62.241C62.5384 40.3728 62.8237 40.2547 63.034 40.0443C63.2443 39.834 63.3624 39.5488 63.3624 39.2513C63.3624 38.9539 63.2443 38.6687 63.034 38.4584C62.8237 38.248 62.5384 38.1299 62.241 38.1299H48.7834C48.0329 38.9469 47.213 39.6973 46.333 40.3728Z" fill="#BFA082"/>
<path d="M2.24293 3.36439C2.24293 3.06696 2.36108 2.78171 2.5714 2.5714C2.78171 2.36108 3.06696 2.24293 3.36439 2.24293H31.401C31.6984 2.24293 31.9837 2.12477 32.194 1.91446C32.4043 1.70414 32.5224 1.41889 32.5224 1.12146C32.5224 0.824033 32.4043 0.538785 32.194 0.328469C31.9837 0.118154 31.6984 0 31.401 0H3.36439C2.4721 0 1.61635 0.354462 0.985407 0.985407C0.354462 1.61635 0 2.4721 0 3.36439L0 40.3727L2.24293 38.7634V3.36439Z" fill="#BFA082"/>
<path d="M68.4091 4.50652e-06H38.2866C37.3552 -0.00148584 36.4612 0.366731 35.8009 1.02381C35.1407 1.68088 34.7682 2.57311 34.7652 3.50458V8.41098C31.69 8.41105 28.6737 9.25409 26.044 10.8485C23.4144 12.4429 21.2722 14.7276 19.8501 17.4543C18.4281 20.181 17.7808 23.2453 17.9784 26.3141C18.1761 29.383 19.2112 32.339 20.9712 34.8607L19.4573 36.0663L17.4442 33.4645C17.0574 32.9596 16.4868 32.628 15.8567 32.5419C15.2266 32.4558 14.5879 32.6221 14.0798 33.0047L0.689562 42.6156C0.455515 42.7918 0.299679 43.0525 0.25538 43.3421C0.211081 43.6316 0.281835 43.927 0.452511 44.1651C0.623188 44.4032 0.880238 44.565 1.16869 44.616C1.45715 44.667 1.75411 44.6031 1.99607 44.438L15.4256 34.8046C15.4615 34.7769 15.5068 34.7644 15.5519 34.7696C15.5969 34.7748 15.6381 34.7975 15.6667 34.8327L21.274 42.0549C21.288 42.0719 21.2982 42.0917 21.304 42.113C21.3098 42.1342 21.311 42.1565 21.3077 42.1783C21.3033 42.2196 21.2832 42.2578 21.2516 42.2848L0.448447 57.9797C0.210503 58.1589 0.0534916 58.4253 0.0119543 58.7202C-0.0295829 59.0152 0.0477563 59.3146 0.226958 59.5525C0.40616 59.7905 0.672546 59.9475 0.967513 59.989C1.26248 60.0306 1.56187 59.9532 1.79981 59.774L22.6086 44.0735C23.1108 43.6843 23.4392 43.1125 23.5221 42.4825C23.6051 41.8524 23.436 41.2151 23.0515 40.7091L20.8086 37.8382L22.3562 36.6102C24.182 38.6032 26.4612 40.1269 29.0007 41.0522C31.5403 41.9776 34.2654 42.2774 36.9454 41.9263C39.6253 41.5752 42.1812 40.5835 44.3967 39.0351C46.6121 37.4867 48.4218 35.4273 49.6725 33.0312C50.9233 30.6352 51.5782 27.973 51.582 25.2701C51.5857 22.5672 50.9381 19.9033 49.6939 17.5037C48.4498 15.1042 46.6458 13.0398 44.4346 11.4854C42.2235 9.93089 39.6703 8.93211 36.9913 8.57359V3.52701C36.9898 3.35701 37.0224 3.18842 37.0871 3.03121C37.1518 2.87399 37.2473 2.73133 37.368 2.61164C37.4888 2.49195 37.6322 2.39766 37.79 2.33433C37.9478 2.27101 38.1166 2.23993 38.2866 2.24293H68.2577C68.5934 2.24292 68.9155 2.37548 69.1539 2.61177C69.3922 2.84806 69.5276 3.16894 69.5306 3.50458V43.5969C69.5276 43.9335 69.3915 44.2552 69.1519 44.4917C68.9123 44.7281 68.5888 44.86 68.2521 44.8586H24.9468C24.6747 45.2442 24.3457 45.5863 23.9711 45.8735L22.3394 47.1015H30.8401V51.0266H26.3543C26.0568 51.0266 25.7716 51.1448 25.5613 51.3551C25.3509 51.5654 25.2328 51.8506 25.2328 52.1481C25.2328 52.4455 25.3509 52.7307 25.5613 52.9411C25.7716 53.1514 26.0568 53.2695 26.3543 53.2695H45.4191C45.7166 53.2695 46.0018 53.1514 46.2121 52.9411C46.4224 52.7307 46.5406 52.4455 46.5406 52.1481C46.5406 51.8506 46.4224 51.5654 46.2121 51.3551C46.0018 51.1448 45.7166 51.0266 45.4191 51.0266H40.9333V47.1015H68.4091C69.3014 47.1015 70.1572 46.747 70.7881 46.1161C71.4191 45.4851 71.7735 44.6294 71.7735 43.7371V3.3644C71.7735 2.4721 71.4191 1.61636 70.7881 0.985412C70.1572 0.354466 69.3014 4.50652e-06 68.4091 4.50652e-06ZM49.3443 25.2329C49.3443 28.1164 48.4892 30.9351 46.8873 33.3326C45.2853 35.7301 43.0084 37.5987 40.3444 38.7022C37.6804 39.8057 34.7491 40.0944 31.921 39.5318C29.093 38.9693 26.4952 37.5808 24.4563 35.5419C22.4174 33.5029 21.0289 30.9052 20.4663 28.0772C19.9038 25.2491 20.1925 22.3178 21.296 19.6538C22.3994 16.9898 24.2681 14.7129 26.6656 13.1109C29.0631 11.509 31.8818 10.6539 34.7652 10.6539C36.6798 10.6539 38.5756 11.031 40.3444 11.7637C42.1132 12.4963 43.7204 13.5702 45.0742 14.924C46.4279 16.2778 47.5018 17.885 48.2345 19.6538C48.9672 21.4226 49.3443 23.3184 49.3443 25.2329ZM33.083 51.0266V47.1015H38.6904V51.0266H33.083Z" fill="#BFA082"/>
<path d="M33.9747 14.0184C31.8259 14.4669 29.8546 15.5322 28.3019 17.0838C26.7493 18.6355 25.6828 20.6062 25.2329 22.7546C25.1985 22.9021 25.1944 23.055 25.2207 23.2042C25.247 23.3533 25.3032 23.4956 25.386 23.6224C25.4688 23.7492 25.5764 23.8579 25.7024 23.942C25.8283 24.0261 25.97 24.0838 26.1189 24.1116C26.1971 24.1199 26.2761 24.1199 26.3544 24.1116C26.6152 24.1174 26.8698 24.0321 27.0745 23.8704C27.2792 23.7087 27.4211 23.4807 27.4758 23.2257C27.8398 21.5171 28.6906 19.9503 29.9254 18.7145C31.1601 17.4787 32.7262 16.6268 34.4345 16.2614C34.7319 16.2004 34.993 16.0238 35.1602 15.7703C35.3274 15.5169 35.387 15.2074 35.3261 14.91C35.2651 14.6126 35.0885 14.3515 34.835 14.1843C34.5816 14.0171 34.2721 13.9575 33.9747 14.0184Z" fill="#BFA082"/>
<path d="M25.7938 28.5974C26.4132 28.5974 26.9153 28.0953 26.9153 27.476C26.9153 26.8566 26.4132 26.3545 25.7938 26.3545C25.1745 26.3545 24.6724 26.8566 24.6724 27.476C24.6724 28.0953 25.1745 28.5974 25.7938 28.5974Z" fill="#BFA082"/>
<path d="M9.5326 6.729C9.23517 6.729 8.94992 6.84716 8.7396 7.05747C8.52929 7.26779 8.41113 7.55304 8.41113 7.85047V16.8222C8.41113 17.1196 8.52929 17.4049 8.7396 17.6152C8.94992 17.8255 9.23517 17.9436 9.5326 17.9436C9.83003 17.9436 10.1153 17.8255 10.3256 17.6152C10.5359 17.4049 10.6541 17.1196 10.6541 16.8222V8.97193H19.6258C19.9232 8.97193 20.2084 8.85378 20.4188 8.64346C20.6291 8.43315 20.7472 8.1479 20.7472 7.85047C20.7472 7.55304 20.6291 7.26779 20.4188 7.05747C20.2084 6.84716 19.9232 6.729 19.6258 6.729H9.5326Z" fill="#BFA082"/>
<path d="M53.7515 26.9153H62.2409C62.5384 26.9153 62.8236 26.7971 63.0339 26.5868C63.2443 26.3765 63.3624 26.0913 63.3624 25.7938C63.3624 25.4964 63.2443 25.2111 63.0339 25.0008C62.8236 24.7905 62.5384 24.6724 62.2409 24.6724H53.83C53.83 24.8574 53.83 25.0424 53.83 25.2331C53.83 25.7938 53.8019 26.3546 53.7515 26.9153Z" fill="#BFA082"/>
<path d="M62.2411 22.4295C62.5385 22.4295 62.8237 22.3113 63.0341 22.101C63.2444 21.8907 63.3625 21.6054 63.3625 21.308C63.3625 21.0106 63.2444 20.7253 63.0341 20.515C62.8237 20.3047 62.5385 20.1865 62.2411 20.1865H53.146C53.3502 20.9238 53.5093 21.6728 53.6226 22.4295H62.2411Z" fill="#BFA082"/>
<path d="M62.2411 17.9436C62.5385 17.9436 62.8238 17.8255 63.0341 17.6151C63.2444 17.4048 63.3626 17.1196 63.3626 16.8221C63.3626 16.5247 63.2444 16.2395 63.0341 16.0292C62.8238 15.8188 62.5385 15.7007 62.2411 15.7007H51.2676C51.6904 16.4228 52.065 17.1721 52.389 17.9436H62.2411Z" fill="#BFA082"/>
<path d="M62.2411 13.4578C62.5386 13.4578 62.8238 13.3396 63.0341 13.1293C63.2444 12.919 63.3626 12.6337 63.3626 12.3363C63.3626 12.0389 63.2444 11.7536 63.0341 11.5433C62.8238 11.333 62.5386 11.2148 62.2411 11.2148H47.6621C48.412 11.9063 49.1058 12.6563 49.7368 13.4578H62.2411Z" fill="#BFA082"/>
<path d="M63.3628 7.85047C63.3628 7.55304 63.2447 7.26779 63.0344 7.05747C62.824 6.84716 62.5388 6.729 62.2414 6.729H44.2979C44.1251 6.7295 43.9547 6.76994 43.8001 6.84717C43.6454 6.9244 43.5108 7.03632 43.4065 7.17421C43.3023 7.31209 43.2313 7.4722 43.1992 7.64204C43.1671 7.81187 43.1747 7.98684 43.2213 8.15326C43.7297 8.40746 44.2232 8.68035 44.7017 8.97193H62.2414C62.5388 8.97193 62.824 8.85378 63.0344 8.64346C63.2447 8.43315 63.3628 8.1479 63.3628 7.85047Z" fill="#BFA082"/>
</svg>
