<svg width="56" height="60" viewBox="0 0 56 60" fill="none" xmlns="http://www.w3.org/2000/svg">
<path d="M56 48V15C55.9984 13.6744 55.4711 12.4036 54.5338 11.4662C53.5964 10.5289 52.3256 10.0016 51 10H30V12H51C51.7956 12 52.5587 12.3161 53.1213 12.8787C53.6839 13.4413 54 14.2044 54 15V48C54 48.7957 53.6839 49.5587 53.1213 50.1213C52.5587 50.6839 51.7956 51 51 51H47V53H51C52.3256 52.9984 53.5964 52.4711 54.5338 51.5338C55.4711 50.5964 55.9984 49.3256 56 48Z" fill="#BFA082"/>
<path d="M4 26V48C4.00159 49.3256 4.52888 50.5964 5.46622 51.5338C6.40356 52.4711 7.67441 52.9984 9 53H18V51H9C8.20435 51 7.44129 50.6839 6.87868 50.1213C6.31607 49.5587 6 48.7956 6 48V26H4Z" fill="#BFA082"/>
<path d="M43 14H41V16H43V14Z" fill="#BFA082"/>
<path d="M47 14H45V16H47V14Z" fill="#BFA082"/>
<path d="M51 14H49V16H51V14Z" fill="#BFA082"/>
<path d="M51 18H30V20H51V18Z" fill="#BFA082"/>
<path d="M5 24H11.713L19.47 28.848C19.6359 28.9517 19.8286 29.0045 20.0242 28.9999C20.2197 28.9952 20.4097 28.9332 20.5704 28.8217C20.7311 28.7101 20.8556 28.5539 20.9284 28.3723C21.0012 28.1907 21.0192 27.9917 20.98 27.8L20.22 24H23C24.3256 23.9984 25.5964 23.4711 26.5338 22.5338C27.4711 21.5964 27.9984 20.3256 28 19V5C27.9984 3.67441 27.4711 2.40356 26.5338 1.46622C25.5964 0.528882 24.3256 0.00158786 23 0H5C3.67441 0.00158786 2.40356 0.528882 1.46622 1.46622C0.528882 2.40356 0.00158786 3.67441 0 5V19C0.00158786 20.3256 0.528882 21.5964 1.46622 22.5338C2.40356 23.4711 3.67441 23.9984 5 24ZM2 5C2 4.20435 2.31607 3.44129 2.87868 2.87868C3.44129 2.31607 4.20435 2 5 2H23C23.7956 2 24.5587 2.31607 25.1213 2.87868C25.6839 3.44129 26 4.20435 26 5V19C26 19.7956 25.6839 20.5587 25.1213 21.1213C24.5587 21.6839 23.7956 22 23 22H19C18.8517 22 18.7052 22.0329 18.5712 22.0965C18.4373 22.16 18.3191 22.2526 18.2253 22.3675C18.1315 22.4823 18.0644 22.6166 18.0289 22.7606C17.9934 22.9046 17.9903 23.0547 18.02 23.2L18.565 25.928L12.53 22.152C12.3711 22.0527 12.1874 22 12 22H5C4.20435 22 3.44129 21.6839 2.87868 21.1213C2.31607 20.5587 2 19.7956 2 19V5Z" fill="#BFA082"/>
<path d="M12.2459 18H12.9999V20H14.9999V18H15.7539C16.5496 18.0049 17.3194 17.7173 17.917 17.192C18.5146 16.6666 18.8984 15.94 18.9956 15.1502C19.0927 14.3605 18.8963 13.5625 18.4438 12.908C17.9913 12.2535 17.3141 11.788 16.5409 11.6L11.9409 10.452C11.6466 10.3776 11.3894 10.1984 11.2178 9.94801C11.0461 9.69759 10.9717 9.39315 11.0086 9.09179C11.0454 8.79043 11.1909 8.51285 11.4177 8.31111C11.6446 8.10937 11.9373 7.99733 12.2409 7.996H15.7489C15.9133 7.99547 16.0761 8.02744 16.228 8.09006C16.38 8.15268 16.5181 8.24471 16.6343 8.36088C16.7506 8.47704 16.8427 8.61504 16.9055 8.76695C16.9682 8.91885 17.0003 9.08165 16.9999 9.246V10H18.9999V9.246C18.9991 8.38535 18.6569 7.56018 18.0483 6.95161C17.4397 6.34304 16.6146 6.00079 15.7539 6H14.9999V4H12.9999V6H12.2459C11.4502 5.99512 10.6804 6.28268 10.0828 6.80805C9.4852 7.33342 9.10137 8.06 9.00426 8.84977C8.90714 9.63953 9.1035 10.4375 9.55603 11.092C10.0086 11.7465 10.6857 12.212 11.4589 12.4L16.0589 13.548C16.3533 13.6224 16.6104 13.8016 16.782 14.052C16.9537 14.3024 17.0281 14.6068 16.9913 14.9082C16.9544 15.2096 16.809 15.4872 16.5821 15.6889C16.3552 15.8906 16.0625 16.0027 15.7589 16.004H12.2459C12.082 16.0039 11.9197 15.9714 11.7683 15.9085C11.6169 15.8456 11.4795 15.7534 11.3637 15.6373C11.248 15.5212 11.1563 15.3835 11.0939 15.2319C11.0314 15.0803 10.9995 14.9179 10.9999 14.754V14H8.99991V14.754C9.0007 15.6146 9.34294 16.4398 9.95152 17.0484C10.5601 17.657 11.3853 17.9992 12.2459 18Z" fill="#BFA082"/>
<path d="M19.458 32.468C18.7596 33.1678 18.2843 34.059 18.0923 35.0289C17.9003 35.9988 18.0001 37.0039 18.3792 37.9171C18.7583 38.8302 19.3996 39.6105 20.2221 40.1593C21.0446 40.708 22.0113 41.0006 23 41H25V39H23C22.2044 39 21.4413 38.6839 20.8787 38.1213C20.3161 37.5587 20 36.7956 20 36C20 35.2044 20.3161 34.4413 20.8787 33.8787C21.4413 33.3161 22.2044 33 23 33H37C37.7957 33 38.5587 33.3161 39.1213 33.8787C39.6839 34.4413 40 35.2044 40 36C40 36.7956 39.6839 37.5587 39.1213 38.1213C38.5587 38.6839 37.7957 39 37 39H35V41H37C38.3261 41 39.5979 40.4732 40.5355 39.5355C41.4732 38.5979 42 37.3261 42 36C42 34.6739 41.4732 33.4021 40.5355 32.4645C39.5979 31.5268 38.3261 31 37 31H23C21.6716 31.0012 20.3978 31.5291 19.458 32.468Z" fill="#BFA082"/>
<path d="M39 25H37V29H39V25Z" fill="#BFA082"/>
<path d="M44.2937 26.2927L41.2935 29.293L42.7077 30.7072L45.7079 27.7069L44.2937 26.2927Z" fill="#BFA082"/>
<path d="M48 33H44V35H48V33Z" fill="#BFA082"/>
<path d="M21.158 55.3421L27.419 59.8131C27.5885 59.9344 27.7916 59.9998 28 60.0001H44C44.2653 60.0001 44.5196 59.8947 44.7071 59.7072C44.8947 59.5196 45 59.2653 45 59.0001V48.1071C45.0091 47.3838 44.7637 46.6804 44.3067 46.1198C43.8498 45.5592 43.2103 45.177 42.5 45.0401C42.0689 44.9686 41.6274 44.9918 41.2062 45.1082C40.785 45.2246 40.3943 45.4314 40.061 45.7141C40.041 45.7301 40.022 45.7471 40.002 45.7651C39.4526 45.2719 38.7403 44.9991 38.002 44.9991C37.2637 44.9991 36.5515 45.2719 36.002 45.7651C35.5954 45.4162 35.1057 45.1781 34.5801 45.0739C34.0546 44.9697 33.511 45.0028 33.002 45.1701V39.0001C33.0113 38.2768 32.766 37.5733 32.309 37.0126C31.852 36.4519 31.2123 36.0698 30.502 35.9331C30.0717 35.8603 29.6307 35.8824 29.2097 35.9976C28.7888 36.1129 28.3981 36.3186 28.0648 36.6005C27.7316 36.8823 27.4638 37.2334 27.2803 37.6294C27.0967 38.0254 27.0018 38.4566 27.002 38.8931V52.2341L24.348 50.6421C23.9495 50.4012 23.4963 50.2657 23.031 50.2482C22.5657 50.2307 22.1035 50.3318 21.688 50.5421L21.53 50.6201C21.1037 50.8336 20.7397 51.1537 20.4735 51.5494C20.2073 51.945 20.0479 52.4027 20.0106 52.8781C19.9734 53.3535 20.0597 53.8304 20.2611 54.2627C20.4624 54.6949 20.7721 55.0678 21.16 55.3451L21.158 55.3421ZM22.424 52.4061L22.581 52.3281C22.6958 52.2699 22.8236 52.2419 22.9522 52.2468C23.0808 52.2517 23.206 52.2893 23.316 52.3561L27.485 54.8561C27.6367 54.9472 27.8098 54.9964 27.9867 54.9988C28.1636 55.0012 28.3379 54.9566 28.492 54.8695C28.646 54.7825 28.7742 54.6562 28.8634 54.5034C28.9527 54.3507 28.9998 54.177 29 54.0001V38.8931C29.0001 38.7481 29.0317 38.6048 29.0927 38.4732C29.1536 38.3416 29.2425 38.2249 29.353 38.1311C29.4647 38.0348 29.5964 37.9647 29.7387 37.9259C29.8809 37.8872 30.03 37.8807 30.175 37.9071C30.4173 37.9665 30.6317 38.1077 30.782 38.3068C30.9323 38.5059 31.0093 38.7508 31 39.0001V48.0001C31 48.2653 31.1054 48.5196 31.2929 48.7072C31.4805 48.8947 31.7348 49.0001 32 49.0001C32.2653 49.0001 32.5196 48.8947 32.7071 48.7072C32.8947 48.5196 33 48.2653 33 48.0001C33 47.7349 33.1054 47.4805 33.2929 47.293C33.4805 47.1054 33.7348 47.0001 34 47.0001C34.2653 47.0001 34.5196 47.1054 34.7071 47.293C34.8947 47.4805 35 47.7349 35 48.0001C35 48.2653 35.1054 48.5196 35.2929 48.7072C35.4805 48.8947 35.7348 49.0001 36 49.0001C36.2653 49.0001 36.5196 48.8947 36.7071 48.7072C36.8947 48.5196 37 48.2653 37 48.0001C37 47.7349 37.1054 47.4805 37.2929 47.293C37.4805 47.1054 37.7348 47.0001 38 47.0001C38.2653 47.0001 38.5196 47.1054 38.7071 47.293C38.8947 47.4805 39 47.7349 39 48.0001C39 48.2653 39.1054 48.5196 39.2929 48.7072C39.4805 48.8947 39.7348 49.0001 40 49.0001C40.2653 49.0001 40.5196 48.8947 40.7071 48.7072C40.8947 48.5196 41 48.2653 41 48.0001C41 47.8549 41.0315 47.7114 41.0925 47.5797C41.1534 47.4479 41.2423 47.331 41.353 47.2371C41.4649 47.1412 41.5967 47.0715 41.7389 47.0331C41.8811 46.9947 42.0301 46.9885 42.175 47.0151C42.4172 47.0743 42.6316 47.2153 42.7819 47.4142C42.9322 47.6132 43.0093 47.8579 43 48.1071V58.0001H28.32L22.32 53.7151C22.2123 53.6385 22.1262 53.5354 22.0702 53.4158C22.0141 53.2962 21.9899 53.1641 21.9999 53.0323C22.01 52.9006 22.054 52.7736 22.1276 52.6639C22.2012 52.5542 22.302 52.4654 22.42 52.4061H22.424Z" fill="#BFA082"/>
</svg>
