<svg width="194" height="215" viewBox="0 0 194 215" fill="none" xmlns="http://www.w3.org/2000/svg">
<path d="M74.0321 89.878C70.1981 89.878 67.6781 92.542 67.6781 96.61C67.6781 100.624 70.2161 103.306 74.0141 103.306C77.7761 103.306 80.3141 100.606 80.3141 96.61C80.3141 92.596 77.7761 89.878 74.0321 89.878ZM73.9961 92.182C76.1381 92.182 77.4701 93.856 77.4701 96.556C77.4701 99.292 76.1561 100.984 74.0321 100.984C71.8541 100.966 70.5221 99.31 70.5221 96.556C70.5221 93.892 71.8721 92.182 73.9961 92.182ZM89.8419 95.674V93.712H81.1839V95.674H84.2439V103H86.7819V95.674H89.8419ZM101.038 105.736V101.038H99.8319V93.712H92.4159V95.332C92.4159 97.492 91.7859 99.976 91.2459 101.038H90.1299V105.736H92.5239V103H98.6439V105.736H101.038ZM97.2939 101.038H93.7479C94.1799 100.066 94.7919 97.798 94.7919 95.836V95.602H97.2939V101.038ZM111.009 100.12H108.561C108.183 101.056 107.607 101.47 106.671 101.47C105.303 101.47 104.529 100.606 104.493 99.004H111.153V98.752C111.153 95.494 109.371 93.442 106.563 93.442C103.863 93.442 101.901 95.53 101.901 98.41C101.901 101.326 103.791 103.27 106.653 103.27C108.759 103.27 110.433 102.136 111.009 100.12ZM108.561 97.384H104.493C104.637 96.088 105.429 95.296 106.563 95.296C107.841 95.296 108.453 96.25 108.561 97.384ZM120.938 103V93.712H113.486L113.342 99.238C113.306 100.57 112.928 101.164 112.19 101.164C111.92 101.164 111.65 101.11 111.47 101.074V103.108C111.74 103.216 112.496 103.288 112.856 103.288C115.664 103.288 115.772 100.876 115.844 98.95L115.952 95.674H118.4V103H120.938ZM38.2431 125V115.712H29.5851V125H32.1231V117.674H35.7051V125H38.2431ZM42.6311 115.712H40.2191V128.294H42.7571V123.848C43.4411 124.802 44.4491 125.234 45.6191 125.234C48.0491 125.234 49.6511 123.326 49.6511 120.41C49.6511 117.422 48.0131 115.46 45.5111 115.46C44.3231 115.46 43.3151 115.91 42.6311 116.864V115.712ZM44.8811 117.512C46.2491 117.512 47.0951 118.592 47.0951 120.41C47.0951 122.174 46.2671 123.236 44.8991 123.236C43.4951 123.236 42.6671 122.174 42.6671 120.374C42.6671 118.574 43.4951 117.512 44.8811 117.512ZM60.547 120.356C60.547 117.404 58.657 115.442 55.795 115.442C52.879 115.442 50.953 117.404 50.953 120.356C50.953 123.326 52.861 125.288 55.759 125.288C58.657 125.288 60.547 123.344 60.547 120.356ZM57.991 120.338C57.991 122.246 57.163 123.362 55.759 123.362C54.337 123.362 53.509 122.264 53.509 120.356C53.509 118.502 54.355 117.386 55.723 117.386C57.145 117.386 57.991 118.484 57.991 120.338ZM71.9725 127.736V123.038H70.7665V115.712H63.3505V117.332C63.3505 119.492 62.7205 121.976 62.1805 123.038H61.0645V127.736H63.4585V125H69.5785V127.736H71.9725ZM68.2285 123.038H64.6825C65.1145 122.066 65.7265 119.798 65.7265 117.836V117.602H68.2285V123.038ZM73.1772 115.712V125H78.7752C80.5212 125 81.9252 124.046 81.9252 122.228C81.9252 120.95 81.1872 120.23 80.2332 119.96C80.9892 119.618 81.4932 118.952 81.4932 118.052C81.4932 116.396 80.1612 115.712 78.5232 115.712H73.1772ZM75.6972 119.438V117.332H77.3892C78.1812 117.332 78.9012 117.476 78.9012 118.376C78.9012 119.294 78.1452 119.438 77.3892 119.438H75.6972ZM75.6972 123.344V120.878H77.4792C78.3972 120.878 79.2792 121.04 79.2792 122.12C79.2792 123.182 78.4692 123.344 77.5872 123.344H75.6972ZM92.2431 125V115.712H89.3451L86.0331 121.994V115.712H83.5851V125H86.4831L89.7951 118.718V125H92.2431ZM98.4491 121.094L99.4391 122.21V125H101.851V122.21L102.841 121.094L105.091 125H108.097L104.461 119.294L107.683 115.712H104.767L101.851 119.402V115.712H99.4391V119.402L96.5231 115.712H93.6071L96.7751 119.24L93.1931 125H96.1991L98.4491 121.094ZM117.433 122.12H114.985C114.607 123.056 114.031 123.47 113.095 123.47C111.727 123.47 110.953 122.606 110.917 121.004H117.577V120.752C117.577 117.494 115.795 115.442 112.987 115.442C110.287 115.442 108.325 117.53 108.325 120.41C108.325 123.326 110.215 125.27 113.077 125.27C115.183 125.27 116.857 124.136 117.433 122.12ZM114.985 119.384H110.917C111.061 118.088 111.853 117.296 112.987 117.296C114.265 117.296 114.877 118.25 114.985 119.384ZM127.733 125V115.712H125.195V119.078H121.613V115.712H119.075V125H121.613V121.094H125.195V125H127.733ZM138.403 125V115.712H135.505L132.193 121.994V115.712H129.745V125H132.643L135.955 118.718V125H138.403ZM148.713 125V115.712H143.097C141.297 115.712 140.019 116.9 140.019 118.538C140.019 120.068 141.063 121.13 142.377 121.346L139.299 125H142.431L145.095 121.562H146.175V125H148.713ZM146.175 119.726H144.141C142.953 119.726 142.611 119.348 142.611 118.628C142.611 117.926 142.971 117.548 144.141 117.548H146.175V119.726ZM164.419 125V115.712H161.521L158.209 121.994V115.712H155.761V125H158.659L161.971 118.718V125H164.419ZM35.2499 143.418H32.7839C32.5859 144.642 31.9019 145.29 30.8039 145.29C29.4359 145.29 28.6439 144.228 28.6439 142.374C28.6439 140.466 29.4719 139.35 30.8579 139.35C31.8479 139.35 32.5139 139.926 32.6939 140.952H35.1959C34.9799 138.792 33.3239 137.442 30.8399 137.442C27.9599 137.442 26.0699 139.422 26.0699 142.428C26.0699 145.326 27.9419 147.234 30.8039 147.234C33.2699 147.234 34.9259 145.83 35.2499 143.418ZM46.0538 142.356C46.0538 139.404 44.1638 137.442 41.3018 137.442C38.3858 137.442 36.4598 139.404 36.4598 142.356C36.4598 145.326 38.3678 147.288 41.2658 147.288C44.1638 147.288 46.0538 145.344 46.0538 142.356ZM43.4978 142.338C43.4978 144.246 42.6698 145.362 41.2658 145.362C39.8438 145.362 39.0158 144.264 39.0158 142.356C39.0158 140.502 39.8618 139.386 41.2298 139.386C42.6518 139.386 43.4978 140.484 43.4978 142.338ZM56.4277 147V137.712H47.7697V147H50.3077V139.674H53.8897V147H56.4277ZM60.8156 137.712H58.4036V150.294H60.9416V145.848C61.6256 146.802 62.6336 147.234 63.8036 147.234C66.2336 147.234 67.8356 145.326 67.8356 142.41C67.8356 139.422 66.1976 137.46 63.6956 137.46C62.5076 137.46 61.4996 137.91 60.8156 138.864V137.712ZM63.0656 139.512C64.4336 139.512 65.2796 140.592 65.2796 142.41C65.2796 144.174 64.4516 145.236 63.0836 145.236C61.6796 145.236 60.8516 144.174 60.8516 142.374C60.8516 140.574 61.6796 139.512 63.0656 139.512ZM78.7315 142.356C78.7315 139.404 76.8415 137.442 73.9795 137.442C71.0635 137.442 69.1375 139.404 69.1375 142.356C69.1375 145.326 71.0455 147.288 73.9435 147.288C76.8415 147.288 78.7315 145.344 78.7315 142.356ZM76.1755 142.338C76.1755 144.246 75.3475 145.362 73.9435 145.362C72.5215 145.362 71.6935 144.264 71.6935 142.356C71.6935 140.502 72.5395 139.386 73.9075 139.386C75.3295 139.386 76.1755 140.484 76.1755 142.338ZM80.3755 137.712V147H85.9735C87.7195 147 89.1235 146.046 89.1235 144.228C89.1235 142.95 88.3855 142.23 87.4315 141.96C88.1875 141.618 88.6915 140.952 88.6915 140.052C88.6915 138.396 87.3595 137.712 85.7215 137.712H80.3755ZM82.8955 141.438V139.332H84.5875C85.3795 139.332 86.0995 139.476 86.0995 140.376C86.0995 141.294 85.3435 141.438 84.5875 141.438H82.8955ZM82.8955 145.344V142.878H84.6775C85.5955 142.878 86.4775 143.04 86.4775 144.12C86.4775 145.182 85.6675 145.344 84.7855 145.344H82.8955ZM100.071 142.356C100.071 139.404 98.1814 137.442 95.3194 137.442C92.4034 137.442 90.4774 139.404 90.4774 142.356C90.4774 145.326 92.3854 147.288 95.2834 147.288C98.1814 147.288 100.071 145.344 100.071 142.356ZM97.5154 142.338C97.5154 144.246 96.6874 145.362 95.2834 145.362C93.8614 145.362 93.0334 144.264 93.0334 142.356C93.0334 140.502 93.8794 139.386 95.2474 139.386C96.6694 139.386 97.5154 140.484 97.5154 142.338ZM105.665 143.094L106.655 144.21V147H109.067V144.21L110.057 143.094L112.307 147H115.313L111.677 141.294L114.899 137.712H111.983L109.067 141.402V137.712H106.655V141.402L103.739 137.712H100.823L103.991 141.24L100.409 147H103.415L105.665 143.094ZM126.298 149.736V145.038H125.092V137.712H117.676V139.332C117.676 141.492 117.046 143.976 116.506 145.038H115.39V149.736H117.784V147H123.904V149.736H126.298ZM122.554 145.038H119.008C119.44 144.066 120.052 141.798 120.052 139.836V139.602H122.554V145.038ZM136.268 144.12H133.82C133.442 145.056 132.866 145.47 131.93 145.47C130.562 145.47 129.788 144.606 129.752 143.004H136.412V142.752C136.412 139.494 134.63 137.442 131.822 137.442C129.122 137.442 127.16 139.53 127.16 142.41C127.16 145.326 129.05 147.27 131.912 147.27C134.018 147.27 135.692 146.136 136.268 144.12ZM133.82 141.384H129.752C129.896 140.088 130.688 139.296 131.822 139.296C133.1 139.296 133.712 140.25 133.82 141.384ZM146.568 147V137.712H144.03V141.078H140.448V137.712H137.91V147H140.448V143.094H144.03V147H146.568ZM157.238 147V137.712H154.34L151.028 143.994V137.712H148.58V147H151.478L154.79 140.718V147H157.238ZM167.548 147V137.712H161.932C160.132 137.712 158.854 138.9 158.854 140.538C158.854 142.068 159.898 143.13 161.212 143.346L158.134 147H161.266L163.93 143.562H165.01V147H167.548ZM165.01 141.726H162.976C161.788 141.726 161.446 141.348 161.446 140.628C161.446 139.926 161.806 139.548 162.976 139.548H165.01V141.726Z" fill="#BFA082"/>
<path d="M148.725 54.7686C151.41 56.8663 153.964 59.1261 156.374 61.5354C189.038 94.1994 189.038 147.158 156.374 179.822C123.71 212.486 70.751 212.486 38.0871 179.822C5.42312 147.158 5.42312 94.1994 38.0871 61.5354C40.152 59.4705 42.3237 57.5151 44.5932 55.6773" stroke="#BFA082" stroke-width="5.06544" stroke-miterlimit="22.9256" stroke-linecap="round" stroke-linejoin="round"/>
<path d="M154.013 48.6768C156.974 50.9899 159.79 53.4818 162.447 56.1386C198.465 92.1568 198.465 150.554 162.447 186.572C126.429 222.59 68.0318 222.59 32.0137 186.572C-4.00455 150.554 -4.00455 92.1568 32.0137 56.1386C34.2906 53.8616 36.6853 51.7054 39.1879 49.6788" stroke="#BFA082" stroke-width="2.02608" stroke-miterlimit="22.9256" stroke-linecap="round" stroke-linejoin="round"/>
<path fill-rule="evenodd" clip-rule="evenodd" d="M84.255 42.8507C84.255 42.7644 87.8293 39.2632 88.449 38.6369L92.0524 35.0336C92.1732 34.9114 92.2086 34.8323 92.3295 34.7101L93.8639 33.2418L93.6682 34.8907C93.5865 35.4782 93.5397 35.9815 93.4654 36.5753C93.3316 37.6447 93.1737 38.8062 93.0525 39.8945C92.9853 40.4983 93.0204 40.3268 92.3304 41.0168L85.7671 47.5801C85.6069 47.7403 85.4733 47.8685 85.3166 48.032C85.0021 48.3603 85.095 48.1492 85.0272 47.7408L84.5002 44.4929C84.4588 44.2446 84.4107 43.9704 84.3648 43.6846C84.3221 43.4178 84.255 43.1098 84.255 42.8507H84.255ZM68.7263 33.1989L70.914 32.1693C71.0546 32.1693 71.5056 32.712 71.6964 32.8884C71.8062 32.99 71.8649 33.0125 71.9766 33.123C72.8581 33.9952 75.3086 36.2799 75.7916 36.8578C76.2311 37.3835 76.6457 37.6782 77.0357 38.1447C77.4453 38.6347 78.9124 40.071 79.0216 40.234C78.9797 40.4138 78.5791 41.0856 78.4644 41.3069L78.1774 41.8349C78.0738 42.0203 77.957 42.1609 77.9063 42.3788C77.6902 42.3212 75.7787 40.3156 75.5791 40.116L68.9944 33.5314C68.7533 33.2916 68.847 33.4285 68.7263 33.1989ZM62.635 25.7348C62.7022 25.483 64.1542 24.1972 64.4689 23.8796L67.4064 20.8973C67.5439 20.7614 67.6494 20.7011 67.7935 20.5552L70.3652 17.9364C70.5619 17.7454 70.6094 17.8192 70.9329 17.7748L77.5631 16.9839C77.3371 17.3214 76.0344 18.583 75.6228 18.9901L73.6273 20.984C72.9748 21.6365 71.0477 23.4575 70.6631 23.9395L69.0811 25.5319C68.9807 25.6286 68.943 25.6379 68.8446 25.7245C68.2056 26.2872 68.1868 26.6377 67.7725 26.5662L63.3396 25.8452C63.1231 25.809 62.8322 25.7393 62.635 25.7349V25.7348ZM82.6249 40.7058C82.4567 40.4545 81.6973 39.7972 81.5442 39.4701C81.3441 39.0423 81.0338 38.8722 80.8116 38.6584L79.2681 37.1134C79.116 36.9631 79.0507 36.8507 78.9043 36.7051L77.7456 35.5473C77.4979 35.2966 77.081 34.9544 76.7582 34.6043L76.1796 34.0247C76.0415 33.8864 75.9281 33.7802 75.7927 33.6395L72.705 30.55C72.3034 30.1484 72.1406 29.8562 71.6799 29.6448C71.5094 29.5666 70.318 28.3795 70.2706 28.3087L74.1849 24.2871C74.7255 23.7469 75.0422 23.4547 75.5365 22.8933C75.8482 22.5392 76.2496 22.2034 76.7376 21.6492C76.8028 21.5752 76.8589 21.527 76.9303 21.4559L82.8286 15.386C83.3704 14.8442 83.8526 14.3191 84.3944 13.7774C84.6629 13.5088 84.9335 13.26 85.1885 12.9843L85.5526 12.5762C86.1342 11.9964 87.221 10.8061 87.7192 10.3674C88.6406 9.55595 89.5867 8.76572 90.5855 8.04317C91.5487 7.34639 92.7198 6.61168 93.7644 6.03154L94.5506 5.61652C95.3689 5.21065 95.8324 4.95025 96.7254 4.57414C96.872 4.51247 97.1865 4.38483 97.3385 4.37222C97.3385 5.20253 98.0574 7.28503 98.3961 7.99039C99.9334 11.1921 102.849 13.222 106.476 14.0669L104.929 17.2394L103.755 19.1964C103.546 19.5393 103.331 19.8099 103.113 20.1413C102.999 20.313 102.895 20.4339 102.787 20.5875C102.376 21.1718 102.147 21.4181 101.738 21.9412L101.028 22.775C100.721 23.1762 98.5093 25.3502 98.2695 25.5506C97.7021 26.0249 97.1979 26.6228 96.6848 27.0974L93.8638 29.8101C93.4082 30.1578 92.6942 31.0428 92.2585 31.3792L85.4668 37.9712C85.3943 38.0437 85.3481 38.0964 85.2743 38.1648L83.4291 39.923C83.225 40.1272 82.8291 40.5691 82.6249 40.7059L82.6249 40.7058ZM99.5263 3.68576C99.702 3.68185 99.894 3.62512 100.073 3.58922C102.079 3.18784 103.503 3.1281 105.575 3.1281C105.753 3.1281 105.958 3.11845 106.133 3.12792L107.72 3.25678C107.72 3.66709 107.848 4.62329 107.848 5.44453C107.848 7.57425 107.764 9.22401 107.315 11.2602C107.276 11.4365 107.221 11.756 107.162 11.8791C106.928 11.8596 106.601 11.7566 106.365 11.6898C106.114 11.6188 105.859 11.5318 105.624 11.4439C104.648 11.0785 103.585 10.5325 102.762 9.88776C102.663 9.81016 102.564 9.73664 102.476 9.65851C101.571 8.84969 100.875 8.03909 100.378 6.82343C100.025 5.96193 99.5263 4.59739 99.5263 3.6858L99.5263 3.68576ZM59.0745 26.464C59.0745 27.4629 59.8625 27.5882 60.5389 27.7021C61.277 27.8263 67.1285 28.8233 67.6109 28.8233C67.8685 29.3099 69.0746 30.1943 69.1552 30.4963C69.0335 30.5247 68.7519 30.655 68.6398 30.7102C68.4752 30.7913 68.3304 30.8658 68.1543 30.9539L66.6491 31.6793C66.1409 31.8891 65.5948 32.1665 65.5948 32.8557C65.5948 33.5572 66.3561 34.1103 66.9139 34.668C67.4463 35.2005 67.9472 35.7014 68.4796 36.2338L77.1019 44.8561C77.3626 45.1168 77.614 45.4244 78.1207 45.4244C79.0932 45.4244 79.4417 44.2137 79.8814 43.4531C80.1506 42.9876 80.4008 42.4313 80.6945 41.9927C81.0805 42.2511 81.3664 42.6857 81.6915 43.0118C81.8787 43.1996 81.9883 43.2437 82.0317 43.5296C82.0477 43.635 82.0697 43.7667 82.0918 43.8985L82.7781 48.1453C82.8673 48.677 83.1145 50.5553 83.2612 51.0082C83.4253 51.5153 83.8973 51.7303 84.4266 51.7303C84.965 51.7303 85.4264 51.138 85.7242 50.8402L94.561 42.0034C95.0744 41.49 95.199 41.4221 95.2783 40.4901C95.3901 39.1775 95.6043 37.8495 95.7514 36.5448L96.4662 30.6534C96.5196 30.2421 96.6785 30.2796 96.9419 30.0138C97.1372 29.8167 97.3031 29.6524 97.4994 29.4561L98.0551 28.9394C98.658 28.4354 99.1316 27.7765 99.7471 27.2854C100.13 26.9802 100.468 26.5031 100.856 26.2066C101.313 25.8579 101.822 25.2805 102.24 24.8455L103.026 23.9579C103.702 23.0893 104.317 22.3953 104.957 21.4704C105.876 20.1423 106.735 18.7812 107.462 17.3269C108.141 15.9692 108.294 15.6092 108.822 14.2687L109.143 13.5168L109.332 12.5911C110.001 9.91841 110.122 8.08967 110.122 5.2729C110.122 4.5114 110.041 3.85806 109.995 3.16944C109.975 2.88453 109.934 2.40035 109.872 2.17702C109.739 1.70114 109.224 1.19173 108.731 1.08716C107.717 0.87222 105.516 0.854492 104.374 0.854492C103.683 0.854492 102.903 0.893405 102.302 0.97087C101.643 1.05583 100.985 1.10121 100.33 1.22948L98.0358 1.6804C97.8689 1.71034 97.7803 1.77649 97.6386 1.8409C97.3891 1.9544 97.0803 2.00754 96.799 2.11656C95.287 2.70254 94.3881 3.14246 93.0065 3.85779C92.7502 3.99046 92.5458 4.11352 92.2899 4.25652C92.0354 4.39874 91.8258 4.5171 91.5823 4.66417C90.2229 5.48497 88.9265 6.38161 87.6966 7.38463L86.7962 8.15722C86.0201 8.84687 85.2524 9.5652 84.5657 10.3451L83.7289 11.1812C83.6086 11.3009 83.5802 11.3664 83.4727 11.4827C83.3775 11.5856 83.2939 11.6603 83.1933 11.761L81.0056 13.9916C80.9488 14.0484 80.7724 14.242 80.7279 14.2717C80.5903 14.3636 74.7681 15.0166 74.3273 15.0776C73.6344 15.1736 69.8479 15.515 69.4478 15.7318C69.0166 15.9655 68.1027 16.9852 67.729 17.359L59.9646 25.1233C59.6537 25.4343 59.0745 25.8937 59.0745 26.4639L59.0745 26.464Z" fill="#BFA082"/>
<path fill-rule="evenodd" clip-rule="evenodd" d="M95.1934 19.686C95.1934 21.006 94.8559 21.9376 94.0461 22.7426C91.8353 24.9407 88.3999 23.8517 87.4838 21.5187C87.3454 21.1663 87.2063 20.8064 87.1747 20.3693C87.1388 19.8739 87.1431 19.477 87.2484 19.0334C87.4187 18.3162 87.8828 17.3898 88.4832 16.9222C88.7351 16.726 88.7595 16.6604 89.1195 16.4432C90.8765 15.383 93.2079 15.8971 94.3911 17.4855C94.7749 18.0007 95.1934 18.8146 95.1934 19.6859V19.686ZM84.8553 19.8576C84.8553 22.3212 86.2535 24.5058 88.3728 25.5629C90.1144 26.4317 92.2521 26.437 93.9925 25.563C95.3993 24.8566 96.3677 23.7698 96.9963 22.3468C97.5201 21.1613 97.6174 19.6819 97.3049 18.3894C97.1373 17.6964 96.7342 16.8252 96.3336 16.2722L95.6126 15.406C95.1435 14.9461 94.3586 14.4172 93.7659 14.1641C91.9605 13.393 90.4169 13.4112 88.624 14.1461C87.2942 14.6911 86.0011 15.9686 85.4434 17.2713C85.1406 17.9784 84.8552 18.8693 84.8552 19.8575L84.8553 19.8576Z" fill="#BFA082"/>
<path fill-rule="evenodd" clip-rule="evenodd" d="M59.2458 50.7435C59.2458 51.4398 59.7791 51.9017 60.3612 51.9017C61.0374 51.9017 61.546 51.2102 61.9162 50.84L70.5386 42.2178C70.8603 41.898 70.9996 41.7193 70.9996 41.2204C70.9996 40.6477 70.5152 40.1479 69.7556 40.1479C69.2418 40.1479 68.7059 40.8331 68.2649 41.274L59.6856 49.8534C59.4496 50.0885 59.2458 50.2818 59.2458 50.7435Z" fill="#BFA082"/>
<path fill-rule="evenodd" clip-rule="evenodd" d="M55.7715 47.0546V47.2691C55.7715 47.837 56.299 48.2986 56.9726 48.2986C57.4701 48.2986 57.7916 47.8871 58.0558 47.623L62.4956 43.1831C62.7799 42.8988 63.1178 42.5981 63.3745 42.3032C63.4854 42.1758 63.4407 42.1855 63.5781 42.0779C63.6953 41.9861 63.7171 41.9807 63.8121 41.8401C64.423 40.9367 63.732 40.0195 62.8924 40.0195C62.3144 40.0195 62.0857 40.3758 61.7878 40.6737L57.3694 45.0921C57.0658 45.3957 56.7936 45.6678 56.49 45.9715C56.2255 46.236 55.7715 46.5652 55.7715 47.0546V47.0546Z" fill="#BFA082"/>
<path fill-rule="evenodd" clip-rule="evenodd" d="M65.9807 50.658C65.9807 51.6396 67.0533 52.129 67.7903 51.6097L73.5413 45.8643C74.0445 45.3611 74.2598 45.3064 74.2598 44.5666C74.2598 43.9987 73.7323 43.5371 73.0587 43.5371C72.5744 43.5371 72.2343 43.954 71.9755 44.2127C71.6719 44.5163 71.3998 44.7885 71.0962 45.0921L66.2125 49.9889C66.1105 50.1397 65.9807 50.4273 65.9807 50.658Z" fill="#BFA082"/>
<path fill-rule="evenodd" clip-rule="evenodd" d="M63.6643 39.1618V39.4192C63.6643 39.9111 64.2019 40.4059 64.6938 40.4059C65.497 40.4059 65.7398 39.939 66.3346 39.3441C66.5523 39.1264 66.738 38.9389 66.9567 38.7223C67.9505 37.7378 67.0624 36.6738 66.3668 36.6738C65.8336 36.6738 65.7368 36.7233 65.348 37.1135L64.104 38.3575C63.9011 38.5597 63.6643 38.7708 63.6643 39.1618Z" fill="#BFA082"/>
<path fill-rule="evenodd" clip-rule="evenodd" d="M62.6348 54.0464C62.6348 54.6142 63.1111 55.1617 63.6643 55.1617C64.1975 55.1617 64.2943 55.1123 64.6831 54.7221L65.9486 53.4566C66.8998 52.5117 66.0662 51.4297 65.2515 51.4297C64.5753 51.4297 64.0666 52.1212 63.6965 52.4914C63.3263 52.8616 62.6348 53.3702 62.6348 54.0464Z" fill="#BFA082"/>
<path fill-rule="evenodd" clip-rule="evenodd" d="M117.165 64.7278C114.41 64.7278 111.07 64.6386 108.355 64.7852C108.053 64.8015 107.688 64.7865 107.381 64.7832C106.878 64.7778 106.908 64.8192 106.613 65.0458L100.91 69.4112C100.707 69.5735 100.544 69.6989 100.329 69.8605C100.164 69.9845 99.8988 70.2285 99.716 70.2772L99.0734 69.5469C98.9652 69.4254 98.959 69.3862 98.8435 69.2619L96.8386 66.9187C96.2931 66.2702 95.2627 65.1637 94.7959 64.5562L92.5647 61.9245C92.8477 61.5019 93.7343 60.8429 94.1531 60.4235C94.3198 60.2567 94.3732 60.2249 94.5502 60.0769L96.1826 58.5626C96.8807 57.9159 97.5178 57.4004 98.2429 56.6754C98.5238 56.3944 98.763 56.1554 99.0438 55.8744C100.255 54.6621 101.166 54.0539 102.576 53.1139C103.727 52.3474 105.831 51.5121 107.268 51.5121C108.879 51.5121 109.074 51.56 110.61 51.9463C113.796 52.7477 114.513 53.3429 118.653 53.3429L121.113 53.343C121.882 53.3447 122.977 53.1973 123.72 53.3098C124.375 53.4089 126.733 53.2462 127.441 53.6509C127.749 53.8266 127.958 54.0354 128.159 54.3059C128.717 55.0533 128.614 56.3752 127.579 57.0626C126.929 57.4938 126.274 57.4048 125.232 57.4048C121.647 57.4048 118.062 57.4048 114.476 57.4048C113.725 57.4048 112.782 57.1942 112.36 57.9776C111.991 58.6623 112.559 59.2356 113.561 59.2356H126.433C127.614 59.2356 128.569 58.7335 129.166 58.1349C130.508 56.7889 130.653 55.1028 129.752 53.4001C129.925 53.1416 134.683 48.4406 135.144 47.9793C136.223 46.8999 136.334 46.592 137.876 46.592C139.434 46.592 140.797 48.9062 139.235 50.5832C138.296 51.5924 136.627 53.1897 135.602 54.2153L125.933 63.8839C124.785 65.0337 123.589 64.785 121.971 64.785C121.115 64.785 120.468 64.7278 119.625 64.7278C118.805 64.7278 117.985 64.7278 117.165 64.7278V64.7278ZM128.379 52.0842C128.155 51.9656 127.867 51.8269 127.623 51.7525C127.239 51.635 127.059 51.6674 126.621 51.6104L122.198 51.4529C121.811 51.4534 121.562 51.5131 121.113 51.5121C117.927 51.5048 116.367 51.664 113.161 50.7683C110.079 49.9076 107.463 49.0154 104.178 50.3106C103.761 50.4753 103.32 50.6253 102.932 50.8373C100.803 52.0001 99.4997 52.8465 97.7286 54.6163C97.3067 55.0379 97.4407 54.8367 96.833 55.4943L95.9232 56.358C95.7248 56.524 95.6521 56.5748 95.4686 56.7615L94.5098 57.6336C94.3178 57.78 94.2254 57.9146 94.028 58.0671L91.7216 60.1659C91.3131 60.5767 90.7339 60.9474 90.7339 61.9244C90.7339 62.7902 91.2559 63.2046 91.6004 63.6323L93.9778 66.4039C94.0835 66.5289 94.0887 66.5604 94.2094 66.6872L95.8695 68.6314C95.9759 68.7508 96.0155 68.7785 96.1117 68.9041L97.5505 70.5547C98.0385 71.164 98.4687 71.7782 99.1924 72.0023C99.7547 72.1763 100.385 72.0518 100.816 71.7776L107.528 66.6427C107.815 66.4661 107.58 66.6157 107.897 66.6157C109.942 66.6157 124.745 66.7002 125.505 66.545C126.162 66.4106 129.176 63.2154 129.509 62.8827L140.436 51.9554C142.237 50.1597 142.226 47.5847 140.294 45.7182C139.458 44.9108 137.903 44.5559 136.734 44.8212C135.02 45.2103 134.274 46.2168 133.084 47.4071C132.668 47.8237 128.636 51.9116 128.379 52.0841L128.379 52.0842Z" fill="#BFA082"/>
<path d="M112.955 40.4522H106.135C106.615 39.2922 108.115 38.2922 109.135 37.6322C111.095 36.3322 112.975 35.1722 112.975 32.5322C112.975 29.9922 111.175 28.3322 108.455 28.3322C105.575 28.3322 103.755 30.2522 103.755 33.2522V33.6122H105.975C106.015 31.9722 106.335 30.2922 108.395 30.2922C109.795 30.2922 110.655 31.1922 110.655 32.6522C110.655 34.5922 108.975 35.4722 107.575 36.4122C105.195 38.0122 103.495 39.2722 103.395 42.4722H112.955V40.4522ZM124.489 37.2322H122.709V28.3522H120.549L114.549 36.8922V39.1522H120.489L120.509 42.4722H122.709V39.1522H124.489V37.2322ZM120.529 37.2322H116.429L120.529 31.1722V37.2322ZM130.342 42.8122H132.182L127.062 27.8922H125.222L130.342 42.8122ZM142.473 28.5522H132.933V30.6522H140.213C137.413 33.2722 134.973 38.6722 134.873 42.4722H137.373C137.533 38.2922 139.553 33.3922 142.473 30.4722V28.5522Z" fill="#BFA082"/>
</svg>
