<svg width="188" height="208" viewBox="0 0 188 208" fill="none" xmlns="http://www.w3.org/2000/svg">
<path d="M73.537 97.878C69.703 97.878 67.183 100.542 67.183 104.61C67.183 108.624 69.721 111.306 73.519 111.306C77.281 111.306 79.819 108.606 79.819 104.61C79.819 100.596 77.281 97.878 73.537 97.878ZM73.501 100.182C75.643 100.182 76.975 101.856 76.975 104.556C76.975 107.292 75.661 108.984 73.537 108.984C71.359 108.966 70.027 107.31 70.027 104.556C70.027 101.892 71.377 100.182 73.501 100.182ZM89.3468 103.674V101.712H80.6888V103.674H83.7488V111H86.2868V103.674H89.3468ZM100.543 113.736V109.038H99.3368V101.712H91.9208V103.332C91.9208 105.492 91.2908 107.976 90.7508 109.038H89.6348V113.736H92.0288V111H98.1488V113.736H100.543ZM96.7988 109.038H93.2528C93.6848 108.066 94.2968 105.798 94.2968 103.836V103.602H96.7988V109.038ZM110.514 108.12H108.066C107.688 109.056 107.112 109.47 106.176 109.47C104.808 109.47 104.034 108.606 103.998 107.004H110.658V106.752C110.658 103.494 108.876 101.442 106.068 101.442C103.368 101.442 101.406 103.53 101.406 106.41C101.406 109.326 103.296 111.27 106.158 111.27C108.264 111.27 109.938 110.136 110.514 108.12ZM108.066 105.384H103.998C104.142 104.088 104.934 103.296 106.068 103.296C107.346 103.296 107.958 104.25 108.066 105.384ZM120.443 111V101.712H112.991L112.847 107.238C112.811 108.57 112.433 109.164 111.695 109.164C111.425 109.164 111.155 109.11 110.975 109.074V111.108C111.245 111.216 112.001 111.288 112.361 111.288C115.169 111.288 115.277 108.876 115.349 106.95L115.457 103.674H117.905V111H120.443ZM45.3615 123.712H42.9495V136.294H45.4875V131.848C46.1715 132.802 47.1795 133.234 48.3495 133.234C50.7795 133.234 52.3815 131.326 52.3815 128.41C52.3815 125.422 50.7435 123.46 48.2415 123.46C47.0535 123.46 46.0455 123.91 45.3615 124.864V123.712ZM47.6115 125.512C48.9795 125.512 49.8255 126.592 49.8255 128.41C49.8255 130.174 48.9975 131.236 47.6295 131.236C46.2255 131.236 45.3975 130.174 45.3975 128.374C45.3975 126.574 46.2255 125.512 47.6115 125.512ZM62.5934 133C62.2514 132.208 62.2694 131.326 62.2694 130.48V126.466C62.2694 123.874 60.0914 123.442 58.2194 123.442C55.5374 123.442 54.0614 124.504 53.9174 126.574H56.3114C56.4914 125.512 56.9774 125.152 58.1474 125.152C59.2814 125.152 59.8214 125.548 59.8214 126.394C59.8214 127.15 59.2094 127.294 57.5534 127.51C55.7174 127.744 53.5034 128.032 53.5034 130.462C53.5034 132.208 54.7634 133.27 56.8154 133.27C57.9314 133.27 59.0294 132.892 59.8214 132.1C59.8574 132.514 59.8754 132.658 60.0014 133H62.5934ZM59.8034 128.482V129.526C59.8034 130.858 58.8674 131.596 57.5354 131.596C56.6534 131.596 56.1314 131.128 56.1314 130.354C56.1314 129.22 57.1214 129.112 58.0034 128.968C58.6514 128.86 59.2094 128.824 59.8034 128.482ZM72.4074 130.246C72.4074 128.626 71.3094 128.14 70.4274 128.032V127.996C71.2194 127.87 72.1014 127.006 72.1014 125.944C72.1014 124.216 70.6614 123.442 68.2134 123.442C66.0894 123.442 64.0914 124.252 64.0194 126.412H66.3954C66.5394 125.44 67.1334 125.134 68.1594 125.134C69.1494 125.134 69.6174 125.62 69.6174 126.178C69.6174 127.114 68.9334 127.384 67.8534 127.384H67.1874V128.986H68.1774C69.2934 128.986 69.7794 129.508 69.7794 130.282C69.7794 130.984 69.2754 131.524 68.1234 131.524C66.9534 131.524 66.2334 130.984 66.1434 129.976H63.7134C63.7494 132.352 65.7474 133.27 68.0694 133.27C70.6614 133.27 72.4074 132.262 72.4074 130.246ZM76.3694 123.712H73.9574V136.294H76.4954V131.848C77.1794 132.802 78.1874 133.234 79.3574 133.234C81.7874 133.234 83.3894 131.326 83.3894 128.41C83.3894 125.422 81.7514 123.46 79.2494 123.46C78.0614 123.46 77.0534 123.91 76.3694 124.864V123.712ZM78.6194 125.512C79.9874 125.512 80.8334 126.592 80.8334 128.41C80.8334 130.174 80.0054 131.236 78.6374 131.236C77.2334 131.236 76.4054 130.174 76.4054 128.374C76.4054 126.574 77.2334 125.512 78.6194 125.512ZM93.6013 133C93.2593 132.208 93.2773 131.326 93.2773 130.48V126.466C93.2773 123.874 91.0993 123.442 89.2273 123.442C86.5453 123.442 85.0693 124.504 84.9253 126.574H87.3193C87.4993 125.512 87.9853 125.152 89.1553 125.152C90.2893 125.152 90.8293 125.548 90.8293 126.394C90.8293 127.15 90.2173 127.294 88.5613 127.51C86.7253 127.744 84.5113 128.032 84.5113 130.462C84.5113 132.208 85.7713 133.27 87.8233 133.27C88.9393 133.27 90.0373 132.892 90.8293 132.1C90.8653 132.514 90.8833 132.658 91.0093 133H93.6013ZM90.8113 128.482V129.526C90.8113 130.858 89.8753 131.596 88.5433 131.596C87.6613 131.596 87.1393 131.128 87.1393 130.354C87.1393 129.22 88.1293 129.112 89.0113 128.968C89.6593 128.86 90.2173 128.824 90.8113 128.482ZM104.585 128.464C104.585 125.584 102.695 123.712 100.319 123.712C98.1952 123.712 97.0972 125.098 96.6472 126.34H96.5932C96.7912 124.522 97.5292 122.848 99.8512 122.632C102.011 122.434 103.847 122.128 104.171 119.788H101.741C101.489 120.328 100.067 120.22 98.9872 120.508C95.5852 121.408 95.2432 124.81 95.2432 127.564C95.2432 130.282 96.3952 133.27 99.7432 133.27C102.731 133.27 104.585 131.38 104.585 128.464ZM102.029 128.446C102.029 130.318 101.219 131.344 99.9232 131.344C98.6092 131.344 97.7992 130.336 97.7992 128.464C97.7992 126.646 98.6272 125.602 99.8872 125.602C101.219 125.602 102.029 126.628 102.029 128.446ZM115.625 128.356C115.625 125.404 113.735 123.442 110.873 123.442C107.957 123.442 106.031 125.404 106.031 128.356C106.031 131.326 107.939 133.288 110.837 133.288C113.735 133.288 115.625 131.344 115.625 128.356ZM113.069 128.338C113.069 130.246 112.241 131.362 110.837 131.362C109.415 131.362 108.587 130.264 108.587 128.356C108.587 126.502 109.433 125.386 110.801 125.386C112.223 125.386 113.069 126.484 113.069 128.338ZM124.855 125.674V123.712H116.197V125.674H119.257V133H121.795V125.674H124.855ZM135.475 133L131.371 127.312L134.971 123.712H131.965L128.563 127.384V123.712H126.061V133H128.563V130.156L129.697 129.004L132.379 133H135.475ZM145.019 133V123.712H142.121L138.809 129.994V123.712H136.361V133H139.259L142.571 126.718V133H145.019Z" fill="#BFA082"/>
<path fill-rule="evenodd" clip-rule="evenodd" d="M60.3273 3.71345C60.4092 3.66514 60.8457 3.23224 60.9065 3.00479C67.6391 3.00479 74.3718 3.00479 81.1044 3.00479C83.3928 3.00479 85.4584 2.93246 87.7646 2.93246C92.253 2.93246 96.7414 2.93286 101.23 2.93246C102.338 2.93233 103.314 3.00479 104.487 3.00479H109.555C111.917 3.00425 112.378 3.02277 112.378 5.32133H114.84C114.84 4.21452 114.637 2.91166 114.059 2.04787C113.766 1.60867 113.472 1.3474 113.008 1.07271C112.372 0.696837 112.415 0.611358 111.438 0.615652C110.762 0.618604 110.086 0.614444 109.41 0.61592C108.687 0.61753 108.213 0.543591 107.461 0.543457H63.7633C63.4712 0.555803 63.1891 0.575394 62.923 0.605319C61.2474 0.793455 60.6434 0.35465 59.4581 1.19428C58.6567 1.76205 58.5032 2.10128 58.076 2.85275C57.9924 2.99982 57.9543 3.08463 57.9385 3.17494V3.80497C58.0304 15.9067 57.9386 28.0898 57.9385 40.2062V41.9476C57.9461 42.0368 57.9561 42.125 57.9691 42.2116C58.1226 43.2369 57.9131 43.0134 58.3939 43.8137C58.8035 44.4956 60.0935 45.4711 60.7585 45.5032C62.0402 45.5649 63.5124 45.4999 64.8159 45.4999C65.8693 45.4999 78.2256 45.4301 78.9633 45.5417C79.2779 45.5894 79.6157 45.5737 79.9467 45.5718C80.3858 45.5692 80.5607 45.6174 80.8874 45.6446C80.6825 46.5241 79.4105 51.8841 79.1043 52.3317C78.6581 52.984 75.5321 52.3565 74.93 52.8629C74.5633 53.1714 74.3221 53.5716 74.5199 54.183C74.713 54.7798 74.9225 54.8524 75.6305 54.9556C76.9303 55.145 87.1645 55.0559 88.7059 55.0559V52.6669C87.6764 52.6669 82.7622 52.7396 81.8285 52.5221C81.8285 52.0535 82.0081 51.437 82.1033 51.0595L83.3329 46.208C83.5232 45.4177 83.6146 45.4999 85.2309 45.4999C86.3893 45.4999 87.5476 45.4999 88.7058 45.4999V43.0385C87.0076 43.0385 61.7551 43.1027 61.1608 43.0015C60.7566 42.9327 60.6494 42.9004 60.5196 42.5568C60.2093 41.7346 60.3275 37.1987 60.3275 36.0888H88.7058V33.7218C88.4524 33.5122 85.5479 33.6274 85.2309 33.6274C76.9297 33.6274 68.6287 33.6274 60.3275 33.6274V3.71359L60.3273 3.71345ZM107.6 39.6116V26.6776H107.745H126.564C126.355 27.2452 126.495 35.9351 126.495 37.3194C126.495 40.8621 126.423 44.2889 126.423 47.8889H107.673C107.673 45.0758 107.601 42.4565 107.601 39.6116H107.6ZM114.767 53.6079C114.767 54.5348 114.686 54.8232 115.471 55.5831C116.069 56.1625 116.693 56.1417 117.446 56.1417C118.828 56.1417 120.376 53.747 118.77 52.1388C117.408 50.775 114.767 51.4742 114.767 53.6081V53.6079ZM83.9277 39.5635C83.9277 41.4957 86.0975 42.8971 87.9537 41.3453C88.2974 41.0579 88.7057 40.2142 88.7057 39.5635C88.7057 38.8973 88.3506 38.2992 88.0022 37.9504C86.5373 36.4834 83.9277 37.434 83.9277 39.5635ZM121.717 12.3435C118.527 12.3435 115.57 12.416 112.378 12.416H93.4112C93.4112 9.64912 94.1038 10.0993 96.2346 10.0993C97.1307 10.0993 97.7653 10.0265 98.6236 10.027H117.663C118.624 10.027 119.405 10.0548 120.343 10.0985C122.159 10.1833 121.717 11.6668 121.717 12.3435H121.717ZM91.0222 20.0897V54.4767C91.0222 55.0392 92.113 56.8402 93.5143 57.197C94.2488 57.3841 95.0628 57.3688 95.9474 57.37C96.4206 57.3707 96.6448 57.4481 97.1751 57.4454L102.895 57.4449V54.9835H98.6234C97.1553 54.9835 95.9345 54.9151 94.4918 54.9163C93.9957 54.9167 94.0363 54.8909 93.8112 54.5834C93.3161 53.9064 93.4111 52.9344 93.4111 51.7982V47.9613H102.895V45.4275H93.4111V14.8775H121.789V17.194H124.251C124.251 16.1053 124.29 14.318 124.189 13.4189C123.983 11.586 124.709 9.36531 122.345 8.09532C122.144 7.9873 122.062 7.9567 121.877 7.84023C121.709 7.73529 121.604 7.638 121.355 7.638L94.4239 7.70993C93.6085 7.70067 93.1796 7.88438 92.6709 8.20107C91.6503 8.83646 91.0859 9.82907 91.0935 11.1121C91.1113 14.1693 91.0221 17.0138 91.0221 20.0899L91.0222 20.0897ZM107.6 55.1282V50.3502H126.495V56.4312C126.495 56.6125 125.735 57.3723 125.554 57.3723L108.544 57.2249C107.626 57.1348 107.6 56.0459 107.6 55.1281L107.6 55.1282ZM128.884 24.7216V57.0105C128.884 57.2915 128.398 58.0623 128.245 58.2536C127.528 59.1512 126.921 59.5663 125.845 59.618L110.931 59.7614H109.763C107.876 59.7453 106.673 59.5611 105.631 57.8943C105.339 57.4282 105.204 57.2341 105.21 56.5047C105.259 50.6045 105.189 44.6116 105.213 38.6932C105.215 38.1291 105.139 37.6799 105.139 37.0297C105.139 34.6407 105.139 32.2517 105.139 29.8627L105.282 22.9115C105.313 21.5558 105.587 21.2639 106.386 20.4683C106.572 20.2832 107.195 19.8034 107.442 19.7145C107.968 19.526 115.162 19.5104 116.07 19.5104H126.133C126.627 19.5104 128.012 20.4659 128.448 21.1767C128.831 21.8004 128.884 23.6583 128.884 24.7215V24.7216ZM108.469 21.8996H115.998C117.411 21.8996 118.625 21.9719 119.98 21.9719C120.651 21.9719 125.422 21.9175 125.869 22.091C126.579 22.3667 126.495 23.5184 126.495 24.2161H107.528C107.635 23.9919 107.61 23.1742 107.702 22.7973C107.772 22.5074 108.189 21.8996 108.469 21.8996H108.469Z" fill="#BFA082"/>
<path d="M145.725 47.418C148.41 49.5156 150.964 51.7756 153.374 54.1848C186.038 86.8488 186.038 139.807 153.374 172.471C120.71 205.135 67.7511 205.135 35.0871 172.471C2.42312 139.807 2.42312 86.8488 35.0871 54.1848C37.152 52.1199 39.3238 50.1645 41.5932 48.3267" stroke="#BFA082" stroke-width="5.06523" stroke-miterlimit="22.9256" stroke-linecap="round" stroke-linejoin="round"/>
<path d="M151.013 41.3276C153.974 43.6408 156.79 46.1327 159.447 48.7895C195.465 84.8077 195.465 143.205 159.447 179.223C123.429 215.241 65.0319 215.241 29.0137 179.223C-7.00455 143.205 -7.00455 84.8077 29.0137 48.7895C31.2907 46.5124 33.6854 44.3563 36.1879 42.3298" stroke="#BFA082" stroke-width="2.02602" stroke-miterlimit="22.9256" stroke-linecap="round" stroke-linejoin="round"/>
</svg>
