<svg width="60" height="60" viewBox="0 0 60 60" fill="none" xmlns="http://www.w3.org/2000/svg">
<path d="M59.1139 60H0.886076C0.396709 60 0 59.6033 0 59.1139V0.886076C0 0.396709 0.396709 0 0.886076 0H59.1139C59.6033 0 60 0.396709 60 0.886076V59.1139C60 59.6033 59.6033 60 59.1139 60ZM1.77215 58.2278H58.2278V1.77215H1.77215V58.2278Z" fill="#BFA082"/>
<path d="M59.1139 11.8986H0.886076C0.396709 11.8986 0 11.5019 0 11.0125C0 10.5232 0.396709 10.1265 0.886076 10.1265H59.1139C59.6033 10.1265 60 10.5232 60 11.0125C60 11.5019 59.6033 11.8986 59.1139 11.8986Z" fill="#BFA082"/>
<path d="M18.6075 11.8987C18.1181 11.8987 17.7214 11.502 17.7214 11.0127V0.886076C17.7214 0.396709 18.1181 0 18.6075 0C19.0969 0 19.4936 0.396709 19.4936 0.886076V11.0127C19.4936 11.502 19.0969 11.8987 18.6075 11.8987Z" fill="#BFA082"/>
<path d="M59.1141 6.83563H32.5318C32.0425 6.83563 31.6458 6.43892 31.6458 5.94955C31.6458 5.46019 32.0425 5.06348 32.5318 5.06348H59.1141C59.6035 5.06348 60.0002 5.46019 60.0002 5.94955C60.0002 6.43892 59.6035 6.83563 59.1141 6.83563Z" fill="#BFA082"/>
<path d="M28.7342 6.83563C28.5013 6.83563 28.2722 6.74069 28.1076 6.57613C27.9431 6.41158 27.8481 6.18246 27.8481 5.94955C27.8481 5.71664 27.9431 5.48753 28.1076 5.32297C28.2722 5.15841 28.5013 5.06348 28.7342 5.06348C28.9671 5.06348 29.195 5.15841 29.3608 5.32297C29.5254 5.48753 29.6203 5.71664 29.6203 5.94955C29.6203 6.18246 29.5254 6.41158 29.3608 6.57613C29.1962 6.74069 28.9671 6.83563 28.7342 6.83563Z" fill="#BFA082"/>
<path d="M54.0506 34.6836H5.94931C5.45994 34.6836 5.06323 34.2869 5.06323 33.7975V16.076C5.06323 15.5867 5.45994 15.1899 5.94931 15.1899H54.0506C54.5399 15.1899 54.9366 15.5867 54.9366 16.076V33.7975C54.9366 34.2869 54.5399 34.6836 54.0506 34.6836ZM6.83538 32.9115H53.1645V16.9621H6.83538V32.9115Z" fill="#BFA082"/>
<path d="M48.9872 29.6203H11.0125C10.5232 29.6203 10.1265 29.2236 10.1265 28.7342C10.1265 28.2449 10.5232 27.8481 11.0125 27.8481H48.9872C49.4766 27.8481 49.8733 28.2449 49.8733 28.7342C49.8733 29.2236 49.4766 29.6203 48.9872 29.6203Z" fill="#BFA082"/>
<path d="M14.8094 29.6201C14.6405 29.6201 14.4697 29.5719 14.3187 29.4712C13.9115 29.1996 13.8015 28.6496 14.073 28.2424L19.1363 20.6475C19.3005 20.401 19.5772 20.2529 19.8734 20.2529H30C30.2349 20.2529 30.4604 20.3462 30.6266 20.5124L38.2215 28.1074C38.5675 28.4533 38.5675 29.0144 38.2215 29.3604C37.8754 29.7063 37.3144 29.7063 36.9684 29.3604L29.633 22.0251H20.3477L15.5475 29.2255C15.3767 29.4815 15.0956 29.6201 14.8094 29.6201Z" fill="#BFA082"/>
<path d="M45.1908 29.6201C44.9213 29.6201 44.6554 29.4977 44.4813 29.2657L40.9495 24.5568H32.5318C32.0425 24.5568 31.6458 24.1601 31.6458 23.6707C31.6458 23.1814 32.0425 22.7847 32.5318 22.7847H41.3926C41.6714 22.7847 41.9341 22.9159 42.1014 23.1391L45.8989 28.2024C46.1926 28.5939 46.1132 29.1492 45.7218 29.4429C45.5622 29.5624 45.3758 29.6201 45.1908 29.6201Z" fill="#BFA082"/>
<path d="M19.8734 44.8101H7.21518C6.72581 44.8101 6.3291 44.4133 6.3291 43.924V38.8607C6.3291 38.3713 6.72581 37.9746 7.21518 37.9746H19.8734C20.3628 37.9746 20.7595 38.3713 20.7595 38.8607V43.924C20.7595 44.4133 20.3628 44.8101 19.8734 44.8101ZM8.10125 43.0379H18.9873V39.7468H8.10125V43.0379Z" fill="#BFA082"/>
<path d="M54.0505 39.7468H24.9366C24.4472 39.7468 24.0505 39.3501 24.0505 38.8607C24.0505 38.3713 24.4472 37.9746 24.9366 37.9746H54.0505C54.5399 37.9746 54.9366 38.3713 54.9366 38.8607C54.9366 39.3501 54.5399 39.7468 54.0505 39.7468Z" fill="#BFA082"/>
<path d="M54.0505 44.8102H24.9366C24.4472 44.8102 24.0505 44.4135 24.0505 43.9242C24.0505 43.4348 24.4472 43.0381 24.9366 43.0381H54.0505C54.5399 43.0381 54.9366 43.4348 54.9366 43.9242C54.9366 44.4135 54.5399 44.8102 54.0505 44.8102Z" fill="#BFA082"/>
<path d="M19.8734 54.9365H7.21518C6.72581 54.9365 6.3291 54.5398 6.3291 54.0504V48.9872C6.3291 48.4978 6.72581 48.1011 7.21518 48.1011H19.8734C20.3628 48.1011 20.7595 48.4978 20.7595 48.9872V54.0504C20.7595 54.5398 20.3628 54.9365 19.8734 54.9365ZM8.10125 53.1644H18.9873V49.8732H8.10125V53.1644Z" fill="#BFA082"/>
<path d="M54.0505 49.8732H24.9366C24.4472 49.8732 24.0505 49.4765 24.0505 48.9872C24.0505 48.4978 24.4472 48.1011 24.9366 48.1011H54.0505C54.5399 48.1011 54.9366 48.4978 54.9366 48.9872C54.9366 49.4765 54.5399 49.8732 54.0505 49.8732Z" fill="#BFA082"/>
<path d="M54.0505 54.9367H24.9366C24.4472 54.9367 24.0505 54.54 24.0505 54.0506C24.0505 53.5613 24.4472 53.1646 24.9366 53.1646H54.0505C54.5399 53.1646 54.9366 53.5613 54.9366 54.0506C54.9366 54.54 54.5399 54.9367 54.0505 54.9367Z" fill="#BFA082"/>
<path d="M7.215 4.68359H4.68335V7.21524H7.215V4.68359Z" fill="#BFA082"/>
<path d="M11.0126 4.68359H8.48096V7.21524H11.0126V4.68359Z" fill="#BFA082"/>
<path d="M14.8102 4.68359H12.2786V7.21524H14.8102V4.68359Z" fill="#BFA082"/>
</svg>
