<svg width="66" height="62" viewBox="0 0 66 62" fill="none" xmlns="http://www.w3.org/2000/svg">
<path d="M54.7844 35.4454C54.7844 35.3922 54.7844 35.3922 54.7844 35.4454L53.5066 31.559C53.4534 31.3461 53.2404 31.2396 53.0275 31.2928C52.8145 31.3461 52.7081 31.559 52.7613 31.772L53.5599 34.1677C52.0159 32.89 50.1526 31.8252 48.0763 31.0266V2.96983C48.0763 1.90506 47.1712 1 46.1065 1H20.3922C19.3274 1 18.4223 1.90506 18.4223 2.96983V31.3993C14.8021 32.8367 11.7675 34.913 9.74443 37.4153L10.0639 34.913C10.1171 34.7001 9.95738 34.4871 9.74443 34.4871C9.53147 34.4339 9.31852 34.5936 9.31852 34.8066L8.78613 38.8527C8.78613 38.8527 8.78613 38.8527 8.78613 38.9059C8.78613 38.9592 8.78613 39.0124 8.78613 39.0657V39.1189C8.78613 39.1721 8.83937 39.1721 8.83937 39.2254C8.83937 39.2254 8.83937 39.2254 8.83937 39.2786H8.89261C8.89261 39.2786 8.89261 39.2786 8.94585 39.2786C8.99909 39.2786 9.05233 39.2786 9.05233 39.2786C9.10556 39.2786 9.10556 39.2786 9.1588 39.2786L13.0452 38.1074C13.2582 38.0541 13.3647 37.8412 13.3114 37.6282C13.2582 37.4153 13.0452 37.3088 12.8323 37.362L10.0639 38.1606C11.9805 35.7116 14.9086 33.6353 18.3691 32.2511V47.4774C18.3691 48.5422 19.2742 49.4472 20.3389 49.4472H25.5563C25.7693 50.6717 26.4614 51.7365 27.4729 52.4286C28.2183 52.961 28.6442 53.8128 28.6442 54.7178V55.6229C28.5909 55.6761 28.4844 55.7294 28.4312 55.7826C28.1118 56.102 28.0053 56.528 28.0053 57.0071C28.0585 58.2316 28.1118 59.4028 28.165 60.6273C28.165 60.8403 28.3247 61 28.5377 61C28.7506 61 28.9104 60.8403 28.9104 60.6273C28.9104 59.4561 28.8571 58.2316 28.7506 57.0071C28.7506 56.7409 28.8039 56.528 28.9636 56.3682C29.0168 56.2618 29.1765 56.2085 29.3895 56.2085H39.0257C39.2387 56.2085 39.3451 56.315 39.4516 56.3682C39.6113 56.528 39.6646 56.7409 39.6646 57.0071C39.6113 57.4862 39.6113 57.8589 39.6113 58.1251C39.5581 58.9237 39.5049 59.3496 39.5049 60.6273C39.5049 60.8403 39.6646 61 39.8775 61C40.0905 61 40.2502 60.8403 40.2502 60.6273C40.2502 59.3496 40.2502 58.9769 40.3567 58.1784C40.3567 57.8589 40.4099 57.5395 40.4099 57.0071C40.4632 56.528 40.3034 56.102 40.0372 55.7826V55.7294C40.0372 55.7294 40.0905 54.5581 40.4632 53.9193C40.5696 53.7595 40.6229 53.6531 40.7293 53.4933C41.1553 52.8012 41.6344 52.0027 41.9538 50.4587C42.0071 50.1926 42.0603 49.8199 42.1136 49.5004H46.0532C47.118 49.5004 48.023 48.5954 48.023 47.5306V31.8784C50.0461 32.677 51.803 33.7418 53.2404 35.0195L50.3655 34.7001C50.1526 34.7001 49.9396 34.8066 49.9396 35.0728C49.9396 35.2857 50.0994 35.4987 50.3123 35.4987L54.3585 35.9246H54.4117C54.4649 35.9246 54.5182 35.9246 54.5714 35.8713C54.5714 35.8713 54.6246 35.8713 54.6246 35.8181C54.6246 35.8181 54.6779 35.8181 54.6779 35.7649C54.6779 35.7649 54.6779 35.7649 54.6779 35.7116C54.6779 35.6584 54.7311 35.6584 54.7311 35.6051V35.5519C54.7844 35.4987 54.7844 35.4454 54.7844 35.4454ZM20.3922 1.74534H46.1065C46.7453 1.74534 47.2777 2.27773 47.2777 2.91659V6.96273H19.2209V2.91659C19.2209 2.27773 19.7533 1.74534 20.3922 1.74534ZM19.2209 47.4241V43.378H25.7693C25.6096 43.6442 25.5031 43.9636 25.5031 44.3363V44.4428V48.5954V48.6486H20.3389C19.7533 48.6486 19.2209 48.1162 19.2209 47.4241ZM41.315 50.1926C40.9955 51.63 40.5696 52.3221 40.1437 53.0142C40.0372 53.1739 39.984 53.3336 39.8775 53.4933C39.5581 54.079 39.4516 54.8776 39.3984 55.3035C39.2919 55.3035 39.2387 55.2502 39.1322 55.2502H29.496V54.6114C29.496 53.4401 28.9104 52.3753 28.0053 51.6832C26.9938 50.9379 26.3549 49.7666 26.3549 48.4889V44.3363V44.2298C26.3549 43.591 26.8873 43.0586 27.5261 43.0586C28.165 43.0586 28.6974 43.591 28.6974 44.2298V46.6788C28.6974 46.8918 28.8571 47.0515 29.0701 47.0515C29.283 47.0515 29.4427 46.8918 29.4427 46.6788V44.2298C29.4427 44.1233 29.4427 44.0701 29.4427 44.0169C29.4427 43.9636 29.4427 43.9636 29.4427 43.9104V32.1979C29.4427 31.559 29.9751 31.0266 30.614 31.0266C31.2529 31.0266 31.7852 31.559 31.7852 32.1979V38.8527V42.4197V43.9104C31.7852 44.1233 31.945 44.2831 32.1579 44.2831C32.3709 44.2831 32.5306 44.1233 32.5306 43.9104V42.4197V38.8527C32.5306 38.2138 33.063 37.6815 33.7018 37.6815C34.3407 37.6815 34.8731 38.2138 34.8731 38.8527V39.598V42.4729V43.8039C34.8731 44.0169 35.0328 44.1766 35.2458 44.1766C35.4587 44.1766 35.6184 44.0169 35.6184 43.8039V42.4729V39.598C35.6184 38.9592 36.1508 38.4268 36.7897 38.4268C37.4285 38.4268 37.9609 38.9592 37.9609 39.598V41.0355V43.8039V44.8154C37.9609 45.0284 38.1206 45.1881 38.3336 45.1881C38.5466 45.1881 38.7063 45.0284 38.7063 44.8154V43.8039V41.0355C38.7063 40.3966 39.2387 39.8642 39.8775 39.8642C40.5164 39.8642 41.0488 40.3966 41.0488 41.0355V44.8154V44.8687C41.4214 45.4011 41.6344 48.7551 41.315 50.1926ZM46.1065 48.6486H42.2733C42.3265 46.945 42.22 44.9752 42.1668 44.7622V43.4312H47.3309V47.4774C47.3309 48.1162 46.7986 48.6486 46.1065 48.6486ZM47.3309 42.6327H42.1668V41.0355C42.1668 39.9707 41.2617 39.0657 40.197 39.0657C39.7178 39.0657 39.3451 39.2254 38.9725 39.4916C38.9192 38.48 38.0674 37.6282 37.0026 37.6282C36.4703 37.6282 35.9911 37.8412 35.6717 38.1606C35.4055 37.4685 34.6601 36.9361 33.8616 36.9361C33.4356 36.9361 33.0097 37.0958 32.6903 37.362V32.3044C32.6903 31.2396 31.7852 30.3345 30.7205 30.3345C29.6557 30.3345 28.7506 31.2396 28.7506 32.3044V42.7924C28.4312 42.5262 28.0053 42.3665 27.5794 42.3665C27.2067 42.3665 26.8873 42.4729 26.5679 42.6327C26.5146 42.6327 26.5146 42.6327 26.4614 42.6327H19.2209V31.9317C20.7116 31.3993 22.3088 30.9201 23.9592 30.6539C24.1721 30.6007 24.3318 30.3878 24.2786 30.1748C24.2254 29.9618 24.0124 29.8021 23.7994 29.8554C22.2023 30.1748 20.6584 30.5475 19.1677 31.0799V7.76131H47.2777V30.7604C44.5625 29.8554 41.5279 29.323 38.3336 29.323C38.1206 29.323 37.9609 29.4827 37.9609 29.6957C37.9609 29.9086 38.1206 30.0683 38.3336 30.0683C41.5279 30.0683 44.6158 30.6007 47.2777 31.559V42.6327H47.3309Z" fill="#BFA082"/>
<path d="M54.7844 35.4454C54.7844 35.3922 54.7844 35.3922 54.7844 35.4454ZM54.7844 35.4454L53.5066 31.559C53.4534 31.3461 53.2404 31.2396 53.0275 31.2928C52.8145 31.3461 52.7081 31.559 52.7613 31.772L53.5599 34.1677C52.0159 32.89 50.1526 31.8252 48.0763 31.0266V2.96983C48.0763 1.90506 47.1712 1 46.1065 1H20.3922C19.3274 1 18.4223 1.90506 18.4223 2.96983V31.3993C14.8021 32.8367 11.7675 34.913 9.74443 37.4153L10.0639 34.913C10.1171 34.7001 9.95738 34.4871 9.74443 34.4871C9.53147 34.4339 9.31852 34.5936 9.31852 34.8066L8.78613 38.8527C8.78613 38.8527 8.78613 38.8527 8.78613 38.9059C8.78613 38.9592 8.78613 39.0124 8.78613 39.0657V39.1189C8.78613 39.1721 8.83937 39.1721 8.83937 39.2254C8.83937 39.2254 8.83937 39.2254 8.83937 39.2786H8.89261C8.89261 39.2786 8.89261 39.2786 8.94585 39.2786C8.99909 39.2786 9.05233 39.2786 9.05233 39.2786C9.10556 39.2786 9.10556 39.2786 9.1588 39.2786L13.0452 38.1074C13.2582 38.0541 13.3647 37.8412 13.3114 37.6282C13.2582 37.4153 13.0452 37.3088 12.8323 37.362L10.0639 38.1606C11.9805 35.7116 14.9086 33.6353 18.3691 32.2511V47.4774C18.3691 48.5422 19.2742 49.4472 20.3389 49.4472H25.5563C25.7693 50.6717 26.4614 51.7365 27.4729 52.4286C28.2183 52.961 28.6442 53.8128 28.6442 54.7178V55.6229C28.5909 55.6761 28.4844 55.7294 28.4312 55.7826C28.1118 56.102 28.0053 56.528 28.0053 57.0071C28.0585 58.2316 28.1118 59.4028 28.165 60.6273C28.165 60.8403 28.3247 61 28.5377 61C28.7506 61 28.9104 60.8403 28.9104 60.6273C28.9104 59.4561 28.8571 58.2316 28.7506 57.0071C28.7506 56.7409 28.8039 56.528 28.9636 56.3682C29.0168 56.2618 29.1765 56.2085 29.3895 56.2085H39.0257C39.2387 56.2085 39.3451 56.315 39.4516 56.3682C39.6113 56.528 39.6646 56.7409 39.6646 57.0071C39.6113 57.4862 39.6113 57.8589 39.6113 58.1251C39.5581 58.9237 39.5049 59.3496 39.5049 60.6273C39.5049 60.8403 39.6646 61 39.8775 61C40.0905 61 40.2502 60.8403 40.2502 60.6273C40.2502 59.3496 40.2502 58.9769 40.3567 58.1784C40.3567 57.8589 40.4099 57.5395 40.4099 57.0071C40.4632 56.528 40.3034 56.102 40.0372 55.7826V55.7294C40.0372 55.7294 40.0905 54.5581 40.4632 53.9193C40.5696 53.7595 40.6229 53.6531 40.7293 53.4933C41.1553 52.8012 41.6344 52.0027 41.9538 50.4587C42.0071 50.1926 42.0603 49.8199 42.1136 49.5004H46.0532C47.118 49.5004 48.023 48.5954 48.023 47.5306V31.8784C50.0461 32.677 51.803 33.7418 53.2404 35.0195L50.3655 34.7001C50.1526 34.7001 49.9396 34.8066 49.9396 35.0728C49.9396 35.2857 50.0994 35.4987 50.3123 35.4987L54.3585 35.9246H54.4117C54.4649 35.9246 54.5182 35.9246 54.5714 35.8713C54.5714 35.8713 54.6246 35.8713 54.6246 35.8181C54.6246 35.8181 54.6779 35.8181 54.6779 35.7649C54.6779 35.7649 54.6779 35.7649 54.6779 35.7116C54.6779 35.6584 54.7311 35.6584 54.7311 35.6051V35.5519C54.7844 35.4987 54.7844 35.4454 54.7844 35.4454ZM20.3922 1.74534H46.1065C46.7453 1.74534 47.2777 2.27773 47.2777 2.91659V6.96273H19.2209V2.91659C19.2209 2.27773 19.7533 1.74534 20.3922 1.74534ZM19.2209 47.4241V43.378H25.7693C25.6096 43.6442 25.5031 43.9636 25.5031 44.3363V44.4428V48.5954V48.6486H20.3389C19.7533 48.6486 19.2209 48.1162 19.2209 47.4241ZM41.315 50.1926C40.9955 51.63 40.5696 52.3221 40.1437 53.0142C40.0372 53.1739 39.984 53.3336 39.8775 53.4933C39.5581 54.079 39.4516 54.8776 39.3984 55.3035C39.2919 55.3035 39.2387 55.2502 39.1322 55.2502H29.496V54.6114C29.496 53.4401 28.9104 52.3753 28.0053 51.6832C26.9938 50.9379 26.3549 49.7666 26.3549 48.4889V44.3363V44.2298C26.3549 43.591 26.8873 43.0586 27.5261 43.0586C28.165 43.0586 28.6974 43.591 28.6974 44.2298V46.6788C28.6974 46.8918 28.8571 47.0515 29.0701 47.0515C29.283 47.0515 29.4427 46.8918 29.4427 46.6788V44.2298C29.4427 44.1233 29.4427 44.0701 29.4427 44.0169C29.4427 43.9636 29.4427 43.9636 29.4427 43.9104V32.1979C29.4427 31.559 29.9751 31.0266 30.614 31.0266C31.2529 31.0266 31.7852 31.559 31.7852 32.1979V38.8527V42.4197V43.9104C31.7852 44.1233 31.945 44.2831 32.1579 44.2831C32.3709 44.2831 32.5306 44.1233 32.5306 43.9104V42.4197V38.8527C32.5306 38.2138 33.063 37.6815 33.7018 37.6815C34.3407 37.6815 34.8731 38.2138 34.8731 38.8527V39.598V42.4729V43.8039C34.8731 44.0169 35.0328 44.1766 35.2458 44.1766C35.4587 44.1766 35.6184 44.0169 35.6184 43.8039V42.4729V39.598C35.6184 38.9592 36.1508 38.4268 36.7897 38.4268C37.4285 38.4268 37.9609 38.9592 37.9609 39.598V41.0355V43.8039V44.8154C37.9609 45.0284 38.1207 45.1881 38.3336 45.1881C38.5466 45.1881 38.7063 45.0284 38.7063 44.8154V43.8039V41.0355C38.7063 40.3966 39.2387 39.8642 39.8775 39.8642C40.5164 39.8642 41.0488 40.3966 41.0488 41.0355V44.8154V44.8687C41.4214 45.4011 41.6344 48.7551 41.315 50.1926ZM46.1065 48.6486H42.2733C42.3265 46.945 42.22 44.9752 42.1668 44.7622V43.4312H47.3309V47.4774C47.3309 48.1162 46.7986 48.6486 46.1065 48.6486ZM47.3309 42.6327H42.1668V41.0355C42.1668 39.9707 41.2617 39.0657 40.197 39.0657C39.7178 39.0657 39.3451 39.2254 38.9725 39.4916C38.9192 38.48 38.0674 37.6282 37.0026 37.6282C36.4703 37.6282 35.9911 37.8412 35.6717 38.1606C35.4055 37.4685 34.6601 36.9361 33.8616 36.9361C33.4356 36.9361 33.0097 37.0958 32.6903 37.362V32.3044C32.6903 31.2396 31.7852 30.3345 30.7205 30.3345C29.6557 30.3345 28.7506 31.2396 28.7506 32.3044V42.7924C28.4312 42.5262 28.0053 42.3665 27.5794 42.3665C27.2067 42.3665 26.8873 42.4729 26.5679 42.6327C26.5146 42.6327 26.5146 42.6327 26.4614 42.6327H19.2209V31.9317C20.7116 31.3993 22.3088 30.9201 23.9592 30.6539C24.1721 30.6007 24.3318 30.3878 24.2786 30.1748C24.2254 29.9618 24.0124 29.8021 23.7994 29.8554C22.2023 30.1748 20.6584 30.5475 19.1677 31.0799V7.76131H47.2777V30.7604C44.5625 29.8554 41.5279 29.323 38.3336 29.323C38.1207 29.323 37.9609 29.4827 37.9609 29.6957C37.9609 29.9086 38.1207 30.0683 38.3336 30.0683C41.5279 30.0683 44.6158 30.6007 47.2777 31.559V42.6327H47.3309Z" stroke="#BFA082" stroke-width="0.8"/>
<path d="M8.67979 54.5044C7.61502 54.5044 6.70996 55.4095 6.70996 56.4742C6.70996 57.539 7.61502 58.4441 8.67979 58.4441C9.74457 58.4441 10.6496 57.539 10.6496 56.4742C10.6496 55.4095 9.74457 54.5044 8.67979 54.5044ZM8.67979 57.6455C8.04093 57.6455 7.50854 57.1131 7.50854 56.4742C7.50854 55.8354 8.04093 55.303 8.67979 55.303C9.31866 55.303 9.85104 55.8354 9.85104 56.4742C9.85104 57.1131 9.31866 57.6455 8.67979 57.6455Z" fill="#BFA082" stroke="#BFA082" stroke-width="0.8"/>
<path d="M11.5012 8.84875C11.5012 8.63579 11.3415 8.47607 11.1285 8.47607C10.9156 8.47607 10.7559 8.63579 10.7559 8.84875V15.3971C10.7559 15.6101 10.9156 15.7698 11.1285 15.7698C11.3415 15.7698 11.5012 15.6101 11.5012 15.3971V8.84875Z" fill="#BFA082" stroke="#BFA082" stroke-width="0.8"/>
<path d="M11.0753 19.2075C10.8624 19.2075 10.7026 19.3672 10.7026 19.5802V21.7097C10.7026 21.9227 10.8624 22.0824 11.0753 22.0824C11.2883 22.0824 11.448 21.9227 11.448 21.7097V19.5802C11.5012 19.3672 11.2883 19.2075 11.0753 19.2075Z" fill="#BFA082" stroke="#BFA082" stroke-width="0.8"/>
<path d="M62.0249 37.0953C62.0249 36.8824 61.8652 36.7227 61.6522 36.7227C61.4393 36.7227 61.2795 36.8824 61.2795 37.0953V43.6437C61.2795 43.8566 61.4393 44.0164 61.6522 44.0164C61.8652 44.0164 62.0249 43.8566 62.0249 43.6437V37.0953Z" fill="#BFA082" stroke="#BFA082" stroke-width="0.8"/>
<path d="M61.6522 45.4009C61.4393 45.4009 61.2795 45.5606 61.2795 45.7735V47.9031C61.2795 48.1161 61.4393 48.2758 61.6522 48.2758C61.8652 48.2758 62.0249 48.1161 62.0249 47.9031V45.7735C62.0249 45.5606 61.8652 45.4009 61.6522 45.4009Z" fill="#BFA082" stroke="#BFA082" stroke-width="0.8"/>
<path d="M1.7054 27.1935C1.54568 27.0338 1.27949 27.0338 1.17301 27.1935C1.01329 27.3532 1.01329 27.6194 1.17301 27.7259L2.07807 28.631C2.13131 28.6842 2.23778 28.7374 2.34426 28.7374C2.45074 28.7374 2.55722 28.6842 2.61045 28.631C2.77017 28.4712 2.77017 28.2051 2.61045 28.0986L1.7054 27.1935Z" fill="#BFA082" stroke="#BFA082" stroke-width="0.8"/>
<path d="M4.5804 30.068C4.42068 29.9083 4.15449 29.9083 4.04801 30.068C3.88829 30.2277 3.88829 30.4939 4.04801 30.6004L4.95307 31.5055C4.95307 31.5587 5.05954 31.612 5.16602 31.612C5.2725 31.612 5.37898 31.5587 5.43222 31.5055C5.59193 31.3458 5.59193 31.0796 5.43222 30.9731L4.5804 30.068Z" fill="#BFA082" stroke="#BFA082" stroke-width="0.8"/>
<path d="M2.02484 30.068L1.11979 30.9731C0.960071 31.1328 0.960071 31.399 1.11979 31.5055C1.22626 31.5587 1.2795 31.612 1.38598 31.612C1.49246 31.612 1.59894 31.5587 1.65217 31.5055L2.55723 30.6004C2.71695 30.4407 2.71695 30.1745 2.55723 30.068C2.39752 29.9083 2.18456 29.9083 2.02484 30.068Z" fill="#BFA082" stroke="#BFA082" stroke-width="0.8"/>
<path d="M4.89985 27.1935L3.99479 28.0986C3.83507 28.2583 3.83507 28.5245 3.99479 28.631C4.04803 28.6842 4.1545 28.7374 4.26098 28.7374C4.36746 28.7374 4.47394 28.6842 4.52717 28.631L5.43223 27.7259C5.59195 27.5662 5.59195 27.3 5.43223 27.1935C5.27252 27.0338 5.05956 27.0338 4.89985 27.1935Z" fill="#BFA082" stroke="#BFA082" stroke-width="0.8"/>
<mask id="path-12-inside-1" fill="white">
<path d="M39.3985 4.67308H45.3612C45.5742 4.67308 45.7339 4.51336 45.7339 4.30041C45.7339 4.08745 45.5742 3.92773 45.3612 3.92773H39.3985C39.1855 3.92773 39.0258 4.08745 39.0258 4.30041C38.9726 4.51336 39.1323 4.67308 39.3985 4.67308Z"/>
</mask>
<path d="M39.3985 4.67308H45.3612C45.5742 4.67308 45.7339 4.51336 45.7339 4.30041C45.7339 4.08745 45.5742 3.92773 45.3612 3.92773H39.3985C39.1855 3.92773 39.0258 4.08745 39.0258 4.30041C38.9726 4.51336 39.1323 4.67308 39.3985 4.67308Z" fill="#BFA082"/>
<path d="M39.0258 4.30041L40.9661 4.78548L41.0258 4.54662V4.30041H39.0258ZM39.3985 6.67308H45.3612V2.67308H39.3985V6.67308ZM45.3612 6.67308C46.6788 6.67308 47.7339 5.61792 47.7339 4.30041H43.7339C43.7339 3.89338 43.8929 3.47272 44.2132 3.15239C44.5335 2.83206 44.9542 2.67308 45.3612 2.67308V6.67308ZM47.7339 4.30041C47.7339 2.9829 46.6788 1.92773 45.3612 1.92773V5.92773C44.9542 5.92773 44.5335 5.76875 44.2132 5.44842C43.8929 5.12809 43.7339 4.70743 43.7339 4.30041H47.7339ZM45.3612 1.92773H39.3985V5.92773H45.3612V1.92773ZM39.3985 1.92773C38.081 1.92773 37.0258 2.9829 37.0258 4.30041H41.0258C41.0258 4.70743 40.8668 5.12809 40.5465 5.44842C40.2262 5.76875 39.8055 5.92773 39.3985 5.92773V1.92773ZM37.0855 3.81533C36.901 4.55348 37.0795 5.38219 37.6782 5.98081C38.2187 6.52136 38.8935 6.67308 39.3985 6.67308V2.67308C39.6373 2.67308 40.0991 2.74494 40.5066 3.15239C40.9721 3.61791 41.0974 4.26029 40.9661 4.78548L37.0855 3.81533Z" fill="#BFA082" mask="url(#path-12-inside-1)"/>
<path d="M21.2972 15.853H27.4729C27.6858 15.853 27.8456 15.6933 27.8456 15.4803V9.83703C27.8456 9.62407 27.6858 9.46436 27.4729 9.46436H21.2972C21.0842 9.46436 20.9245 9.62407 20.9245 9.83703V15.4803C20.8713 15.6933 21.0842 15.853 21.2972 15.853ZM21.6699 10.2629H27.047V15.1077H21.6699V10.2629Z" fill="#BFA082" stroke="#BFA082" stroke-width="0.8"/>
<path d="M30.1881 15.853H36.3638C36.5767 15.853 36.7365 15.6933 36.7365 15.4803V9.83703C36.7365 9.62407 36.5767 9.46436 36.3638 9.46436H30.1881C29.9751 9.46436 29.8154 9.62407 29.8154 9.83703V15.4803C29.8154 15.6933 29.9751 15.853 30.1881 15.853ZM30.5608 10.2629H35.9379V15.1077H30.5608V10.2629Z" fill="#BFA082" stroke="#BFA082" stroke-width="0.8"/>
<path d="M39.079 15.853H45.2547C45.4676 15.853 45.6273 15.6933 45.6273 15.4803V9.83703C45.6273 9.62407 45.4676 9.46436 45.2547 9.46436H39.079C38.866 9.46436 38.7063 9.62407 38.7063 9.83703V15.4803C38.7063 15.6933 38.866 15.853 39.079 15.853ZM39.4516 10.2629H44.8287V15.1077H39.4516V10.2629Z" fill="#BFA082" stroke="#BFA082" stroke-width="0.8"/>
<path d="M27.8456 23.8392V18.1959C27.8456 17.983 27.6859 17.8232 27.4729 17.8232H21.2972C21.0843 17.8232 20.9246 17.983 20.9246 18.1959V23.8392C20.9246 24.0522 21.0843 24.2119 21.2972 24.2119H27.4729C27.6859 24.2119 27.8456 24.0522 27.8456 23.8392ZM27.047 23.4133H21.6699V18.5686H27.047V23.4133Z" fill="#BFA082" stroke="#BFA082" stroke-width="0.8"/>
<path d="M36.7365 23.8392V18.1959C36.7365 17.983 36.5767 17.8232 36.3638 17.8232H30.1881C29.9751 17.8232 29.8154 17.983 29.8154 18.1959V23.8392C29.8154 24.0522 29.9751 24.2119 30.1881 24.2119H36.3638C36.5767 24.2119 36.7365 24.0522 36.7365 23.8392ZM35.9379 23.4133H30.5608V18.5686H35.9379V23.4133Z" fill="#BFA082" stroke="#BFA082" stroke-width="0.8"/>
<path d="M54.7313 24.2646L59.6293 27.5121C59.6825 27.5654 59.789 27.5654 59.8422 27.5654C59.8955 27.5654 60.002 27.5654 60.0552 27.5121L64.9532 24.2646C65.1129 24.1581 65.1661 23.8919 65.0596 23.7322C64.9532 23.5725 64.687 23.5192 64.5272 23.6257L59.8422 26.7136L55.1572 23.6257C54.9975 23.5192 54.7313 23.5725 54.6248 23.7322C54.4651 23.8919 54.5184 24.1581 54.7313 24.2646Z" fill="#BFA082" stroke="#BFA082" stroke-width="0.8"/>
<path d="M54.7313 20.8578L59.6293 24.1054C59.6825 24.1586 59.789 24.1586 59.8422 24.1586C59.8955 24.1586 60.002 24.1586 60.0552 24.1054L64.9532 20.8578C65.1129 20.7514 65.1661 20.4852 65.0596 20.3254C64.9532 20.1657 64.687 20.1125 64.5272 20.219L59.8422 23.3068L55.1572 20.219C54.9975 20.1125 54.7313 20.1657 54.6248 20.3254C54.4651 20.4852 54.5184 20.7514 54.7313 20.8578Z" fill="#BFA082" stroke="#BFA082" stroke-width="0.8"/>
<path d="M54.7313 17.4506L59.6293 20.6982C59.6825 20.7514 59.789 20.7514 59.8422 20.7514C59.8955 20.7514 60.002 20.7514 60.0552 20.6982L64.9532 17.4506C65.1129 17.3441 65.1661 17.0779 65.0596 16.9182C64.9532 16.7585 64.687 16.7053 64.5272 16.8117L59.8422 19.8996L55.1572 16.8117C54.9975 16.7053 54.7313 16.7585 54.6248 16.9182C54.4651 17.1312 54.5184 17.3441 54.7313 17.4506Z" fill="#BFA082" stroke="#BFA082" stroke-width="0.8"/>
<path d="M54.7313 14.0966L59.6293 17.3442C59.6825 17.3974 59.789 17.3974 59.8422 17.3974C59.8955 17.3974 60.002 17.3974 60.0552 17.3442L64.9532 14.0966C65.1129 13.9901 65.1661 13.7239 65.0596 13.5642C64.9532 13.4045 64.687 13.3513 64.5272 13.4577L59.8422 16.5456L55.1572 13.4577C54.9975 13.3513 54.7313 13.4045 54.6248 13.5642C54.4651 13.7239 54.5184 13.9369 54.7313 14.0966Z" fill="#BFA082" stroke="#BFA082" stroke-width="0.8"/>
<path d="M54.7313 10.6889L59.6293 13.9364C59.6825 13.9897 59.789 13.9897 59.8422 13.9897C59.8955 13.9897 60.002 13.9897 60.0552 13.9364L64.9532 10.6889C65.1129 10.5824 65.1661 10.3162 65.0596 10.1565C64.9532 9.99679 64.687 9.94355 64.5272 10.05L59.8422 13.1379L55.1572 10.05C54.9975 9.94355 54.7313 9.99679 54.6248 10.1565C54.4651 10.3162 54.5184 10.5824 54.7313 10.6889Z" fill="#BFA082" stroke="#BFA082" stroke-width="0.8"/>
<path d="M54.7313 7.28215L59.6293 10.5297C59.6825 10.5829 59.789 10.5829 59.8422 10.5829C59.8955 10.5829 60.002 10.5829 60.0552 10.5297L64.9532 7.28215C65.1129 7.17567 65.1661 6.90948 65.0596 6.74976C64.9532 6.59005 64.687 6.53681 64.5272 6.64329L59.8422 9.73113L55.1572 6.64329C54.9975 6.53681 54.7313 6.59005 54.6248 6.74976C54.4651 6.90948 54.5184 7.17567 54.7313 7.28215Z" fill="#BFA082" stroke="#BFA082" stroke-width="0.8"/>
</svg>
