<?xml version="1.0" standalone="no"?>
<!DOCTYPE svg PUBLIC "-//W3C//DTD SVG 20010904//EN"
 "http://www.w3.org/TR/2001/REC-SVG-20010904/DTD/svg10.dtd">
<svg version="1.0" xmlns="http://www.w3.org/2000/svg"
 width="179.000000pt" height="179.000000pt" viewBox="0 0 179.000000 179.000000"
 preserveAspectRatio="xMidYMid meet">
<metadata>
Created by potrace 1.11, written by Peter Selinger 2001-2013
</metadata>
<g transform="translate(0.000000,179.000000) scale(0.100000,-0.100000)"
fill="#000000" stroke="none">
<path d="M509 1652 c-9 -1 -25 -30 -36 -65 -187 -547 -351 -1029 -387 -1136
-25 -74 -46 -136 -46 -136 0 -1 76 -2 170 -2 183 0 172 -3 185 54 12 53 59
210 67 220 19 24 43 4 78 -64 60 -118 122 -188 230 -258 62 -40 146 -77 207
-91 62 -14 219 -13 283 2 72 17 174 59 191 80 18 22 26 16 27 -18 0 -18 0 -39
1 -46 1 -9 34 -12 136 -11 130 2 135 2 136 23 0 25 0 718 0 729 -1 4 -109 7
-241 7 l-240 0 0 -140 0 -140 95 0 95 0 0 -54 0 -55 -72 -36 c-40 -19 -89 -38
-108 -41 l-35 -6 -28 84 c-16 45 -32 92 -37 103 -5 11 -47 137 -95 279 -99
294 -99 276 0 296 84 17 182 13 255 -10 64 -21 140 -59 171 -87 14 -12 23 -3
79 84 35 54 72 110 82 125 l19 27 -63 42 c-68 46 -173 94 -228 104 -18 3 -36
8 -40 10 -4 3 -30 7 -58 11 -129 15 -234 9 -345 -22 -33 -8 -60 -14 -61 -12
-2 2 -13 32 -26 68 -13 36 -27 69 -31 74 -7 8 -294 15 -330 8z"/>
</g>
</svg>
