<svg width="188" height="215" viewBox="0 0 188 215" fill="none" xmlns="http://www.w3.org/2000/svg">
<path d="M50.8795 123.792V121.506H57.5935V119.184H48.0895V132H54.0835C56.8555 132 58.7815 130.704 58.7815 127.878C58.7815 125.088 56.8015 123.792 54.2275 123.792H50.8795ZM56.0455 127.842C56.0455 129.21 55.2175 129.696 53.8675 129.696H50.8795V126.006H53.8495C55.1095 126.006 56.0455 126.492 56.0455 127.842ZM69.1514 132V122.712H66.2534L62.9414 128.994V122.712H60.4934V132H63.3914L66.7034 125.718V132H69.1514ZM78.9933 124.674V122.712H70.3353V124.674H73.3953V132H75.9333V124.674H78.9933ZM82.5393 122.712H80.1273V135.294H82.6653V130.848C83.3493 131.802 84.3573 132.234 85.5273 132.234C87.9573 132.234 89.5593 130.326 89.5593 127.41C89.5593 124.422 87.9213 122.46 85.4193 122.46C84.2313 122.46 83.2233 122.91 82.5393 123.864V122.712ZM84.7893 124.512C86.1573 124.512 87.0033 125.592 87.0033 127.41C87.0033 129.174 86.1753 130.236 84.8073 130.236C83.4033 130.236 82.5753 129.174 82.5753 127.374C82.5753 125.574 83.4033 124.512 84.7893 124.512ZM99.8252 132V122.712H96.9272L93.6152 128.994V122.712H91.1672V132H94.0652L97.3772 125.718V132H99.8252ZM111.287 132L107.183 126.312L110.783 122.712H107.777L104.375 126.384V122.712H101.873V132H104.375V129.156L105.509 128.004L108.191 132H111.287ZM120.677 128.418H118.211C118.013 129.642 117.329 130.29 116.231 130.29C114.863 130.29 114.071 129.228 114.071 127.374C114.071 125.466 114.899 124.35 116.285 124.35C117.275 124.35 117.941 124.926 118.121 125.952H120.623C120.407 123.792 118.751 122.442 116.267 122.442C113.387 122.442 111.497 124.422 111.497 127.428C111.497 130.326 113.369 132.234 116.231 132.234C118.697 132.234 120.353 130.83 120.677 128.418ZM130.689 129.786H124.731C125.451 128.706 126.927 127.86 128.007 127.122C129.501 126.096 130.617 125.196 130.617 123.162C130.617 120.876 128.871 119.31 126.333 119.31C123.525 119.31 121.743 121.128 121.743 123.99V124.26H124.191C124.263 122.406 124.911 121.524 126.243 121.524C127.323 121.524 128.043 122.244 128.043 123.342C128.043 124.89 126.441 125.7 125.325 126.456C123.057 127.986 121.509 129.084 121.455 132H130.689V129.786ZM140.889 126.978H139.197V119.364H136.893L131.421 126.744V129.102H136.821V132H139.197V129.102H140.889V126.978ZM136.821 126.978H133.473L136.821 122.298V126.978Z" fill="#BFA082"/>
<path d="M146.136 55.3423C148.821 57.44 151.375 59.6999 153.785 62.1092C186.448 94.7731 186.448 147.732 153.785 180.396C121.121 213.06 68.1619 213.06 35.498 180.396C2.83401 147.732 2.83401 94.7731 35.498 62.1092C37.5629 60.0442 39.7346 58.0888 42.0041 56.251" stroke="#BFA082" stroke-width="5.06536" stroke-miterlimit="22.9256" stroke-linecap="round" stroke-linejoin="round"/>
<path d="M151.013 49C153.974 51.3131 156.79 53.8051 159.447 56.4618C195.465 92.48 195.465 150.877 159.447 186.895C123.429 222.913 65.0319 222.913 29.0137 186.895C-7.00455 150.877 -7.00455 92.48 29.0137 56.4618C31.2907 54.1848 33.6854 52.0286 36.1879 50.0021" stroke="#BFA082" stroke-width="2.02605" stroke-miterlimit="22.9256" stroke-linecap="round" stroke-linejoin="round"/>
<path fill-rule="evenodd" clip-rule="evenodd" d="M70.3753 46.8119H69.8763V43.6307C70.7761 43.6307 72.87 43.4686 72.87 44.9398C72.87 45.5795 72.8998 46.2405 72.0725 46.5731C71.6376 46.7479 71.0064 46.8119 70.3753 46.8119ZM68.0043 48.3087C71.0746 48.3087 74.4563 48.8418 74.7932 45.3066C74.8785 44.4281 74.4819 43.5283 73.8167 42.9356C72.8316 42.0528 71.1727 42.1424 69.8721 42.1424V39.7117H73.9233C73.9617 39.2298 74.3199 38.6967 74.3583 38.2148H68V48.313L68.0043 48.3087Z" fill="#BFA082"/>
<path fill-rule="evenodd" clip-rule="evenodd" d="M93.9406 46.9361C93.6591 46.9361 92.819 46.9532 92.819 46.6248V42.6333C92.819 42.1941 95.8126 42.032 95.8126 44.3775C95.8126 45.111 95.8169 45.7506 95.2967 46.3562C95.0408 46.6547 94.4821 46.9319 93.9406 46.9319V46.9361ZM90.9469 41.3241C90.9469 44.5992 90.9939 48.2282 90.9427 51.4905C90.9342 52.1302 90.7508 51.9852 92.8148 51.9852V48.305C95.4544 48.9191 97.6762 47.4052 97.6762 44.9404C97.6762 44.1131 97.7018 43.644 97.3649 42.8849C97.2242 42.5694 96.9129 42.0576 96.6613 41.8401C95.4203 40.7783 93.6207 40.7186 92.0301 41.0384C91.8126 41.0811 91.6719 41.1024 91.4672 41.1621C91.2582 41.2218 91.1388 41.2772 90.9427 41.3241H90.9469Z" fill="#BFA082"/>
<path fill-rule="evenodd" clip-rule="evenodd" d="M75.9829 48.3105H77.6674C77.9232 48.3105 78.4179 47.3894 78.5586 47.206L80.6098 44.2082C80.6908 44.0845 80.7249 44.0418 80.806 43.9054C80.8529 43.8286 80.8529 43.8201 80.8998 43.7476L81.0362 43.5728C81.0362 44.0888 80.9723 44.3531 80.9723 44.8819V48.3105H82.7804V41.0781C80.6482 41.0781 81.1684 40.7753 80.2132 42.1868C79.5693 43.1378 78.7505 44.2082 78.1663 45.189C78.081 45.334 77.8507 45.7263 77.7313 45.8158C77.7356 45.5344 77.7953 45.5685 77.7953 45.2529V41.0781H75.9872V48.3105H75.9829Z" fill="#BFA082"/>
<path fill-rule="evenodd" clip-rule="evenodd" d="M98.8022 48.3082H100.61C100.666 48.095 101.22 47.3871 101.382 47.1483L103.787 43.6302C103.787 44.4745 103.723 45.0886 103.723 45.9372V48.1206C103.723 48.2656 103.766 48.3082 103.911 48.3082H105.595V41.0758C103.446 41.0758 103.928 40.7602 102.977 42.1973L100.546 45.7496V41.0758H98.8022V48.3082Z" fill="#BFA082"/>
<path fill-rule="evenodd" clip-rule="evenodd" d="M109.71 43.8822H108.836V41.0762H106.964V48.3086H108.836V45.315C110.495 45.315 110.158 45.0975 111.109 47.4685C111.224 47.7585 111.326 48.0613 111.454 48.3044H113.386C113.36 48.0187 113.096 47.605 112.968 47.3491C112.798 47.008 112.674 46.6924 112.512 46.3726C112.235 45.8225 111.94 44.8545 111.326 44.6881C111.386 44.4621 111.386 44.5559 111.523 44.3854C111.608 44.283 111.68 44.1764 111.744 44.0442C111.868 43.7926 111.936 43.5581 112.039 43.2809C112.124 43.0506 112.243 42.7265 112.414 42.5943C112.7 42.3726 112.887 42.5048 113.262 42.5048C113.262 40.6924 113.484 40.8843 112.265 40.8843C110.469 40.8843 110.853 43.8779 109.71 43.8779V43.8822Z" fill="#BFA082"/>
<path fill-rule="evenodd" clip-rule="evenodd" d="M119.996 47.8108C119.962 47.4142 119.586 46.8939 119.497 46.5016C117.377 47.6232 115.757 46.6338 115.757 45.0048C115.757 43.9685 115.932 42.8939 117.105 42.4845C118.452 42.0154 119.382 42.8129 119.689 42.8854V41.3886C118.294 40.4547 115.684 40.7404 114.512 42.5101C113.22 44.4632 113.838 47.6615 116.32 48.3097C117.787 48.6935 118.934 48.3737 120 47.8108H119.996Z" fill="#BFA082"/>
<path fill-rule="evenodd" clip-rule="evenodd" d="M83.6504 42.5744H85.8338V48.3101H87.7059V42.5744H89.8892C89.9106 42.3143 90.0086 42.0585 90.0854 41.8324C90.1451 41.6533 90.2517 41.2312 90.3285 41.0776H83.6589V42.5744H83.6504Z" fill="#BFA082"/>
<path fill-rule="evenodd" clip-rule="evenodd" d="M97.6977 28.1099V29.1706H95.2863C94.7 29.1706 94.5814 29.2694 94.0345 29.2694C94.1202 28.8939 95.563 27.036 95.8925 26.6011C96.2285 26.1531 96.5118 25.7776 96.8412 25.3362C97.0191 25.099 97.1508 24.9277 97.3353 24.6773C97.7174 24.1568 97.5659 24.1832 97.8887 24.0712C97.7767 25.3823 97.6977 26.667 97.6977 28.1165V28.1099ZM90.7601 29.7504C90.7601 30.9363 90.5888 31.5819 91.05 31.5819H97.6977V35.3373H100.59V31.5819C103.436 31.5819 102.903 32.1024 102.903 29.4605C102.903 28.9664 101.954 29.1706 100.59 29.1706V19.6372H98.3763C98.2313 20.184 90.7667 29.3682 90.7667 29.7504H90.7601Z" fill="#BFA082"/>
<path fill-rule="evenodd" clip-rule="evenodd" d="M80.0725 20.791C80.224 21.4498 80.6984 22.3854 80.7445 23.0047C81.0476 22.9783 81.9304 22.5567 82.5102 22.3656C83.1361 22.1614 83.8608 22.056 84.5262 21.9703C85.3498 21.8649 86.5357 22.1548 87.0298 22.9849C88.3739 25.2645 84.5526 27.0895 83.2745 28.2359C81.601 29.738 80.5337 30.9173 79.8946 33.2364C79.7101 33.915 79.585 34.4882 79.585 35.3381H90.469V32.9334H83.2481C83.4392 32.1164 84.1375 31.0227 84.7173 30.4496C86.8519 28.3149 90.2845 27.2278 90.2845 23.4922C90.2845 22.0691 89.6388 21.1797 88.8153 20.534C86.8783 19.0319 83.4194 19.5194 81.2452 20.3298C80.9158 20.455 80.4085 20.7185 80.0791 20.7976L80.0725 20.791Z" fill="#BFA082"/>
<path fill-rule="evenodd" clip-rule="evenodd" d="M112.535 30.9058C110.881 30.9058 109.84 30.6752 108.707 29.5354C105.334 26.149 108.206 21.0825 111.764 21.0825H112.344C115.744 21.0825 118.109 24.9433 116.613 28.053C115.856 29.6276 114.261 30.9058 112.535 30.9058ZM106.085 25.9908C106.085 31.5844 113.121 34.1868 116.745 29.9109C117.055 29.542 117.443 28.9358 117.641 28.4944C120.039 23.0854 114.248 18.2495 109.709 20.4632C108.661 20.9771 107.837 21.57 107.218 22.499C106.605 23.4148 106.085 24.5019 106.085 25.9842V25.9908Z" fill="#BFA082"/>
<path fill-rule="evenodd" clip-rule="evenodd" d="M111.764 26.7671H115.611V25.9963H112.535V23.0117H111.764V26.7671Z" fill="#BFA082"/>
<path fill-rule="evenodd" clip-rule="evenodd" d="M60.62 55.2427C44.1742 52.1935 45.2352 26.9425 63.4847 27.0763C65.2884 14.7154 77.0391 8.00441 89.4264 13.9461C97.1499 -0.167691 114.449 -2.02459 123.535 9.70696C126.744 13.8499 128.65 20.5235 129.135 27.7923C144.414 33.0443 139.4 55.485 125.872 55.3258C104.122 55.2981 82.3707 55.2703 60.62 55.2427L60.62 55.2427Z" stroke="#BFA082" stroke-width="2" stroke-miterlimit="22.9256"/>
</svg>
