<svg width="188" height="216" viewBox="0 0 188 216" fill="none" xmlns="http://www.w3.org/2000/svg">
<path d="M47.1395 117H49.8215V107.982L53.0075 117H55.1855L58.3355 107.892V117H60.9815V104.184H57.0575L54.1415 112.986L51.1535 104.184H47.1395V117ZM71.8395 117C71.4975 116.208 71.5155 115.326 71.5155 114.48V110.466C71.5155 107.874 69.3375 107.442 67.4655 107.442C64.7835 107.442 63.3075 108.504 63.1635 110.574H65.5575C65.7375 109.512 66.2235 109.152 67.3935 109.152C68.5275 109.152 69.0675 109.548 69.0675 110.394C69.0675 111.15 68.4555 111.294 66.7995 111.51C64.9635 111.744 62.7495 112.032 62.7495 114.462C62.7495 116.208 64.0095 117.27 66.0615 117.27C67.1775 117.27 68.2755 116.892 69.0675 116.1C69.1035 116.514 69.1215 116.658 69.2475 117H71.8395ZM69.0495 112.482V113.526C69.0495 114.858 68.1135 115.596 66.7815 115.596C65.8995 115.596 65.3775 115.128 65.3775 114.354C65.3775 113.22 66.3675 113.112 67.2495 112.968C67.8975 112.86 68.4555 112.824 69.0495 112.482ZM75.9475 107.712H73.5355V120.294H76.0735V115.848C76.7575 116.802 77.7655 117.234 78.9355 117.234C81.3655 117.234 82.9675 115.326 82.9675 112.41C82.9675 109.422 81.3295 107.46 78.8275 107.46C77.6395 107.46 76.6315 107.91 75.9475 108.864V107.712ZM78.1975 109.512C79.5655 109.512 80.4115 110.592 80.4115 112.41C80.4115 114.174 79.5835 115.236 78.2155 115.236C76.8115 115.236 75.9835 114.174 75.9835 112.374C75.9835 110.574 76.8115 109.512 78.1975 109.512ZM94.0254 117L89.9214 111.312L93.5214 107.712H90.5154L87.1134 111.384V107.712H84.6114V117H87.1134V114.156L88.2474 113.004L90.9294 117H94.0254ZM103.289 114.12H100.841C100.463 115.056 99.8869 115.47 98.9509 115.47C97.5829 115.47 96.8089 114.606 96.7729 113.004H103.433V112.752C103.433 109.494 101.651 107.442 98.8429 107.442C96.1429 107.442 94.1809 109.53 94.1809 112.41C94.1809 115.326 96.0709 117.27 98.9329 117.27C101.039 117.27 102.713 116.136 103.289 114.12ZM100.841 111.384H96.7729C96.9169 110.088 97.7089 109.296 98.8429 109.296C100.121 109.296 100.733 110.25 100.841 111.384ZM112.444 109.674V107.712H103.786V109.674H106.846V117H109.384V109.674H112.444ZM122.272 117V107.712H119.374L116.062 113.994V107.712H113.614V117H116.512L119.824 110.718V117H122.272ZM132.942 117V107.712H130.404V111.078H126.822V107.712H124.284V117H126.822V113.094H130.404V117H132.942ZM141.974 109.674V107.712H134.954V117H137.492V109.674H141.974ZM57.8223 139V129.712H54.9243L51.6123 135.994V129.712H49.1643V139H52.0623L55.3743 132.718V139H57.8223ZM67.2199 129.712H64.8079V142.294H67.3459V137.848C68.0299 138.802 69.0379 139.234 70.2079 139.234C72.6379 139.234 74.2399 137.326 74.2399 134.41C74.2399 131.422 72.6019 129.46 70.0999 129.46C68.9119 129.46 67.9039 129.91 67.2199 130.864V129.712ZM69.4699 131.512C70.8379 131.512 71.6839 132.592 71.6839 134.41C71.6839 136.174 70.8559 137.236 69.4879 137.236C68.0839 137.236 67.2559 136.174 67.2559 134.374C67.2559 132.574 68.0839 131.512 69.4699 131.512ZM84.5418 136.12H82.0938C81.7158 137.056 81.1398 137.47 80.2038 137.47C78.8358 137.47 78.0618 136.606 78.0258 135.004H84.6858V134.752C84.6858 131.494 82.9038 129.442 80.0958 129.442C77.3958 129.442 75.4338 131.53 75.4338 134.41C75.4338 137.326 77.3238 139.27 80.1858 139.27C82.2918 139.27 83.9658 138.136 84.5418 136.12ZM82.0938 133.384H78.0258C78.1698 132.088 78.9618 131.296 80.0958 131.296C81.3738 131.296 81.9858 132.25 82.0938 133.384ZM95.6338 139L91.5298 133.312L95.1298 129.712H92.1238L88.7218 133.384V129.712H86.2198V139H88.7218V136.156L89.8558 135.004L92.5378 139H95.6338ZM105.124 139V129.712H97.6717L97.5277 135.238C97.4917 136.57 97.1137 137.164 96.3757 137.164C96.1057 137.164 95.8357 137.11 95.6557 137.074V139.108C95.9257 139.216 96.6817 139.288 97.0417 139.288C99.8497 139.288 99.9577 136.876 100.03 134.95L100.138 131.674H102.586V139H105.124ZM115.794 139C115.452 138.208 115.47 137.326 115.47 136.48V132.466C115.47 129.874 113.292 129.442 111.42 129.442C108.738 129.442 107.262 130.504 107.118 132.574H109.512C109.692 131.512 110.178 131.152 111.348 131.152C112.482 131.152 113.022 131.548 113.022 132.394C113.022 133.15 112.41 133.294 110.754 133.51C108.918 133.744 106.704 134.032 106.704 136.462C106.704 138.208 107.964 139.27 110.016 139.27C111.132 139.27 112.23 138.892 113.022 138.1C113.058 138.514 113.076 138.658 113.202 139H115.794ZM113.004 134.482V135.526C113.004 136.858 112.068 137.596 110.736 137.596C109.854 137.596 109.332 137.128 109.332 136.354C109.332 135.22 110.322 135.112 111.204 134.968C111.852 134.86 112.41 134.824 113.004 134.482ZM128.506 139V129.712H124.798L123.052 136.462H122.98L121.234 129.712H117.526V139H119.938V131.944H119.992L121.81 139H124.222L126.04 131.944H126.094V139H128.506ZM139.12 139C138.778 138.208 138.796 137.326 138.796 136.48V132.466C138.796 129.874 136.618 129.442 134.746 129.442C132.064 129.442 130.588 130.504 130.444 132.574H132.838C133.018 131.512 133.504 131.152 134.674 131.152C135.808 131.152 136.348 131.548 136.348 132.394C136.348 133.15 135.736 133.294 134.08 133.51C132.244 133.744 130.03 134.032 130.03 136.462C130.03 138.208 131.29 139.27 133.342 139.27C134.458 139.27 135.556 138.892 136.348 138.1C136.384 138.514 136.402 138.658 136.528 139H139.12ZM136.33 134.482V135.526C136.33 136.858 135.394 137.596 134.062 137.596C133.18 137.596 132.658 137.128 132.658 136.354C132.658 135.22 133.648 135.112 134.53 134.968C135.178 134.86 135.736 134.824 136.33 134.482Z" fill="#BFA082"/>
<path d="M146.136 55.3423C148.821 57.44 151.375 59.6999 153.785 62.1092C186.448 94.7731 186.448 147.732 153.785 180.396C121.121 213.06 68.1619 213.06 35.498 180.396C2.83401 147.732 2.83401 94.7731 35.498 62.1092C37.5629 60.0442 39.7346 58.0888 42.0041 56.251" stroke="#BFA082" stroke-width="5.06536" stroke-miterlimit="22.9256" stroke-linecap="round" stroke-linejoin="round"/>
<path d="M151.013 49.252C153.974 51.5651 156.79 54.057 159.447 56.7138C195.465 92.732 195.465 151.129 159.447 187.147C123.429 223.165 65.0319 223.165 29.0137 187.147C-7.00455 151.129 -7.00455 92.732 29.0137 56.7138C31.2907 54.4367 33.6854 52.2806 36.1879 50.254" stroke="#BFA082" stroke-width="2.02605" stroke-miterlimit="22.9256" stroke-linecap="round" stroke-linejoin="round"/>
<path d="M108.705 44.1474C108.466 44.1474 108.228 44.0865 108.016 43.972C107.313 43.5921 107.051 42.7106 107.431 42.0074C107.683 41.5377 108.173 41.2463 108.706 41.2463C108.944 41.2463 109.182 41.3072 109.392 41.4201C109.394 41.4201 109.394 41.4201 109.395 41.4217C110.098 41.8016 110.361 42.6815 109.981 43.3862C109.727 43.856 109.239 44.1474 108.705 44.1474ZM115.354 43.6443C114.991 43.6443 114.644 43.5093 114.375 43.2644C114.09 43.0035 113.923 42.6452 113.906 42.2583C113.89 41.8726 114.024 41.5015 114.285 41.216C114.854 40.5998 115.319 39.6719 115.632 38.5322C115.966 37.3274 116.141 35.8342 116.141 34.2148C116.144 30.2292 115.128 25.4607 113.281 20.7865C111.943 17.3968 110.233 14.2376 108.335 11.6497C106.564 9.227 104.606 7.30742 102.826 6.2447C101.73 5.58648 100.683 5.23852 99.8003 5.23852H99.7887C99.3842 5.23997 99.0174 5.30666 98.6666 5.44585C98.2331 5.61983 97.8518 5.89239 97.5009 6.2795C97.1298 6.69125 96.8065 7.22623 96.5397 7.86996C95.967 9.24439 95.664 11.106 95.6669 13.2532V13.2793C95.6683 17.2503 96.6818 21.9898 98.5216 26.6235C100.095 30.6119 102.137 34.2032 104.43 37.01C104.641 37.2696 104.757 37.5974 104.756 37.9336C104.753 38.3685 104.559 38.7745 104.222 39.0499C103.964 39.2602 103.639 39.3762 103.307 39.3762C102.869 39.3762 102.459 39.1819 102.182 38.8426C99.706 35.8052 97.5066 31.9487 95.8248 27.6905C94.8273 25.1693 94.0574 22.6321 93.5369 20.15C93.0295 17.7331 92.7714 15.4221 92.7671 13.2822V13.2807C92.7671 13.2735 92.7671 13.2648 92.7671 13.2532C92.7671 11.3669 92.9715 9.66629 93.3717 8.19762C93.8081 6.61006 94.4721 5.31246 95.3463 4.33818C95.9915 3.62051 96.7483 3.08553 97.5965 2.75062C98.2837 2.47805 99.0187 2.33887 99.7843 2.33887H99.7886C101.222 2.34322 102.746 2.82021 104.316 3.75825C105.752 4.61945 107.203 5.85035 108.628 7.41906C110.034 8.97038 111.374 10.7986 112.609 12.853C113.876 14.9654 115.01 17.2764 115.977 19.7223C116.979 22.2638 117.752 24.8184 118.272 27.3136C118.781 29.7464 119.039 32.0689 119.041 34.2148C119.041 36.1169 118.833 37.8292 118.427 39.3037C117.984 40.8999 117.31 42.2033 116.424 43.1747C116.15 43.4731 115.76 43.6443 115.354 43.6443Z" fill="#BFA082"/>
<path d="M115.913 42.8351C115.8 42.8351 115.686 42.822 115.576 42.7958C115.469 42.7697 115.36 42.7421 115.253 42.7117C114.633 42.5348 114.199 41.9621 114.199 41.3185C114.199 41.1852 114.218 41.0518 114.254 40.9213C114.37 40.511 114.659 40.1746 115.047 39.9977C115.756 38.5872 116.143 36.508 116.136 34.1404C116.139 30.1681 115.126 25.4257 113.281 20.7891C111.646 16.6673 109.525 12.992 107.149 10.1605C105.391 8.05095 103.486 6.47209 101.786 5.71528C101.213 7.10712 100.901 9.03684 100.907 11.1521C100.904 15.1624 101.923 19.9352 103.775 24.592C104.629 26.7436 105.623 28.7893 106.728 30.6683C107.134 31.3584 106.902 32.2484 106.213 32.6529C105.99 32.7834 105.736 32.853 105.48 32.853C104.968 32.853 104.488 32.579 104.229 32.1382C103.048 30.1288 101.989 27.9497 101.079 25.6619C100.072 23.1232 99.2961 20.5657 98.7743 18.0619C98.2668 15.6305 98.0088 13.305 98.0073 11.152C98.0117 9.51368 98.1596 8.02616 98.4481 6.73147C98.7525 5.35703 99.225 4.15657 99.8515 3.16199C100.12 2.74154 100.576 2.49072 101.075 2.49072C101.193 2.49072 101.31 2.50522 101.423 2.53422C102.763 2.87493 104.133 3.55925 105.494 4.56543C106.776 5.51216 108.079 6.76771 109.369 8.29583C111.941 11.3651 114.226 15.3144 115.976 19.719C116.978 22.2446 117.749 24.7847 118.27 27.2712C118.777 29.6895 119.034 32.0018 119.035 34.1403C119.031 35.7976 118.879 37.298 118.58 38.6001C118.264 39.9861 117.773 41.1939 117.121 42.1868C116.852 42.5929 116.401 42.8351 115.913 42.8351ZM109.757 38.6884C109.357 38.6884 108.971 38.5218 108.698 38.2303C108.697 38.2288 108.697 38.2288 108.697 38.2274C108.152 37.6445 108.184 36.7268 108.766 36.1802C109.036 35.9279 109.387 35.7888 109.757 35.7888C110.155 35.7888 110.541 35.9569 110.814 36.2483C110.815 36.2483 110.815 36.2483 110.815 36.2483C111.08 36.5311 111.218 36.9008 111.205 37.2864C111.193 37.6735 111.03 38.0331 110.747 38.2971C110.477 38.5508 110.126 38.6884 109.757 38.6884Z" fill="#BFA082"/>
<path d="M103.37 28.8718C102.797 28.8718 102.277 28.5325 102.045 28.0063L102.027 27.9657C101.703 27.2248 101.365 26.4593 101.075 25.6517C100.721 24.7992 100.441 24.0134 100.17 23.2523V23.2494C99.9369 22.597 100.201 21.8677 100.798 21.5154C101.42 21.1471 102.113 20.8064 102.802 20.5295C104.298 19.9278 105.801 19.6074 107.145 19.606C107.783 19.606 108.343 19.6755 108.859 19.8191C109.475 19.9945 109.97 20.2569 110.373 20.6237C110.689 20.9108 110.935 21.2675 111.085 21.6546L111.09 21.6691C111.208 21.9822 111.27 22.3258 111.27 22.6665C111.268 23.2726 111.095 23.8641 110.738 24.4745C110.444 24.9732 110.049 25.4473 109.533 25.9243C108.573 26.8014 107.289 27.58 105.817 28.1759C105.11 28.4601 104.391 28.6833 103.682 28.8385C103.58 28.8617 103.475 28.8718 103.37 28.8718ZM103.33 23.4596C103.485 23.8728 103.622 24.2266 103.766 24.5702L103.792 24.6398C103.904 24.9515 104.037 25.2936 104.201 25.6851C104.382 25.6227 104.562 25.556 104.734 25.4865C105.597 25.1385 106.39 24.705 107.029 24.2324C107.673 23.7612 108.075 23.29 108.236 23.0087C108.315 22.8724 108.349 22.7738 108.362 22.7245C108.331 22.7071 108.298 22.6912 108.262 22.6752C108.075 22.5926 107.691 22.5056 107.17 22.5056H107.131C106.186 22.5056 105.003 22.7651 103.885 23.2189C103.705 23.2914 103.518 23.3726 103.33 23.4596Z" fill="#BFA082"/>
<path d="M121.032 17.876C120.435 17.876 119.905 17.5165 119.685 16.9612C119.389 16.2189 119.752 15.3736 120.494 15.0779L125.742 12.9887C125.914 12.9191 126.095 12.8843 126.277 12.8843C126.875 12.8843 127.404 13.2438 127.626 13.7977C127.768 14.1587 127.764 14.5516 127.61 14.9082C127.458 15.2634 127.175 15.5389 126.816 15.6824L121.569 17.7716C121.396 17.8412 121.215 17.876 121.032 17.876Z" fill="#BFA082"/>
<path d="M122.965 24.4354C122.23 24.4354 121.611 23.8845 121.526 23.1537C121.434 22.3592 122.005 21.6387 122.798 21.5459L128.397 20.8949C128.454 20.8891 128.51 20.8848 128.567 20.8848C129.302 20.8848 129.92 21.4372 130.005 22.1679C130.05 22.5521 129.943 22.9319 129.702 23.2349C129.462 23.5394 129.118 23.7308 128.732 23.7757L123.133 24.4267C123.078 24.4325 123.02 24.4354 122.965 24.4354Z" fill="#BFA082"/>
<path d="M128.662 32.0398C128.591 32.0398 128.519 32.034 128.448 32.0238L122.862 31.1932C122.478 31.1352 122.14 30.9337 121.909 30.622C121.679 30.3103 121.585 29.929 121.641 29.5462C121.692 29.1997 121.867 28.8836 122.132 28.6575C122.45 28.3864 122.873 28.2631 123.288 28.3255L128.874 29.1562C129.257 29.2128 129.596 29.4157 129.827 29.7274C130.057 30.0377 130.151 30.4205 130.095 30.8032C130.044 31.1497 129.869 31.4643 129.603 31.692C129.341 31.9165 129.008 32.0398 128.662 32.0398Z" fill="#BFA082"/>
<path d="M112.587 7.32163C112.257 7.32163 111.936 7.20854 111.679 7.00266C111.377 6.75909 111.188 6.41403 111.145 6.02838C111.105 5.64418 111.215 5.26577 111.457 4.96276L115.015 0.540785C115.292 0.197176 115.704 0 116.146 0C116.474 0 116.797 0.113087 117.054 0.318962C117.355 0.562533 117.544 0.907591 117.586 1.29325C117.628 1.67745 117.517 2.05585 117.274 2.35742L113.717 6.78084C113.441 7.12445 113.029 7.32163 112.587 7.32163Z" fill="#BFA082"/>
<path d="M117.518 12.0538C117.061 12.0538 116.625 11.8348 116.352 11.4666C115.877 10.8243 116.013 9.91527 116.655 9.43828L121.197 6.07323C121.45 5.88765 121.748 5.78906 122.06 5.78906C122.518 5.78906 122.953 6.00799 123.226 6.37479C123.456 6.68651 123.552 7.06926 123.495 7.45201C123.437 7.83477 123.234 8.17258 122.924 8.4031L118.38 11.7681C118.128 11.9552 117.831 12.0538 117.518 12.0538Z" fill="#BFA082"/>
<path d="M73.9457 36.8983C73.4731 36.8983 73.0294 36.6678 72.7583 36.2821C72.5351 35.9646 72.4495 35.5804 72.5162 35.1991C72.5829 34.8178 72.7946 34.4842 73.1121 34.2625L88.9413 23.1467C89.1878 22.9742 89.4748 22.8828 89.7735 22.8828C90.2461 22.8828 90.6898 23.1133 90.9609 23.5004C91.1842 23.8165 91.2697 24.2022 91.203 24.5835C91.1363 24.9648 90.9247 25.2968 90.6086 25.52L74.7779 36.6357C74.5315 36.8084 74.2444 36.8983 73.9457 36.8983Z" fill="#BFA082"/>
<path d="M66.7214 46.0872C66.5242 46.0872 66.3343 46.048 66.156 45.9726C65.8051 45.8248 65.5209 45.5362 65.3774 45.1825L62.1066 37.1229C61.9616 36.7635 61.9645 36.369 62.1153 36.0123C62.2661 35.6557 62.5459 35.3788 62.9055 35.2338L66.936 33.5985C67.11 33.5275 67.2941 33.4927 67.4797 33.4927C68.0741 33.4927 68.6004 33.8479 68.8237 34.3974L72.0945 42.4584C72.238 42.8122 72.2351 43.2167 72.0858 43.5675C71.9379 43.9184 71.6494 44.2026 71.2956 44.3461L67.2651 45.9815C67.094 46.0509 66.9099 46.0872 66.7214 46.0872ZM65.3383 37.3752L67.5188 42.7497L68.8628 42.2044L66.6823 36.83L65.3383 37.3752Z" fill="#BFA082"/>
<path d="M91.0192 59.6993C90.5654 59.6993 90.1334 59.4834 89.8608 59.1224L77.1545 42.2696C76.8413 41.8535 76.7747 41.2983 76.982 40.8198C77.1893 40.3428 77.6387 40.0108 78.1563 39.9557L85.7201 39.1395C86.2507 39.0829 86.7756 39.325 87.0742 39.7672L97.5913 55.2543C97.8392 55.6182 97.9073 56.0689 97.7798 56.4895C97.6522 56.9114 97.3448 57.2478 96.9374 57.4131L91.5629 59.5922C91.3889 59.6631 91.2062 59.6993 91.0192 59.6993ZM81.0081 42.564L91.5049 56.4866L94.1856 55.3993L85.1648 42.116L81.0081 42.564Z" fill="#BFA082"/>
<path d="M75.61 29.6141C75.5259 29.6141 75.4432 29.6069 75.362 29.5924C74.9517 29.5214 74.5922 29.2763 74.3747 28.9211C73.8006 27.9802 73.4961 26.8363 73.4976 25.6141C73.499 24.0874 73.9572 22.4636 74.8227 20.9152C75.71 19.332 77.0047 17.8778 78.5676 16.7078C79.6057 15.9278 80.7293 15.3319 81.9051 14.9361C83.0084 14.5649 84.1349 14.3765 85.2528 14.3765H85.2586C86.2111 14.3779 87.1288 14.5113 87.9886 14.7766C88.8483 15.0405 89.6283 15.429 90.3098 15.9307C90.6693 16.196 90.8882 16.6208 90.8969 17.0688C90.9056 17.5211 90.707 17.9445 90.3533 18.2287L76.5176 29.2966C76.2624 29.5011 75.9391 29.6141 75.61 29.6141ZM80.3074 19.0275C80.3074 19.029 80.3074 19.029 80.3059 19.029C79.0634 19.9583 78.0428 21.1008 77.3527 22.3331C76.7336 23.4335 76.3943 24.5992 76.3972 25.6141C76.3972 25.6358 76.3972 25.6576 76.3972 25.6793L86.7055 17.4342C86.2444 17.3283 85.7617 17.2761 85.2702 17.2761H85.2586C84.0654 17.2761 82.2371 17.5806 80.3088 19.0275H80.3074Z" fill="#BFA082"/>
<path d="M76.1963 42.4464C75.6019 42.4464 75.0756 42.0914 74.8523 41.5403C74.5522 40.7996 74.9103 39.9529 75.6497 39.6526C75.8251 39.5816 76.0078 39.5453 76.1948 39.5453C76.7878 39.5453 77.3156 39.9005 77.5388 40.4515C77.6853 40.8096 77.6824 41.2039 77.5316 41.5606C77.3808 41.9172 77.0995 42.1941 76.74 42.3391C76.566 42.4102 76.3833 42.4464 76.1963 42.4464ZM82.9989 42.3407C82.258 42.3407 81.6389 41.784 81.5592 41.046C81.5171 40.6618 81.6288 40.2833 81.8709 39.9817C82.1145 39.6801 82.461 39.4902 82.8452 39.4496L101.13 37.478C100.123 36.105 99.1659 34.587 98.2858 32.969C97.3797 31.3046 96.5519 29.5286 95.8255 27.6901C94.2829 23.7944 93.2781 19.8132 92.9186 16.1756L73.8722 31.4134L74.8132 33.7331C74.8856 33.9085 74.9204 34.0941 74.9204 34.2811C74.919 34.8741 74.5638 35.399 74.0157 35.6222C73.8403 35.6931 73.6576 35.7279 73.4706 35.7279C72.8776 35.7279 72.3499 35.3727 72.1266 34.8232L70.7797 31.5018C70.5405 30.9117 70.7203 30.2231 71.2176 29.8244L93.3115 12.1481C93.5681 11.9437 93.89 11.8306 94.2191 11.8306C94.4351 11.8306 94.6511 11.8799 94.8454 11.9726C95.3441 12.2133 95.6675 12.7251 95.6675 13.2789C95.6689 17.25 96.6823 21.9895 98.5222 26.6231C100.211 30.9059 102.511 34.8335 105 37.6839C105.357 38.0927 105.454 38.6611 105.257 39.1656C105.06 39.6701 104.601 40.021 104.062 40.079L83.157 42.332C83.1047 42.3377 83.0511 42.3407 82.9989 42.3407Z" fill="#BFA082"/>
<path d="M71.8405 47.1378C71.6447 47.1378 71.4548 47.1001 71.2765 47.0248C70.9242 46.8756 70.64 46.5884 70.4979 46.2347L65.0466 32.799C64.7465 32.0583 65.1046 31.2116 65.8454 30.9114L71.2199 28.7308C71.3939 28.6598 71.5766 28.625 71.7636 28.625C72.3566 28.625 72.8843 28.9802 73.1076 29.5297L78.5575 42.9638C78.701 43.3175 78.6981 43.722 78.5503 44.0744C78.4009 44.4252 78.1139 44.7094 77.7601 44.8529L72.3856 47.032C72.2131 47.103 72.0304 47.1378 71.8405 47.1378ZM68.2782 33.0526L72.6393 43.8003L75.3259 42.7114L70.9662 31.9624L68.2782 33.0526Z" fill="#BFA082"/>
<path d="M122.893 60.9998H64.9C64.0997 60.9998 63.4502 60.3502 63.4502 59.5499C63.4502 58.7509 64.0997 58.1016 64.9 58.1016H122.893C123.692 58.1016 124.343 58.7509 124.343 59.5499C124.343 60.3502 123.692 60.9998 122.893 60.9998Z" fill="#BFA082"/>
<path d="M127.333 60.9998H127.243C126.443 60.9998 125.793 60.3502 125.793 59.5499C125.793 58.7509 126.443 58.1016 127.243 58.1016H127.333C128.134 58.1016 128.783 58.7509 128.783 59.5499C128.783 60.3502 128.134 60.9998 127.333 60.9998Z" fill="#BFA082"/>
<path d="M66.3502 26.2057C65.5499 26.2057 64.9004 25.5547 64.9004 24.7558V3.00842C64.9004 2.62567 65.0555 2.25161 65.3252 1.98194C65.5949 1.71228 65.9689 1.55859 66.3502 1.55859H89.5474C90.3463 1.55859 90.9973 2.20812 90.9973 3.00842C90.9973 3.80727 90.3463 4.4568 89.5474 4.4568H67.8V24.7558C67.8 25.5547 67.1491 26.2057 66.3502 26.2057Z" fill="#BFA082"/>
<path d="M72.1492 5.90723H69.2495V8.80688H72.1492V5.90723Z" fill="#BFA082"/>
<path d="M72.1492 10.2568H69.2495V13.1565H72.1492V10.2568Z" fill="#BFA082"/>
<path d="M72.1492 14.6064H69.2495V17.5061H72.1492V14.6064Z" fill="#BFA082"/>
</svg>
