<svg width="60" height="60" viewBox="0 0 60 60" fill="none" xmlns="http://www.w3.org/2000/svg">
<path d="M25.2637 51.2305V49.5638V41.0181H0V49.5638V51.2305V60H25.2637V51.2305ZM23.597 58.3333H1.66667V51.2305H23.597V58.3333ZM23.597 49.5638H1.66667V42.6847H23.597V49.5638Z" fill="#BFA082"/>
<path d="M5.46232 44.5498H3.79565V47.6984H5.46232V44.5498Z" fill="#BFA082"/>
<path d="M8.48307 44.5498H6.81641V47.6984H8.48307V44.5498Z" fill="#BFA082"/>
<path d="M11.5038 44.5498H9.83716V47.6984H11.5038V44.5498Z" fill="#BFA082"/>
<path d="M5.46232 53.208H3.79565V56.3558H5.46232V53.208Z" fill="#BFA082"/>
<path d="M8.48307 53.208H6.81641V56.3558H8.48307V53.208Z" fill="#BFA082"/>
<path d="M11.5038 53.208H9.83716V56.3558H11.5038V53.208Z" fill="#BFA082"/>
<path d="M21.4672 53.9487H19.8005V55.6154H21.4672V53.9487Z" fill="#BFA082"/>
<path d="M21.4672 45.2915H19.8005V46.9582H21.4672V45.2915Z" fill="#BFA082"/>
<path d="M34.7363 49.5638V51.2305V60H60V51.2305V49.5638V41.0181H34.7363V49.5638ZM36.403 42.6847H58.3333V49.5638H36.403V42.6847ZM36.403 51.2305H58.3333V58.3333H36.403V51.2305Z" fill="#BFA082"/>
<path d="M40.1994 44.5498H38.5327V47.6984H40.1994V44.5498Z" fill="#BFA082"/>
<path d="M43.2201 44.5498H41.5535V47.6984H43.2201V44.5498Z" fill="#BFA082"/>
<path d="M46.2402 44.5498H44.5735V47.6984H46.2402V44.5498Z" fill="#BFA082"/>
<path d="M40.1994 53.208H38.5327V56.3558H40.1994V53.208Z" fill="#BFA082"/>
<path d="M43.2201 53.208H41.5535V56.3558H43.2201V53.208Z" fill="#BFA082"/>
<path d="M46.2402 53.208H44.5735V56.3558H46.2402V53.208Z" fill="#BFA082"/>
<path d="M56.2045 53.9487H54.5378V55.6154H56.2045V53.9487Z" fill="#BFA082"/>
<path d="M56.2045 45.2915H54.5378V46.9582H56.2045V45.2915Z" fill="#BFA082"/>
<path d="M53.2381 17.3543C52.9818 13.5364 50.3027 10.3564 46.6007 9.46492C46.0425 4.10685 41.5633 0 36.1304 0C32.9541 0 29.9512 1.4502 27.9557 3.91357C25.9465 2.87923 23.7191 2.33561 21.4689 2.33561C13.6043 2.33561 7.20622 8.76099 7.20622 16.6589C7.20622 16.8579 7.21029 17.0577 7.21924 17.2603C3.11035 17.9769 0 21.6093 0 25.8704C0 30.693 3.90706 34.6163 8.71012 34.6163H29.1667V36.2309H12.2884V38.9498H13.9551V37.8975H46.0449V38.9498H47.7116V36.2309H30.8333V34.6163H51.2899C56.0929 34.6163 60 30.693 60 25.8704C60 21.7961 57.1387 18.254 53.2381 17.3543ZM51.2899 32.9496H8.71012C4.82666 32.9496 1.66667 29.7742 1.66667 25.8704C1.66667 22.1948 4.52311 19.0975 8.16976 18.8192L9.01774 18.7545L8.93555 17.9081C8.89323 17.4707 8.87288 17.0622 8.87288 16.6589C8.87288 9.68018 14.5231 4.00228 21.4689 4.00228C23.6711 4.00228 25.8488 4.5931 27.7677 5.71086L28.4302 6.097L28.8696 5.46834C30.5339 3.08797 33.2487 1.66667 36.1304 1.66667C40.8879 1.66667 44.7762 5.41178 44.9837 10.1925L45.013 10.8695L45.682 10.9786C49.1064 11.5369 51.5918 14.4718 51.5918 17.9468L51.5877 18.7699L52.3014 18.8733C55.7406 19.3713 58.3333 22.3792 58.3333 25.8704C58.3333 29.7742 55.1733 32.9496 51.2899 32.9496Z" fill="#BFA082"/>
<path d="M25.6071 25.6714H23.9404V27.3381H25.6071V25.6714Z" fill="#BFA082"/>
<path d="M29.091 25.6714H27.4243V27.3381H29.091V25.6714Z" fill="#BFA082"/>
<path d="M32.5756 25.6714H30.9089V27.3381H32.5756V25.6714Z" fill="#BFA082"/>
<path d="M36.0595 25.6714H34.3928V27.3381H36.0595V25.6714Z" fill="#BFA082"/>
</svg>
