<svg width="60" height="60" viewBox="0 0 60 60" fill="none" xmlns="http://www.w3.org/2000/svg">
<path d="M31 54H29V56H31V54Z" fill="#BFA082"/>
<path d="M4.00001 24.0001H12.7L18.4481 27.8321C18.5986 27.9318 18.7734 27.9888 18.9537 27.9972C19.1341 28.0055 19.3134 27.9649 19.4725 27.8796C19.6317 27.7943 19.7648 27.6675 19.8576 27.5126C19.9505 27.3578 19.9997 27.1806 20.0001 27.0001V24.0001H24.0001C25.0609 24.0001 26.0784 23.5786 26.8285 22.8285C27.5787 22.0783 28.0001 21.0609 28.0001 20.0001V4.00001C28.0001 2.93914 27.5787 1.92172 26.8285 1.17158C26.0784 0.421429 25.0609 0 24.0001 0H4.00001C2.93914 0 1.92172 0.421429 1.17158 1.17158C0.421429 1.92172 0 2.93914 0 4.00001V20.0001C0 21.0609 0.421429 22.0783 1.17158 22.8285C1.92172 23.5786 2.93914 24.0001 4.00001 24.0001ZM2.00001 4.00001C2.00001 3.46958 2.21072 2.96087 2.58579 2.58579C2.96087 2.21072 3.46958 2.00001 4.00001 2.00001H24.0001C24.5305 2.00001 25.0392 2.21072 25.4143 2.58579C25.7894 2.96087 26.0001 3.46958 26.0001 4.00001V20.0001C26.0001 20.5305 25.7894 21.0392 25.4143 21.4143C25.0392 21.7894 24.5305 22.0001 24.0001 22.0001H19.0001C18.7348 22.0001 18.4805 22.1054 18.2929 22.293C18.1054 22.4805 18.0001 22.7349 18.0001 23.0001V25.1321L13.555 22.1681C13.3905 22.0588 13.1975 22.0004 13 22.0001H4.00001C3.46958 22.0001 2.96087 21.7894 2.58579 21.4143C2.21072 21.0392 2.00001 20.5305 2.00001 20.0001V4.00001Z" fill="#BFA082"/>
<path d="M7 20H19.6C20.2366 20 20.847 19.7472 21.2971 19.2971C21.7472 18.847 22 18.2366 22 17.6V12.4C22 11.7635 21.7472 11.1531 21.2971 10.703C20.847 10.2529 20.2366 10 19.6 10H18V8.00001C18 6.93914 17.5786 5.92172 16.8285 5.17158C16.0783 4.42143 15.0609 4 14 4C13.4696 4 12.9609 4.21071 12.5858 4.58579C12.2107 4.96086 12 5.46957 12 6.00001V8.58601L10.586 10H7C6.73479 10 6.48043 10.1054 6.29289 10.2929C6.10536 10.4804 6 10.7348 6 11V19C6 19.2653 6.10536 19.5196 6.29289 19.7072C6.48043 19.8947 6.73479 20 7 20ZM13.707 9.70702C13.8946 9.51952 14 9.26521 14 9.00002V6.00001C14.5305 6.00001 15.0392 6.21072 15.4142 6.58579C15.7893 6.96087 16 7.46958 16 8.00001V10H15V12H19.6C19.7061 12 19.8079 12.0422 19.8829 12.1172C19.9579 12.1922 20 12.2939 20 12.4V17.6C20 17.7061 19.9579 17.8079 19.8829 17.8829C19.8079 17.9579 19.7061 18 19.6 18H12V11.414L13.707 9.70702ZM8.00001 12H10V18H8.00001V12Z" fill="#BFA082"/>
<path d="M56.0002 8.00001H45.9001C45.668 6.87142 45.054 5.85735 44.1614 5.12872C43.2688 4.40009 42.1523 4.00145 41.0001 4H30.0001V6.00001H41.0001C41.6184 6.00257 42.2208 6.19609 42.7248 6.5541C43.2289 6.9121 43.6101 7.4171 43.8161 8.00001H38.0001C37.3011 8.00222 36.615 8.18816 36.0105 8.53919C35.406 8.89022 34.9045 9.394 34.5561 10H30.0001V12H34.0001V26.0001C34.0001 27.0609 34.4215 28.0784 35.1717 28.8285C35.9218 29.5787 36.9392 30.0001 38.0001 30.0001V33.0001C38.0001 33.1811 38.0492 33.3588 38.1422 33.5141C38.2353 33.6694 38.3687 33.7966 38.5284 33.882C38.688 33.9674 38.8678 34.0079 39.0486 33.9991C39.2295 33.9903 39.4045 33.9326 39.5551 33.8321L44.0001 30.8681V38.5861L42.2071 36.7931C41.3566 35.9425 40.203 35.4647 39.0001 35.4647C37.7973 35.4647 36.6437 35.9425 35.7931 36.7931C34.9426 37.6437 34.4647 38.7972 34.4647 40.0001C34.4647 41.203 34.9426 42.3566 35.7931 43.2071L40.7111 48.1251C40.3237 48.7135 40.0011 49.3422 39.7491 50.0001H31.0001V52.0001H39.2121C38.8873 54.0519 39.2253 56.1538 40.1771 58.0002H19.0001C18.2044 58.0002 17.4413 57.6841 16.8787 57.1215C16.3161 56.5589 16 55.7958 16 55.0002H24.0001C25.0609 55.0002 26.0784 54.5787 26.8285 53.8286C27.5787 53.0784 28.0001 52.061 28.0001 51.0001V43.0001C28.0001 41.9393 27.5787 40.9218 26.8285 40.1717C26.0784 39.4215 25.0609 39.0001 24.0001 39.0001H20.0001V36.0001C20.0001 35.8191 19.951 35.6414 19.8579 35.4861C19.7649 35.3308 19.6315 35.2036 19.4718 35.1182C19.3122 35.0328 19.1324 34.9923 18.9515 35.0011C18.7707 35.0099 18.5957 35.0676 18.4451 35.1681L16 36.8001V28.0001H14V38.1321L12.7 39.0001H4.00001C2.93914 39.0001 1.92172 39.4215 1.17158 40.1717C0.421429 40.9218 0 41.9393 0 43.0001V51.0001C0 52.061 0.421429 53.0784 1.17158 53.8286C1.92172 54.5787 2.93914 55.0002 4.00001 55.0002H14C14.0016 56.3258 14.5289 57.5966 15.4663 58.5339C16.4036 59.4713 17.6745 59.9986 19.0001 60.0002H41.0001C41.246 59.998 41.4914 59.9772 41.7341 59.9382C41.8194 59.9713 41.909 59.9921 42.0001 60.0002H54.0002C54.2654 60.0002 54.5197 59.8948 54.7073 59.7073C54.8948 59.5197 55.0002 59.2654 55.0002 59.0002V40.0401C55.004 37.3989 54.0529 34.8453 52.3222 32.8501L50.1242 30.0001H56.0002C57.061 30.0001 58.0785 29.5787 58.8286 28.8285C59.5788 28.0784 60.0002 27.0609 60.0002 26.0001V12C60.0002 10.9392 59.5788 9.92174 58.8286 9.17159C58.0785 8.42144 57.061 8.00001 56.0002 8.00001ZM4.00001 53.0002C3.46958 53.0002 2.96087 52.7894 2.58579 52.4144C2.21072 52.0393 2.00001 51.5306 2.00001 51.0001V43.0001C2.00001 42.4697 2.21072 41.961 2.58579 41.5859C2.96087 41.2108 3.46958 41.0001 4.00001 41.0001H13C13.1975 40.9998 13.3905 40.9414 13.555 40.8321L18.0001 37.8681V40.0001C18.0001 40.2653 18.1054 40.5197 18.2929 40.7072C18.4805 40.8948 18.7348 41.0001 19.0001 41.0001H24.0001C24.5305 41.0001 25.0392 41.2108 25.4143 41.5859C25.7894 41.961 26.0001 42.4697 26.0001 43.0001V51.0001C26.0001 51.5306 25.7894 52.0393 25.4143 52.4144C25.0392 52.7894 24.5305 53.0002 24.0001 53.0002H4.00001ZM50.7772 34.1181C52.2103 35.7581 53.0001 37.8622 53.0002 40.0401V58.0002H42.5061C41.6037 56.721 41.1087 55.199 41.0863 53.6336C41.0638 52.0683 41.5148 50.5327 42.3801 49.2281L42.8301 48.5581C42.9594 48.3657 43.0179 48.1343 42.9954 47.9036C42.973 47.6728 42.8711 47.457 42.7071 47.2931L37.2071 41.7931C36.7439 41.3151 36.4872 40.674 36.4925 40.0084C36.4977 39.3427 36.7645 38.7058 37.2352 38.2351C37.7059 37.7645 38.3428 37.4977 39.0084 37.4924C39.674 37.4872 40.3151 37.7439 40.7931 38.2071L48.2931 45.7071L49.7072 44.2931L46.0001 40.5861V30.0001H47.6001L50.7772 34.1181ZM58.0002 26.0001C58.0002 26.5305 57.7895 27.0392 57.4144 27.4143C57.0393 27.7894 56.5306 28.0001 56.0002 28.0001H45.0001C44.8027 28.0004 44.6096 28.0588 44.4451 28.1681L40.0001 31.1321V29.0001C40.0001 28.7349 39.8948 28.4805 39.7072 28.293C39.5197 28.1054 39.2653 28.0001 39.0001 28.0001H38.0001C37.4697 28.0001 36.961 27.7894 36.5859 27.4143C36.2108 27.0392 36.0001 26.5305 36.0001 26.0001V12C36.0001 11.4696 36.2108 10.9609 36.5859 10.5858C36.961 10.2107 37.4697 10 38.0001 10H56.0002C56.5306 10 57.0393 10.2107 57.4144 10.5858C57.7895 10.9609 58.0002 11.4696 58.0002 12V26.0001Z" fill="#BFA082"/>
<path d="M51.4422 13.0742C50.8465 12.9614 50.2332 12.9821 49.6465 13.1348C49.0598 13.2874 48.5142 13.5683 48.0491 13.9572L47.0001 14.8192L45.9521 13.9572C45.4869 13.5682 44.9412 13.2872 44.3543 13.1345C43.7674 12.9818 43.1539 12.9612 42.5581 13.0742C41.9319 13.202 41.3418 13.467 40.8304 13.8502C40.3189 14.2334 39.8987 14.7252 39.6001 15.2902C39.0485 16.2848 38.864 17.4416 39.0787 18.5585C39.2935 19.6753 39.894 20.6812 40.7751 21.4003L46.3841 25.7923C46.56 25.9298 46.7769 26.0045 47.0001 26.0045C47.2234 26.0045 47.4403 25.9298 47.6161 25.7923L53.2252 21.4003C54.1062 20.6809 54.7066 19.6749 54.9214 18.5579C55.1361 17.4409 54.9517 16.284 54.4002 15.2892C54.1013 14.7244 53.6811 14.2329 53.1696 13.8499C52.6582 13.4669 52.0682 13.202 51.4422 13.0742ZM51.9922 19.8202L47.0001 23.7293L42.0081 19.8202C41.5037 19.3923 41.1627 18.803 41.043 18.1524C40.9232 17.5018 41.0321 16.8298 41.3511 16.2502C41.5096 15.9435 41.734 15.6757 42.0082 15.466C42.2824 15.2563 42.5996 15.1099 42.9371 15.0372C43.0661 15.013 43.1969 15.0006 43.3281 15.0002C43.824 15.0036 44.3031 15.1805 44.6821 15.5002L46.3651 16.8852C46.5441 17.0323 46.7685 17.1127 47.0001 17.1127C47.2318 17.1127 47.4562 17.0323 47.6351 16.8852L49.3192 15.5002C49.5566 15.2973 49.8366 15.1502 50.1384 15.0698C50.4402 14.9893 50.7562 14.9775 51.0632 15.0352C51.4005 15.1079 51.7176 15.2542 51.9918 15.4637C52.266 15.6733 52.4905 15.9408 52.6492 16.2472C52.9688 16.8271 53.078 17.4997 52.9582 18.151C52.8385 18.8022 52.4972 19.392 51.9922 19.8202Z" fill="#BFA082"/>
<path d="M17.9998 44H3.99976V46H17.9998V44Z" fill="#BFA082"/>
<path d="M23.9998 44H19.9998V46H23.9998V44Z" fill="#BFA082"/>
<path d="M9.99977 48H3.99976V50H9.99977V48Z" fill="#BFA082"/>
<path d="M23.9998 48H11.9998V50H23.9998V48Z" fill="#BFA082"/>
</svg>
