<?xml version="1.0" encoding="UTF-8"?>
<!DOCTYPE svg PUBLIC "-//W3C//DTD SVG 1.1//EN" "http://www.w3.org/Graphics/SVG/1.1/DTD/svg11.dtd">
<!-- Creator: CorelDRAW X8 -->
<svg xmlns="http://www.w3.org/2000/svg" xml:space="preserve" width="10000px" height="10000px" version="1.1" style="shape-rendering:geometricPrecision; text-rendering:geometricPrecision; image-rendering:optimizeQuality; fill-rule:evenodd; clip-rule:evenodd"
viewBox="0 0 352 352"
 xmlns:xlink="http://www.w3.org/1999/xlink">
 <defs>
  <style type="text/css">
   <![CDATA[
    .fil1 {fill:none}
    .fil0 {fill:#3D91D1}
   ]]>
  </style>
 </defs>
 <g id="Слой_x0020_1">
  <metadata id="CorelCorpID_0Corel-Layer"/>
  <path class="fil0" d="M211 115c10,0 43,49 13,74 -34,28 -109,7 -80,-53 3,-5 13,-21 19,-21l48 0zm34 148c-9,21 -26,15 -32,7 -10,-14 4,-34 19,-29 11,4 15,16 13,22zm9 -1c4,-22 -25,-41 -43,-24 -29,26 10,64 34,42 6,-6 7,-10 9,-18zm-110 -21c8,-2 23,7 18,24 -1,6 -7,11 -14,12 -16,2 -26,-17 -16,-30 4,-6 9,-5 12,-6zm28 21c5,-21 -24,-42 -43,-24 -28,25 8,64 34,42 7,-7 7,-10 9,-18zm19 -97c14,2 8,13 0,14l0 -14zm-9 -13c-13,-2 -10,-14 0,-16 0,6 0,11 0,16zm1 -25c-5,2 -17,2 -18,17 -2,13 11,15 17,18 1,29 -1,16 -14,20 -1,2 -1,5 0,8l13 0 1 3c2,1 5,0 7,0 2,-2 1,-2 1,-4 24,-5 25,-29 1,-34l0 -20c5,0 10,1 14,1 6,-13 -7,-9 -14,-10 0,-4 2,-8 -8,-6 -1,3 0,4 0,7zm-137 -37l39 0c5,21 31,129 32,132 1,0 127,1 137,0 1,-1 27,-95 27,-99 -2,-1 -4,-3 -8,-1l-25 91 -124 0c-2,-5 -31,-131 -32,-132 -1,0 -42,0 -46,0l0 9zm111 3c-1,-3 -10,-16 -10,-19l80 0c0,4 -13,23 -15,28l-38 0c-8,0 -8,1 -12,0l-5 -9zm-24 -27c0,4 14,29 19,36 1,3 2,1 0,5 -2,3 1,3 -2,6 -44,50 -14,96 32,97 60,1 81,-46 47,-92 -1,-2 -4,-5 -5,-6 -1,-8 0,-3 -3,-8l20 -34c1,-3 1,-4 -3,-4l1 0c-15,0 -98,-1 -106,0z"/>
  <rect class="fil1" width="352" height="352"/>
 </g>
</svg>
