<?xml version="1.0" encoding="UTF-8"?>
<!DOCTYPE svg PUBLIC "-//W3C//DTD SVG 1.1//EN" "http://www.w3.org/Graphics/SVG/1.1/DTD/svg11.dtd">
<!-- Creator: CorelDRAW X8 -->
<svg xmlns="http://www.w3.org/2000/svg" xml:space="preserve" width="10000px" height="10000px" version="1.1" style="shape-rendering:geometricPrecision; text-rendering:geometricPrecision; image-rendering:optimizeQuality; fill-rule:evenodd; clip-rule:evenodd"
viewBox="0 0 441 441"
 xmlns:xlink="http://www.w3.org/1999/xlink">
 <defs>
  <style type="text/css">
   <![CDATA[
    .fil1 {fill:none}
    .fil0 {fill:#3C90D1}
   ]]>
  </style>
 </defs>
 <g id="Слой_x0020_1">
  <metadata id="CorelCorpID_0Corel-Layer"/>
  <path class="fil0" d="M110 90c5,-2 8,2 9,6l0 230c0,6 -1,10 5,11 5,1 209,0 231,0 18,0 12,13 6,15 -3,1 -210,0 -230,0 -12,0 -24,2 -27,-6 -1,-4 0,-213 0,-246 0,-6 1,-9 6,-10zm60 -9c-6,3 -6,8 -2,11 10,9 32,24 43,33 9,7 12,3 38,-12 31,-17 14,-20 61,28 6,7 14,19 21,17 2,-1 7,-5 1,-12l-46 -48c-19,-21 -8,-13 -65,16 -8,4 -42,-36 -51,-33zm41 220l0 -75c0,-11 12,-10 13,-3 1,3 0,65 0,74 0,12 -11,10 -13,4zm-12 -2c0,26 38,26 38,0l0 -75c0,-26 -38,-25 -38,0l0 75zm74 3c-3,6 -12,5 -12,-4 -1,-23 -1,-155 0,-157 3,-6 12,-5 12,3 1,23 0,157 0,158zm-25 -158l0 155c0,26 38,27 38,-1l0 -153c0,-28 -38,-27 -38,-1zm-83 -14c3,-2 7,-1 9,2 3,4 1,137 1,152 0,6 2,18 -3,21 -10,5 -10,-8 -10,-13l0 -154c0,-5 0,-6 3,-8zm-15 172c2,17 24,23 35,8 4,-7 3,-17 3,-27l0 -120c0,-19 5,-41 -14,-46 -9,-3 -17,2 -21,7 -5,7 -3,18 -3,27 0,15 -1,145 0,151zm173 -4c0,8 -6,9 -10,8 -5,-3 -4,-9 -4,-15l0 -74c0,-5 -1,-12 4,-15 5,-3 10,1 10,7l0 89zm-26 5c2,11 15,19 26,14 14,-6 12,-18 12,-30 0,-7 1,-78 0,-83 -2,-10 -14,-19 -26,-14 -13,6 -12,18 -12,30 0,6 -1,80 0,83zm-206 43c4,24 30,18 56,18 26,0 198,1 215,0 19,-2 26,-32 1,-39 -14,-3 -231,3 -232,-1 -1,-9 2,-222 0,-233 -5,-20 -38,-19 -40,4 0,11 0,25 0,36l0 215z"/>
  <rect class="fil1" width="441" height="441"/>
 </g>
</svg>
