<?xml version="1.0" encoding="UTF-8"?>
<!DOCTYPE svg PUBLIC "-//W3C//DTD SVG 1.1//EN" "http://www.w3.org/Graphics/SVG/1.1/DTD/svg11.dtd">
<!-- Creator: CorelDRAW X8 -->
<svg xmlns="http://www.w3.org/2000/svg" xml:space="preserve" width="10000px" height="10000px" version="1.1" style="shape-rendering:geometricPrecision; text-rendering:geometricPrecision; image-rendering:optimizeQuality; fill-rule:evenodd; clip-rule:evenodd"
viewBox="0 0 320 320"
 xmlns:xlink="http://www.w3.org/1999/xlink">
 <defs>
  <style type="text/css">
   <![CDATA[
    .fil1 {fill:none}
    .fil0 {fill:#3B90D1}
   ]]>
  </style>
 </defs>
 <g id="Слой_x0020_1">
  <metadata id="CorelCorpID_0Corel-Layer"/>
  <path class="fil0" d="M186 187c-1,-4 -7,-4 -7,0 0,5 0,10 0,14l-38 0c-1,-4 2,-17 -4,-17 -7,0 -4,13 -4,17l-9 0c-1,-4 0,-12 0,-17 0,-11 -2,-18 6,-27 9,-10 12,-6 14,-5 9,6 22,6 31,1 5,-3 6,-5 14,3 3,3 7,10 7,16l0 29 -9 0c0,-2 1,-14 -1,-14zm-29 -82c13,-4 25,13 16,26 -8,12 -27,7 -29,-6 -2,-11 4,-17 13,-20zm27 17c0,-19 -22,-33 -39,-20 -12,10 -12,27 -2,37 16,15 41,2 41,-17zm42 79l-3 0 0 -13c0,-15 11,-12 13,-18 0,0 0,0 0,0 6,2 9,2 14,0 0,1 0,1 1,3 2,1 12,2 12,15l0 13 -3 0c0,-4 2,-10 -3,-10 -5,-1 -4,7 -4,10 -3,0 -17,0 -20,0 0,-4 2,-10 -3,-10 -6,-1 -4,7 -4,10zm17 -37c-10,0 -11,-16 0,-16 10,-1 11,16 0,16zm12 2c1,-4 7,-8 2,-17 -6,-12 -23,-11 -28,0 -4,10 2,15 2,17 -19,7 -16,25 -15,42l54 0c1,-4 1,-24 -1,-28 -2,-7 -7,-12 -14,-14zm-196 35l-2 0c-1,-3 0,-8 0,-11 0,-18 9,-12 13,-20 0,0 0,0 0,0 7,3 10,0 14,0 0,5 12,5 12,17l0 14 -2 0c0,-3 1,-10 -4,-10 -5,-1 -3,7 -4,10l-19 0c0,-3 1,-10 -4,-10 -5,0 -3,7 -4,10zm16 -53c11,-3 13,14 3,15 -10,2 -14,-12 -3,-15zm14 18c1,-3 2,-3 3,-8 3,-18 -22,-25 -29,-9 -5,10 2,14 2,17 -18,8 -17,20 -15,42 6,1 52,1 54,0 1,-4 0,-23 -1,-28 -4,-11 -11,-11 -14,-14zm142 -76c-3,1 -21,-1 -23,2 -1,2 0,5 2,6 1,0 29,0 33,0 1,-4 0,-4 0,-6 0,-1 0,-22 0,-24 0,-7 -8,-7 -8,-1 0,5 1,11 0,16 -3,-1 -15,-20 -56,-29 -14,-3 -37,-2 -51,3 -18,6 -31,14 -45,28 -1,1 -6,6 -7,7 -2,5 4,8 7,4 32,-39 91,-47 133,-19 3,3 14,11 15,13zm-143 139c5,0 21,2 23,-2 1,-2 0,-5 -2,-5 -2,0 -32,0 -33,0 0,2 0,30 0,32 1,4 8,5 8,-3 0,-5 0,-10 0,-15 13,12 27,22 45,27 31,9 65,4 92,-15 35,-25 19,-29 16,-25 -17,22 -45,36 -72,36 -3,0 -4,1 -7,1 -14,-2 -21,-2 -35,-7 -8,-4 -29,-15 -35,-24zm116 -21c0,-2 0,-25 0,-29 0,-18 -7,-30 -23,-37 -8,-3 -7,7 -21,7 -15,0 -13,-9 -21,-7 -17,7 -23,20 -23,37 0,10 0,20 0,29l88 0z"/>
  <rect class="fil1" width="320" height="320"/>
 </g>
</svg>
