<?xml version="1.0" encoding="UTF-8"?>
<!DOCTYPE svg PUBLIC "-//W3C//DTD SVG 1.1//EN" "http://www.w3.org/Graphics/SVG/1.1/DTD/svg11.dtd">
<!-- Creator: CorelDRAW X8 -->
<svg xmlns="http://www.w3.org/2000/svg" xml:space="preserve" width="10000px" height="10000px" version="1.1" style="shape-rendering:geometricPrecision; text-rendering:geometricPrecision; image-rendering:optimizeQuality; fill-rule:evenodd; clip-rule:evenodd"
viewBox="0 0 293 293"
 xmlns:xlink="http://www.w3.org/1999/xlink">
 <defs>
  <style type="text/css">
   <![CDATA[
    .fil0 {fill:none}
    .fil1 {fill:#3B90D1}
   ]]>
  </style>
 </defs>
 <g id="Слой_x0020_1">
  <metadata id="CorelCorpID_0Corel-Layer"/>
  <rect class="fil0" width="293" height="293"/>
  <path class="fil1" d="M92 77c1,0 2,1 3,2 12,12 7,8 21,2 22,-10 18,2 19,-22l23 0c1,23 -3,12 19,22 20,9 8,8 23,-4 1,0 15,13 17,16 -6,9 -15,6 -8,17 4,7 7,13 9,22 1,6 10,2 17,3l-1 23c-2,0 -7,0 -10,0 -11,0 -2,3 -15,25 -5,10 -2,6 8,17 -1,2 -14,14 -16,16 -2,0 -2,-1 -3,-2 -15,-15 -3,-5 -37,3 -5,2 -2,9 -3,17l-23 0c-3,-24 9,-10 -19,-22 -6,-2 -10,-7 -13,-5 -2,0 -8,8 -11,9 -1,0 -15,-15 -16,-16 18,-21 10,1 -1,-39 -1,-6 -9,-2 -17,-3l0 -23c6,-1 16,3 17,-3 4,-17 12,-26 11,-29 -1,-3 -8,-8 -10,-10 5,-5 11,-12 16,-16zm50 86c-2,-1 -9,-8 -11,-11 -4,-4 -8,0 -7,3 0,2 8,9 9,11 13,12 8,15 34,-36 6,-12 -2,-15 -7,-4 -4,8 -15,30 -18,37zm-45 -13c-3,-28 21,-52 46,-53 29,-1 52,20 53,46 2,29 -20,51 -46,53 -29,2 -51,-20 -53,-46zm45 -60c-78,9 -65,118 9,113 50,-3 72,-67 33,-99 -9,-9 -25,-17 -42,-14zm-37 -12c-15,-13 -8,-17 -26,1 -17,17 -15,12 -2,26 0,1 -2,4 -2,5 -4,7 -4,10 -7,17 -18,3 -17,-8 -17,19 0,22 -4,20 17,19 4,15 8,18 10,23 -3,4 -12,9 -11,13 0,1 22,24 24,24 5,2 8,-6 14,-10 15,7 9,4 22,9 2,19 -6,18 20,18 24,0 17,2 19,-18 13,-4 20,-8 22,-9 15,10 6,19 26,-1 21,-21 10,-12 1,-26 1,-3 5,-9 8,-17 2,-7 -1,-6 11,-6 10,0 8,1 8,-19 0,-18 2,-19 -8,-19 -13,0 -5,5 -19,-22 15,-15 15,-10 -1,-26 -18,-18 -11,-13 -26,-1 -12,-6 -10,-5 -22,-9 -1,-21 3,-18 -20,-18 -22,0 -18,-3 -19,18 -12,4 -10,3 -22,9z"/>
 </g>
</svg>
