<?xml version="1.0" encoding="UTF-8"?>
<!DOCTYPE svg PUBLIC "-//W3C//DTD SVG 1.1//EN" "http://www.w3.org/Graphics/SVG/1.1/DTD/svg11.dtd">
<!-- Creator: CorelDRAW X8 -->
<svg xmlns="http://www.w3.org/2000/svg" xml:space="preserve" width="10000px" height="10000px" version="1.1" style="shape-rendering:geometricPrecision; text-rendering:geometricPrecision; image-rendering:optimizeQuality; fill-rule:evenodd; clip-rule:evenodd"
viewBox="0 0 391 391"
 xmlns:xlink="http://www.w3.org/1999/xlink">
 <defs>
  <style type="text/css">
   <![CDATA[
    .fil1 {fill:none}
    .fil0 {fill:#3F92D2}
   ]]>
  </style>
 </defs>
 <g id="Слой_x0020_1">
  <metadata id="CorelCorpID_0Corel-Layer"/>
  <path class="fil0" d="M192 313c2,-1 6,-1 7,0 1,1 2,9 0,13 -7,1 -7,1 -7,-3 0,-2 -1,-8 0,-10zm-54 9c-2,-10 11,-12 13,-4 2,10 -12,12 -13,4zm115 0c-2,9 -15,4 -12,-4 2,-8 15,-5 12,4zm-49 -73c0,3 0,16 0,18 -2,6 -14,3 -15,3 -2,-2 -1,-15 -1,-18 0,-4 2,-3 6,-3 3,0 7,0 10,0zm-72 -9c-9,0 -8,-19 5,-19l118 0c12,0 13,19 4,19l-127 0zm51 -34c0,-5 1,-3 25,-3l0 9 -25 0 0 -6zm-30 -12c-18,0 -13,-19 -11,-34 1,-10 8,-81 11,-87 4,-7 10,-6 19,-6l49 0c7,0 15,0 17,7 3,6 9,71 11,87 1,12 8,33 -10,33l-86 0zm-50 -13c-1,-8 0,-14 8,-14 9,0 9,6 8,14l-16 0zm185 0c-3,1 -16,2 -16,-2 0,-8 0,-12 8,-12 9,0 9,6 8,14zm-4 9c11,-1 15,5 13,-18 -1,-18 -32,-19 -34,1 -2,22 4,16 14,17 1,5 1,27 -6,31 -4,-1 0,-9 -23,-9 -11,0 -23,1 -33,0 0,-11 -2,-9 8,-9 26,0 40,1 36,-34 -2,-16 -10,-92 -13,-99 -3,-7 -11,-12 -20,-12 -102,-1 -76,-7 -89,73 -1,6 -6,50 -6,54 2,25 42,15 45,18 1,2 1,7 1,9 -7,1 -25,0 -33,0 -14,0 -16,0 -24,9 -7,-2 -6,-25 -5,-31 11,0 15,4 13,-18 -2,-18 -33,-18 -34,1 -1,20 0,17 13,17 2,10 -4,27 11,38 0,32 14,17 61,21 3,17 -7,24 12,31l0 11c-7,2 -31,-2 -38,3 -5,3 -6,7 -9,11 -2,3 -8,2 -12,9 -6,11 6,24 17,18 18,-8 1,-25 1,-25 4,-10 10,-9 17,-9 7,0 17,0 24,1l0 7c-10,5 -5,23 -4,25 3,3 4,2 9,2 9,0 10,-3 10,-12 0,-7 2,-12 -6,-16l0 -6c5,-1 33,-2 36,1 1,1 5,6 5,7 -2,3 -3,3 -5,6 -4,6 -1,17 6,20 16,5 26,-17 11,-25 -3,-2 -4,0 -6,-4 -13,-22 -26,-8 -47,-13l0 -11c3,-1 5,-1 8,-3 8,-7 3,-18 4,-28 50,-2 61,9 61,-21 15,-9 9,-31 11,-38z"/>
  <rect class="fil1" width="391" height="391"/>
 </g>
</svg>
