<?xml version="1.0" encoding="UTF-8"?>
<!DOCTYPE svg PUBLIC "-//W3C//DTD SVG 1.1//EN" "http://www.w3.org/Graphics/SVG/1.1/DTD/svg11.dtd">
<!-- Creator: CorelDRAW X8 -->
<svg xmlns="http://www.w3.org/2000/svg" xml:space="preserve" width="10000px" height="10000px" version="1.1" style="shape-rendering:geometricPrecision; text-rendering:geometricPrecision; image-rendering:optimizeQuality; fill-rule:evenodd; clip-rule:evenodd"
viewBox="0 0 741 741"
 xmlns:xlink="http://www.w3.org/1999/xlink">
 <defs>
  <style type="text/css">
   <![CDATA[
    .fil1 {fill:none}
    .fil0 {fill:#8112E6}
   ]]>
  </style>
 </defs>
 <g id="Слой_x0020_1">
  <metadata id="CorelCorpID_0Corel-Layer"/>
  <path class="fil0" d="M474 137l114 0 0 111 -114 0 0 -111zm-206 464c0,6 4,9 8,9l144 0c12,0 10,-16 1,-16l-147 0c-2,0 -6,3 -6,7zm0 -223c0,12 16,9 35,9 12,0 117,1 121,-1 8,-4 5,-16 -3,-16l-145 0c-4,0 -8,4 -8,8zm0 127c0,8 6,10 13,10l135 0c17,0 16,-18 1,-18 -17,0 -139,-2 -146,2 -1,1 -3,4 -3,6zm239 -320c0,-16 24,-22 31,-7 12,25 -31,33 -31,7zm-17 0c0,24 26,42 50,29 12,11 23,26 31,15 7,-9 -12,-19 -18,-27 1,-3 11,-21 -3,-37 -22,-26 -60,-9 -60,20zm-304 194c0,-5 -1,-45 2,-45 5,0 47,-2 47,1 0,5 1,46 -2,46 -5,0 -47,1 -47,-2zm-17 -51c0,23 -5,69 7,69l68 0c14,0 8,-42 8,-70 0,-6 -4,-10 -11,-10 -14,0 -64,-3 -69,3 -3,2 -3,4 -3,8zm17 179c0,-5 -1,-45 2,-45 5,0 47,-2 47,1 0,5 1,45 -2,45 -5,0 -47,2 -47,-1zm-17 -51c0,22 -5,69 7,69l68 0c14,0 8,-45 8,-69 0,-7 -3,-12 -10,-12l-63 0c-8,0 -10,6 -10,12zm17 103c0,-3 44,-2 49,-2l0 47 -49 0 0 -45zm-17 -8c0,86 -14,70 74,70 15,0 9,-39 9,-70 0,-6 -3,-11 -9,-11 -11,0 -67,-3 -72,3 -2,2 -2,5 -2,8zm99 -88c0,6 4,9 10,9 29,0 286,3 292,-2 6,-5 2,-15 -8,-15l-284 0c-6,0 -10,4 -10,8zm0 95c0,7 4,10 9,10l287 0c11,0 12,-17 -1,-17l-285 0c-6,0 -10,4 -10,7zm0 -223c0,6 4,10 8,10l289 0c8,0 13,-18 -4,-18 -29,0 -280,0 -286,1 -4,1 -7,4 -7,7zm-114 76c0,-11 -2,-109 1,-109l431 0c3,0 3,111 0,111l-431 0c-1,0 -1,-1 -1,-2zm-18 -119l0 131c0,2 4,7 10,7l451 0c4,0 8,-5 8,-7 0,-16 3,-131 -3,-136 -1,-1 -3,-2 -6,-2l-451 0c-4,0 -9,4 -9,7zm18 -153c0,-3 276,-2 302,-2l0 111 -302 0 0 -109zm-18 -12l0 131c0,4 5,7 10,7l449 0c6,0 10,-4 10,-6l0 -132c0,-3 -5,-6 -6,-6l-457 0c-1,0 -6,4 -6,6z"/>
  <rect class="fil1" width="741" height="741"/>
 </g>
</svg>
