<?xml version="1.0" encoding="UTF-8"?>
<!DOCTYPE svg PUBLIC "-//W3C//DTD SVG 1.1//EN" "http://www.w3.org/Graphics/SVG/1.1/DTD/svg11.dtd">
<!-- Creator: CorelDRAW X8 -->
<svg xmlns="http://www.w3.org/2000/svg" xml:space="preserve" width="10000px" height="10000px" version="1.1" style="shape-rendering:geometricPrecision; text-rendering:geometricPrecision; image-rendering:optimizeQuality; fill-rule:evenodd; clip-rule:evenodd"
viewBox="0 0 421 421"
 xmlns:xlink="http://www.w3.org/1999/xlink">
 <defs>
  <style type="text/css">
   <![CDATA[
    .fil1 {fill:none}
    .fil0 {fill:#8112E6}
   ]]>
  </style>
 </defs>
 <g id="Слой_x0020_1">
  <metadata id="CorelCorpID_0Corel-Layer"/>
  <path class="fil0" d="M138 292c0,-36 -3,-33 7,-38 4,-3 21,-14 25,-14l0 35c0,1 -32,20 -32,17zm155 -35c4,-2 29,-17 33,-17 0,47 6,30 -28,50 -8,5 -5,5 -5,-33zm-167 2l0 34c0,0 -32,-16 -32,-19 0,-33 -3,-36 4,-32l28 15c1,1 0,1 0,2zm123 -19c4,0 27,14 31,17 3,1 1,32 1,36 -10,-6 -20,-12 -31,-17 -2,-1 -1,-2 -1,-3l0 -33zm-148 -11l31 -17c5,2 29,17 32,17l0 1c-6,1 -23,12 -29,15 -4,2 -7,0 -11,-3 -3,-2 -21,-12 -23,-12l0 -1zm186 -17c6,5 23,13 32,17 -2,2 -30,17 -32,18 -1,0 -27,-15 -31,-17 2,-3 27,-15 31,-18zm-127 -64c0,7 -3,17 3,20l36 20c10,5 10,6 19,1 47,-26 42,-16 42,-41 0,-1 0,-1 0,-2 3,0 43,24 43,24 0,47 5,38 -12,30 -7,-3 -18,6 -24,9 -7,4 -30,15 -30,21 0,62 -6,49 21,64 1,1 2,2 4,2 0,1 -50,29 -52,29 -3,1 -46,-25 -52,-29 1,-2 21,-11 23,-13 4,-3 2,-42 2,-49 0,-3 3,-5 -1,-9 -1,-2 -5,-2 -7,-3 -12,-7 -26,-15 -39,-22 -7,-4 -13,5 -20,7l0 -37c6,-3 40,-24 44,-24 0,1 0,1 0,2zm88 -24l0 34c0,1 -28,18 -32,18 4,-47 -13,-26 30,-52 1,0 2,-1 2,0zm-76 6c0,-9 -2,-8 25,7 10,6 7,3 7,39 -2,0 -32,-17 -32,-18l0 -28zm38 -34c5,2 26,15 31,17 0,1 -28,16 -31,17 -2,1 -27,-15 -32,-17 1,-2 32,-17 32,-17zm-50 36c-15,8 -40,20 -53,29 -5,3 -3,41 -3,50 0,7 -22,10 -22,18l0 51c0,4 6,6 9,8l37 20c6,3 10,0 15,-3 5,-3 20,9 25,11 13,7 26,15 39,22 5,3 17,-6 22,-9 12,-8 25,-14 38,-21 7,-4 7,-5 10,-3 14,8 11,5 37,-10l18 -9c5,-3 5,-3 5,-9l0 -41c0,-6 5,-10 -2,-13 -4,-1 -20,-7 -20,-12 0,-55 6,-46 -14,-57 -13,-7 -25,-14 -38,-21 -8,-4 1,-19 -3,-24 -1,-1 -11,-6 -14,-7 -32,-17 -32,-24 -44,-16 -46,27 -42,13 -42,46z"/>
  <rect class="fil1" width="421" height="421"/>
 </g>
</svg>
