<?xml version="1.0" encoding="UTF-8"?>
<!DOCTYPE svg PUBLIC "-//W3C//DTD SVG 1.1//EN" "http://www.w3.org/Graphics/SVG/1.1/DTD/svg11.dtd">
<!-- Creator: CorelDRAW X8 -->
<svg xmlns="http://www.w3.org/2000/svg" xml:space="preserve" width="10000px" height="10000px" version="1.1" style="shape-rendering:geometricPrecision; text-rendering:geometricPrecision; image-rendering:optimizeQuality; fill-rule:evenodd; clip-rule:evenodd"
viewBox="0 0 592 592"
 xmlns:xlink="http://www.w3.org/1999/xlink">
 <defs>
  <style type="text/css">
   <![CDATA[
    .fil1 {fill:none}
    .fil0 {fill:#8112E6}
   ]]>
  </style>
 </defs>
 <g id="Слой_x0020_1">
  <metadata id="CorelCorpID_0Corel-Layer"/>
  <path class="fil0" d="M215 115c18,5 -23,17 43,0 152,-37 283,135 192,283 -60,99 -202,107 -284,30 -90,-84 -43,-194 -43,-203 -4,-1 -7,-7 -11,-10 -57,118 31,272 164,280 227,12 303,-275 114,-376 -77,-40 -175,-15 -175,-4zm70 125c8,15 79,25 47,80 -17,28 -60,23 -75,-4 -4,-8 -8,-29 -19,-30 -9,107 158,75 106,-23 -10,-18 -39,-30 -59,-23zm-173 -88l38 0c1,-4 1,-36 1,-43 14,13 66,59 66,69l0 40c-58,0 -46,-3 -82,-38 -9,-8 -18,-18 -27,-22l4 -6zm23 -37l0 22c-20,0 -40,-4 -40,21 0,10 67,73 77,74 69,4 35,-15 116,67 11,11 20,0 7,-14 -60,-66 -64,-42 -63,-94 0,-35 -13,-36 -49,-73 -7,-7 -14,-14 -22,-20 -8,-5 -26,-1 -26,17zm122 59c0,34 6,-6 70,12 129,37 100,224 -36,224 -75,0 -126,-78 -105,-147 0,-2 1,-2 1,-5 -7,0 -21,-5 -21,25 0,72 32,124 108,140 111,24 210,-121 111,-221 -46,-45 -128,-37 -128,-28z"/>
  <rect class="fil1" width="592" height="592"/>
 </g>
</svg>
