<?xml version="1.0" encoding="UTF-8"?>
<!DOCTYPE svg PUBLIC "-//W3C//DTD SVG 1.1//EN" "http://www.w3.org/Graphics/SVG/1.1/DTD/svg11.dtd">
<!-- Creator: CorelDRAW X8 -->
<svg xmlns="http://www.w3.org/2000/svg" xml:space="preserve" width="10000px" height="10000px" version="1.1" style="shape-rendering:geometricPrecision; text-rendering:geometricPrecision; image-rendering:optimizeQuality; fill-rule:evenodd; clip-rule:evenodd"
viewBox="0 0 993 993"
 xmlns:xlink="http://www.w3.org/1999/xlink">
 <defs>
  <style type="text/css">
   <![CDATA[
    .fil1 {fill:none}
    .fil0 {fill:#8112E6}
   ]]>
  </style>
 </defs>
 <g id="Слой_x0020_1">
  <metadata id="CorelCorpID_0Corel-Layer"/>
  <path class="fil0" d="M283 438c7,-5 15,-14 21,-19 17,5 14,33 44,15 69,-41 80,-3 80,-64l24 0c0,56 -5,103 66,115 7,1 15,1 22,1 0,78 -4,90 58,48 4,-3 8,-6 12,-8 8,35 13,32 46,32l0 29c-63,0 -26,12 -67,75 -15,24 3,26 15,43 -2,6 -16,16 -21,20 -38,-25 -9,-29 -66,-3 -14,7 -54,9 -58,29 -1,6 1,15 -1,24l-30 0c0,-55 -6,-25 -80,-65 -26,-13 -25,6 -44,15 -5,-3 -19,-14 -21,-20 16,-24 30,-16 12,-47 -36,-61 -4,-71 -64,-71l0 -29c61,0 29,-13 69,-79 16,-27 -15,-24 -17,-41zm314 -18c0,34 53,18 40,-7 -12,-22 -40,-11 -40,7zm-43 -123c0,18 27,30 34,9 5,-16 6,-45 44,-36 24,5 27,31 17,50 -8,15 -65,53 -35,68 23,12 62,-46 71,-62 37,-67 -77,-134 -124,-54 -4,7 -7,17 -7,25zm-109 327c-41,0 -71,-43 -46,-81 38,-58 136,3 85,64 -8,10 -26,17 -39,17zm-90 -61c0,77 71,117 136,81 86,-48 29,-172 -66,-155 -31,6 -70,39 -70,74zm131 -147c0,-33 -6,-154 5,-178 7,-16 25,-20 41,-20l185 0c21,0 45,11 45,33 0,29 4,157 -2,174 -15,47 -80,13 -108,31l-78 53c0,-17 8,-49 -11,-56 -6,-2 -77,8 -77,-37zm-34 -166l0 87c-36,0 -70,-8 -59,42 -20,5 -39,13 -57,23 -41,-27 -14,-44 -81,17 -19,18 -16,26 3,44 2,2 4,5 7,6 -34,63 -10,56 -52,56 -25,0 -16,43 -16,81 0,25 42,5 45,18 6,18 13,35 23,51 -34,33 -36,31 27,86 16,14 32,-8 44,-18 13,4 28,13 41,18 7,3 16,1 16,8 0,52 11,38 87,38 25,0 5,-39 19,-43 62,-17 37,-31 66,-8 27,22 38,-3 69,-32 21,-20 12,-27 -8,-45 -9,-9 19,-44 19,-58 19,-5 46,6 46,-22 0,-14 4,-57 -4,-67 -11,-13 -27,-4 -42,-8 0,-7 -5,-13 -5,-19 17,-4 18,-19 40,-19 46,0 87,1 111,-44 11,-22 5,-163 5,-197 0,-27 -35,-59 -61,-59l-222 0c-30,0 -61,35 -61,64z"/>
  <rect class="fil1" width="993" height="993"/>
 </g>
</svg>
