<?xml version="1.0" encoding="UTF-8"?>
<!DOCTYPE svg PUBLIC "-//W3C//DTD SVG 1.1//EN" "http://www.w3.org/Graphics/SVG/1.1/DTD/svg11.dtd">
<!-- Creator: CorelDRAW X8 -->
<svg xmlns="http://www.w3.org/2000/svg" xml:space="preserve" width="10000px" height="10000px" version="1.1" style="shape-rendering:geometricPrecision; text-rendering:geometricPrecision; image-rendering:optimizeQuality; fill-rule:evenodd; clip-rule:evenodd"
viewBox="0 0 492 492"
 xmlns:xlink="http://www.w3.org/1999/xlink">
 <defs>
  <style type="text/css">
   <![CDATA[
    .fil1 {fill:none}
    .fil0 {fill:#8112E6;fill-rule:nonzero}
   ]]>
  </style>
 </defs>
 <g id="Слой_x0020_1">
  <metadata id="CorelCorpID_0Corel-Layer"/>
  <path class="fil0" d="M375 353c-13,-8 -25,11 -13,19 12,10 26,-11 13,-19zm-285 -111c-1,-11 18,-4 10,4 -3,2 -9,1 -10,-4zm-19 3c-6,-8 10,-13 10,-4 0,5 -7,8 -10,4zm50 -3c0,10 -18,2 -8,-5 5,-4 8,1 8,5zm116 130l0 16c4,-3 9,-6 13,-8 -4,-3 -9,-5 -13,-8zm-9 24c0,-6 -2,-32 1,-35 5,-5 16,5 31,13 12,7 -3,13 -9,16 -2,2 -23,17 -23,6zm151 -153c0,4 -1,13 0,17 0,0 1,0 1,0 0,-2 1,-17 -1,-17 0,0 0,0 0,0zm15 15l16 0 4 -16c-5,-2 -20,3 -19,-5 -1,2 -4,4 -6,6l0 15 5 0zm-9 -25c0,0 0,0 0,0 7,-9 1,-19 13,-17 9,1 8,12 7,17 19,0 23,2 14,29 -4,11 -27,2 -32,6 -2,3 -18,3 -18,-3 0,-32 -5,-32 14,-32 1,0 1,0 2,0zm-30 -21c0,0 0,0 0,0 0,0 0,0 0,0zm0 0l0 60 83 0 0 -60c-20,2 -63,2 -83,0zm83 0c0,0 0,0 0,0 0,0 0,0 0,0zm-92 65l0 -70c0,-1 2,-4 4,-4l93 0c2,0 4,3 4,4l0 71c0,2 -3,4 -5,4 -11,0 -91,1 -95,-2 -1,-1 -1,-2 -1,-3zm-142 133l83 0c-1,-9 0,-48 0,-60l-83 0 0 60zm-9 6l0 -72c0,-3 5,-3 7,-3 11,0 88,-2 92,0 2,1 3,2 3,5 0,9 2,67 -1,71 -1,1 -2,2 -3,2l-94 0c-2,0 -4,-2 -4,-3zm-141 -198l0 47c0,1 17,-3 17,5 0,5 0,11 0,15 3,-3 17,-20 20,-20l46 0 0 -47c-20,2 -63,2 -83,0l0 0zm0 0c0,0 0,0 0,0 0,0 0,0 0,0zm83 0c0,0 0,0 0,0 0,0 0,0 0,0zm-92 53c0,-8 -1,-57 1,-60 1,-1 2,-2 4,-2 11,0 91,-2 95,1 3,3 1,52 1,60 0,10 -33,3 -51,5 -7,0 -27,36 -33,24 -2,-3 -1,-20 -1,-24 -3,0 -16,2 -16,-4zm154 6c-1,-1 -2,-2 -2,-3l0 0 3 5c0,0 -1,-2 -1,-2zm47 -1c4,0 10,-2 12,-6 -6,2 -12,3 -17,5 1,1 3,1 5,1zm-41 -7l4 6 74 -21 -23 -38c-11,10 -47,43 -55,53zm63 -61c0,0 0,0 -1,1 0,2 24,41 25,42l3 -1c-5,-8 -23,-36 -26,-43 0,0 0,0 -1,1zm-82 66c-2,-7 7,-7 15,-15 19,-17 46,-41 62,-59 14,-15 14,7 37,42 13,18 5,15 -33,26 0,18 -26,24 -36,10 -29,7 -26,11 -31,12 -5,2 -12,-11 -14,-16zm51 -158l-32 -27 0 47 83 0c-2,-7 0,-44 0,-48 -13,11 -25,22 -37,33 -6,6 -11,-1 -14,-5zm43 -34l-68 0c8,7 27,26 34,30 12,-9 22,-20 34,-30zm-85 58c0,-8 -1,-62 2,-65 0,-1 1,-2 2,-2 10,0 95,-1 97,1 2,3 1,59 1,67 0,2 -3,4 -4,4 -11,0 -91,1 -94,0 -2,-1 -4,-3 -4,-5zm-71 230c15,0 14,-25 -2,-23 -15,1 -15,23 2,23zm117 -46c63,4 110,-65 77,-121 -11,-19 -32,-35 -54,-40 -44,-9 -90,18 -99,63 -3,12 -3,26 1,38 4,11 12,27 20,36 15,14 35,23 55,24zm-123 -192c18,4 23,-19 7,-22 -15,-3 -20,17 -7,22zm255 -21c-17,-6 -23,22 -5,23 13,1 17,-18 5,-23zm-271 13c-4,-27 38,-33 42,-5 1,4 -1,9 -3,14 15,12 28,31 43,42 25,-18 43,-27 78,-22 18,3 33,11 46,22 1,-2 40,-40 42,-41l0 -1c-8,-6 -1,-32 19,-32 27,1 29,42 -4,42 -3,0 -5,-2 -8,-3 -3,5 -36,35 -42,42 29,33 32,83 3,118 -2,1 -3,2 -4,3 3,3 35,36 43,42 11,-4 22,-5 29,8 16,27 -29,44 -38,15 -2,-6 0,-11 2,-17 -11,-8 -32,-35 -42,-41 -21,15 -28,19 -52,23 -25,4 -49,-6 -68,-20 -1,-1 -3,-2 -4,-3 -1,0 -38,36 -41,41 9,32 -38,39 -41,10 -2,-18 18,-30 33,-20 0,1 2,2 2,2 11,-8 34,-36 41,-40 -1,-1 -24,-26 -24,-53 0,-28 5,-46 24,-68 -10,-12 -34,-33 -44,-43 -13,8 -30,0 -32,-15z"/>
  <rect class="fil1" width="492" height="492"/>
 </g>
</svg>
