<?xml version="1.0" encoding="UTF-8"?>
<!DOCTYPE svg PUBLIC "-//W3C//DTD SVG 1.1//EN" "http://www.w3.org/Graphics/SVG/1.1/DTD/svg11.dtd">
<!-- Creator: CorelDRAW X8 -->
<svg xmlns="http://www.w3.org/2000/svg" xml:space="preserve" width="70px" height="140px" version="1.1" style="shape-rendering:geometricPrecision; text-rendering:geometricPrecision; image-rendering:optimizeQuality; fill-rule:evenodd; clip-rule:evenodd"
viewBox="0 0 407 850"
 xmlns:xlink="http://www.w3.org/1999/xlink">
 <defs>
  <style type="text/css">
   <![CDATA[
    .fil0 {fill:#7690C9;fill-rule:nonzero}
   ]]>
  </style>
 </defs>
 <g id="Слой_x0020_1">
  <metadata id="CorelCorpID_0Corel-Layer"/>
  <path class="fil0" d="M75 177l0 -71 17 0c6,0 10,1 13,4 2,3 4,7 4,12l0 3c0,7 -3,12 -7,14 5,2 8,7 8,16l0 5c0,6 -1,10 -4,13 -3,3 -8,4 -13,4l-18 0 0 0zm-6 31l338 0 0 1 0 25 0 28 0 36 0 552 -11 0 -11 0 -106 0 -258 0 -21 0 0 -585 0 0 0 -2 0 -1 385 0 0 -28 -316 0 0 -26 0 0zm210 90l0 527 27 0 0 -527 -27 0zm43 0l0 527 23 0 0 -527 -23 0zm39 0l0 527 24 0 0 -527 -24 0zm-285 527l16 0 0 -522 -16 0 0 522zm39 0l16 0 0 -522 -16 0 0 522zm51 0l16 0 0 -522 -16 0 0 522zm39 0l15 0 0 -522 -15 0 0 522zm38 -648l0 -71 12 0 0 61 12 0 0 -61 12 0 0 61 5 0 0 20 -12 0 0 -10 -29 0 0 0zm-86 -106l0 -71 11 0 0 31 13 0 0 -31 11 0 0 71 -11 0 0 -30 -13 0 0 30 -11 0zm47 55l0 -72 30 0 0 10 -19 0 0 20 15 0 0 10 -15 0 0 21 19 0 0 11 -30 0 0 0zm-89 0l0 -72 31 0 0 10 -19 0 0 20 15 0 0 10 -15 0 0 21 19 0 0 11 -31 0 0 0zm-29 41l7 0c2,0 3,0 4,-1 1,-2 2,-3 2,-6l0 -6c0,-3 -1,-6 -2,-7 -1,-1 -3,-2 -5,-2l-6 0 0 22 0 0zm0 -32l5 0c2,0 4,-1 5,-2 1,-1 2,-3 2,-6l0 -4c0,-2 -1,-4 -2,-5 -1,-1 -2,-2 -4,-2l-6 0 0 19 0 0z"/>
 </g>
</svg>
