<?xml version="1.0" encoding="UTF-8"?>
<!DOCTYPE svg PUBLIC "-//W3C//DTD SVG 1.1//EN" "http://www.w3.org/Graphics/SVG/1.1/DTD/svg11.dtd">
<!-- Creator: CorelDRAW X8 -->
<svg xmlns="http://www.w3.org/2000/svg" xml:space="preserve" width="70px" height="140px" version="1.1" style="shape-rendering:geometricPrecision; text-rendering:geometricPrecision; image-rendering:optimizeQuality; fill-rule:evenodd; clip-rule:evenodd"
viewBox="0 0 109 349"
 xmlns:xlink="http://www.w3.org/1999/xlink">
 <defs>
  <style type="text/css">
   <![CDATA[
    .fil0 {fill:#7690C9}
   ]]>
  </style>
 </defs>
 <g id="Слой_x0020_1">
  <metadata id="CorelCorpID_0Corel-Layer"/>
  <path class="fil0" d="M76 0c-1,1 -1,4 -1,6l0 12c-2,0 -3,1 -3,2 0,1 1,1 2,2l0 27c-5,0 -4,5 -1,5l0 17c-6,-1 -5,4 -2,4l0 32c-2,3 -4,7 -5,10l20 0c-1,-3 -3,-7 -5,-10l0 -32c3,0 4,-5 -1,-4l0 -17c2,0 3,-5 -1,-5l-1 -27c1,-1 2,-1 2,-2 0,-1 -1,-2 -2,-2l0 -12c0,-2 -1,-5 -2,-6l0 0zm-31 349l61 0 0 -11c2,0 3,-1 3,-2l0 0c0,-1 -1,-2 -4,-2l-7 0 0 -6c2,0 3,-1 3,-2l0 0c0,-1 -1,-2 -3,-2l-12 0 0 -6 5 0c1,0 2,-1 2,-2l0 0c0,-1 -1,-2 -2,-2l-11 0 0 -5c4,-4 8,-7 11,-10 1,-1 2,-2 3,-3 5,-5 9,-11 10,-17l0 0c0,0 0,0 0,0 1,-3 0,-5 -3,-7 -1,-1 -3,-1 -6,-1l-15 -24 0 -64c0,-1 1,-2 1,-3 5,-6 8,-13 8,-19 0,-6 -3,-12 -8,-18 0,0 0,0 0,-1 3,-3 5,-6 5,-11l-21 0 0 0c1,5 4,9 7,13l0 42c-7,12 -10,21 -10,29 0,3 0,4 0,6 -2,12 -3,24 -4,37l-1 0 1 0c-1,2 -1,3 -1,5 -1,10 -1,20 -2,30 -8,8 -13,20 -14,33 -12,6 -25,11 -39,14 -2,0 -2,1 -2,3 0,1 1,1 3,1l0 0c23,-6 45,-15 63,-26l0 6 -10 0 0 0c-1,0 -2,1 -2,2l0 0c0,1 1,2 2,2l0 6 -10 0 0 0c-2,0 -4,1 -4,2l0 0c0,1 2,2 3,2l0 11zm12 -71l14 -1 -12 -17c0,1 0,2 0,3 -1,5 -1,10 -2,15zm15 0l0 0 0 0 0 0zm0 1l-15 0c0,4 0,8 0,12 4,-5 10,-9 15,-12zm-12 -22l12 0 0 -10 -12 10zm12 1l-12 1 12 18 0 -19zm-3 -56l3 7 0 -15c-1,3 -2,6 -3,8l0 0zm3 18l-5 5c1,4 3,7 5,11l0 -16zm-13 36l13 -11 0 -1 -1 -3 0 0c-4,-5 -7,-10 -8,-16 -1,10 -3,21 -4,31zm8 -33l5 -5 0 -6 -4 -9c-1,5 -2,9 -2,13 0,2 0,5 1,7zm5 91l0 0 0 0 0 0zm-16 -16c0,7 0,14 0,21 4,-2 7,-4 10,-6 2,-1 4,-3 6,-4l0 0c-2,0 -4,0 -6,-1 -3,-1 -6,-2 -7,-5 0,0 0,0 0,0 0,0 0,0 0,0 -3,-10 5,-12 13,-14l0 -6c-5,4 -11,9 -16,15zm-1 22c0,-7 0,-14 0,-21 -5,7 -9,16 -10,25 4,-1 7,-3 10,-4zm33 -24c7,-6 11,-13 12,-18 0,-1 0,-2 -1,-2 0,0 -1,-1 -2,-1l0 0 0 0c-2,10 -9,14 -17,16l0 11c3,-2 6,-4 8,-6zm-8 -9c6,-2 11,-5 13,-12 -1,0 -1,0 -1,0 -4,1 -8,2 -12,4l0 0 0 8zm0 -12c4,-2 7,-3 10,-3l-10 -17 0 20zm0 -100c3,-4 5,-9 5,-14 0,-5 -2,-9 -5,-14l0 28zm-8 118c-6,1 -10,3 -9,9l0 0c0,1 2,2 4,2 2,1 4,1 5,0l0 -11zm-8 -174l0 10 1 0 22 0 1 0 0 -10 -24 0 0 0z"/>
 </g>
</svg>
