<?xml version="1.0" encoding="UTF-8"?>
<!DOCTYPE svg PUBLIC "-//W3C//DTD SVG 1.1//EN" "http://www.w3.org/Graphics/SVG/1.1/DTD/svg11.dtd">
<!-- Creator: CorelDRAW X8 -->
<svg xmlns="http://www.w3.org/2000/svg" xml:space="preserve" width="70px" height="140px" version="1.1" style="shape-rendering:geometricPrecision; text-rendering:geometricPrecision; image-rendering:optimizeQuality; fill-rule:evenodd; clip-rule:evenodd"
viewBox="0 0 94 360"
 xmlns:xlink="http://www.w3.org/1999/xlink">
 <defs>
  <style type="text/css">
   <![CDATA[
    .fil0 {fill:#7690C9}
   ]]>
  </style>
 </defs>
 <g id="Слой_x0020_1">
  <metadata id="CorelCorpID_0Corel-Layer"/>
  <path class="fil0" d="M94 360l-9 -110c2,0 3,-1 3,-3 0,-2 -1,-4 -3,-4l0 -58c2,0 3,-2 3,-4 0,-2 -1,-4 -3,-4l0 -51 -4 -4 0 -34 4 -3 -15 -8c0,-12 -6,-23 -16,-30l-5 -40c1,-1 2,-2 2,-3 0,-2 -2,-4 -4,-4 -2,0 -4,2 -4,4 0,1 1,2 2,3l-5 40c-9,7 -16,18 -16,30l-15 8 4 3 0 34 -4 4 0 51c-2,0 -3,2 -3,4 0,2 1,3 3,3l0 59c-2,0 -3,2 -3,4 0,2 1,3 3,3l-9 110 94 0 0 0zm-54 -189l0 -28c0,-4 3,-7 7,-7 4,0 8,3 8,7l0 28 -15 0 0 0zm11 23c0,2 -2,4 -4,4 -2,0 -4,-2 -4,-4 0,-2 2,-4 4,-4 2,0 4,2 4,4zm-2 128l-4 0 0 -19 4 0 0 19zm0 -38l-4 0 0 -19 4 0 0 19zm4 -49l-12 0 0 -24c0,-3 3,-6 6,-6 3,0 6,3 6,6l0 24zm20 87l-3 0 0 -19 3 0 0 19zm0 -38l-3 0 0 -19 3 0 0 19zm4 -49l-11 0 0 -24c0,-3 2,-6 6,-6 3,0 5,3 5,6l0 24 0 0zm-9 -41c0,-2 1,-4 4,-4 2,0 3,2 3,4 0,2 -1,4 -3,4 -3,0 -4,-2 -4,-4zm0 -98l7 0 0 21 -7 0 0 -21zm-4 47c0,-4 3,-7 8,-7 4,0 7,3 7,7l0 28 -15 0 0 -28 0 0zm-2 188l0 19 -7 0 0 -19 7 0zm-15 -239c5,0 9,4 9,10 0,5 -4,9 -9,9 -5,0 -9,-4 -9,-9 0,-6 4,-10 9,-10zm-23 230l-3 0 0 -19 3 0 0 19zm0 -38l-3 0 0 -19 3 0 0 19zm4 -49l-11 0 0 -24c0,-3 2,-6 6,-6 3,0 5,3 5,6l0 24 0 0 0 0zm-9 -41c0,-2 2,-4 4,-4 2,0 3,2 3,4 0,2 -1,4 -3,4 -2,0 -4,-2 -4,-4zm0 -98l7 0 0 21 -7 0 0 -21zm-4 47c0,-4 3,-7 8,-7 4,0 7,3 7,7l0 28 -15 0 0 -28 0 0z"/>
 </g>
</svg>
