<?xml version="1.0" encoding="UTF-8"?>
<!DOCTYPE svg PUBLIC "-//W3C//DTD SVG 1.1//EN" "http://www.w3.org/Graphics/SVG/1.1/DTD/svg11.dtd">
<!-- Creator: CorelDRAW X8 -->
<svg xmlns="http://www.w3.org/2000/svg" xml:space="preserve" width="2930px" height="9998px" version="1.1" style="shape-rendering:geometricPrecision; text-rendering:geometricPrecision; image-rendering:optimizeQuality; fill-rule:evenodd; clip-rule:evenodd"
viewBox="0 0 82 278"
 xmlns:xlink="http://www.w3.org/1999/xlink">
 <defs>
  <style type="text/css">
   <![CDATA[
    .fil0 {fill:#7690C9}
   ]]>
  </style>
 </defs>
 <g id="Слой_x0020_1">
  <metadata id="CorelCorpID_0Corel-Layer"/>
  <path class="fil0" d="M40 167c-8,1 -14,7 -14,16 0,0 0,0 0,0 0,8 6,15 15,15 8,0 15,-7 15,-15 0,0 0,0 0,0 0,-9 -7,-16 -15,-16 0,0 0,0 -1,0l0 0 0 0zm1 -140l-13 66 26 0 -13 -66zm-20 111l40 0 0 17 -40 0 0 -17zm40 -3l0 -39 -9 0 0 39 9 0zm-13 0l0 -39 -15 0 0 39 15 0zm-18 0l-9 0 0 -39 9 0 0 39zm-3 143l27 0 0 -23c0,-7 -6,-13 -13,-13 -8,0 -14,6 -14,13l0 23 0 0zm55 -68l0 68 -24 0 0 -23c0,-9 -8,-17 -17,-17 -10,0 -17,8 -17,17l0 23 -24 0 0 -68 82 0 0 0zm-52 -202c0,0 0,0 0,0 -1,0 -1,0 -1,1 0,0 0,0 0,0l7 5 -3 7c0,0 0,0 0,0 0,1 0,1 1,1 0,0 0,0 0,0l7 -5 6 5c0,0 1,0 1,0 0,0 0,0 0,-1 0,0 0,0 0,0l-3 -7 7 -5c0,0 0,0 0,0 0,-1 0,-1 0,-1 0,0 0,0 0,0l-8 0 -3 -8c0,0 0,0 0,0 -1,0 -1,0 -1,0l-2 8 -8 0 0 0zm-17 151l0 48 55 0 0 -48 -55 0zm27 5c1,0 1,0 1,0 10,0 19,8 19,19 0,0 0,0 0,0 0,10 -9,18 -19,18 -11,0 -19,-8 -19,-18 0,0 0,0 0,0 0,-11 8,-19 18,-19l0 0 0 0zm2 11c0,0 0,0 0,0 1,0 2,1 2,2l0 6 5 3c1,0 1,1 1,1 0,1 -1,2 -2,2 0,0 0,0 -1,0l-7 -4 0 -8c0,-1 1,-2 2,-2l0 0 0 0z"/>
 </g>
</svg>
