<svg width="60" height="60" viewBox="0 0 60 60" fill="none" xmlns="http://www.w3.org/2000/svg">
<path d="M30.0486 19.2976C29.7205 19.2672 29.39 19.3184 29.0865 19.4465C28.7829 19.5746 28.5158 19.7758 28.3087 20.032C27.725 20.6833 27.0106 21.2043 26.212 21.5608C25.4134 21.9174 24.5486 22.1016 23.674 22.1014C22.7994 22.1012 21.9347 21.9166 21.1363 21.5597C20.3378 21.2027 19.6236 20.6815 19.0402 20.0299C18.8559 19.7987 18.6217 19.6121 18.3553 19.4839C18.0889 19.3556 17.797 19.2891 17.5013 19.2892H16.7813C16.485 19.2893 16.1925 19.3562 15.9256 19.4848C15.6586 19.6134 15.424 19.8004 15.2392 20.032C14.6685 20.6986 13.9569 21.23 13.1557 21.5879C12.3545 21.9458 11.4838 22.1212 10.6065 22.1014C9.72912 22.1211 8.8583 21.9457 8.05696 21.5878C7.25562 21.2299 6.54376 20.6985 5.9728 20.032C5.76389 19.7745 5.49435 19.5727 5.18833 19.4449C4.88232 19.3171 4.54938 19.2672 4.21933 19.2997C3.89159 19.3359 3.5781 19.4535 3.30733 19.6417C3.03656 19.8299 2.81709 20.0827 2.66884 20.3773C2.5601 20.5907 0 25.7256 0 35.9744C0 50.4248 12.1979 59.9998 17.1413 59.9998C22.0847 59.9998 34.2826 50.4248 34.2826 35.9744C34.2826 25.7256 31.7225 20.5907 31.6147 20.3794C31.4649 20.0825 31.2431 19.8279 30.9695 19.6389C30.6959 19.4499 30.3792 19.3326 30.0486 19.2976ZM17.1413 57.8571C13.4021 57.8571 2.14266 49.0208 2.14266 35.9744C1.95844 31.0687 2.7504 26.1754 4.47259 21.5783C5.24749 22.4323 6.19518 23.1116 7.25276 23.5713C8.31034 24.0309 9.45359 24.2602 10.6066 24.2441C11.7817 24.274 12.9482 24.0364 14.0179 23.5492C15.0876 23.062 16.0326 22.338 16.7813 21.4319L17.3693 21.3712C18.1399 22.2556 19.0877 22.9683 20.1513 23.463C21.215 23.9577 22.3706 24.2234 23.5435 24.2429C24.7164 24.2625 25.8803 24.0354 26.9598 23.5763C28.0393 23.1173 29.0103 22.4366 29.8099 21.5783C31.5321 26.1754 32.3241 31.0687 32.1399 35.9744C32.1399 49.0208 20.8805 57.8571 17.1413 57.8571Z" fill="#BFA082"/>
<path d="M21.6276 35.3285L15.2677 41.6896L12.6552 39.0761C12.4537 38.8786 12.1823 38.7686 11.9 38.77C11.6178 38.7714 11.3476 38.8842 11.148 39.0837C10.9484 39.2833 10.8357 39.5536 10.8342 39.8358C10.8328 40.118 10.9428 40.3894 11.1404 40.591L14.5102 43.962C14.6097 44.0615 14.7278 44.1404 14.8577 44.1942C14.9877 44.2481 15.127 44.2758 15.2677 44.2758C15.4083 44.2758 15.5476 44.2481 15.6776 44.1942C15.8076 44.1404 15.9257 44.0615 16.0251 43.962L23.1426 36.8435C23.3401 36.6419 23.4501 36.3705 23.4487 36.0883C23.4473 35.806 23.3345 35.5358 23.1349 35.3362C22.9354 35.1367 22.6651 35.0239 22.3829 35.0225C22.1007 35.021 21.8293 35.1311 21.6277 35.3286L21.6276 35.3285Z" fill="#BFA082"/>
<path d="M17.1413 28.9312C15.0224 28.9312 12.9511 29.5595 11.1893 30.7367C9.4275 31.9139 8.05435 33.5871 7.24349 35.5447C6.43262 37.5023 6.22046 39.6564 6.63384 41.7345C7.04721 43.8127 8.06756 45.7216 9.56584 47.2199C11.0641 48.7182 12.9731 49.7386 15.0512 50.1519C17.1294 50.5653 19.2835 50.3531 21.2411 49.5423C23.1987 48.7314 24.8719 47.3583 26.0491 45.5965C27.2263 43.8347 27.8546 41.7634 27.8546 39.6445C27.8513 36.8041 26.7215 34.0811 24.7131 32.0727C22.7047 30.0643 19.9816 28.9345 17.1413 28.9312ZM17.1413 48.2151C15.4462 48.2151 13.7891 47.7125 12.3797 46.7707C10.9703 45.8289 9.87174 44.4904 9.22305 42.9243C8.57436 41.3582 8.40463 39.635 8.73533 37.9724C9.06603 36.3099 9.8823 34.7827 11.0809 33.5841C12.2796 32.3855 13.8067 31.5692 15.4692 31.2385C17.1318 30.9078 18.8551 31.0775 20.4211 31.7262C21.9872 32.3749 23.3258 33.4734 24.2675 34.8829C25.2093 36.2923 25.7119 37.9494 25.7119 39.6445C25.7095 41.9168 24.8058 44.0954 23.199 45.7022C21.5922 47.3089 19.4136 48.2127 17.1413 48.2151Z" fill="#BFA082"/>
<path d="M56.7803 45.0014C56.1178 45.0034 55.4722 45.2105 54.9321 45.5941C54.3919 45.9777 53.9838 46.5192 53.7637 47.144H49.281V34.2718L49.6305 34.2713C49.7958 34.2818 49.9653 34.288 50.1347 34.288C51.6355 34.2879 53.116 33.9411 54.4607 33.2747C55.8054 32.6083 56.9781 31.6403 57.8872 30.4463C58.8457 29.1956 59.5023 27.7404 59.8061 26.1943C60.1099 24.6482 60.0526 23.0528 59.6386 21.5324C59.3025 20.2517 58.7109 19.0522 57.8993 18.0061C57.0877 16.9599 56.0729 16.0887 54.916 15.4448C53.759 14.801 52.4838 14.3978 51.1669 14.2594C49.8501 14.1211 48.5189 14.2505 47.2534 14.6399C47.7715 12.1009 47.5029 9.46435 46.4834 7.08201C45.8653 5.63262 44.9581 4.32451 43.8173 3.23763C42.6764 2.15075 41.3259 1.30795 39.8483 0.760729C37.241 -0.223219 34.3697 -0.25359 31.7422 0.674986C29.1146 1.60356 26.9 3.43127 25.4899 5.83498C23.7457 4.37802 21.5449 3.58036 19.2722 3.58142C16.6343 3.6082 14.1146 4.68023 12.2661 6.56234C10.4175 8.44446 9.39093 10.983 9.41159 13.621C9.41159 13.8051 9.41682 13.9893 9.42625 14.1692C7.76999 13.9801 6.09555 14.3028 4.62827 15.0941C4.50709 15.1654 4.40114 15.2599 4.31647 15.3721C4.2318 15.4844 4.17008 15.6122 4.13481 15.7483C4.09954 15.8844 4.09143 16.0261 4.11094 16.1654C4.13044 16.3046 4.17718 16.4387 4.24849 16.5598C4.3198 16.681 4.41428 16.787 4.52653 16.8716C4.63878 16.9563 4.76661 17.018 4.90272 17.0533C5.03883 17.0886 5.18055 17.0967 5.31979 17.0772C5.45904 17.0577 5.59307 17.0109 5.71425 16.9396C6.98388 16.3098 8.42134 16.1017 9.81745 16.3454C10.0586 16.3778 10.3039 16.3546 10.5347 16.2774C10.7654 16.2003 10.9754 16.0713 11.1485 15.9004C11.3217 15.7295 11.4534 15.5212 11.5335 15.2914C11.6136 15.0617 11.64 14.8167 11.6107 14.5752C11.5726 14.2586 11.5537 13.9399 11.5542 13.621C11.533 11.5511 12.3337 9.55733 13.7805 8.07693C15.2274 6.59653 17.2023 5.75041 19.2721 5.72414C21.2431 5.72564 23.1361 6.49409 24.5503 7.86681C24.7281 8.03734 24.9433 8.16384 25.1788 8.23615C25.4143 8.30847 25.6634 8.32458 25.9062 8.28321C26.1469 8.24067 26.3746 8.14347 26.5717 7.99909C26.7689 7.85471 26.9303 7.667 27.0435 7.45042C28.1267 5.32212 29.9569 3.66816 32.1837 2.80525C34.4104 1.94234 36.8772 1.93113 39.1117 2.77376C40.3112 3.22558 41.4075 3.91415 42.3353 4.79846C43.2631 5.68278 44.0035 6.74476 44.5123 7.92117C45.4959 10.1761 45.6465 12.7071 44.9371 15.0627C44.8508 15.3509 44.8469 15.6577 44.9261 15.948C45.0053 16.2383 45.1642 16.5007 45.3849 16.7052C45.6106 16.9107 45.8907 17.0467 46.1918 17.0968C46.4928 17.1469 46.8019 17.109 47.0819 16.9877C48.0968 16.5453 49.1955 16.3279 50.3024 16.3502C51.4093 16.3726 52.4982 16.6344 53.4944 17.1174C54.4906 17.6005 55.3704 18.2935 56.0735 19.1488C56.7765 20.0041 57.286 21.0014 57.5671 22.0723C57.8967 23.2762 57.9441 24.5398 57.7056 25.765C57.4672 26.9902 56.9494 28.1439 56.1924 29.1364C55.4826 30.0705 54.5665 30.828 53.5158 31.35C52.4651 31.8719 51.308 32.1441 50.1347 32.1454C50.0071 32.1454 49.8795 32.1391 49.6681 32.1307C49.6065 32.1325 49.5451 32.1374 49.484 32.1454H38.032C37.7479 32.1454 37.4754 32.2583 37.2745 32.4592C37.0736 32.6601 36.9607 32.9326 36.9607 33.2167C36.9607 33.5009 37.0736 33.7733 37.2745 33.9743C37.4754 34.1752 37.7479 34.288 38.032 34.288L40.7104 34.2841V40.9134C39.9956 41.1661 39.3931 41.6634 39.0095 42.3173C38.6259 42.9713 38.4858 43.7398 38.614 44.487C38.7422 45.2343 39.1304 45.9122 39.7101 46.4008C40.2898 46.8895 41.0235 47.1576 41.7817 47.1576C42.5399 47.1576 43.2736 46.8895 43.8533 46.4008C44.4329 45.9122 44.8212 45.2343 44.9494 44.487C45.0776 43.7398 44.9375 42.9713 44.5539 42.3173C44.1703 41.6634 43.5678 41.1661 42.853 40.9134V34.2811L47.1384 34.275V48.2154C47.1383 48.3561 47.1659 48.4954 47.2197 48.6254C47.2735 48.7555 47.3525 48.8736 47.452 48.9731C47.5515 49.0726 47.6696 49.1515 47.7996 49.2053C47.9296 49.2591 48.069 49.2868 48.2097 49.2867H53.7637C53.9611 49.8407 54.307 50.3297 54.7635 50.7005C55.2201 51.0712 55.7697 51.3093 56.3524 51.3887C56.9351 51.4682 57.5285 51.386 58.0676 51.151C58.6068 50.9161 59.071 50.5375 59.4095 50.0566C59.748 49.5757 59.9479 49.011 59.9872 48.4242C60.0265 47.8374 59.9037 47.2511 59.6324 46.7294C59.361 46.2076 58.9515 45.7705 58.4485 45.4657C57.9455 45.161 57.3684 45.0003 56.7803 45.0014ZM41.7817 45.0014C41.5698 45.0014 41.3627 44.9385 41.1865 44.8208C41.0103 44.7031 40.873 44.5358 40.7919 44.34C40.7108 44.1443 40.6896 43.9288 40.7309 43.721C40.7723 43.5132 40.8743 43.3223 41.0241 43.1725C41.174 43.0227 41.3649 42.9206 41.5727 42.8793C41.7805 42.8379 41.9959 42.8592 42.1917 42.9403C42.3874 43.0213 42.5548 43.1587 42.6725 43.3348C42.7902 43.511 42.853 43.7181 42.853 43.93C42.8525 44.214 42.7394 44.4862 42.5386 44.687C42.3378 44.8877 42.0657 45.0008 41.7817 45.0014ZM56.7803 49.2867C56.5684 49.2867 56.3613 49.2239 56.1851 49.1061C56.009 48.9884 55.8716 48.8211 55.7906 48.6253C55.7095 48.4296 55.6883 48.2142 55.7296 48.0064C55.7709 47.7985 55.873 47.6076 56.0228 47.4578C56.1726 47.308 56.3635 47.2059 56.5713 47.1646C56.7791 47.1233 56.9946 47.1445 57.1903 47.2256C57.3861 47.3067 57.5534 47.444 57.6711 47.6202C57.7888 47.7963 57.8517 48.0035 57.8517 48.2154C57.8511 48.4993 57.738 48.7715 57.5373 48.9723C57.3365 49.1731 57.0643 49.2861 56.7803 49.2867Z" fill="#BFA082"/>
</svg>
