<svg width="188" height="220" viewBox="0 0 188 220" fill="none" xmlns="http://www.w3.org/2000/svg">
<path d="M71.5321 109.878C67.6981 109.878 65.1781 112.542 65.1781 116.61C65.1781 120.624 67.7161 123.306 71.5141 123.306C75.2761 123.306 77.8141 120.606 77.8141 116.61C77.8141 112.596 75.2761 109.878 71.5321 109.878ZM71.4961 112.182C73.6381 112.182 74.9701 113.856 74.9701 116.556C74.9701 119.292 73.6561 120.984 71.5321 120.984C69.3541 120.966 68.0221 119.31 68.0221 116.556C68.0221 113.892 69.3721 112.182 71.4961 112.182ZM87.3419 115.674V113.712H78.6839V115.674H81.7439V123H84.2819V115.674H87.3419ZM98.5379 125.736V121.038H97.3319V113.712H89.9159V115.332C89.9159 117.492 89.2859 119.976 88.7459 121.038H87.6299V125.736H90.0239V123H96.1439V125.736H98.5379ZM94.7939 121.038H91.2479C91.6799 120.066 92.2919 117.798 92.2919 115.836V115.602H94.7939V121.038ZM108.509 120.12H106.061C105.683 121.056 105.107 121.47 104.171 121.47C102.803 121.47 102.029 120.606 101.993 119.004H108.653V118.752C108.653 115.494 106.871 113.442 104.063 113.442C101.363 113.442 99.4006 115.53 99.4006 118.41C99.4006 121.326 101.291 123.27 104.153 123.27C106.259 123.27 107.933 122.136 108.509 120.12ZM106.061 117.384H101.993C102.137 116.088 102.929 115.296 104.063 115.296C105.341 115.296 105.953 116.25 106.061 117.384ZM118.438 123V113.712H110.986L110.842 119.238C110.806 120.57 110.428 121.164 109.69 121.164C109.42 121.164 109.15 121.11 108.97 121.074V123.108C109.24 123.216 109.996 123.288 110.356 123.288C113.164 123.288 113.272 120.876 113.344 118.95L113.452 115.674H115.9V123H118.438ZM69.7656 145V135.712H61.1076V145H63.6456V137.674H67.2276V145H69.7656ZM74.1535 135.712H71.7415V148.294H74.2795V143.848C74.9635 144.802 75.9715 145.234 77.1415 145.234C79.5715 145.234 81.1735 143.326 81.1735 140.41C81.1735 137.422 79.5355 135.46 77.0335 135.46C75.8455 135.46 74.8375 135.91 74.1535 136.864V135.712ZM76.4035 137.512C77.7715 137.512 78.6175 138.592 78.6175 140.41C78.6175 142.174 77.7895 143.236 76.4215 143.236C75.0175 143.236 74.1895 142.174 74.1895 140.374C74.1895 138.574 75.0175 137.512 76.4035 137.512ZM92.0694 140.356C92.0694 137.404 90.1794 135.442 87.3174 135.442C84.4014 135.442 82.4754 137.404 82.4754 140.356C82.4754 143.326 84.3834 145.288 87.2814 145.288C90.1794 145.288 92.0694 143.344 92.0694 140.356ZM89.5134 140.338C89.5134 142.246 88.6854 143.362 87.2814 143.362C85.8594 143.362 85.0314 142.264 85.0314 140.356C85.0314 138.502 85.8774 137.386 87.2454 137.386C88.6674 137.386 89.5134 138.484 89.5134 140.338ZM103.495 147.736V143.038H102.289V135.712H94.8729V137.332C94.8729 139.492 94.2429 141.976 93.7029 143.038H92.5869V147.736H94.9809V145H101.101V147.736H103.495ZM99.7509 143.038H96.2049C96.6369 142.066 97.2489 139.798 97.2489 137.836V137.602H99.7509V143.038ZM113.376 145C113.034 144.208 113.052 143.326 113.052 142.48V138.466C113.052 135.874 110.874 135.442 109.002 135.442C106.32 135.442 104.844 136.504 104.7 138.574H107.094C107.274 137.512 107.76 137.152 108.93 137.152C110.064 137.152 110.604 137.548 110.604 138.394C110.604 139.15 109.992 139.294 108.336 139.51C106.5 139.744 104.286 140.032 104.286 142.462C104.286 144.208 105.546 145.27 107.598 145.27C108.714 145.27 109.812 144.892 110.604 144.1C110.64 144.514 110.658 144.658 110.784 145H113.376ZM110.586 140.482V141.526C110.586 142.858 109.65 143.596 108.318 143.596C107.436 143.596 106.914 143.128 106.914 142.354C106.914 141.22 107.904 141.112 108.786 140.968C109.434 140.86 109.992 140.824 110.586 140.482ZM119.302 141.094L120.292 142.21V145H122.704V142.21L123.694 141.094L125.944 145H128.95L125.314 139.294L128.536 135.712H125.62L122.704 139.402V135.712H120.292V139.402L117.376 135.712H114.46L117.628 139.24L114.046 145H117.052L119.302 141.094Z" fill="#BFA082"/>
<path d="M105.636 55.3477H103.062V57.922H105.636V55.3477Z" fill="#BFA082"/>
<path d="M121.082 55.3477H118.508V57.922H121.082V55.3477Z" fill="#BFA082"/>
<path d="M113.359 50.3859V48.9121H110.785V50.3859C110.087 50.603 109.47 51.0241 109.013 51.5949C108.557 52.1657 108.281 52.8602 108.223 53.5888C108.165 54.3174 108.326 55.0468 108.685 55.6831C109.045 56.3194 109.587 56.8334 110.242 57.159L112.75 58.4127C112.972 58.5229 113.151 58.7051 113.256 58.9296C113.362 59.1541 113.389 59.4077 113.332 59.6492C113.275 59.8906 113.138 60.1058 112.943 60.2596C112.749 60.4135 112.508 60.497 112.26 60.4966H111.884C111.593 60.4963 111.313 60.3803 111.107 60.1743C110.901 59.9682 110.785 59.6888 110.785 59.3974V59.2094H108.21V59.3974C108.213 60.1767 108.464 60.9349 108.927 61.5618C109.39 62.1888 110.041 62.652 110.785 62.8843V64.3581H113.359V62.8843C114.057 62.6672 114.674 62.2461 115.131 61.6753C115.587 61.1045 115.862 60.41 115.921 59.6814C115.979 58.9528 115.818 58.2234 115.458 57.5871C115.099 56.9508 114.557 56.4368 113.902 56.1112L111.394 54.8575C111.171 54.7473 110.993 54.5651 110.887 54.3406C110.782 54.1161 110.755 53.8625 110.812 53.621C110.869 53.3796 111.006 53.1644 111.2 53.0106C111.395 52.8567 111.636 52.7732 111.884 52.7736H112.26C112.551 52.7739 112.831 52.8899 113.037 53.0959C113.243 53.302 113.359 53.5814 113.359 53.8728V54.0608H115.933V53.8728C115.931 53.0935 115.679 52.3353 115.217 51.7084C114.754 51.0814 114.103 50.6182 113.359 50.3859Z" fill="#BFA082"/>
<path d="M117.221 36.7192V20.5949H123.657C123.998 20.5949 124.325 20.4593 124.567 20.2179C124.808 19.9765 124.944 19.6491 124.944 19.3077V10.2976C124.944 8.93208 124.401 7.62249 123.436 6.65693C122.47 5.69137 121.161 5.14893 119.795 5.14893H65.7341C64.3686 5.14893 63.059 5.69137 62.0935 6.65693C61.1279 7.62249 60.5854 8.93208 60.5854 10.2976V70.7944C60.5854 71.1357 60.7211 71.4631 60.9625 71.7045C61.2038 71.9459 61.5312 72.0815 61.8726 72.0815H98.4963C100.83 74.1365 103.598 75.6359 106.594 76.467C109.591 77.2982 112.736 77.4393 115.795 76.88C118.853 76.3207 121.745 75.0754 124.253 73.2377C126.761 71.4 128.82 69.0177 130.275 66.2699C131.73 63.5221 132.543 60.4802 132.653 57.373C132.764 54.2657 132.168 51.1738 130.912 48.3297C129.656 45.4857 127.771 42.9633 125.4 40.9524C123.028 38.9414 120.232 37.4941 117.221 36.7192ZM122.369 10.2976V18.0206H117.221V10.2976C117.221 9.61483 117.492 8.96004 117.975 8.47726C118.458 7.99448 119.112 7.72326 119.795 7.72326C120.478 7.72326 121.133 7.99448 121.615 8.47726C122.098 8.96004 122.369 9.61483 122.369 10.2976ZM63.1598 10.2976C63.1598 9.61483 63.431 8.96004 63.9138 8.47726C64.3966 7.99448 65.0514 7.72326 65.7341 7.72326H115.362C114.899 8.50244 114.652 9.3911 114.646 10.2976V36.2198C110.579 35.6996 106.448 36.4077 102.786 38.253C99.1241 40.0982 96.0974 42.9964 94.095 46.5751C92.0926 50.1538 91.2061 54.2494 91.5493 58.3358C91.8925 62.4222 93.4498 66.3127 96.0211 69.5072H63.1598V10.2976ZM112.072 74.6559C108.508 74.6559 105.024 73.599 102.061 71.6189C99.0971 69.6388 96.7874 66.8244 95.4235 63.5316C94.0595 60.2388 93.7027 56.6156 94.398 53.1199C95.0933 49.6244 96.8096 46.4134 99.3298 43.8933C101.85 41.3731 105.061 39.6568 108.556 38.9615C112.052 38.2662 115.675 38.623 118.968 39.9869C122.261 41.3509 125.075 43.6606 127.055 46.624C129.035 49.5874 130.092 53.0715 130.092 56.6355C130.087 61.4133 128.187 65.9938 124.809 69.3722C121.43 72.7505 116.85 74.6507 112.072 74.6559Z" fill="#BFA082"/>
<path d="M112.072 41.1895C109.017 41.1895 106.031 42.0953 103.491 43.7926C100.951 45.4898 98.9708 47.9021 97.8017 50.7245C96.6327 53.5469 96.3268 56.6526 96.9228 59.6488C97.5188 62.645 98.9898 65.3972 101.15 67.5574C103.31 69.7176 106.062 71.1886 109.059 71.7846C112.055 72.3806 115.161 72.0747 117.983 70.9057C120.805 69.7366 123.218 67.7568 124.915 65.2168C126.612 62.6767 127.518 59.6904 127.518 56.6354C127.514 52.5403 125.885 48.6141 122.989 45.7184C120.093 42.8226 116.167 41.1939 112.072 41.1895ZM112.072 69.5071C109.526 69.5071 107.038 68.7522 104.921 67.3378C102.804 65.9235 101.154 63.9132 100.18 61.5612C99.2059 59.2092 98.951 56.6212 99.4476 54.1243C99.9443 51.6274 101.17 49.3339 102.97 47.5338C104.77 45.7337 107.064 44.5078 109.561 44.0111C112.058 43.5145 114.646 43.7694 116.998 44.7436C119.35 45.7178 121.36 47.3676 122.774 49.4843C124.189 51.6011 124.944 54.0897 124.944 56.6354C124.94 60.0481 123.583 63.3198 121.169 65.7329C118.756 68.146 115.485 69.5033 112.072 69.5071Z" fill="#BFA082"/>
<path d="M110.785 27.0305H108.211V18.0203C108.211 17.6789 108.075 17.3515 107.834 17.1101C107.592 16.8687 107.265 16.7331 106.923 16.7331H101.775C101.433 16.7331 101.106 16.8687 100.865 17.1101C100.623 17.3515 100.488 17.6789 100.488 18.0203V27.0305H97.9132V12.8716C97.9132 12.5303 97.7776 12.2029 97.5362 11.9615C97.2948 11.7201 96.9674 11.5845 96.626 11.5845H91.4774C91.136 11.5845 90.8086 11.7201 90.5672 11.9615C90.3258 12.2029 90.1902 12.5303 90.1902 12.8716V27.0305H87.6159V16.7331C87.6159 16.3918 87.4803 16.0644 87.2389 15.823C86.9975 15.5816 86.6701 15.446 86.3287 15.446H81.1801C80.8387 15.446 80.5113 15.5816 80.2699 15.823C80.0285 16.0644 79.8929 16.3918 79.8929 16.7331V27.0305H77.3186V19.3075C77.3186 18.9661 77.183 18.6387 76.9416 18.3973C76.7002 18.1559 76.3728 18.0203 76.0314 18.0203H70.8827C70.5414 18.0203 70.214 18.1559 69.9726 18.3973C69.7312 18.6387 69.5956 18.9661 69.5956 19.3075V27.0305H67.0212V29.6048H110.785V27.0305ZM103.062 19.3075H105.636V27.0305H103.062V19.3075ZM92.7645 14.1588H95.3389V27.0305H92.7645V14.1588ZM82.4672 18.0203H85.0416V27.0305H82.4672V18.0203ZM72.1699 20.5946H74.7442V27.0305H72.1699V20.5946Z" fill="#BFA082"/>
<path d="M69.5956 33.4658H67.0212V36.0402H69.5956V33.4658Z" fill="#BFA082"/>
<path d="M101.774 33.4658H72.1697V36.0402H101.774V33.4658Z" fill="#BFA082"/>
<path d="M94.0517 38.6147H67.0212V41.1891H94.0517V38.6147Z" fill="#BFA082"/>
<path d="M91.4774 43.7637H67.0212V46.338H91.4774V43.7637Z" fill="#BFA082"/>
<path d="M86.3289 57.9225C86.3288 56.3199 85.8269 54.7576 84.8937 53.4548L85.9517 52.3967L84.1317 50.5767L83.0736 51.6347C82.0098 50.8748 80.7701 50.3981 79.4712 50.2496C78.1723 50.1011 76.857 50.2856 75.6491 50.7858C74.4413 51.286 73.3806 52.0855 72.567 53.1088C71.7534 54.1322 71.2137 55.3458 70.9987 56.6354H69.5957V59.2097H70.9987C71.2137 60.4993 71.7534 61.7129 72.567 62.7362C73.3806 63.7596 74.4413 64.559 75.6491 65.0592C76.857 65.5595 78.1723 65.744 79.4712 65.5955C80.7701 65.447 82.0098 64.9703 83.0736 64.2103L84.7752 65.912L86.5953 64.0919L84.8937 62.3903C85.8269 61.0875 86.3288 59.5251 86.3289 57.9225ZM83.7545 57.9225C83.75 58.8388 83.4979 59.7367 83.0247 60.5213L80.4259 57.9225L83.0247 55.3237C83.4979 56.1083 83.75 57.0063 83.7545 57.9225ZM78.6059 52.7739C79.5221 52.7784 80.42 53.0305 81.2046 53.5037L78.073 56.6354H73.64C73.9245 55.5334 74.5662 54.5567 75.4646 53.8581C76.3631 53.1594 77.4677 52.7781 78.6059 52.7739ZM78.6059 63.0712C77.4677 63.0669 76.3631 62.6857 75.4646 61.987C74.5662 61.2884 73.9245 60.3117 73.64 59.2097H78.073L81.2046 62.3414C80.42 62.8145 79.5221 63.0667 78.6059 63.0712Z" fill="#BFA082"/>
<path d="M90.1901 74.6553H64.4468V77.2296H90.1901V74.6553Z" fill="#BFA082"/>
<path d="M58.0111 15.4463H55.4368V48.9126H58.0111V15.4463Z" fill="#BFA082"/>
<path d="M58.0111 51.4863H55.4368V54.0607H58.0111V51.4863Z" fill="#BFA082"/>
<path d="M118.508 0H91.4773V2.57433H118.508V0Z" fill="#BFA082"/>
<path d="M145.725 59.5332C148.41 61.631 150.964 63.8908 153.374 66.3002C186.038 98.9642 186.038 151.923 153.374 184.587C120.71 217.251 67.751 217.251 35.0871 184.587C2.42311 151.923 2.42311 98.964 35.0871 66.3002C37.1521 64.2352 39.3237 62.2798 41.5933 60.442" stroke="#BFA082" stroke-width="5.0654" stroke-miterlimit="22.9256" stroke-linecap="round" stroke-linejoin="round"/>
<path d="M151.013 53.4419C153.974 55.7551 156.79 58.2469 159.447 60.9037C195.465 96.9219 195.465 155.319 159.447 191.337C123.429 227.355 65.0318 227.355 29.0136 191.337C-7.00454 155.319 -7.00454 96.9219 29.0136 60.9037C31.2906 58.6267 33.6853 56.4705 36.1878 54.444" stroke="#BFA082" stroke-width="2.02609" stroke-miterlimit="22.9256" stroke-linecap="round" stroke-linejoin="round"/>
</svg>
