<svg width="39" height="40" viewBox="0 0 39 40" fill="none" xmlns="http://www.w3.org/2000/svg">
<path d="M36.4001 36.0996H35.1001V37.3996H36.4001V36.0996Z" fill="white"/>
<path d="M33.8 36.0996H32.5V37.3996H33.8V36.0996Z" fill="white"/>
<path d="M31.1999 36.0996H29.8999V37.3996H31.1999V36.0996Z" fill="white"/>
<path d="M36.4001 30.9004H35.1001V32.2004H36.4001V30.9004Z" fill="white"/>
<path d="M33.8 30.9004H32.5V32.2004H33.8V30.9004Z" fill="white"/>
<path d="M31.1999 30.9004H29.8999V32.2004H31.1999V30.9004Z" fill="white"/>
<path d="M36.4001 25.6992H35.1001V26.9992H36.4001V25.6992Z" fill="white"/>
<path d="M33.8 25.6992H32.5V26.9992H33.8V25.6992Z" fill="white"/>
<path d="M31.1999 25.6992H29.8999V26.9992H31.1999V25.6992Z" fill="white"/>
<path d="M27.3 16.5996H29.9H32.5H35.1H37.05V15.2996H35.75V6.84961C35.75 6.49081 35.4595 6.19961 35.1 6.19961H33.15V4.24961C33.15 3.89081 32.8595 3.59961 32.5 3.59961H29.9C29.5406 3.59961 29.25 3.89081 29.25 4.24961V6.19961H27.3C26.9406 6.19961 26.65 6.49081 26.65 6.84961V8.79961H24.7C24.3406 8.79961 24.05 9.09081 24.05 9.44961V15.2996H22.75V16.5996H24.7H27.3ZM34.45 7.49961V15.2996H33.15V7.49961H34.45ZM30.55 4.89961H31.85V6.84961V15.2996H30.55V6.84961V4.89961ZM27.95 7.49961H29.25V15.2996H27.95V9.44961V7.49961ZM25.35 10.0996H26.65V15.2996H25.35V10.0996Z" fill="white"/>
<path d="M2.78525 37.0675C2.7989 37.0818 2.8145 37.0935 2.82815 37.1071C2.9406 37.2202 3.0615 37.3242 3.17915 37.4321C3.30005 37.5433 3.41835 37.659 3.5438 37.7636C3.5893 37.8013 3.63935 37.8345 3.68615 37.8715C5.1363 39.0311 6.8627 39.7481 8.70935 39.9424C8.72495 39.9444 8.74055 39.9476 8.75615 39.9496C9.0844 39.9821 9.4159 39.9996 9.75 39.9996C10.0841 39.9996 10.4156 39.9821 10.7438 39.9496C10.7594 39.9476 10.775 39.9444 10.7906 39.9424C12.6373 39.7474 14.3637 39.0311 15.8138 37.8715C15.8607 37.8345 15.91 37.802 15.9562 37.7636C16.0816 37.659 16.1999 37.5433 16.3208 37.4321C16.4385 37.3242 16.5594 37.2202 16.6719 37.1071C16.6855 37.0935 16.7011 37.0818 16.7148 37.0675C16.7225 37.0597 16.7251 37.0486 16.7323 37.0408C18.2994 35.4295 19.3089 33.2806 19.4668 30.8996H23.4V34.1496V39.3496C23.4 39.7084 23.6905 39.9996 24.05 39.9996H38.35C38.7094 39.9996 39 39.7084 39 39.3496V34.1496V28.9496V23.7496C39 23.3908 38.7094 23.0996 38.35 23.0996H24.05C23.6905 23.0996 23.4 23.3908 23.4 23.7496V28.9496V29.5996H19.4668C19.3206 27.4007 18.447 25.4026 17.0787 23.84L21.9095 19.0092L21.8926 18.9923C22.1526 19.121 22.4412 19.1996 22.75 19.1996H37.05C38.1251 19.1996 39 18.3247 39 17.2496V2.94961C39 1.87451 38.1251 0.999609 37.05 0.999609H22.75C21.6749 0.999609 20.8 1.87451 20.8 2.94961V17.2496C20.8 17.5584 20.8786 17.847 21.0073 18.107L20.9904 18.0901L16.1596 22.9209C14.597 21.5526 12.5989 20.6784 10.4 20.5328V16.5671C14.0387 16.2369 16.9 13.1728 16.9 9.44961C16.9 7.71216 16.2753 6.11836 15.2412 4.87751L16.5191 3.59961H18.85V2.29961H16.9V0.349609H15.6V2.68051L14.3221 3.95841C13.0813 2.92426 11.4874 2.29961 9.75 2.29961C5.80775 2.29961 2.6 5.50736 2.6 9.44961C2.6 13.1728 5.4613 16.2369 9.1 16.5665V20.5321C4.02675 20.8695 0 25.0932 0 30.2496C0 32.8893 1.0582 35.2832 2.7677 37.0408C2.77485 37.0486 2.77745 37.0597 2.78525 37.0675ZM24.7 29.5996H37.7V33.4996H24.7V29.5996ZM37.7 38.6996H24.7V34.7996H37.7V38.6996ZM24.7 24.3996H37.7V28.2996H24.7V24.3996ZM22.1 2.94961C22.1 2.59146 22.3912 2.29961 22.75 2.29961H37.05C37.4088 2.29961 37.7 2.59146 37.7 2.94961V17.2496C37.7 17.6078 37.4088 17.8996 37.05 17.8996H22.75C22.3912 17.8996 22.1 17.6078 22.1 17.2496V2.94961ZM7.8 26.9996C7.8 25.5657 8.6749 24.3996 9.75 24.3996C10.8251 24.3996 11.7 25.5657 11.7 26.9996C11.7 28.4335 10.8251 29.5996 9.75 29.5996C8.6749 29.5996 7.8 28.4335 7.8 26.9996ZM12.35 30.8996C14.142 30.8996 15.6 32.3576 15.6 34.1496V36.333C15.5168 36.4129 15.4297 36.4896 15.3432 36.5663C15.2503 36.6489 15.158 36.734 15.0618 36.812C14.9279 36.9206 14.7888 37.0213 14.6484 37.1214C14.5736 37.1754 14.5002 37.2313 14.4241 37.2826C14.2564 37.3944 14.0822 37.4971 13.9067 37.5972C13.8509 37.6291 13.7969 37.6635 13.7403 37.6941C13.5473 37.7981 13.3477 37.8917 13.1462 37.9807C13.1001 38.0009 13.0559 38.0243 13.0097 38.0438C12.8043 38.1302 12.5931 38.205 12.3799 38.2745C12.3318 38.2901 12.2843 38.3096 12.2356 38.3246C12.0276 38.3889 11.8151 38.4403 11.6005 38.4884C11.5427 38.5014 11.4861 38.5189 11.4276 38.5306C11.2177 38.5729 11.0032 38.6021 10.788 38.6288C10.7237 38.6366 10.6607 38.6502 10.5956 38.6567C10.3174 38.6847 10.0353 38.6996 9.75 38.6996C9.46465 38.6996 9.18255 38.6847 8.90435 38.6567C8.83935 38.6502 8.7763 38.6366 8.71195 38.6288C8.4968 38.6021 8.2823 38.5735 8.07235 38.5306C8.01385 38.5189 7.9573 38.5014 7.89945 38.4884C7.68495 38.4403 7.4724 38.3889 7.2644 38.3246C7.21565 38.3096 7.16885 38.2901 7.1201 38.2745C6.9069 38.2043 6.69565 38.1296 6.49025 38.0438C6.4441 38.0243 6.39925 38.0009 6.35375 37.9807C6.15225 37.8917 5.9527 37.7981 5.75965 37.6941C5.7031 37.6635 5.64915 37.6291 5.59325 37.5972C5.4171 37.4971 5.24355 37.3944 5.07585 37.2826C4.9998 37.2313 4.92635 37.1754 4.8516 37.1214C4.7112 37.0213 4.57145 36.9206 4.4382 36.812C4.342 36.734 4.25035 36.6489 4.15675 36.5663C4.0703 36.4896 3.9832 36.4129 3.9 36.333V34.1496C3.9 32.3576 5.35795 30.8996 7.15 30.8996H12.35ZM3.9 9.44961C3.9 6.22431 6.52405 3.59961 9.75 3.59961C11.1293 3.59961 12.3961 4.08191 13.3971 4.88336L12.4696 5.81091C11.7097 5.24151 10.7705 4.89961 9.75 4.89961C7.24165 4.89961 5.2 6.94061 5.2 9.44961C5.2 11.9586 7.24165 13.9996 9.75 13.9996C12.2583 13.9996 14.3 11.9586 14.3 9.44961C14.3 8.42911 13.9581 7.48986 13.3887 6.73001L14.3162 5.80246C15.1177 6.80346 15.6 8.07031 15.6 9.44961C15.6 12.6749 12.9759 15.2996 9.75 15.2996C6.52405 15.2996 3.9 12.6749 3.9 9.44961ZM13 9.44961C13 11.2417 11.542 12.6996 9.75 12.6996C7.95795 12.6996 6.5 11.2417 6.5 9.44961C6.5 7.65756 7.95795 6.19961 9.75 6.19961C10.411 6.19961 11.0253 6.40046 11.5394 6.74106L9.75 8.53051V7.49961H8.45V10.0996C8.45 10.4584 8.74055 10.7496 9.1 10.7496H11.7V9.44961H10.6691L12.4585 7.66016C12.7991 8.17431 13 8.78856 13 9.44961ZM9.75 21.7996C14.4092 21.7996 18.2 25.5904 18.2 30.2496C18.2 31.8974 17.719 33.4314 16.9 34.732V34.1496C16.9 31.6406 14.8583 29.5996 12.35 29.5996H12.1654C12.6821 28.9087 13 27.9993 13 26.9996C13 24.8488 11.542 23.0996 9.75 23.0996C7.95795 23.0996 6.5 24.8488 6.5 26.9996C6.5 27.9993 6.81785 28.9087 7.3346 29.5996H7.15C4.64165 29.5996 2.6 31.6406 2.6 34.1496V34.732C1.781 33.4314 1.3 31.8974 1.3 30.2496C1.3 25.5904 5.0908 21.7996 9.75 21.7996Z" fill="white"/>
</svg>
