<svg width="40" height="40" viewBox="0 0 40 40" fill="none" xmlns="http://www.w3.org/2000/svg">
<path d="M1.83124 4.00945e-05C1.39037 0.0213424 0.946503 0.153966 0.595924 0.465185C0.245344 0.776403 0.0297203 1.25169 6.38303e-05 1.83155C1.0528e-05 2.45874 6.38303e-05 3.09196 6.38303e-05 3.7212C-0.00341059 3.96694 0.219403 4.19296 0.465125 4.19296C0.710847 4.19296 0.933661 3.96694 0.930186 3.7212C0.930186 3.10101 0.930186 2.48081 0.930186 1.86062C0.952972 1.48405 1.07107 1.28131 1.22085 1.14835C1.36726 1.01838 1.58837 0.948785 1.86031 0.93033C12.8668 0.93033 23.8732 0.93033 34.8797 0.93033C35.1254 0.933585 35.3513 0.710952 35.3513 0.465185C35.3513 0.219422 35.1254 -0.00343432 34.8797 4.00945e-05C23.864 4.00945e-05 12.8448 4.00945e-05 1.83124 4.00945e-05ZM39.2105 0.0146034C39.099 0.023022 38.9917 0.0474406 38.9199 0.0872778C38.6324 0.246696 38.4958 0.464474 38.3095 0.726841C38.0877 1.03956 37.8889 1.35313 37.7136 1.62806C32.9101 9.84762 30.3077 21.8488 28.8484 28.243C28.7947 28.4712 28.9435 28.7283 29.1681 28.7953C31.2222 29.3881 30.8251 29.2794 32.0893 29.6239C32.0884 29.7915 32.0835 29.9355 32.0893 30.2198C32.1784 34.5567 30.7871 36.719 29.0664 37.8656C27.7611 38.7354 26.2912 38.941 24.9826 38.9849C26.1565 37.7682 26.5939 36.4815 26.7847 35.2928C27.023 33.8079 27.0147 32.5195 27.8165 31.4118C27.9611 31.2139 27.9127 30.9022 27.7148 30.7576C27.517 30.613 27.2054 30.6615 27.0608 30.8594C26.0612 32.2403 26.0912 33.764 25.8691 35.1474C25.647 36.5308 25.2435 37.8141 23.4421 39.1302C23.1304 39.353 23.3065 39.954 23.6891 39.9733C25.2412 40.0668 27.5995 39.978 29.5896 38.6506C31.5797 37.3244 33.1128 34.7523 33.0194 30.2053C33.0097 29.7334 32.9985 29.6853 33.0194 29.304C33.0328 29.0901 32.8783 28.8776 32.6706 28.8244C30.9784 28.3655 31.1974 28.4177 29.8512 28.0249C31.3278 21.5434 33.9263 9.96292 38.5129 2.10774C38.6705 1.83285 38.8723 1.55021 39.0361 1.30826C39.0652 1.55279 39.0574 1.67595 39.0652 1.84608C38.9813 3.76162 38.0332 7.91675 36.8852 12.4281C35.7354 16.9469 34.3902 21.8603 33.499 25.4521C33.4184 25.6954 33.582 25.9902 33.8312 26.0505C34.0803 26.1108 34.3605 25.9235 34.4001 25.6702C35.286 22.0994 36.6332 17.1922 37.7863 12.6607C38.9394 8.12921 39.9041 4.02273 39.9953 1.87515C39.9954 1.87032 39.9954 1.86548 39.9953 1.86065C40.0093 1.24499 39.9963 0.846092 39.8936 0.523353C39.8422 0.361981 39.7584 0.190962 39.5448 0.0727713C39.438 0.0136783 39.3221 0.00618989 39.2105 0.0146318V0.0146034ZM0.377926 6.97721C0.164741 7.01788 -0.00376054 7.22529 6.38303e-05 7.44233V39.0721C8.82024e-05 39.3156 0.221626 39.5372 0.465125 39.5372H20.4628C20.7085 39.5418 20.9344 39.3178 20.9344 39.0721C20.9344 38.8263 20.7085 38.6035 20.4628 38.607H0.930186V7.90747H31.6242C31.8699 7.91119 32.0959 7.68809 32.0959 7.44233C32.0959 7.19656 31.8699 6.9737 31.6242 6.97718C21.2107 6.97718 10.7851 6.97718 0.377926 6.97718V6.97721ZM4.56348 11.1635C4.35029 11.2042 4.18179 11.4116 4.18562 11.6286V20.4663C4.18213 20.7121 4.40495 20.9381 4.65068 20.9381C4.8964 20.9381 5.11921 20.7121 5.11574 20.4663V12.0938H23.2531V19.7977L18.9368 15.4806C18.7698 15.3151 18.4716 15.3083 18.2973 15.4661L14.882 18.4604L12.3823 16.3818C12.2061 16.236 11.9193 16.2493 11.7574 16.4109L4.31641 23.8532C4.04933 24.1115 4.27924 24.6614 4.65068 24.6527H19.9977C20.2434 24.6573 20.4694 24.4333 20.4694 24.1875C20.4694 23.9417 20.2434 23.7189 19.9977 23.7223H5.76973L12.1207 17.3702L14.5914 19.4198C14.7569 19.5579 15.0217 19.5579 15.1872 19.4198L18.588 16.4545L23.3839 21.2513C23.6389 21.5148 24.1803 21.2981 24.1832 20.9315V11.6286C24.1832 11.3851 23.9617 11.1635 23.7182 11.1635C17.3354 11.1635 10.9398 11.1635 4.56348 11.1635ZM39.4721 15.8004C39.2437 15.829 39.0563 16.05 39.0652 16.2801V38.607H32.5544C32.3087 38.6023 32.0827 38.8263 32.0827 39.0721C32.0827 39.3178 32.3087 39.5407 32.5544 39.5372H39.5303C39.7738 39.5372 39.9953 39.3156 39.9953 39.0721V16.2801C40.0058 16.0111 39.7391 15.7666 39.4721 15.8004ZM22.7009 23.7223C22.4574 23.7451 22.2566 23.9875 22.2794 24.2311C22.3022 24.4746 22.5446 24.6754 22.7881 24.6527H23.7182C23.9639 24.6573 24.1899 24.4333 24.1899 24.1875C24.1899 23.9417 23.9639 23.7189 23.7182 23.7223H22.7881C22.7591 23.7177 22.7298 23.7177 22.7009 23.7223ZM4.56348 27.4435C4.31997 27.4663 4.11919 27.7087 4.14202 27.9522C4.16484 28.1958 4.40717 28.3966 4.65068 28.3738H23.7182C23.9639 28.3784 24.1899 28.1544 24.1899 27.9087C24.1899 27.6629 23.9639 27.44 23.7182 27.4435C17.3354 27.4435 10.9398 27.4435 4.56348 27.4435ZM4.56348 31.1646C4.31997 31.1874 4.11919 31.4299 4.14202 31.6734C4.16484 31.917 4.40717 32.1178 4.65068 32.0949H23.7182C23.9639 32.0996 24.1899 31.8755 24.1899 31.6298C24.1899 31.384 23.9639 31.1612 23.7182 31.1646C17.3354 31.1646 10.9398 31.1646 4.56348 31.1646ZM4.56348 34.8857C4.31997 34.9085 4.11919 35.151 4.14202 35.3946C4.16484 35.6381 4.40717 35.8389 4.65068 35.8161H13.4868C13.7325 35.8207 13.9585 35.5967 13.9585 35.3509C13.9585 35.1052 13.7325 34.8823 13.4868 34.8857C10.5151 34.8857 7.52856 34.8857 4.56348 34.8857Z" fill="white"/>
</svg>
