<?xml version="1.0" encoding="UTF-8"?>
<!DOCTYPE svg PUBLIC "-//W3C//DTD SVG 1.1//EN" "http://www.w3.org/Graphics/SVG/1.1/DTD/svg11.dtd">
<!-- Creator: CorelDRAW X8 -->
<svg xmlns="http://www.w3.org/2000/svg" xml:space="preserve" width="10000px" height="10000px" version="1.1" style="shape-rendering:geometricPrecision; text-rendering:geometricPrecision; image-rendering:optimizeQuality; fill-rule:evenodd; clip-rule:evenodd"
viewBox="0 0 319 319"
 xmlns:xlink="http://www.w3.org/1999/xlink">
 <defs>
  <style type="text/css">
   <![CDATA[
    .fil1 {fill:none}
    .fil0 {fill:#5CCF4F}
   ]]>
  </style>
 </defs>
 <g id="Слой_x0020_1">
  <metadata id="CorelCorpID_0Corel-Layer"/>
  <path class="fil0" d="M84 171c3,-1 145,-1 151,0 1,79 5,73 -38,73l-74 0c-42,0 -41,7 -39,-73zm0 -10c-1,-23 -3,-40 18,-40 31,0 27,-4 47,12 17,13 15,14 43,14 17,-1 43,-5 43,14l-151 0zm0 -44c0,-22 17,-19 36,-19 19,0 15,1 36,17 15,12 19,9 45,9 18,0 34,-4 34,18 -3,-1 -5,-3 -8,-4 -5,-1 -27,-1 -34,-1 -31,0 -21,2 -49,-19 -10,-8 -25,-6 -41,-6 -12,0 -11,2 -19,5zm0 -23c0,-23 17,-19 36,-19 12,0 14,0 22,6 28,23 22,20 59,20 18,0 36,-3 34,18 -7,-3 -7,-5 -18,-5 -46,0 -41,5 -60,-9 -12,-9 -16,-16 -31,-16 -29,0 -23,-2 -42,5zm160 139c1,-7 1,-76 0,-89 0,-37 5,-53 -35,-53 -37,0 -35,5 -56,-12 -18,-16 -21,-13 -54,-13 -13,0 -22,9 -24,21 -1,5 0,121 0,133 0,38 18,33 56,33 28,0 62,1 89,0 13,0 22,-8 24,-20zm-98 -31c-6,0 -12,0 -11,-6 2,-8 29,-5 42,-5 9,0 10,11 -1,11l-30 0zm-9 -20c-14,4 -14,23 -2,28 4,2 42,2 47,1 14,-3 15,-23 2,-28 -4,-2 -42,-2 -47,-1z"/>
  <rect class="fil1" width="319" height="319"/>
 </g>
</svg>
