<?xml version="1.0" encoding="UTF-8"?>
<!DOCTYPE svg PUBLIC "-//W3C//DTD SVG 1.1//EN" "http://www.w3.org/Graphics/SVG/1.1/DTD/svg11.dtd">
<!-- Creator: CorelDRAW X8 -->
<svg xmlns="http://www.w3.org/2000/svg" xml:space="preserve" width="10000px" height="10000px" version="1.1" style="shape-rendering:geometricPrecision; text-rendering:geometricPrecision; image-rendering:optimizeQuality; fill-rule:evenodd; clip-rule:evenodd"
viewBox="0 0 352 352"
 xmlns:xlink="http://www.w3.org/1999/xlink">
 <defs>
  <style type="text/css">
   <![CDATA[
    .fil1 {fill:none}
    .fil0 {fill:#5CCF4F}
   ]]>
  </style>
 </defs>
 <g id="Слой_x0020_1">
  <metadata id="CorelCorpID_0Corel-Layer"/>
  <path class="fil0" d="M75 261c0,-4 -1,-146 0,-156l210 0c1,18 0,95 0,117 0,44 4,41 -12,41l-187 0c-6,0 -7,1 -11,-2zm49 -172l144 0 0 8 -144 0 0 -8zm158 0c4,1 4,5 3,9l-9 -1c0,-2 0,-6 1,-8 4,-1 3,-1 5,0zm-166 0l0 8c-2,1 -5,1 -9,0 -1,-2 -1,-6 0,-8 3,-1 7,-1 9,0zm-38 0c1,0 -1,-1 5,0 2,2 1,6 1,8 -14,2 -9,-7 -6,-8zm13 0l9 0 0 8 -9 0 0 -8zm-14 -7c-8,2 -10,8 -9,16l0 155c0,6 -1,15 9,17 6,1 203,1 207,0 7,-2 9,-8 9,-17 0,-18 2,-160 -2,-166 -1,-2 -5,-5 -8,-5 0,0 -200,-2 -206,0zm59 116c12,0 9,3 19,37l-8 0c-1,-2 -10,-34 -11,-37zm-9 -27c2,2 1,15 1,18 -15,3 -8,-17 -8,-17l7 -1zm75 -11c3,-3 2,-10 2,-16l9 0 -1 72 -8 0c-1,-11 2,-46 -2,-47 -9,-2 -6,20 -6,40 -37,-17 -28,-11 -61,-19l1 -20c45,-9 41,-13 60,-19 0,9 1,9 6,9zm-49 41c8,1 40,12 45,18 4,6 15,4 17,4 7,-3 5,-15 5,-23 0,-36 8,-73 -19,-62 -2,0 -13,15 -60,24 -21,3 -29,-1 -29,13 0,10 -2,19 7,21 9,1 8,-2 10,4 2,7 9,38 13,41 4,3 21,3 25,0 2,-8 -3,-2 -5,-9l-9 -31zm-69 -86c0,3 -1,5 5,5 17,0 184,1 186,0 1,0 5,-7 -4,-7l-182 0c-2,0 -4,1 -5,2zm157 61c-5,0 -14,-1 -12,5 1,5 29,2 31,2l0 -5c-5,-3 -13,-2 -19,-2zm-4 26c19,10 20,2 6,-5 -15,-8 -21,-2 -6,5zm-6 -34c3,0 29,-11 19,-15 0,0 -29,7 -19,15zm-111 20c1,1 6,1 8,1 0,-3 1,-16 -1,-18l1 18 -8 -1z"/>
  <rect class="fil1" width="352" height="352"/>
 </g>
</svg>
