<?xml version="1.0" encoding="UTF-8"?>
<!DOCTYPE svg PUBLIC "-//W3C//DTD SVG 1.1//EN" "http://www.w3.org/Graphics/SVG/1.1/DTD/svg11.dtd">
<!-- Creator: CorelDRAW X8 -->
<svg xmlns="http://www.w3.org/2000/svg" xml:space="preserve" width="10000px" height="10000px" version="1.1" style="shape-rendering:geometricPrecision; text-rendering:geometricPrecision; image-rendering:optimizeQuality; fill-rule:evenodd; clip-rule:evenodd"
viewBox="0 0 393 393"
 xmlns:xlink="http://www.w3.org/1999/xlink">
 <defs>
  <style type="text/css">
   <![CDATA[
    .fil1 {fill:none}
    .fil0 {fill:#5CCF4F}
   ]]>
  </style>
 </defs>
 <g id="Слой_x0020_1">
  <metadata id="CorelCorpID_0Corel-Layer"/>
  <path class="fil0" d="M177 81l-10 0 0 9c12,1 10,1 10,-9zm-5 110c-1,28 -3,23 25,23 8,0 6,-6 6,-18 0,-10 -4,-9 -24,-8 -4,0 -4,-1 -7,3zm11 6c14,0 12,-2 11,8l-13 1c0,-13 -1,-8 2,-9zm-2 103c0,8 -2,9 9,8 1,-3 1,-6 0,-10 -7,-1 -8,-1 -9,2zm102 -39c2,-4 1,-49 1,-58 0,-35 3,-33 -25,-33l-87 0c-29,0 -22,-4 -22,64 0,36 -4,34 24,34l87 0c10,0 19,2 22,-7zm-124 -3c0,-9 -1,-74 1,-78l114 0 0 78 -115 0zm-50 -141c12,1 9,0 10,-9 14,0 110,1 116,0l0 -9c-8,-2 -107,1 -117,0 -1,-24 2,-27 24,-27 13,0 97,-1 102,1 13,6 7,23 9,44l8 0c4,-63 -6,-53 -76,-53 -13,0 -54,-2 -63,2 -6,3 -12,10 -13,19 0,7 -1,25 0,32zm130 67c-24,7 -12,41 10,34 22,-7 12,-41 -10,-34zm2 9c12,-4 16,14 5,16 -12,3 -16,-13 -5,-16zm-112 30l16 -1 -1 -7c-3,1 -9,1 -13,0 -1,-6 -1,-45 1,-50l124 0c2,-44 2,-39 -25,-39l-90 0c-13,0 -18,-1 -18,13l0 60c0,10 -2,22 6,24zm3 -75c6,-1 113,-1 116,0l0 8c-4,2 -111,2 -117,1l1 -9zm0 -13c0,1 -1,0 0,4 6,1 113,1 116,0l0 -4c-3,-1 -114,-2 -116,0zm-22 177c0,7 7,13 12,15 7,4 17,3 25,3l84 0c10,0 15,0 22,-6 12,-10 8,-28 8,-46l-124 -1 0 7c12,3 103,-2 115,1 2,3 3,24 -1,26 0,5 -5,8 -9,9 -5,1 -83,1 -94,1 -7,0 -27,2 -28,-9 -2,-1 -2,0 -2,-4l0 -76 -8 1 0 79zm57 -81c0,17 -1,19 9,19 22,0 68,1 88,-1 3,-4 2,-10 2,-19 0,-6 -1,-7 -7,-7 -26,0 -66,-1 -89,0 -3,3 -3,4 -3,8zm10 2l79 0 0 7 -79 0 0 -7zm-28 -143l10 0 0 -8c-3,-2 -6,-2 -10,0l0 8z"/>
  <rect class="fil1" width="393" height="393"/>
 </g>
</svg>
