<?xml version="1.0" encoding="UTF-8"?>
<!DOCTYPE svg PUBLIC "-//W3C//DTD SVG 1.1//EN" "http://www.w3.org/Graphics/SVG/1.1/DTD/svg11.dtd">
<!-- Creator: CorelDRAW X8 -->
<svg xmlns="http://www.w3.org/2000/svg" xml:space="preserve" width="10000px" height="10000px" version="1.1" style="shape-rendering:geometricPrecision; text-rendering:geometricPrecision; image-rendering:optimizeQuality; fill-rule:evenodd; clip-rule:evenodd"
viewBox="0 0 292 292"
 xmlns:xlink="http://www.w3.org/1999/xlink">
 <defs>
  <style type="text/css">
   <![CDATA[
    .fil1 {fill:none}
    .fil0 {fill:#5CCF4F}
   ]]>
  </style>
 </defs>
 <g id="Слой_x0020_1">
  <metadata id="CorelCorpID_0Corel-Layer"/>
  <path class="fil0" d="M149 200l0 -7 -7 0c0,8 -1,7 7,7zm67 0c1,3 0,29 0,33l6 0c0,-62 3,-52 -43,-74 -5,-2 -15,-14 -13,-21 1,-4 15,-11 13,-49 -1,-41 -64,-41 -66,-1 -3,46 13,36 13,58 -9,4 1,7 -20,16 -39,16 -37,16 -37,71l7 0c0,-50 -4,-50 33,-65 3,-1 7,-3 10,-4l13 13c27,-8 -2,-10 28,0l13 -13c22,9 43,13 43,36zm-58 -53c3,-1 2,-5 1,-6l-2 1 2 -1c0,3 0,4 -1,6zm-9 39l-6 0 0 -6c-1,1 -1,-3 -1,6 3,1 6,1 7,0zm0 0l0 -6 -6 0 0 6 6 0zm94 -17c-3,2 -17,1 -20,1l0 6c23,1 30,3 29,-21l-21 -13c3,-9 15,-40 -15,-40 -27,1 -21,25 -15,40l-13 8 3 5 15 -8c29,10 0,-12 40,11 0,5 0,9 -3,11zm-14 -40c-4,21 -28,17 -26,-7 1,-19 31,-20 26,7zm-168 13l-21 12c-2,25 6,24 29,22l0 -6c-19,0 -24,3 -23,-12l20 -11c8,3 11,4 19,0l16 9 3 -6 -13 -8c20,-49 -30,-47 -34,-26 -3,13 1,18 4,26zm9 -32c8,-2 18,-1 19,10 3,25 -20,30 -25,12 -2,-7 -3,-19 6,-22zm50 -24c3,-29 53,-28 52,4 -10,8 -13,5 -26,-1 -25,-11 -15,-5 -26,-3zm-1 9c13,-9 13,-4 41,7 5,2 7,-2 13,-4 0,49 -41,45 -50,24 -4,-10 -4,-16 -4,-27zm38 47l2 -1c7,13 -25,7 -26,6 -1,-2 0,-3 0,-6 16,1 2,2 24,1zm-11 14c6,0 13,-3 18,-3l4 6 -9 10 -13 -6 -13 6c-2,-3 -8,-8 -9,-10l3 -6c6,1 14,3 19,3zm43 77l7 0 0 -26 -7 0 0 26zm-87 -26c-8,0 -6,-1 -6,6 0,5 -1,17 0,20l7 1c0,-2 1,-25 -1,-27z"/>
  <rect class="fil1" width="292" height="292"/>
 </g>
</svg>
