<svg width="50" height="52" viewBox="0 0 50 52" fill="none" xmlns="http://www.w3.org/2000/svg">
<path d="M45.3069 30.3299C43.4586 22.392 35.0578 16.3791 25 16.3791C22.0545 16.3688 19.1323 16.9006 16.3793 17.948L7.03793 16.3911C6.88442 16.3656 6.72688 16.3821 6.582 16.4389C6.43712 16.4957 6.31032 16.5907 6.21504 16.7137C6.11976 16.8367 6.05956 16.9833 6.04083 17.1377C6.02209 17.2922 6.04552 17.4489 6.10862 17.5911L8.57586 23.142C7.57613 24.22 6.72175 25.4242 6.03448 26.7239H2.58621C1.9003 26.7239 1.24249 26.9964 0.757483 27.4814C0.272475 27.9664 0 28.6242 0 29.3101V37.9308C0 38.6167 0.272475 39.2745 0.757483 39.7595C1.24249 40.2445 1.9003 40.517 2.58621 40.517H6.03448C6.92598 42.1984 8.09136 43.7195 9.48276 45.0178V50.8618C9.48276 51.0904 9.57358 51.3097 9.73525 51.4714C9.89692 51.6331 10.1162 51.7239 10.3448 51.7239H18.1034C18.3321 51.7239 18.5514 51.6331 18.713 51.4714C18.8747 51.3097 18.9655 51.0904 18.9655 50.8618V50.1066C22.9259 51.1066 27.0724 51.1101 31.0345 50.117V50.8618C31.0345 51.0904 31.1253 51.3097 31.287 51.4714C31.4486 51.6331 31.6679 51.7239 31.8966 51.7239H38.7931C39.0217 51.7239 39.241 51.6331 39.4027 51.4714C39.5643 51.3097 39.6552 51.0904 39.6552 50.8618V45.7894C41.5036 44.3383 43.0046 42.4927 44.0487 40.3874C45.0927 38.282 45.6533 35.9701 45.6897 33.6204C45.6897 33.1575 45.6612 32.7006 45.6181 32.2472C46.403 32.5703 47.0745 33.1189 47.5476 33.8237C48.0207 34.5285 48.2741 35.3578 48.2759 36.2066H50C50 34.8401 49.5355 33.5141 48.6828 32.4463C47.83 31.3784 46.6396 30.6322 45.3069 30.3299ZM38.2543 44.7084C38.1534 44.7892 38.0719 44.8916 38.016 45.0082C37.96 45.1247 37.931 45.2524 37.931 45.3816V49.9997H32.7586V48.9799C32.7581 48.8457 32.7263 48.7135 32.6657 48.5938C32.6051 48.474 32.5173 48.3701 32.4095 48.2903C32.3008 48.2105 32.1751 48.1571 32.0422 48.1342C31.9094 48.1113 31.7731 48.1196 31.644 48.1584C27.3107 49.4645 22.6881 49.4609 18.3569 48.148C18.2282 48.1084 18.0919 48.0995 17.9591 48.1221C17.8263 48.1446 17.7007 48.198 17.5922 48.2779C17.4838 48.3577 17.3955 48.4619 17.3346 48.582C17.2737 48.7021 17.2418 48.8349 17.2414 48.9696V49.9997H11.2069V44.6411C11.2068 44.521 11.1816 44.4021 11.1329 44.2923C11.0843 44.1824 11.0131 44.0839 10.9241 44.0032C9.43627 42.6762 8.2206 41.0726 7.34483 39.2816C7.27459 39.1354 7.16452 39.012 7.02728 38.9255C6.89003 38.8391 6.73118 38.7931 6.56897 38.7928H2.58621C2.35757 38.7928 2.1383 38.702 1.97663 38.5404C1.81496 38.3787 1.72414 38.1594 1.72414 37.9308V32.7584H2.58621V31.0342H1.72414V29.3101C1.72414 29.0815 1.81496 28.8622 1.97663 28.7005C2.1383 28.5388 2.35757 28.448 2.58621 28.448H6.56724C6.72945 28.4478 6.88831 28.4018 7.02555 28.3153C7.1628 28.2289 7.27287 28.1054 7.3431 27.9592C8.07117 26.465 9.04015 25.1008 10.2112 23.9213C10.3322 23.7979 10.4133 23.6411 10.444 23.4711C10.4748 23.3011 10.4537 23.1257 10.3836 22.9678L8.33362 18.3549L16.3293 19.6877C16.4837 19.7135 16.6423 19.6968 16.7879 19.6394C19.4039 18.6139 22.1902 18.0926 25 18.1032C35.4578 18.1032 43.9655 25.0644 43.9655 33.6204C43.9655 37.8222 41.9371 41.7592 38.2543 44.7084Z" fill="white"/>
<path d="M12.931 30.1729C13.8833 30.1729 14.6552 29.401 14.6552 28.4487C14.6552 27.4965 13.8833 26.7246 12.931 26.7246C11.9788 26.7246 11.2069 27.4965 11.2069 28.4487C11.2069 29.401 11.9788 30.1729 12.931 30.1729Z" fill="white"/>
<path d="M23.2758 9.48249H21.5517C21.5517 10.1684 21.8242 10.8262 22.3092 11.3112C22.7942 11.7962 23.452 12.0687 24.1379 12.0687V12.9308H25.862V12.0687C26.5479 12.0687 27.2058 11.7962 27.6908 11.3112C28.1758 10.8262 28.4482 10.1684 28.4482 9.48249C28.4482 8.79658 28.1758 8.13877 27.6908 7.65376C27.2058 7.16876 26.5479 6.89628 25.862 6.89628V5.17214C26.0907 5.17214 26.3099 5.26297 26.4716 5.42464C26.6333 5.58631 26.7241 5.80558 26.7241 6.03421H28.4482C28.4482 5.34831 28.1758 4.6905 27.6908 4.20549C27.2058 3.72048 26.5479 3.44801 25.862 3.44801V2.58594H24.1379V3.44801C23.452 3.44801 22.7942 3.72048 22.3092 4.20549C21.8242 4.6905 21.5517 5.34831 21.5517 6.03421C21.5517 6.72012 21.8242 7.37793 22.3092 7.86294C22.7942 8.34795 23.452 8.62042 24.1379 8.62042V10.3446C23.9093 10.3446 23.69 10.2537 23.5283 10.0921C23.3667 9.93039 23.2758 9.71112 23.2758 9.48249ZM23.2758 6.03421C23.2758 5.80558 23.3667 5.58631 23.5283 5.42464C23.69 5.26297 23.9093 5.17214 24.1379 5.17214V6.89628C23.9093 6.89628 23.69 6.80546 23.5283 6.64379C23.3667 6.48212 23.2758 6.26285 23.2758 6.03421ZM25.862 8.62042C26.0907 8.62042 26.3099 8.71125 26.4716 8.87291C26.6333 9.03458 26.7241 9.25385 26.7241 9.48249C26.7241 9.71112 26.6333 9.93039 26.4716 10.0921C26.3099 10.2537 26.0907 10.3446 25.862 10.3446V8.62042Z" fill="white"/>
<path d="M25 15.5172C26.5345 15.5172 28.0346 15.0622 29.3105 14.2097C30.5864 13.3572 31.5808 12.1454 32.168 10.7277C32.7553 9.31002 32.9089 7.75002 32.6096 6.24499C32.3102 4.73997 31.5712 3.35751 30.4862 2.27245C29.4011 1.18739 28.0187 0.448451 26.5136 0.149083C25.0086 -0.150285 23.4486 0.00336165 22.0309 0.590593C20.6132 1.17782 19.4015 2.17227 18.549 3.44817C17.6964 4.72406 17.2414 6.22411 17.2414 7.75862C17.2437 9.81564 18.0618 11.7877 19.5164 13.2423C20.9709 14.6968 22.943 15.515 25 15.5172ZM25 1.72414C26.1935 1.72414 27.3602 2.07806 28.3526 2.74114C29.345 3.40421 30.1184 4.34667 30.5751 5.44933C31.0319 6.55198 31.1514 7.76532 30.9185 8.93589C30.6857 10.1065 30.111 11.1817 29.267 12.0256C28.4231 12.8696 27.3479 13.4443 26.1773 13.6772C25.0067 13.91 23.7934 13.7905 22.6907 13.3338C21.5881 12.877 20.6456 12.1036 19.9825 11.1112C19.3194 10.1188 18.9655 8.95213 18.9655 7.75862C18.9676 6.15881 19.604 4.62511 20.7353 3.49387C21.8665 2.36263 23.4002 1.72619 25 1.72414Z" fill="white"/>
<path d="M31.8966 22.4141H18.1035V24.1382H31.8966V22.4141Z" fill="white"/>
</svg>
