<?xml version="1.0" encoding="UTF-8"?>
<!DOCTYPE svg PUBLIC "-//W3C//DTD SVG 1.1//EN" "http://www.w3.org/Graphics/SVG/1.1/DTD/svg11.dtd">
<!-- Creator: CorelDRAW 2018 (64-Bit) -->
<svg xmlns="http://www.w3.org/2000/svg" xml:space="preserve" width="78.2986mm" height="26.4658mm" version="1.1" style="shape-rendering:geometricPrecision; text-rendering:geometricPrecision; image-rendering:optimizeQuality; fill-rule:evenodd; clip-rule:evenodd"
viewBox="0 0 700.49 236.77"
 xmlns:xlink="http://www.w3.org/1999/xlink">
 <defs>
  <style type="text/css">
   <![CDATA[
    .fil2 {fill:#FEFEFE}
    .fil4 {fill:#90CABC}
    .fil5 {fill:#DEC4AB}
    .fil0 {fill:#FEFEFE}
    .fil3 {fill:#2B2A29;fill-rule:nonzero}
    .fil1 {fill:#FEFEFE;fill-rule:nonzero}
   ]]>
  </style>
 </defs>
 <g id="Слой_x0020_2">
  <metadata id="CorelCorpID_0Corel-Layer"/>
  <path class="fil0" d="M664.84 0c4.03,0 7.46,10.57 8.72,25.32 14.02,-4.39 25.02,-5.15 26.72,-1.5 1.45,3.11 -4.74,8.68 -14.78,14.46 10.02,5.9 16.08,11.65 14.83,14.81 -1.47,3.72 -12.61,2.74 -26.85,-1.87 -1.32,14.27 -4.69,24.41 -8.64,24.41 -3.95,0 -7.32,-10.14 -8.64,-24.41 -14.24,4.61 -25.38,5.59 -26.85,1.87 -1.25,-3.16 4.81,-8.91 14.83,-14.81 -10.04,-5.78 -16.23,-11.35 -14.78,-14.46 1.7,-3.66 12.7,-2.9 26.72,1.5 1.26,-14.74 4.69,-25.32 8.72,-25.32zm19.02 39.21c-3.03,1.68 -6.36,3.37 -9.91,5.01 -0.04,1.03 -0.1,2.05 -0.16,3.06 9.93,2.83 16.55,2.87 17.85,0.53 0.97,-1.76 -2.22,-4.98 -7.78,-8.59zm-36.49 -2.73c2.59,-1.42 5.38,-2.83 8.33,-4.2 0.08,-2.12 0.2,-4.18 0.35,-6.16 -13.08,-4.32 -23.73,-5.14 -25.18,-2.64 -1.34,2.31 5,7.19 16.49,13zm-1.55 2.73c3.03,1.68 6.36,3.37 9.91,5.01 0.04,1.03 0.1,2.05 0.16,3.06 -9.93,2.83 -16.55,2.87 -17.85,0.53 -0.97,-1.76 2.22,-4.98 7.78,-8.59zm11.56 5.76c0.81,0.36 1.63,0.73 2.46,1.08 -0.77,0.25 -1.52,0.49 -2.25,0.72 -0.07,-0.59 -0.14,-1.19 -0.21,-1.8zm7.46 3.15c2.28,0.9 4.51,1.72 6.69,2.46 -1.45,8.45 -3.9,14 -6.69,14 -2.79,0 -5.24,-5.55 -6.69,-14 2.17,-0.74 4.41,-1.56 6.69,-2.46zm17.47 -11.64c-2.59,-1.42 -5.38,-2.82 -8.33,-4.2 -0.08,-2.12 -0.2,-4.18 -0.35,-6.16 13.08,-4.32 23.73,-5.14 25.18,-2.64 1.34,2.31 -5,7.19 -16.49,13zm-9.42 -4.69c-1.45,-0.66 -2.94,-1.31 -4.45,-1.94 -0.78,-0.32 -1.55,-0.64 -2.32,-0.95l0.1 -0.04c2.21,-0.9 4.39,-1.71 6.5,-2.43 0.09,1.74 0.15,3.53 0.16,5.37zm-8.06 -3.4c-2.68,-1.04 -5.31,-1.97 -7.85,-2.79 0.84,-13.99 4.03,-24.41 7.85,-24.41 3.81,0 7.01,10.42 7.85,24.41 -2.54,0.82 -5.16,1.75 -7.85,2.79zm-15.88 8.89c2.07,1.02 4.3,2.07 6.66,3.14 -0.01,-0.86 -0.02,-1.72 -0.02,-2.59 0,-1.41 0.02,-2.8 0.06,-4.17 -2.4,1.21 -4.65,2.43 -6.69,3.63zm8.09 3.77c0.42,0.19 0.84,0.37 1.27,0.56 2.25,0.99 4.43,1.87 6.52,2.67 2.09,-0.79 4.27,-1.68 6.52,-2.67 0.43,-0.19 0.85,-0.37 1.27,-0.56 0.17,-2.54 0.27,-5.21 0.27,-7.96 -2.56,-1.26 -5.27,-2.49 -8.06,-3.66 -2.8,1.17 -5.51,2.41 -8.06,3.66 0,2.75 0.1,5.42 0.27,7.96zm12.79 5.01c0.77,0.25 1.52,0.49 2.25,0.72 0.07,-0.59 0.14,-1.19 0.21,-1.8 -0.81,0.36 -1.63,0.73 -2.46,1.08zm10.88 -8.78c-2.04,-1.2 -4.29,-2.42 -6.69,-3.63 0.04,1.37 0.06,2.76 0.06,4.17 0,0.87 -0.01,1.74 -0.02,2.59 2.36,-1.07 4.59,-2.11 6.66,-3.14zm-17.16 -8.38l-0.1 -0.04c-2.21,-0.9 -4.39,-1.71 -6.5,-2.43 -0.09,1.74 -0.15,3.53 -0.16,5.36 1.45,-0.66 2.94,-1.31 4.45,-1.94 0.78,-0.32 1.55,-0.64 2.32,-0.95z"/>
  <path class="fil1" d="M100.7 115.79c0,33.19 23.83,52.62 49.79,52.62 9.93,0 20.57,-3.4 26.67,-8.79l0.28 0c0,0 -0.14,2.13 -0.14,4.25l0 2.84 20.71 0 0 -57.3 -36.31 0 0 21.13 14.33 0 0 7.8c-5.82,4.54 -13.19,7.38 -20.57,7.38 -15.74,0 -29.08,-11.49 -29.08,-30.78 0,-15.04 8.65,-28.65 29.93,-28.65 8.65,0 18.87,4.11 24.68,9.36l11.91 -18.58c-10.78,-9.5 -25.25,-13.48 -39.01,-13.48 -30.92,0 -53.19,22.7 -53.19,52.2zm100.66 50.92l25.53 0 6.1 -21.28 31.63 0 6.24 21.28 25.53 0 -34.47 -101.42 -26.1 0 -34.47 101.42zm37.45 -41.13l5.82 -19.72c1.84,-6.38 4.11,-17.45 4.11,-17.45l0.28 0c0,0 2.27,11.06 4.11,17.45l5.67 19.72 -20 0zm78.39 41.13l24.82 0 0 -80.14 30.78 0 0 -21.28 -86.38 0 0 21.28 30.78 0 0 80.14zm64.63 0l65.53 0 0 -21.28 -40.71 0 0 -19.15 30.92 0 0 -21.28 -30.92 0 0 -18.44 38.72 0 0 -21.28 -63.54 0 0 101.42zm70.87 -50.92c0,30.07 20.57,52.62 53.19,52.62 18.58,0 31.91,-7.8 40.85,-17.02l-12.77 -18.16c-6.95,6.95 -16.88,12.48 -26.95,12.48 -19.57,0 -28.65,-15.46 -28.65,-30.5 0,-14.61 8.37,-28.94 28.65,-28.94 9.08,0 18.87,4.68 25.39,10.35l11.49 -18.72c-9.93,-9.79 -24.4,-14.33 -38.01,-14.33 -31.35,0 -53.19,22.7 -53.19,52.2zm103.36 50.92l24.82 0 0 -39.72 36.88 0 0 39.72 24.82 0 0 -101.42 -24.82 0 0 40.57 -36.88 0 0 -40.57 -24.82 0 0 101.42z"/>
  <polygon class="fil2" points="317.66,177.39 642.54,177.39 642.54,236.77 317.66,236.77 "/>
  <path class="fil3" d="M334.38 220.51l9.12 0c8.35,0 13.86,-5.05 13.86,-13.74 0,-8.66 -5.51,-13.67 -13.86,-13.67l-9.12 0 0 27.41zm3.84 -3.34l0 -20.73 5.01 0c6.1,0 10.17,3.61 10.17,10.33 0,6.79 -4.04,10.4 -10.17,10.4l-5.01 0zm23.86 3.34l3.84 0 0 -27.41 -3.84 0 0 27.41zm8.53 -13.74c0,8.39 6.1,14.21 13.47,14.21 3.38,0 6.56,-1.4 8.42,-3.34l0.08 0c0,0 -0.04,0.58 -0.04,1.16l0 1.71 3.38 0 0 -13.78 -7.96 0 0 3.34 4.43 0 0 3.96c-1.98,2.06 -4.81,3.42 -7.76,3.42 -5.71,0 -10.05,-4.43 -10.05,-10.75 0,-5.82 3.88,-10.56 10.29,-10.56 2.79,0 5.94,1.13 7.76,2.68l1.94 -2.83c-2.76,-2.33 -6.44,-3.34 -9.98,-3.34 -8,0 -13.98,6.21 -13.98,14.13zm30.35 13.74l3.84 0 0 -27.41 -3.84 0 0 27.41zm16.6 0l3.8 0 0 -24.07 9.43 0 0 -3.34 -22.67 0 0 3.34 9.43 0 0 24.07zm11.25 0l3.92 0 2.76 -7.88 10.33 0 2.76 7.88 3.96 0 -9.82 -27.41 -4.08 0 -9.82 27.41zm7.69 -11.06l3.07 -8.66c0.47,-1.44 1.05,-3.92 1.05,-3.92l0.08 0c0,0 0.62,2.48 1.09,3.92l3.03 8.66 -8.31 0zm19.32 11.06l16.15 0 0 -3.34 -12.31 0 0 -24.07 -3.84 0 0 27.41zm23.94 0l3.92 0 2.76 -7.88 10.33 0 2.76 7.88 3.96 0 -9.82 -27.41 -4.08 0 -9.82 27.41zm7.69 -11.06l3.07 -8.66c0.47,-1.44 1.05,-3.92 1.05,-3.92l0.08 0c0,0 0.62,2.48 1.09,3.92l3.03 8.66 -8.31 0zm16.99 -2.68c0,8.39 6.1,14.21 13.47,14.21 3.38,0 6.56,-1.4 8.42,-3.34l0.08 0c0,0 -0.04,0.58 -0.04,1.16l0 1.71 3.38 0 0 -13.78 -7.96 0 0 3.34 4.43 0 0 3.96c-1.98,2.06 -4.81,3.42 -7.76,3.42 -5.71,0 -10.05,-4.43 -10.05,-10.75 0,-5.82 3.88,-10.56 10.29,-10.56 2.79,0 5.94,1.13 7.76,2.68l1.94 -2.83c-2.76,-2.33 -6.44,-3.34 -9.98,-3.34 -8,0 -13.98,6.21 -13.98,14.13zm30.35 13.74l16.62 0 0 -3.34 -12.77 0 0 -8.81 9.82 0 0 -3.34 -9.82 0 0 -8.58 12.11 0 0 -3.34 -15.96 0 0 27.41zm20.99 0l3.84 0 0 -17.78c0,-1.55 -0.23,-4 -0.23,-4l0.08 0c0,0 1.28,2.48 2.25,4l12.23 17.78 3.77 0 0 -27.41 -3.8 0 0 17.78c0,1.55 0.23,4 0.23,4l-0.08 0c0,0 -1.28,-2.48 -2.25,-4l-12.23 -17.78 -3.8 0 0 27.41zm26.62 -13.86c0,8.04 5.55,14.33 14.05,14.33 4.85,0 8.27,-2.02 10.6,-4.35l-2.06 -2.76c-2.21,2.21 -5.36,3.57 -8.42,3.57 -6.37,0 -10.21,-5.01 -10.21,-10.83 0,-5.78 3.77,-10.48 10.13,-10.48 2.83,0 5.9,1.2 7.92,2.99l1.94 -2.87c-2.64,-2.52 -6.48,-3.61 -10.02,-3.61 -8.15,0 -13.94,6.06 -13.94,14.01zm34.58 13.86l3.8 0 0 -11.61 9.2 -15.8 -4.35 0 -5.05 9.01c-0.85,1.59 -1.67,3.46 -1.67,3.46l-0.08 0c0,0 -0.85,-1.86 -1.67,-3.46l-5.05 -9.01 -4.35 0 9.2 15.8 0 11.61z"/>
  <polygon class="fil2" points="54.31,188.84 58.67,202.8 73.3,202.64 61.37,211.11 66.04,224.97 54.31,216.24 42.57,224.97 47.24,211.11 35.31,202.64 49.94,202.8 "/>
  <polygon class="fil2" points="103.02,188.84 107.39,202.8 122.01,202.64 110.09,211.11 114.76,224.97 103.02,216.24 91.28,224.97 95.95,211.11 84.03,202.64 98.65,202.8 "/>
  <polygon class="fil2" points="151.73,188.84 156.1,202.8 170.72,202.64 158.8,211.11 163.47,224.97 151.73,216.24 139.99,224.97 144.66,211.11 132.74,202.64 147.36,202.8 "/>
  <polygon class="fil2" points="200.44,188.84 204.81,202.8 219.44,202.64 207.51,211.11 212.18,224.97 200.44,216.24 188.71,224.97 193.38,211.11 181.45,202.64 196.07,202.8 "/>
  <polygon class="fil2" points="249.15,188.84 253.52,202.8 268.15,202.64 256.22,211.11 260.89,224.97 249.15,216.24 237.42,224.97 242.09,211.11 230.16,202.64 244.79,202.8 "/>
  <g>
   <path class="fil4" d="M10.17 131.2c4.35,1.81 8.67,3.33 12.95,4.56 23.92,6.88 46.85,5.36 68.79,-4.56l-19.09 -26.16c-13.56,1.23 -25.97,-1.45 -37.23,-8.03l-25.43 34.2 0 0zm12.95 4.56l-23.12 29.31c35.69,12.66 69.72,12.66 102.09,0l-15.73 -20.3c-22.39,4.56 -43.46,1.56 -63.23,-9.01l0 0zm55.84 -42.12l-28.21 -38.1 -28.02 38.1c4.29,1.45 8.57,2.57 12.86,3.37 14.52,2.75 28.98,1.63 43.37,-3.37l0 0zm-11.13 -58.4l-10.84 -1.84 -6.04 -11.94 -5.66 11.62 -11.03 2.39 8.25 9.44 -2.01 12.7 10.75 -5.65 10.27 5.65 -1.82 -13.03 8.16 -9.34z"/>
  </g>
  <polygon class="fil5" points="67.83,35.23 56.99,33.39 50.95,21.45 45.29,33.06 34.25,35.45 42.5,44.89 40.49,57.6 51.24,51.95 61.5,57.6 59.68,44.57 "/>
 </g>
</svg>
