<svg width="574" height="197" viewBox="0 0 574 197" fill="none" xmlns="http://www.w3.org/2000/svg">
<path fill-rule="evenodd" clip-rule="evenodd" d="M544.523 0C547.861 0 550.689 8.76211 551.732 20.9821C563.329 17.338 572.429 16.7144 573.827 19.7431C575.023 22.3264 569.907 26.9423 561.599 31.7282C569.891 36.6195 574.893 41.3811 573.867 44.0049C572.655 47.0903 563.442 46.2805 551.667 42.4582C550.576 54.2814 547.788 62.6872 544.523 62.6872C541.258 62.6872 538.47 54.2814 537.379 42.4582C525.604 46.2805 516.391 47.0903 515.179 44.0049C514.145 41.3811 519.155 36.6195 527.447 31.7282C519.139 26.9423 514.024 22.3264 515.22 19.7431C516.626 16.7144 525.726 17.3461 537.314 20.9821C538.357 8.76211 541.194 0 544.523 0V0ZM560.25 32.4895C557.745 33.8823 554.989 35.2833 552.055 36.6438C552.023 37.5022 551.974 38.3444 551.926 39.1785C560.137 41.5269 565.616 41.5593 566.691 39.6158C567.499 38.1581 564.848 35.4938 560.258 32.4976L560.25 32.4895ZM530.073 30.222C532.215 29.0478 534.518 27.8817 536.967 26.7479C537.032 24.9906 537.129 23.2901 537.258 21.638C526.437 18.0587 517.636 17.3785 516.44 19.4516C515.333 21.3627 520.578 25.4117 530.073 30.2301V30.222ZM528.797 32.4895C531.302 33.8823 534.058 35.2833 536.991 36.6357C537.024 37.4941 537.072 38.3363 537.121 39.1704C528.91 41.5188 523.43 41.5512 522.356 39.6077C521.547 38.15 524.198 35.4857 528.789 32.4895H528.797ZM538.357 37.2673C539.028 37.567 539.707 37.8666 540.394 38.1662C539.763 38.3768 539.141 38.5711 538.535 38.7574C538.47 38.2715 538.414 37.7694 538.365 37.2673H538.357ZM544.523 39.8749C546.406 40.6199 548.257 41.3002 550.051 41.9156C548.855 48.9123 546.826 53.5201 544.523 53.5201C542.22 53.5201 540.192 48.9204 538.995 41.9156C540.79 41.3002 542.64 40.6199 544.531 39.8749H544.523ZM558.973 30.222C556.831 29.0478 554.528 27.8817 552.079 26.7479C552.015 24.9906 551.918 23.2901 551.788 21.638C562.61 18.0587 571.41 17.3785 572.606 19.4516C573.714 21.3627 568.469 25.4117 558.973 30.2301V30.222ZM551.182 26.3349C549.986 25.7843 548.758 25.2498 547.497 24.7234C546.859 24.4562 546.22 24.197 545.582 23.9379L545.671 23.9055C547.497 23.1605 549.299 22.4883 551.053 21.8891C551.126 23.3305 551.174 24.8206 551.19 26.3349H551.182ZM544.523 23.5168C542.301 22.6503 540.127 21.881 538.034 21.2088C538.729 9.61241 541.371 0.979867 544.523 0.979867C547.675 0.979867 550.318 9.61241 551.013 21.2088C548.92 21.881 546.746 22.6584 544.523 23.5168ZM531.391 30.886C533.104 31.7363 534.947 32.6028 536.902 33.4855C536.894 32.7729 536.886 32.0603 536.886 31.3395C536.886 30.1734 536.902 29.0154 536.935 27.8817C534.947 28.8858 533.088 29.89 531.399 30.886H531.391ZM538.082 34.0119C538.43 34.1658 538.777 34.3196 539.133 34.4735C541 35.2914 542.802 36.0283 544.523 36.6843C546.253 36.0283 548.055 35.2914 549.914 34.4735C550.269 34.3196 550.617 34.1658 550.964 34.0119C551.11 31.9064 551.182 29.6956 551.19 27.4201C549.073 26.3835 546.834 25.3551 544.523 24.3833C542.212 25.3551 539.973 26.3754 537.856 27.4201C537.856 29.6956 537.937 31.9064 538.082 34.0119ZM548.661 38.1581C549.291 38.3687 549.914 38.563 550.52 38.7493C550.584 38.2634 550.641 37.7613 550.689 37.2592C550.019 37.5588 549.34 37.8585 548.661 38.1581ZM557.656 30.8779C555.967 29.8819 554.108 28.8696 552.12 27.8736C552.152 29.0073 552.168 30.1653 552.168 31.3314C552.168 32.0522 552.16 32.7729 552.152 33.4774C554.108 32.5947 555.942 31.7282 557.664 30.8779H557.656ZM543.465 23.9298L543.384 23.8974C541.557 23.1524 539.755 22.4802 538.001 21.881C537.929 23.3224 537.88 24.8044 537.864 26.3268C539.06 25.7843 540.288 25.2417 541.549 24.7153C542.188 24.4481 542.826 24.1808 543.465 23.9298Z" fill="#FEFEFE"/>
<path d="M0 138.153H21.117L26.1598 120.524H52.3197L57.4838 138.153H78.6008L50.0973 54.1113H28.5116L0.00808151 138.153H0ZM30.9683 104.068L35.7768 87.7264C37.3042 82.4384 39.1792 73.2713 39.1792 73.2713H39.4135C39.4135 73.2713 41.2884 82.4384 42.8158 87.7264L47.5112 104.068H30.9683ZM77.9704 95.954C77.9704 123.463 97.6812 139.562 119.146 139.562C127.356 139.562 136.157 136.744 141.2 132.274H141.434C141.434 132.274 141.321 134.039 141.321 135.797V138.145H158.446V90.6579H128.415V108.174H140.263V114.636C135.454 118.394 129.353 120.75 123.251 120.75C110.232 120.75 99.2005 111.227 99.2005 95.2414C99.2005 82.7785 106.353 71.4979 123.954 71.4979C131.106 71.4979 139.56 74.9071 144.368 79.2558L154.219 63.8533C145.306 55.982 133.337 52.686 121.958 52.686C96.3882 52.686 77.9704 71.4979 77.9704 95.9459V95.954ZM161.218 138.153H182.335L187.378 120.524H213.538L218.702 138.153H239.819L211.315 54.1113H189.73L161.226 138.153H161.218ZM192.186 104.068L196.995 87.7264C198.522 82.4384 200.397 73.2713 200.397 73.2713H200.632C200.632 73.2713 202.506 82.4384 204.034 87.7264L208.729 104.068H192.186ZM257.016 138.153H277.543V71.7408H303V54.1113H231.559V71.7408H257.016V138.153ZM310.467 138.153H364.662V120.524H330.994V104.651H356.564V87.0219H330.994V71.7408H363.021V54.1113H310.467V138.153ZM369.083 95.954C369.083 120.872 386.094 139.562 413.07 139.562C428.433 139.562 439.464 133.1 446.851 125.455L436.296 110.409C430.55 116.167 422.34 120.75 414.008 120.75C397.82 120.75 390.313 107.939 390.313 95.4762C390.313 83.3696 397.23 71.4979 414.008 71.4979C421.515 71.4979 429.613 75.3768 435.003 80.0818L444.507 64.5659C436.296 56.4597 424.328 52.6941 413.07 52.6941C387.145 52.6941 369.083 71.506 369.083 95.954ZM454.561 138.153H475.088V105.243H505.587V138.153H526.114V54.1113H505.587V87.7264H475.088V54.1113H454.561V138.153Z" fill="#FEFEFE"/>
<path fill-rule="evenodd" clip-rule="evenodd" d="M257.396 147.004H526.082V196.216H257.396V147.004Z" fill="white"/>
<path d="M271.224 182.741H278.773C285.674 182.741 290.232 178.562 290.232 171.355C290.232 164.18 285.674 160.034 278.773 160.034H271.224V182.749V182.741ZM274.4 179.972V162.796H278.538C283.581 162.796 286.951 165.784 286.951 171.355C286.951 176.983 283.613 179.98 278.538 179.98H274.4V179.972ZM294.135 182.741H297.311V160.026H294.135V182.741ZM301.191 171.355C301.191 178.303 306.233 183.13 312.335 183.13C315.131 183.13 317.758 181.972 319.301 180.36H319.366C319.366 180.36 319.334 180.846 319.334 181.324V182.741H322.13V171.323H315.551V174.092H319.212V177.372C317.572 179.081 315.228 180.206 312.788 180.206C308.068 180.206 304.472 176.538 304.472 171.298C304.472 166.472 307.68 162.544 312.982 162.544C315.293 162.544 317.895 163.476 319.406 164.763L321.015 162.415C318.736 160.488 315.689 159.645 312.763 159.645C306.153 159.645 301.207 164.796 301.207 171.355H301.191ZM326.284 182.741H329.46V160.026H326.284V182.741ZM340.014 182.741H343.158V162.796H350.957V160.026H332.207V162.796H340.006V182.741H340.014ZM349.316 182.741H352.557L354.836 176.214H363.378L365.657 182.741H368.93L360.808 160.026H357.438L349.316 182.741ZM355.676 173.574L358.214 166.399C358.602 165.209 359.078 163.152 359.078 163.152H359.143C359.143 163.152 359.66 165.209 360.04 166.399L362.545 173.574H355.676ZM371.653 182.741H385.012V179.972H374.837V160.026H371.661V182.741H371.653ZM391.453 182.741H394.694L396.973 176.214H405.515L407.794 182.741H411.067L402.945 160.026H399.575L391.453 182.741ZM397.813 173.574L400.351 166.399C400.739 165.209 401.215 163.152 401.215 163.152H401.28C401.28 163.152 401.797 165.209 402.177 166.399L404.682 173.574H397.813ZM411.867 171.355C411.867 178.303 416.91 183.13 423.011 183.13C425.807 183.13 428.434 181.972 429.978 180.36H430.042C430.042 180.36 430.01 180.846 430.01 181.324V182.741H432.806V171.323H426.228V174.092H429.889V177.372C428.248 179.081 425.904 180.206 423.464 180.206C418.744 180.206 415.148 176.538 415.148 171.298C415.148 166.472 418.356 162.544 423.658 162.544C425.969 162.544 428.571 163.476 430.075 164.763L431.683 162.415C429.404 160.488 426.357 159.645 423.432 159.645C416.821 159.645 411.875 164.796 411.875 171.355H411.867ZM436.96 182.741H450.699V179.972H440.136V172.667H448.258V169.898H440.136V162.787H450.157V160.018H436.96V182.733V182.741ZM454.319 182.741H457.495V168.003C457.495 166.715 457.301 164.69 457.301 164.69H457.366C457.366 164.69 458.424 166.747 459.225 168.003L469.334 182.741H472.446V160.026H469.302V174.764C469.302 176.052 469.496 178.077 469.496 178.077H469.431C469.431 178.077 468.373 176.02 467.573 174.764L457.463 160.026H454.319V182.741ZM476.333 171.258C476.333 177.915 480.923 183.13 487.954 183.13C491.971 183.13 494.791 181.453 496.723 179.526L495.018 177.242C493.191 179.073 490.589 180.198 488.051 180.198C482.782 180.198 479.606 176.044 479.606 171.226C479.606 166.432 482.717 162.536 487.987 162.536C490.33 162.536 492.868 163.532 494.533 165.014L496.141 162.634C493.959 160.544 490.783 159.637 487.857 159.637C481.117 159.637 476.333 164.658 476.333 171.25V171.258ZM504.934 182.741H508.077V173.121L515.69 160.026H512.094L507.916 167.492C507.213 168.812 506.534 170.359 506.534 170.359H506.469C506.469 170.359 505.766 168.812 505.087 167.492L500.917 160.026H497.321L504.934 173.121V182.741Z" fill="#2B2A29"/>
<path fill-rule="evenodd" clip-rule="evenodd" d="M39.6003 156.495L43.2128 168.059L55.3108 167.93L45.4513 174.951L49.3143 186.434L39.6003 179.202L29.8944 186.434L33.7574 174.951L23.8979 167.93L35.9879 168.059L39.6003 156.495Z" fill="white"/>
<path fill-rule="evenodd" clip-rule="evenodd" d="M79.8857 156.495L83.4982 168.059L95.5962 167.93L85.7367 174.951L89.5997 186.434L79.8857 179.202L70.1798 186.434L74.0428 174.951L64.1833 167.93L76.2733 168.059L79.8857 156.495Z" fill="white"/>
<path fill-rule="evenodd" clip-rule="evenodd" d="M120.173 156.495L123.785 168.059L135.883 167.93L126.016 174.951L129.878 186.434L120.173 179.202L110.467 186.434L114.33 174.951L104.47 167.93L116.56 168.059L120.173 156.495Z" fill="white"/>
<path fill-rule="evenodd" clip-rule="evenodd" d="M160.459 156.495L164.072 168.059L176.17 167.93L166.302 174.951L170.165 186.434L160.459 179.202L150.753 186.434L154.616 174.951L144.757 167.93L156.847 168.059L160.459 156.495Z" fill="white"/>
<path fill-rule="evenodd" clip-rule="evenodd" d="M200.744 156.495L204.357 168.059L216.455 167.93L206.587 174.951L210.45 186.434L200.744 179.202L191.038 186.434L194.901 174.951L185.034 167.93L197.132 168.059L200.744 156.495Z" fill="white"/>
</svg>
