<?xml version="1.0" encoding="UTF-8"?>
<!DOCTYPE svg PUBLIC "-//W3C//DTD SVG 1.1//EN" "http://www.w3.org/Graphics/SVG/1.1/DTD/svg11.dtd">
<!-- Creator: CorelDRAW 2018 (64-Bit) -->
<svg xmlns="http://www.w3.org/2000/svg" xml:space="preserve" width="91.1294mm" height="26.4658mm" version="1.1" style="shape-rendering:geometricPrecision; text-rendering:geometricPrecision; image-rendering:optimizeQuality; fill-rule:evenodd; clip-rule:evenodd"
viewBox="0 0 986.77 286.58"
 xmlns:xlink="http://www.w3.org/1999/xlink">
 <defs>
  <style type="text/css">
   <![CDATA[
    .fil2 {fill:#FEFEFE}
    .fil4 {fill:#90CABC}
    .fil5 {fill:#DEC4AB}
    .fil0 {fill:#FEFEFE}
    .fil3 {fill:#2B2A29;fill-rule:nonzero}
    .fil1 {fill:#FEFEFE;fill-rule:nonzero}
   ]]>
  </style>
 </defs>
 <g id="Слой_x0020_2">
  <metadata id="CorelCorpID_0Corel-Layer"/>
  <path class="fil0" d="M943.62 0c4.88,0 9.03,12.8 10.56,30.64 16.97,-5.32 30.28,-6.24 32.34,-1.81 1.75,3.77 -5.74,10.51 -17.89,17.5 12.13,7.15 19.46,14.1 17.95,17.93 -1.78,4.51 -15.26,3.32 -32.5,-2.26 -1.6,17.27 -5.68,29.54 -10.46,29.54 -4.78,0 -8.86,-12.27 -10.46,-29.54 -17.23,5.58 -30.72,6.77 -32.49,2.26 -1.51,-3.83 5.82,-10.78 17.95,-17.93 -12.15,-7 -19.64,-13.74 -17.89,-17.51 2.06,-4.42 15.37,-3.51 32.34,1.81 1.53,-17.84 5.68,-30.64 10.56,-30.64zm23.02 47.46c-3.66,2.03 -7.7,4.08 -12,6.06 -0.05,1.25 -0.12,2.48 -0.19,3.7 12.02,3.43 20.04,3.47 21.61,0.64 1.18,-2.13 -2.69,-6.02 -9.42,-10.4zm-44.17 -3.31c3.13,-1.71 6.51,-3.42 10.09,-5.08 0.09,-2.56 0.24,-5.05 0.43,-7.46 -15.83,-5.23 -28.72,-6.22 -30.47,-3.2 -1.62,2.79 6.05,8.7 19.96,15.74zm-1.87 3.31c3.66,2.03 7.7,4.08 12,6.06 0.05,1.25 0.12,2.49 0.19,3.7 -12.01,3.43 -20.03,3.47 -21.6,0.64 -1.18,-2.13 2.69,-6.02 9.42,-10.4zm14 6.97c0.98,0.44 1.97,0.88 2.98,1.31 -0.93,0.31 -1.84,0.6 -2.73,0.87 -0.09,-0.71 -0.17,-1.44 -0.25,-2.18zm9.02 3.81c2.76,1.09 5.46,2.08 8.09,2.98 -1.75,10.22 -4.72,16.94 -8.1,16.94 -3.37,0 -6.34,-6.72 -8.1,-16.94 2.63,-0.9 5.34,-1.89 8.1,-2.98zm21.15 -14.09c-3.13,-1.71 -6.51,-3.42 -10.09,-5.08 -0.09,-2.56 -0.24,-5.05 -0.43,-7.46 15.83,-5.23 28.72,-6.22 30.47,-3.2 1.62,2.79 -6.05,8.7 -19.96,15.74zm-11.4 -5.68c-1.75,-0.8 -3.55,-1.58 -5.39,-2.35 -0.94,-0.39 -1.87,-0.77 -2.8,-1.15l0.12 -0.05c2.67,-1.09 5.31,-2.07 7.87,-2.94 0.11,2.11 0.18,4.28 0.2,6.49zm-9.75 -4.11c-3.25,-1.26 -6.43,-2.39 -9.5,-3.38 1.01,-16.93 4.88,-29.54 9.5,-29.54 4.62,0 8.48,12.61 9.5,29.54 -3.07,0.99 -6.25,2.11 -9.5,3.38zm-19.22 10.76c2.51,1.24 5.2,2.51 8.06,3.8 -0.02,-1.04 -0.03,-2.08 -0.03,-3.14 0,-1.71 0.02,-3.39 0.07,-5.05 -2.91,1.46 -5.63,2.94 -8.1,4.39zm9.79 4.57c0.51,0.23 1.02,0.45 1.54,0.68 2.73,1.19 5.37,2.27 7.89,3.23 2.53,-0.96 5.16,-2.04 7.89,-3.23 0.52,-0.23 1.03,-0.45 1.54,-0.68 0.21,-3.08 0.32,-6.3 0.33,-9.63 -3.09,-1.52 -6.37,-3.01 -9.76,-4.44 -3.38,1.42 -6.66,2.91 -9.76,4.44 0.01,3.33 0.12,6.56 0.33,9.63zm15.48 6.06c0.93,0.31 1.84,0.6 2.72,0.87 0.09,-0.71 0.17,-1.44 0.25,-2.18 -0.98,0.44 -1.97,0.88 -2.97,1.31zm13.17 -10.63c-2.47,-1.45 -5.19,-2.93 -8.1,-4.39 0.05,1.66 0.07,3.34 0.07,5.05 0,1.05 -0.01,2.1 -0.03,3.14 2.86,-1.29 5.55,-2.56 8.06,-3.8zm-20.77 -10.15l-0.12 -0.05c-2.67,-1.09 -5.31,-2.07 -7.87,-2.94 -0.11,2.11 -0.18,4.27 -0.2,6.49 1.76,-0.8 3.55,-1.58 5.39,-2.35 0.94,-0.39 1.87,-0.78 2.8,-1.15z"/>
  <path class="fil1" d="M146.71 201.78l30.9 0 7.38 -25.75 38.28 0 7.55 25.75 30.9 0 -41.72 -122.75 -31.59 0 -41.72 122.75zm45.32 -49.79l7.04 -23.86c2.23,-7.73 4.98,-21.12 4.98,-21.12l0.34 0c0,0 2.75,13.39 4.98,21.12l6.87 23.86 -24.21 0zm68.79 -11.85c0,40.17 28.84,63.69 60.26,63.69 12.02,0 24.89,-4.12 32.27,-10.64l0.34 0c0,0 -0.17,2.57 -0.17,5.15l0 3.43 25.06 0 0 -69.36 -43.95 0 0 25.58 17.34 0 0 9.44c-7.04,5.49 -15.97,8.93 -24.89,8.93 -19.06,0 -35.19,-13.91 -35.19,-37.25 0,-18.2 10.47,-34.68 36.22,-34.68 10.47,0 22.83,4.98 29.87,11.33l14.42 -22.49c-13.05,-11.5 -30.56,-16.31 -47.21,-16.31 -37.43,0 -64.38,27.47 -64.38,63.18zm121.83 61.63l30.9 0 7.38 -25.75 38.28 0 7.55 25.75 30.9 0 -41.72 -122.75 -31.59 0 -41.72 122.75zm45.32 -49.79l7.04 -23.86c2.23,-7.73 4.98,-21.12 4.98,-21.12l0.34 0c0,0 2.75,13.39 4.98,21.12l6.87 23.86 -24.21 0zm94.88 49.79l30.04 0 0 -97 37.25 0 0 -25.75 -104.55 0 0 25.75 37.25 0 0 97zm78.23 0l79.31 0 0 -25.75 -49.27 0 0 -23.18 37.43 0 0 -25.75 -37.43 0 0 -22.32 46.87 0 0 -25.75 -76.91 0 0 122.75zm85.78 -61.63c0,36.4 24.89,63.69 64.38,63.69 22.49,0 38.63,-9.44 49.44,-20.6l-15.45 -21.97c-8.41,8.41 -20.43,15.11 -32.62,15.11 -23.69,0 -34.68,-18.71 -34.68,-36.91 0,-17.68 10.13,-35.02 34.68,-35.02 10.99,0 22.83,5.67 30.73,12.53l13.91 -22.66c-12.02,-11.85 -29.53,-17.34 -46.01,-17.34 -37.94,0 -64.38,27.47 -64.38,63.18zm125.1 61.63l30.04 0 0 -48.07 44.64 0 0 48.07 30.04 0 0 -122.75 -30.04 0 0 49.1 -44.64 0 0 -49.1 -30.04 0 0 122.75z"/>
  <polygon class="fil2" points="523.41,214.7 916.63,214.7 916.63,286.58 523.41,286.58 "/>
  <path class="fil3" d="M543.65 266.89l11.04 0c10.1,0 16.78,-6.11 16.78,-16.63 0,-10.48 -6.67,-16.54 -16.78,-16.54l-11.04 0 0 33.17zm4.65 -4.04l0 -25.09 6.06 0c7.38,0 12.31,4.37 12.31,12.5 0,8.22 -4.89,12.59 -12.31,12.59l-6.06 0zm28.88 4.04l4.65 0 0 -33.17 -4.65 0 0 33.17zm10.32 -16.63c0,10.15 7.38,17.2 16.31,17.2 4.09,0 7.94,-1.69 10.2,-4.04l0.09 0c0,0 -0.05,0.7 -0.05,1.41l0 2.07 4.09 0 0 -16.68 -9.63 0 0 4.04 5.36 0 0 4.79c-2.4,2.49 -5.83,4.14 -9.4,4.14 -6.91,0 -12.17,-5.36 -12.17,-13.02 0,-7.05 4.7,-12.78 12.45,-12.78 3.38,0 7.19,1.36 9.4,3.24l2.35 -3.43c-3.34,-2.82 -7.8,-4.04 -12.08,-4.04 -9.68,0 -16.92,7.52 -16.92,17.1zm36.73 16.63l4.65 0 0 -33.17 -4.65 0 0 33.17zm20.1 0l4.6 0 0 -29.13 11.42 0 0 -4.04 -27.44 0 0 4.04 11.42 0 0 29.13zm13.61 0l4.74 0 3.34 -9.54 12.5 0 3.34 9.54 4.79 0 -11.89 -33.17 -4.93 0 -11.89 33.17zm9.3 -13.39l3.71 -10.48c0.56,-1.74 1.27,-4.75 1.27,-4.75l0.09 0c0,0 0.75,3.01 1.32,4.75l3.67 10.48 -10.06 0zm23.38 13.39l19.55 0 0 -4.04 -14.9 0 0 -29.13 -4.65 0 0 33.17zm28.98 0l4.74 0 3.34 -9.54 12.5 0 3.34 9.54 4.79 0 -11.89 -33.17 -4.93 0 -11.89 33.17zm9.3 -13.39l3.71 -10.48c0.56,-1.74 1.27,-4.75 1.27,-4.75l0.09 0c0,0 0.75,3.01 1.32,4.75l3.67 10.48 -10.06 0zm20.56 -3.24c0,10.15 7.38,17.2 16.31,17.2 4.09,0 7.94,-1.69 10.2,-4.04l0.09 0c0,0 -0.05,0.7 -0.05,1.41l0 2.07 4.09 0 0 -16.68 -9.63 0 0 4.04 5.36 0 0 4.79c-2.4,2.49 -5.83,4.14 -9.4,4.14 -6.91,0 -12.17,-5.36 -12.17,-13.02 0,-7.05 4.7,-12.78 12.45,-12.78 3.38,0 7.19,1.36 9.4,3.24l2.35 -3.43c-3.34,-2.82 -7.8,-4.04 -12.08,-4.04 -9.68,0 -16.92,7.52 -16.92,17.1zm36.73 16.63l20.11 0 0 -4.04 -15.46 0 0 -10.67 11.89 0 0 -4.04 -11.89 0 0 -10.38 14.66 0 0 -4.04 -19.31 0 0 33.17zm25.41 0l4.65 0 0 -21.52c0,-1.88 -0.28,-4.84 -0.28,-4.84l0.09 0c0,0 1.55,3.01 2.73,4.84l14.8 21.52 4.56 0 0 -33.17 -4.6 0 0 21.52c0,1.88 0.28,4.84 0.28,4.84l-0.09 0c0,0 -1.55,-3.01 -2.72,-4.84l-14.8 -21.52 -4.61 0 0 33.17zm32.22 -16.78c0,9.73 6.72,17.34 17.01,17.34 5.87,0 10.01,-2.44 12.83,-5.26l-2.49 -3.34c-2.68,2.68 -6.48,4.32 -10.2,4.32 -7.71,0 -12.36,-6.06 -12.36,-13.11 0,-7 4.56,-12.69 12.26,-12.69 3.43,0 7.14,1.46 9.59,3.62l2.35 -3.48c-3.2,-3.05 -7.85,-4.37 -12.12,-4.37 -9.87,0 -16.87,7.33 -16.87,16.96zm41.85 16.78l4.6 0 0 -14.05 11.14 -19.12 -5.26 0 -6.11 10.9c-1.03,1.93 -2.02,4.18 -2.02,4.18l-0.09 0c0,0 -1.03,-2.26 -2.02,-4.18l-6.11 -10.9 -5.26 0 11.14 19.12 0 14.05z"/>
  <polygon class="fil2" points="204.66,228.56 209.95,245.46 227.65,245.27 213.22,255.51 218.87,272.29 204.66,261.73 190.46,272.29 196.11,255.51 181.68,245.27 199.38,245.46 "/>
  <polygon class="fil2" points="263.62,228.56 268.91,245.46 286.61,245.27 272.18,255.51 277.83,272.29 263.62,261.73 249.42,272.29 255.07,255.51 240.63,245.27 258.34,245.46 "/>
  <polygon class="fil2" points="322.58,228.56 327.87,245.46 345.57,245.27 331.13,255.51 336.79,272.29 322.58,261.73 308.37,272.29 314.03,255.51 299.59,245.27 317.29,245.46 "/>
  <polygon class="fil2" points="381.54,228.56 386.83,245.46 404.53,245.27 390.09,255.51 395.75,272.29 381.54,261.73 367.33,272.29 372.98,255.51 358.55,245.27 376.25,245.46 "/>
  <polygon class="fil2" points="440.5,228.56 445.78,245.46 463.48,245.27 449.05,255.51 454.7,272.29 440.5,261.73 426.29,272.29 431.94,255.51 417.51,245.27 435.21,245.46 "/>
  <g>
   <path class="fil4" d="M12.31 158.26c5.26,2.19 10.49,4.03 15.68,5.52 28.95,8.32 56.71,6.48 83.26,-5.52l-23.11 -31.66c-16.41,1.49 -31.43,-1.75 -45.06,-9.72l-30.77 41.39 0 0zm15.68 5.52l-27.99 35.48c43.2,15.33 84.39,15.33 123.56,0l-19.04 -24.57c-27.1,5.52 -52.61,1.88 -76.53,-10.91l0 0zm67.59 -50.98l-34.14 -46.12 -33.91 46.12c5.19,1.75 10.37,3.11 15.56,4.07 17.57,3.33 35.07,1.97 52.49,-4.07l0 0zm-13.47 -70.69l-13.12 -2.23 -7.32 -14.45 -6.85 14.06 -13.35 2.89 9.99 11.43 -2.44 15.37 13.01 -6.83 12.43 6.83 -2.21 -15.77 9.87 -11.3z"/>
  </g>
  <polygon class="fil5" points="82.89,42.11 69.77,39.88 62.46,25.42 55.6,39.48 42.25,42.37 52.24,53.8 49.8,69.18 62.8,62.34 75.23,69.18 73.02,53.41 "/>
 </g>
</svg>
