<svg width="511" height="268" viewBox="0 0 511 268" fill="none" xmlns="http://www.w3.org/2000/svg">
<g filter="url(#filter0_d)">
<rect x="4" y="2" width="503" height="260" fill="white"/>
</g>
<rect x="4" y="2" width="503" height="138" fill="#F9F6F1"/>
<path d="M65.73 36.096H44.898V66H51.45V41.682H65.73V36.096ZM82.3518 66C81.5538 64.152 81.5958 62.094 81.5958 60.12V50.754C81.5958 44.706 76.5138 43.698 72.1458 43.698C65.8878 43.698 62.4438 46.176 62.1078 51.006H67.6938C68.1138 48.528 69.2478 47.688 71.9778 47.688C74.6238 47.688 75.8838 48.612 75.8838 50.586C75.8838 52.35 74.4558 52.686 70.5918 53.19C66.3078 53.736 61.1418 54.408 61.1418 60.078C61.1418 64.152 64.0818 66.63 68.8698 66.63C71.4738 66.63 74.0358 65.748 75.8838 63.9C75.9678 64.866 76.0098 65.202 76.3038 66H82.3518ZM75.8418 55.458V57.894C75.8418 61.002 73.6578 62.724 70.5498 62.724C68.4918 62.724 67.2738 61.632 67.2738 59.826C67.2738 57.18 69.5838 56.928 71.6418 56.592C73.1538 56.34 74.4558 56.256 75.8418 55.458ZM91.937 44.328H86.309V73.686H92.231V63.312C93.827 65.538 96.179 66.546 98.909 66.546C104.579 66.546 108.317 62.094 108.317 55.29C108.317 48.318 104.495 43.74 98.657 43.74C95.885 43.74 93.533 44.79 91.937 47.016V44.328ZM97.187 48.528C100.379 48.528 102.353 51.048 102.353 55.29C102.353 59.406 100.421 61.884 97.229 61.884C93.953 61.884 92.021 59.406 92.021 55.206C92.021 51.006 93.953 48.528 97.187 48.528ZM132.145 66C131.347 64.152 131.389 62.094 131.389 60.12V50.754C131.389 44.706 126.307 43.698 121.939 43.698C115.681 43.698 112.237 46.176 111.901 51.006H117.487C117.907 48.528 119.041 47.688 121.771 47.688C124.417 47.688 125.677 48.612 125.677 50.586C125.677 52.35 124.249 52.686 120.385 53.19C116.101 53.736 110.935 54.408 110.935 60.078C110.935 64.152 113.875 66.63 118.663 66.63C121.267 66.63 123.829 65.748 125.677 63.9C125.761 64.866 125.803 65.202 126.097 66H132.145ZM125.635 55.458V57.894C125.635 61.002 123.451 62.724 120.343 62.724C118.285 62.724 117.067 61.632 117.067 59.826C117.067 57.18 119.377 56.928 121.435 56.592C122.947 56.34 124.249 56.256 125.635 55.458ZM156.388 66V44.328H150.466V52.182H142.108V44.328H136.186V66H142.108V56.886H150.466V66H156.388ZM179.352 48.906V44.328H159.15V48.906H166.29V66H172.212V48.906H179.352ZM202.284 66V44.328H195.522L187.794 58.986V44.328H182.082V66H188.844L196.572 51.342V66H202.284ZM212.523 44.328H206.895V73.686H212.817V63.312C214.413 65.538 216.765 66.546 219.495 66.546C225.165 66.546 228.903 62.094 228.903 55.29C228.903 48.318 225.081 43.74 219.243 43.74C216.471 43.74 214.119 44.79 212.523 47.016V44.328ZM217.773 48.528C220.965 48.528 222.939 51.048 222.939 55.29C222.939 59.406 221.007 61.884 217.815 61.884C214.539 61.884 212.607 59.406 212.607 55.206C212.607 51.006 214.539 48.528 217.773 48.528ZM254.327 55.164C254.327 48.276 249.917 43.698 243.239 43.698C236.435 43.698 231.941 48.276 231.941 55.164C231.941 62.094 236.393 66.672 243.155 66.672C249.917 66.672 254.327 62.136 254.327 55.164ZM248.363 55.122C248.363 59.574 246.431 62.178 243.155 62.178C239.837 62.178 237.905 59.616 237.905 55.164C237.905 50.838 239.879 48.234 243.071 48.234C246.389 48.234 248.363 50.796 248.363 55.122ZM258.163 44.328V66H271.225C275.299 66 278.575 63.774 278.575 59.532C278.575 56.55 276.853 54.87 274.627 54.24C276.391 53.442 277.567 51.888 277.567 49.788C277.567 45.924 274.459 44.328 270.637 44.328H258.163ZM264.043 53.022V48.108H267.991C269.839 48.108 271.519 48.444 271.519 50.544C271.519 52.686 269.755 53.022 267.991 53.022H264.043ZM264.043 62.136V56.382H268.201C270.343 56.382 272.401 56.76 272.401 59.28C272.401 61.758 270.511 62.136 268.453 62.136H264.043ZM302.524 66C301.726 64.152 301.768 62.094 301.768 60.12V50.754C301.768 44.706 296.686 43.698 292.318 43.698C286.06 43.698 282.616 46.176 282.28 51.006H287.866C288.286 48.528 289.42 47.688 292.15 47.688C294.796 47.688 296.056 48.612 296.056 50.586C296.056 52.35 294.628 52.686 290.764 53.19C286.48 53.736 281.314 54.408 281.314 60.078C281.314 64.152 284.254 66.63 289.042 66.63C291.646 66.63 294.208 65.748 296.056 63.9C296.14 64.866 296.182 65.202 296.476 66H302.524ZM296.014 55.458V57.894C296.014 61.002 293.83 62.724 290.722 62.724C288.664 62.724 287.446 61.632 287.446 59.826C287.446 57.18 289.756 56.928 291.814 56.592C293.326 56.34 294.628 56.256 296.014 55.458ZM326.767 66V44.328H320.845V52.182H312.487V44.328H306.565V66H312.487V56.886H320.845V66H326.767ZM351.663 66V44.328H345.741V52.182H337.383V44.328H331.461V66H337.383V56.886H345.741V66H351.663ZM378.03 55.164C378.03 48.276 373.62 43.698 366.942 43.698C360.138 43.698 355.644 48.276 355.644 55.164C355.644 62.094 360.096 66.672 366.858 66.672C373.62 66.672 378.03 62.136 378.03 55.164ZM372.066 55.122C372.066 59.574 370.134 62.178 366.858 62.178C363.54 62.178 361.608 59.616 361.608 55.164C361.608 50.838 363.582 48.234 366.774 48.234C370.092 48.234 372.066 50.796 372.066 55.122ZM63.966 84.328H57.792L53.004 99.07L48.048 84.328H41.622L49.476 105.034C49.56 105.286 49.644 105.664 49.644 105.874C49.644 107.68 48.594 108.772 46.62 108.772H43.722V113.686C46.62 113.728 45.864 113.728 47.712 113.728C53.214 113.728 54.222 110.704 55.986 105.916L63.966 84.328ZM65.9633 84.328V106H79.0253C83.0993 106 86.3753 103.774 86.3753 99.532C86.3753 96.55 84.6533 94.87 82.4273 94.24C84.1913 93.442 85.3673 91.888 85.3673 89.788C85.3673 85.924 82.2593 84.328 78.4373 84.328H65.9633ZM71.8433 93.022V88.108H75.7913C77.6393 88.108 79.3193 88.444 79.3193 90.544C79.3193 92.686 77.5553 93.022 75.7913 93.022H71.8433ZM71.8433 102.136V96.382H76.0013C78.1433 96.382 80.2013 96.76 80.2013 99.28C80.2013 101.758 78.3113 102.136 76.2533 102.136H71.8433ZM110.534 99.28H104.822C103.94 101.464 102.596 102.43 100.412 102.43C97.2205 102.43 95.4145 100.414 95.3305 96.676H110.87V96.088C110.87 88.486 106.712 83.698 100.16 83.698C93.8605 83.698 89.2825 88.57 89.2825 95.29C89.2825 102.094 93.6925 106.63 100.37 106.63C105.284 106.63 109.19 103.984 110.534 99.28ZM104.822 92.896H95.3305C95.6665 89.872 97.5145 88.024 100.16 88.024C103.142 88.024 104.57 90.25 104.822 92.896ZM133.703 106V84.328H116.315L115.979 97.222C115.895 100.33 115.013 101.716 113.291 101.716C112.661 101.716 112.031 101.59 111.611 101.506V106.252C112.241 106.504 114.005 106.672 114.845 106.672C121.397 106.672 121.649 101.044 121.817 96.55L122.069 88.906H127.781V106H133.703ZM158.726 106V84.328H151.964L144.236 98.986V84.328H138.524V106H145.286L153.014 91.342V106H158.726ZM176.944 93.316C176.02 93.568 173.416 93.946 171.988 93.946C169.342 93.946 168.67 92.854 168.67 89.704V84.328H162.748V90.922C162.748 95.542 165.226 98.44 170.014 98.44C172.744 98.44 175.768 97.768 176.944 97.474V106H182.866V84.328H176.944V93.316ZM207.74 106V84.328H200.978L193.25 98.986V84.328H187.538V106H194.3L202.028 91.342V106H207.74ZM230.704 88.906V84.328H210.502V88.906H217.642V106H223.564V88.906H230.704ZM265.325 106V84.328H245.123V106H251.045V88.906H259.403V106H265.325ZM275.564 84.328H269.936V113.686H275.858V103.312C277.454 105.538 279.806 106.546 282.536 106.546C288.206 106.546 291.944 102.094 291.944 95.29C291.944 88.318 288.122 83.74 282.284 83.74C279.512 83.74 277.16 84.79 275.564 87.016V84.328ZM280.814 88.528C284.006 88.528 285.98 91.048 285.98 95.29C285.98 99.406 284.048 101.884 280.856 101.884C277.58 101.884 275.648 99.406 275.648 95.206C275.648 91.006 277.58 88.528 280.814 88.528ZM317.368 95.164C317.368 88.276 312.958 83.698 306.28 83.698C299.476 83.698 294.982 88.276 294.982 95.164C294.982 102.094 299.434 106.672 306.196 106.672C312.958 106.672 317.368 102.136 317.368 95.164ZM311.404 95.122C311.404 99.574 309.472 102.178 306.196 102.178C302.878 102.178 300.946 99.616 300.946 95.164C300.946 90.838 302.92 88.234 306.112 88.234C309.43 88.234 311.404 90.796 311.404 95.122ZM344.027 112.384V101.422H341.213V84.328H323.909V88.108C323.909 93.148 322.439 98.944 321.179 101.422H318.575V112.384H324.161V106H338.441V112.384H344.027ZM335.291 101.422H327.017C328.025 99.154 329.453 93.862 329.453 89.284V88.738H335.291V101.422ZM367.082 106C366.284 104.152 366.326 102.094 366.326 100.12V90.754C366.326 84.706 361.244 83.698 356.876 83.698C350.618 83.698 347.174 86.176 346.838 91.006H352.424C352.844 88.528 353.978 87.688 356.708 87.688C359.354 87.688 360.614 88.612 360.614 90.586C360.614 92.35 359.186 92.686 355.322 93.19C351.038 93.736 345.872 94.408 345.872 100.078C345.872 104.152 348.812 106.63 353.6 106.63C356.204 106.63 358.766 105.748 360.614 103.9C360.698 104.866 360.74 105.202 361.034 106H367.082ZM360.572 95.458V97.894C360.572 101.002 358.388 102.724 355.28 102.724C353.222 102.724 352.004 101.632 352.004 99.826C352.004 97.18 354.314 96.928 356.372 96.592C357.884 96.34 359.186 96.256 360.572 95.458ZM380.909 96.886L383.219 99.49V106H388.847V99.49L391.157 96.886L396.407 106H403.421L394.937 92.686L402.455 84.328H395.651L388.847 92.938V84.328H383.219V92.938L376.415 84.328H369.611L377.003 92.56L368.645 106H375.659L380.909 96.886ZM425.861 106V84.328H419.099L411.371 98.986V84.328H405.659V106H412.421L420.149 91.342V106H425.861Z" fill="#1F4B8B"/>
<path d="M45.626 167.396L45.458 167.746C45.122 168.446 44.674 169.118 43.974 169.118C43.358 169.118 43.036 168.978 42.854 168.866V169.986C43.134 170.112 43.638 170.238 44.086 170.238C45.066 170.238 45.892 169.678 46.732 167.97L50.61 160.032H49.196L46.34 166.108L43.428 160.032H41.986L45.626 167.396ZM56.6406 162.776H51.7266L51.6006 167.144C51.5586 168.712 51.0266 169.132 50.5506 169.132C50.3966 169.132 50.0746 169.118 49.9206 169.034V170C50.0746 170.07 50.4246 170.154 50.7746 170.154C51.7826 170.154 52.7066 169.384 52.7766 167.018L52.8746 163.826H55.4506V170H56.6406V162.776ZM64.3779 162.776H63.1319L61.1019 168.53L58.9599 162.776H57.6159L60.4859 169.958L59.9259 171.274C59.7859 171.61 59.4779 171.876 59.0859 171.876C58.8759 171.876 58.6939 171.834 58.3159 171.722V172.786C58.6099 172.856 58.8899 172.912 59.1979 172.912C60.4859 172.912 60.8919 171.946 61.2839 170.924L64.3779 162.776ZM70.9859 170V162.776H69.7959V165.8C69.5299 165.884 68.4799 166.122 67.7799 166.122C66.8979 166.122 66.3939 165.786 66.3939 164.862V162.776H65.2039V165.058C65.2039 166.458 66.1139 167.13 67.5559 167.13C68.2839 167.13 69.5439 166.878 69.7959 166.808V170H70.9859ZM72.7827 170H82.3167V162.776H81.1267V168.95H78.1447V162.776H76.9547V168.95H73.9727V162.776H72.7827V170ZM90.277 167.718H89.115C88.779 168.81 88.205 169.258 87.169 169.258C85.769 169.258 84.915 168.334 84.915 166.794L84.929 166.71H90.361V166.542C90.361 164.456 89.465 162.566 87.085 162.566C85.083 162.566 83.725 164.148 83.725 166.486C83.725 168.838 84.999 170.238 87.127 170.238C88.835 170.238 89.913 169.384 90.277 167.718ZM89.129 165.744H84.929C85.083 164.386 85.895 163.546 87.057 163.546C88.247 163.546 89.017 164.372 89.129 165.744ZM92.8126 170V166.696H96.4246V170H97.6146V162.776H96.4246V165.646H92.8126V162.776H91.6226V170H92.8126ZM100.928 170L104.176 164.106H104.204V170H105.394V162.776H103.868L100.62 168.67H100.592V162.776H99.4019V170H100.928ZM113.355 167.718H112.193C111.857 168.81 111.283 169.258 110.247 169.258C108.847 169.258 107.993 168.334 107.993 166.794L108.007 166.71H113.439V166.542C113.439 164.456 112.543 162.566 110.163 162.566C108.161 162.566 106.803 164.148 106.803 166.486C106.803 168.838 108.077 170.238 110.205 170.238C111.913 170.238 112.991 169.384 113.355 167.718ZM112.207 165.744H108.007C108.161 164.386 108.973 163.546 110.135 163.546C111.325 163.546 112.095 164.372 112.207 165.744ZM124.589 162.566C122.727 162.566 121.495 163.728 121.243 165.646H119.787V162.776H118.597V170H119.787V166.696H121.187C121.285 168.908 122.531 170.224 124.575 170.224C126.689 170.224 127.907 168.796 127.907 166.346C127.907 163.952 126.689 162.566 124.589 162.566ZM124.561 163.56C125.877 163.56 126.689 164.652 126.689 166.374C126.689 168.152 125.905 169.216 124.589 169.216C123.217 169.216 122.419 168.166 122.419 166.388C122.419 164.666 123.245 163.56 124.561 163.56ZM128.91 164.862H130.114C130.212 163.882 131.094 163.532 131.948 163.532C132.928 163.532 133.474 164.036 133.474 164.568C133.474 165.422 132.788 165.744 131.948 165.744H131.15V166.71H132.144C133.25 166.71 133.684 167.158 133.684 167.886C133.684 168.628 133.04 169.258 131.906 169.258C130.842 169.258 130.058 168.782 129.988 167.746H128.784C128.868 169.314 130.03 170.224 131.92 170.224C133.446 170.224 134.916 169.426 134.916 167.858C134.916 166.738 134.188 166.192 133.516 166.066V166.038C134.104 165.912 134.678 165.338 134.678 164.512C134.678 163.168 133.446 162.566 131.962 162.566C130.506 162.566 129.022 163.084 128.91 164.862ZM142.714 169.048C142.588 169.076 142.532 169.09 142.42 169.09C142.056 169.09 141.93 168.908 141.93 168.376C141.93 167.298 141.986 166.234 141.986 165.156C141.986 164.512 142 163.77 141.496 163.28C141.02 162.832 140.194 162.58 139.228 162.58C137.366 162.58 136.246 163.49 136.204 165.03H137.366C137.478 163.966 138.052 163.56 139.158 163.56C140.222 163.56 140.796 163.98 140.796 164.75C140.796 165.73 140.208 165.688 138.486 165.898C136.778 166.108 135.924 166.864 135.924 168.152C135.924 169.412 136.806 170.196 138.234 170.196C139.354 170.196 140.138 169.846 140.852 169.048C140.866 169.734 141.23 170.112 141.902 170.112C142.168 170.112 142.462 170.07 142.714 169.972V169.048ZM140.796 166.248V167.564C140.796 168.488 139.718 169.258 138.598 169.258C137.702 169.258 137.156 168.796 137.156 168.054C137.156 166.892 138.332 166.794 139.2 166.682C139.732 166.612 140.348 166.584 140.796 166.248ZM144.507 161.768C143.807 162.846 143.639 164.526 143.639 165.912C143.639 166.388 143.667 166.836 143.723 167.228C144.017 169.216 145.375 170.238 147.069 170.238C149.211 170.238 150.457 168.852 150.457 166.444C150.457 164.092 149.197 162.748 147.167 162.748C145.963 162.748 145.039 163.434 144.633 164.386H144.591C144.801 162.678 145.613 161.46 147.195 161.348C148.455 161.25 149.953 161.278 150.219 159.794H149.029C148.833 160.158 148.273 160.172 147.363 160.242C145.991 160.34 145.151 160.774 144.507 161.768ZM144.857 166.486C144.857 164.792 145.711 163.742 147.055 163.742C148.399 163.742 149.239 164.778 149.239 166.472C149.239 168.222 148.413 169.23 147.083 169.23C145.683 169.23 144.857 168.11 144.857 166.486ZM153.401 170L156.649 164.106H156.677V170H157.867V162.776H156.341L153.093 168.67H153.065V162.776H151.875V170H153.401ZM165.674 162.776H160.76L160.634 167.144C160.592 168.712 160.06 169.132 159.584 169.132C159.43 169.132 159.108 169.118 158.954 169.034V170C159.108 170.07 159.458 170.154 159.808 170.154C160.816 170.154 161.74 169.384 161.81 167.018L161.908 163.826H164.484V170H165.674V162.776ZM168.959 170L172.207 164.106H172.235V170H173.425V162.776H171.899L168.651 168.67H168.623V162.776H167.433V170H168.959ZM180.742 163.826V162.776H174.372V163.826H176.962V170H178.152V163.826H180.742ZM183.219 170L186.467 164.106H186.495V170H187.685V162.776H186.159L182.911 168.67H182.883V162.776H181.693V170H183.219ZM199.585 167.368H198.381C198.199 168.558 197.485 169.216 196.407 169.216C195.063 169.216 194.251 168.152 194.251 166.388C194.251 164.652 195.119 163.56 196.491 163.56C197.471 163.56 198.101 164.106 198.311 165.128H199.543C199.347 163.49 198.241 162.566 196.477 162.566C194.349 162.566 193.005 164.078 193.005 166.486C193.005 168.684 194.195 170.21 196.435 170.21C198.227 170.21 199.375 169.09 199.585 167.368ZM207.286 169.048C207.16 169.076 207.104 169.09 206.992 169.09C206.628 169.09 206.502 168.908 206.502 168.376C206.502 167.298 206.558 166.234 206.558 165.156C206.558 164.512 206.572 163.77 206.068 163.28C205.592 162.832 204.766 162.58 203.8 162.58C201.938 162.58 200.818 163.49 200.776 165.03H201.938C202.05 163.966 202.624 163.56 203.73 163.56C204.794 163.56 205.368 163.98 205.368 164.75C205.368 165.73 204.78 165.688 203.058 165.898C201.35 166.108 200.496 166.864 200.496 168.152C200.496 169.412 201.378 170.196 202.806 170.196C203.926 170.196 204.71 169.846 205.424 169.048C205.438 169.734 205.802 170.112 206.474 170.112C206.74 170.112 207.034 170.07 207.286 169.972V169.048ZM205.368 166.248V167.564C205.368 168.488 204.29 169.258 203.17 169.258C202.274 169.258 201.728 168.796 201.728 168.054C201.728 166.892 202.904 166.794 203.772 166.682C204.304 166.612 204.92 166.584 205.368 166.248ZM213.518 160.032H212.804C212.58 160.704 212.132 161.124 211.404 161.124C210.69 161.124 210.2 160.704 210.004 160.032H209.29C209.43 161.152 210.256 161.964 211.418 161.964C212.636 161.964 213.336 161.152 213.518 160.032ZM209.934 170L213.182 164.106H213.21V170H214.4V162.776H212.874L209.626 168.67H209.598V162.776H208.408V170H209.934ZM221.717 163.826V162.776H215.347V163.826H217.937V170H219.127V163.826H221.717ZM228.819 169.048C228.693 169.076 228.637 169.09 228.525 169.09C228.161 169.09 228.035 168.908 228.035 168.376C228.035 167.298 228.091 166.234 228.091 165.156C228.091 164.512 228.105 163.77 227.601 163.28C227.125 162.832 226.299 162.58 225.333 162.58C223.471 162.58 222.351 163.49 222.309 165.03H223.471C223.583 163.966 224.157 163.56 225.263 163.56C226.327 163.56 226.901 163.98 226.901 164.75C226.901 165.73 226.313 165.688 224.591 165.898C222.883 166.108 222.029 166.864 222.029 168.152C222.029 169.412 222.911 170.196 224.339 170.196C225.459 170.196 226.243 169.846 226.957 169.048C226.971 169.734 227.335 170.112 228.007 170.112C228.273 170.112 228.567 170.07 228.819 169.972V169.048ZM226.901 166.248V167.564C226.901 168.488 225.823 169.258 224.703 169.258C223.807 169.258 223.261 168.796 223.261 168.054C223.261 166.892 224.437 166.794 225.305 166.682C225.837 166.612 226.453 166.584 226.901 166.248ZM239.815 162.776H238.569L236.539 168.53L234.397 162.776H233.053L235.923 169.958L235.363 171.274C235.223 171.61 234.915 171.876 234.523 171.876C234.313 171.876 234.131 171.834 233.753 171.722V172.786C234.047 172.856 234.327 172.912 234.635 172.912C235.923 172.912 236.329 171.946 236.721 170.924L239.815 162.776ZM240.809 170H244.743C246.031 170 246.941 169.104 246.941 167.872C246.941 166.906 246.409 166.262 245.569 166.094V166.08C246.241 165.772 246.633 165.296 246.633 164.526C246.633 163.056 245.415 162.776 244.155 162.776H240.809V170ZM244.029 165.688H241.971V163.798H244.029C245.079 163.798 245.401 164.12 245.401 164.722C245.401 165.338 245.051 165.688 244.029 165.688ZM241.971 166.696H244.309C245.289 166.696 245.709 167.116 245.709 167.774C245.709 168.46 245.275 168.978 244.519 168.978H241.971V166.696ZM254.531 167.718H253.369C253.033 168.81 252.459 169.258 251.423 169.258C250.023 169.258 249.169 168.334 249.169 166.794L249.183 166.71H254.615V166.542C254.615 164.456 253.719 162.566 251.339 162.566C249.337 162.566 247.979 164.148 247.979 166.486C247.979 168.838 249.253 170.238 251.381 170.238C253.089 170.238 254.167 169.384 254.531 167.718ZM253.383 165.744H249.183C249.337 164.386 250.149 163.546 251.311 163.546C252.501 163.546 253.271 164.372 253.383 165.744ZM261.65 162.776H256.736L256.61 167.144C256.568 168.712 256.036 169.132 255.56 169.132C255.406 169.132 255.084 169.118 254.93 169.034V170C255.084 170.07 255.434 170.154 255.784 170.154C256.792 170.154 257.716 169.384 257.786 167.018L257.884 163.826H260.46V170H261.65V162.776ZM264.936 170L268.184 164.106H268.212V170H269.402V162.776H267.876L264.628 168.67H264.6V162.776H263.41V170H264.936ZM276.775 170V162.776H275.585V165.8C275.319 165.884 274.269 166.122 273.569 166.122C272.687 166.122 272.183 165.786 272.183 164.862V162.776H270.993V165.058C270.993 166.458 271.903 167.13 273.345 167.13C274.073 167.13 275.333 166.878 275.585 166.808V170H276.775ZM280.098 170L283.346 164.106H283.374V170H284.564V162.776H283.038L279.79 168.67H279.762V162.776H278.572V170H280.098ZM291.881 163.826V162.776H285.511V163.826H288.101V170H289.291V163.826H291.881ZM302.314 170V162.776H301.124V165.8C300.858 165.884 299.808 166.122 299.108 166.122C298.226 166.122 297.722 165.786 297.722 164.862V162.776H296.532V165.058C296.532 166.458 297.442 167.13 298.884 167.13C299.612 167.13 300.872 166.878 301.124 166.808V170H302.314ZM305.637 170L308.885 164.106H308.913V170H310.103V162.776H308.577L305.329 168.67H305.301V162.776H304.111V170H305.637ZM318.106 167.368H316.902C316.72 168.558 316.006 169.216 314.928 169.216C313.584 169.216 312.772 168.152 312.772 166.388C312.772 164.652 313.64 163.56 315.012 163.56C315.992 163.56 316.622 164.106 316.832 165.128H318.064C317.868 163.49 316.762 162.566 314.998 162.566C312.87 162.566 311.526 164.078 311.526 166.486C311.526 168.684 312.716 170.21 314.956 170.21C316.748 170.21 317.896 169.09 318.106 167.368ZM325.184 162.776H320.27L320.144 167.144C320.102 168.712 319.57 169.132 319.094 169.132C318.94 169.132 318.618 169.118 318.464 169.034V170C318.618 170.07 318.968 170.154 319.318 170.154C320.326 170.154 321.25 169.384 321.32 167.018L321.418 163.826H323.994V170H325.184V162.776ZM330.107 162.566C327.923 162.566 326.565 164.036 326.565 166.416C326.565 168.796 327.881 170.224 330.093 170.224C332.291 170.224 333.565 168.796 333.565 166.346C333.565 163.952 332.291 162.566 330.107 162.566ZM330.079 163.56C331.479 163.56 332.347 164.652 332.347 166.374C332.347 168.152 331.507 169.216 330.107 169.216C328.651 169.216 327.797 168.166 327.797 166.388C327.797 164.666 328.679 163.56 330.079 163.56ZM342.042 162.566C339.858 162.566 338.5 164.036 338.5 166.416C338.5 168.796 339.816 170.224 342.028 170.224C344.226 170.224 345.5 168.796 345.5 166.346C345.5 163.952 344.226 162.566 342.042 162.566ZM342.014 163.56C343.414 163.56 344.282 164.652 344.282 166.374C344.282 168.152 343.442 169.216 342.042 169.216C340.586 169.216 339.732 168.166 339.732 166.388C339.732 164.666 340.614 163.56 342.014 163.56ZM347.589 161.768C346.889 162.846 346.721 164.526 346.721 165.912C346.721 166.388 346.749 166.836 346.805 167.228C347.099 169.216 348.457 170.238 350.151 170.238C352.293 170.238 353.539 168.852 353.539 166.444C353.539 164.092 352.279 162.748 350.249 162.748C349.045 162.748 348.121 163.434 347.715 164.386H347.673C347.883 162.678 348.695 161.46 350.277 161.348C351.537 161.25 353.035 161.278 353.301 159.794H352.111C351.915 160.158 351.355 160.172 350.445 160.242C349.073 160.34 348.233 160.774 347.589 161.768ZM347.939 166.486C347.939 164.792 348.793 163.742 350.137 163.742C351.481 163.742 352.321 164.778 352.321 166.472C352.321 168.222 351.495 169.23 350.165 169.23C348.765 169.23 347.939 168.11 347.939 166.486ZM356.077 162.776H354.957V172.786H356.147V168.992C356.763 169.832 357.505 170.182 358.569 170.182C360.543 170.182 361.803 168.684 361.803 166.346C361.803 164.008 360.529 162.552 358.513 162.552C357.449 162.552 356.637 162.902 356.077 163.798V162.776ZM358.331 163.546C359.731 163.546 360.571 164.61 360.571 166.36C360.571 168.096 359.731 169.174 358.373 169.174C356.973 169.174 356.105 168.11 356.105 166.36C356.105 164.61 356.945 163.546 358.331 163.546ZM369.653 169.048C369.527 169.076 369.471 169.09 369.359 169.09C368.995 169.09 368.869 168.908 368.869 168.376C368.869 167.298 368.925 166.234 368.925 165.156C368.925 164.512 368.939 163.77 368.435 163.28C367.959 162.832 367.133 162.58 366.167 162.58C364.305 162.58 363.185 163.49 363.143 165.03H364.305C364.417 163.966 364.991 163.56 366.097 163.56C367.161 163.56 367.735 163.98 367.735 164.75C367.735 165.73 367.147 165.688 365.425 165.898C363.717 166.108 362.863 166.864 362.863 168.152C362.863 169.412 363.745 170.196 365.173 170.196C366.293 170.196 367.077 169.846 367.791 169.048C367.805 169.734 368.169 170.112 368.841 170.112C369.107 170.112 369.401 170.07 369.653 169.972V169.048ZM367.735 166.248V167.564C367.735 168.488 366.657 169.258 365.537 169.258C364.641 169.258 364.095 168.796 364.095 168.054C364.095 166.892 365.271 166.794 366.139 166.682C366.671 166.612 367.287 166.584 367.735 166.248ZM370.775 170H380.113V172.296H381.247V168.95H380.309V162.776H379.119V168.95H376.137V162.776H374.947V168.95H371.965V162.776H370.775V170ZM388.488 167.718H387.326C386.99 168.81 386.416 169.258 385.38 169.258C383.98 169.258 383.126 168.334 383.126 166.794L383.14 166.71H388.572V166.542C388.572 164.456 387.676 162.566 385.296 162.566C383.294 162.566 381.936 164.148 381.936 166.486C381.936 168.838 383.21 170.238 385.338 170.238C387.046 170.238 388.124 169.384 388.488 167.718ZM387.34 165.744H383.14C383.294 164.386 384.106 163.546 385.268 163.546C386.458 163.546 387.228 164.372 387.34 165.744ZM391.024 170V166.696H394.636V170H395.826V162.776H394.636V165.646H391.024V162.776H389.834V170H391.024ZM399.139 170L402.387 164.106H402.415V170H403.605V162.776H402.079L398.831 168.67H398.803V162.776H397.613V170H399.139ZM410.502 160.032H409.788C409.564 160.704 409.116 161.124 408.388 161.124C407.674 161.124 407.184 160.704 406.988 160.032H406.274C406.414 161.152 407.24 161.964 408.402 161.964C409.62 161.964 410.32 161.152 410.502 160.032ZM406.918 170L410.166 164.106H410.194V170H411.384V162.776H409.858L406.61 168.67H406.582V162.776H405.392V170H406.918ZM418.594 170L421.842 164.106H421.87V170H423.06V162.776H421.534L418.286 168.67H418.258V162.776H417.068V170H418.594ZM44.086 188V181.826H47.698V188H48.888V180.776H42.896V188H44.086ZM51.7953 180.776H50.6753V190.786H51.8653V186.992C52.4813 187.832 53.2233 188.182 54.2873 188.182C56.2613 188.182 57.5213 186.684 57.5213 184.346C57.5213 182.008 56.2473 180.552 54.2313 180.552C53.1673 180.552 52.3553 180.902 51.7953 181.798V180.776ZM54.0493 181.546C55.4493 181.546 56.2893 182.61 56.2893 184.36C56.2893 186.096 55.4493 187.174 54.0913 187.174C52.6913 187.174 51.8233 186.11 51.8233 184.36C51.8233 182.61 52.6633 181.546 54.0493 181.546ZM62.1381 180.566C59.9541 180.566 58.5961 182.036 58.5961 184.416C58.5961 186.796 59.9121 188.224 62.1241 188.224C64.3221 188.224 65.5961 186.796 65.5961 184.346C65.5961 181.952 64.3221 180.566 62.1381 180.566ZM62.1101 181.56C63.5101 181.56 64.3781 182.652 64.3781 184.374C64.3781 186.152 63.5381 187.216 62.1381 187.216C60.6821 187.216 59.8281 186.166 59.8281 184.388C59.8281 182.666 60.7101 181.56 62.1101 181.56ZM73.7671 190.296V186.95H72.8291V180.776H67.6771V182.316C67.6771 184.136 67.1871 186.152 66.7671 186.95H65.9831V190.296H67.1171V188H72.6331V190.296H73.7671ZM71.6391 186.95H67.9991C68.3911 186.18 68.8391 184.234 68.8391 182.428V181.826H71.6391V186.95ZM81.2042 187.048C81.0782 187.076 81.0222 187.09 80.9102 187.09C80.5462 187.09 80.4202 186.908 80.4202 186.376C80.4202 185.298 80.4762 184.234 80.4762 183.156C80.4762 182.512 80.4902 181.77 79.9862 181.28C79.5102 180.832 78.6842 180.58 77.7182 180.58C75.8562 180.58 74.7362 181.49 74.6942 183.03H75.8562C75.9682 181.966 76.5422 181.56 77.6482 181.56C78.7122 181.56 79.2862 181.98 79.2862 182.75C79.2862 183.73 78.6982 183.688 76.9762 183.898C75.2682 184.108 74.4142 184.864 74.4142 186.152C74.4142 187.412 75.2962 188.196 76.7242 188.196C77.8442 188.196 78.6282 187.846 79.3422 187.048C79.3562 187.734 79.7202 188.112 80.3922 188.112C80.6582 188.112 80.9522 188.07 81.2042 187.972V187.048ZM79.2862 184.248V185.564C79.2862 186.488 78.2082 187.258 77.0882 187.258C76.1922 187.258 75.6462 186.796 75.6462 186.054C75.6462 184.892 76.8222 184.794 77.6902 184.682C78.2222 184.612 78.8382 184.584 79.2862 184.248ZM85.3777 184.5L86.2737 185.41V188H87.4637V185.41L88.3597 184.5L90.8377 188H92.3077L89.1437 183.744L91.9017 180.776H90.4317L87.4917 184.094H87.4637V180.776H86.2737V184.094H86.2457L83.3057 180.776H81.8357L84.5937 183.744L81.4297 188H82.8997L85.3777 184.5ZM95.0422 186.446H93.4882V188H95.0422V186.446ZM101.225 178.032V188H105.327C107.231 188 109.107 187.482 109.107 185.186C109.107 183.87 108.421 182.946 107.189 182.666C108.085 182.344 108.659 181.504 108.659 180.524C108.659 178.69 107.133 178.032 105.481 178.032H101.225ZM102.513 179.152H105.005C106.181 179.152 107.343 179.222 107.343 180.72C107.343 182.218 105.999 182.302 104.879 182.302H102.513V179.152ZM102.513 183.338H104.921C106.251 183.338 107.777 183.324 107.777 185.06C107.777 186.81 106.475 186.894 105.145 186.894H102.513V183.338ZM116.997 187.048C116.871 187.076 116.815 187.09 116.703 187.09C116.339 187.09 116.213 186.908 116.213 186.376C116.213 185.298 116.269 184.234 116.269 183.156C116.269 182.512 116.283 181.77 115.779 181.28C115.303 180.832 114.477 180.58 113.511 180.58C111.649 180.58 110.529 181.49 110.487 183.03H111.649C111.761 181.966 112.335 181.56 113.441 181.56C114.505 181.56 115.079 181.98 115.079 182.75C115.079 183.73 114.491 183.688 112.769 183.898C111.061 184.108 110.207 184.864 110.207 186.152C110.207 187.412 111.089 188.196 112.517 188.196C113.637 188.196 114.421 187.846 115.135 187.048C115.149 187.734 115.513 188.112 116.185 188.112C116.451 188.112 116.745 188.07 116.997 187.972V187.048ZM115.079 184.248V185.564C115.079 186.488 114.001 187.258 112.881 187.258C111.985 187.258 111.439 186.796 111.439 186.054C111.439 184.892 112.615 184.794 113.483 184.682C114.015 184.612 114.631 184.584 115.079 184.248ZM125.945 188V180.776H124.237L122.039 186.628H122.011L119.813 180.776H118.105V188H119.295V182.302H119.337L121.479 188H122.571L124.713 182.302H124.755V188H125.945ZM134.763 180.566C132.579 180.566 131.221 182.036 131.221 184.416C131.221 186.796 132.537 188.224 134.749 188.224C136.947 188.224 138.221 186.796 138.221 184.346C138.221 181.952 136.947 180.566 134.763 180.566ZM134.735 181.56C136.135 181.56 137.003 182.652 137.003 184.374C137.003 186.152 136.163 187.216 134.763 187.216C133.307 187.216 132.453 186.166 132.453 184.388C132.453 182.666 133.335 181.56 134.735 181.56ZM145.854 185.368H144.65C144.468 186.558 143.754 187.216 142.676 187.216C141.332 187.216 140.52 186.152 140.52 184.388C140.52 182.652 141.388 181.56 142.76 181.56C143.74 181.56 144.37 182.106 144.58 183.128H145.812C145.616 181.49 144.51 180.566 142.746 180.566C140.618 180.566 139.274 182.078 139.274 184.486C139.274 186.684 140.464 188.21 142.704 188.21C144.496 188.21 145.644 187.09 145.854 185.368ZM152.688 181.826V180.776H146.318V181.826H148.908V188H150.098V181.826H152.688ZM159.79 187.048C159.664 187.076 159.608 187.09 159.496 187.09C159.132 187.09 159.006 186.908 159.006 186.376C159.006 185.298 159.062 184.234 159.062 183.156C159.062 182.512 159.076 181.77 158.572 181.28C158.096 180.832 157.27 180.58 156.304 180.58C154.442 180.58 153.322 181.49 153.28 183.03H154.442C154.554 181.966 155.128 181.56 156.234 181.56C157.298 181.56 157.872 181.98 157.872 182.75C157.872 183.73 157.284 183.688 155.562 183.898C153.854 184.108 153 184.864 153 186.152C153 187.412 153.882 188.196 155.31 188.196C156.43 188.196 157.214 187.846 157.928 187.048C157.942 187.734 158.306 188.112 158.978 188.112C159.244 188.112 159.538 188.07 159.79 187.972V187.048ZM157.872 184.248V185.564C157.872 186.488 156.794 187.258 155.674 187.258C154.778 187.258 154.232 186.796 154.232 186.054C154.232 184.892 155.408 184.794 156.276 184.682C156.808 184.612 157.424 184.584 157.872 184.248ZM162.102 188V184.696H165.714V188H166.904V180.776H165.714V183.646H162.102V180.776H160.912V188H162.102ZM174.865 185.718H173.703C173.367 186.81 172.793 187.258 171.757 187.258C170.357 187.258 169.503 186.334 169.503 184.794L169.517 184.71H174.949V184.542C174.949 182.456 174.053 180.566 171.673 180.566C169.671 180.566 168.313 182.148 168.313 184.486C168.313 186.838 169.587 188.238 171.715 188.238C173.423 188.238 174.501 187.384 174.865 185.718ZM173.717 183.744H169.517C169.671 182.386 170.483 181.546 171.645 181.546C172.835 181.546 173.605 182.372 173.717 183.744ZM181.494 181.826V180.776H175.124V181.826H177.714V188H178.904V181.826H181.494ZM188.415 185.368H187.211C187.029 186.558 186.315 187.216 185.237 187.216C183.893 187.216 183.081 186.152 183.081 184.388C183.081 182.652 183.949 181.56 185.321 181.56C186.301 181.56 186.931 182.106 187.141 183.128H188.373C188.177 181.49 187.071 180.566 185.307 180.566C183.179 180.566 181.835 182.078 181.835 184.486C181.835 186.684 183.025 188.21 185.265 188.21C187.057 188.21 188.205 187.09 188.415 185.368ZM195.43 188V180.776H191.762C190.362 180.776 189.494 181.546 189.494 182.904C189.494 184.094 190.264 184.85 191.286 185.004L188.794 188H190.376L192.658 185.046H194.24V188H195.43ZM194.24 181.826V183.996H192.14C191.146 183.996 190.712 183.646 190.712 182.904C190.712 182.176 191.16 181.826 192.14 181.826H194.24ZM206.664 181.826V180.776H200.294V181.826H202.884V188H204.074V181.826H206.664ZM210.533 180.566C208.349 180.566 206.991 182.036 206.991 184.416C206.991 186.796 208.307 188.224 210.519 188.224C212.717 188.224 213.991 186.796 213.991 184.346C213.991 181.952 212.717 180.566 210.533 180.566ZM210.505 181.56C211.905 181.56 212.773 182.652 212.773 184.374C212.773 186.152 211.933 187.216 210.533 187.216C209.077 187.216 208.223 186.166 208.223 184.388C208.223 182.666 209.105 181.56 210.505 181.56ZM221.086 180.776H216.172L216.046 185.144C216.004 186.712 215.472 187.132 214.996 187.132C214.842 187.132 214.52 187.118 214.366 187.034V188C214.52 188.07 214.87 188.154 215.22 188.154C216.228 188.154 217.152 187.384 217.222 185.018L217.32 181.826H219.896V188H221.086V180.776ZM228.921 185.746C228.921 184.374 227.983 183.534 226.569 183.534H223.993V180.776H222.803V188H226.625C228.039 188 228.921 187.104 228.921 185.746ZM226.191 184.556C227.185 184.556 227.689 184.976 227.689 185.746C227.689 186.516 227.171 186.95 226.191 186.95H223.993V184.556H226.191ZM236.573 188L233.283 183.618L236.195 180.776H234.599L231.295 184.22V180.776H230.105V188H231.295V185.55L232.429 184.444L235.061 188H236.573ZM240.529 180.566C238.345 180.566 236.987 182.036 236.987 184.416C236.987 186.796 238.303 188.224 240.515 188.224C242.713 188.224 243.987 186.796 243.987 184.346C243.987 181.952 242.713 180.566 240.529 180.566ZM240.501 181.56C241.901 181.56 242.769 182.652 242.769 184.374C242.769 186.152 241.929 187.216 240.529 187.216C239.073 187.216 238.219 186.166 238.219 184.388C238.219 182.666 239.101 181.56 240.501 181.56ZM250.826 188L254.074 182.106H254.102V188H255.292V180.776H253.766L250.518 186.67H250.49V180.776H249.3V188H250.826ZM263.016 180.776H261.574L259.782 183.254L258.032 180.776H256.52L259.026 184.192L256.31 188H257.752L259.754 185.032L261.784 188H263.31L260.496 184.108L263.016 180.776ZM271.386 180.566C269.202 180.566 267.844 182.036 267.844 184.416C267.844 186.796 269.16 188.224 271.372 188.224C273.57 188.224 274.844 186.796 274.844 184.346C274.844 181.952 273.57 180.566 271.386 180.566ZM271.358 181.56C272.758 181.56 273.626 182.652 273.626 184.374C273.626 186.152 272.786 187.216 271.386 187.216C269.93 187.216 269.076 186.166 269.076 184.388C269.076 182.666 269.958 181.56 271.358 181.56ZM276.933 179.768C276.233 180.846 276.065 182.526 276.065 183.912C276.065 184.388 276.093 184.836 276.149 185.228C276.443 187.216 277.801 188.238 279.495 188.238C281.637 188.238 282.883 186.852 282.883 184.444C282.883 182.092 281.623 180.748 279.593 180.748C278.389 180.748 277.465 181.434 277.059 182.386H277.017C277.227 180.678 278.039 179.46 279.621 179.348C280.881 179.25 282.379 179.278 282.645 177.794H281.455C281.259 178.158 280.699 178.172 279.789 178.242C278.417 178.34 277.577 178.774 276.933 179.768ZM277.283 184.486C277.283 182.792 278.137 181.742 279.481 181.742C280.825 181.742 281.665 182.778 281.665 184.472C281.665 186.222 280.839 187.23 279.509 187.23C278.109 187.23 277.283 186.11 277.283 184.486ZM285.42 180.776H284.3V190.786H285.49V186.992C286.106 187.832 286.848 188.182 287.912 188.182C289.886 188.182 291.146 186.684 291.146 184.346C291.146 182.008 289.872 180.552 287.856 180.552C286.792 180.552 285.98 180.902 285.42 181.798V180.776ZM287.674 181.546C289.074 181.546 289.914 182.61 289.914 184.36C289.914 186.096 289.074 187.174 287.716 187.174C286.316 187.174 285.448 186.11 285.448 184.36C285.448 182.61 286.288 181.546 287.674 181.546ZM298.997 187.048C298.871 187.076 298.815 187.09 298.703 187.09C298.339 187.09 298.213 186.908 298.213 186.376C298.213 185.298 298.269 184.234 298.269 183.156C298.269 182.512 298.283 181.77 297.779 181.28C297.303 180.832 296.477 180.58 295.511 180.58C293.649 180.58 292.529 181.49 292.487 183.03H293.649C293.761 181.966 294.335 181.56 295.441 181.56C296.505 181.56 297.079 181.98 297.079 182.75C297.079 183.73 296.491 183.688 294.769 183.898C293.061 184.108 292.207 184.864 292.207 186.152C292.207 187.412 293.089 188.196 294.517 188.196C295.637 188.196 296.421 187.846 297.135 187.048C297.149 187.734 297.513 188.112 298.185 188.112C298.451 188.112 298.745 188.07 298.997 187.972V187.048ZM297.079 184.248V185.564C297.079 186.488 296.001 187.258 294.881 187.258C293.985 187.258 293.439 186.796 293.439 186.054C293.439 184.892 294.615 184.794 295.483 184.682C296.015 184.612 296.631 184.584 297.079 184.248ZM300.791 179.768C300.091 180.846 299.923 182.526 299.923 183.912C299.923 184.388 299.951 184.836 300.007 185.228C300.301 187.216 301.659 188.238 303.353 188.238C305.495 188.238 306.741 186.852 306.741 184.444C306.741 182.092 305.481 180.748 303.451 180.748C302.247 180.748 301.323 181.434 300.917 182.386H300.875C301.085 180.678 301.897 179.46 303.479 179.348C304.739 179.25 306.237 179.278 306.503 177.794H305.313C305.117 178.158 304.557 178.172 303.647 178.242C302.275 178.34 301.435 178.774 300.791 179.768ZM301.141 184.486C301.141 182.792 301.995 181.742 303.339 181.742C304.683 181.742 305.523 182.778 305.523 184.472C305.523 186.222 304.697 187.23 303.367 187.23C301.967 187.23 301.141 186.11 301.141 184.486ZM311.322 180.566C309.138 180.566 307.78 182.036 307.78 184.416C307.78 186.796 309.096 188.224 311.308 188.224C313.506 188.224 314.78 186.796 314.78 184.346C314.78 181.952 313.506 180.566 311.322 180.566ZM311.294 181.56C312.694 181.56 313.562 182.652 313.562 184.374C313.562 186.152 312.722 187.216 311.322 187.216C309.866 187.216 309.012 186.166 309.012 184.388C309.012 182.666 309.894 181.56 311.294 181.56ZM321.481 181.826V180.776H315.111V181.826H317.701V188H318.891V181.826H321.481ZM328.583 187.048C328.457 187.076 328.401 187.09 328.289 187.09C327.925 187.09 327.799 186.908 327.799 186.376C327.799 185.298 327.855 184.234 327.855 183.156C327.855 182.512 327.869 181.77 327.365 181.28C326.889 180.832 326.063 180.58 325.097 180.58C323.235 180.58 322.115 181.49 322.073 183.03H323.235C323.347 181.966 323.921 181.56 325.027 181.56C326.091 181.56 326.665 181.98 326.665 182.75C326.665 183.73 326.077 183.688 324.355 183.898C322.647 184.108 321.793 184.864 321.793 186.152C321.793 187.412 322.675 188.196 324.103 188.196C325.223 188.196 326.007 187.846 326.721 187.048C326.735 187.734 327.099 188.112 327.771 188.112C328.037 188.112 328.331 188.07 328.583 187.972V187.048ZM326.665 184.248V185.564C326.665 186.488 325.587 187.258 324.467 187.258C323.571 187.258 323.025 186.796 323.025 186.054C323.025 184.892 324.201 184.794 325.069 184.682C325.601 184.612 326.217 184.584 326.665 184.248ZM335.235 181.826V180.776H328.865V181.826H331.455V188H332.645V181.826H335.235ZM342.261 185.746C342.261 184.374 341.323 183.534 339.909 183.534H337.333V180.776H336.143V188H339.965C341.379 188 342.261 187.104 342.261 185.746ZM339.531 184.556C340.525 184.556 341.029 184.976 341.029 185.746C341.029 186.516 340.511 186.95 339.531 186.95H337.333V184.556H339.531ZM345.265 186.446H343.711V188H345.265V186.446ZM359.344 178.032H358.028V182.19H352.764V178.032H351.448V188H352.764V183.338H358.028V188H359.344V178.032ZM367.739 187.048C367.613 187.076 367.557 187.09 367.445 187.09C367.081 187.09 366.955 186.908 366.955 186.376C366.955 185.298 367.011 184.234 367.011 183.156C367.011 182.512 367.025 181.77 366.521 181.28C366.045 180.832 365.219 180.58 364.253 180.58C362.391 180.58 361.271 181.49 361.229 183.03H362.391C362.503 181.966 363.077 181.56 364.183 181.56C365.247 181.56 365.821 181.98 365.821 182.75C365.821 183.73 365.233 183.688 363.511 183.898C361.803 184.108 360.949 184.864 360.949 186.152C360.949 187.412 361.831 188.196 363.259 188.196C364.379 188.196 365.163 187.846 365.877 187.048C365.891 187.734 366.255 188.112 366.927 188.112C367.193 188.112 367.487 188.07 367.739 187.972V187.048ZM365.821 184.248V185.564C365.821 186.488 364.743 187.258 363.623 187.258C362.727 187.258 362.181 186.796 362.181 186.054C362.181 184.892 363.357 184.794 364.225 184.682C364.757 184.612 365.373 184.584 365.821 184.248ZM375.077 185.368H373.873C373.691 186.558 372.977 187.216 371.899 187.216C370.555 187.216 369.743 186.152 369.743 184.388C369.743 182.652 370.611 181.56 371.983 181.56C372.963 181.56 373.593 182.106 373.803 183.128H375.035C374.839 181.49 373.733 180.566 371.969 180.566C369.841 180.566 368.497 182.078 368.497 184.486C368.497 186.684 369.687 188.21 371.927 188.21C373.719 188.21 374.867 187.09 375.077 185.368ZM381.91 181.826V180.776H375.54V181.826H378.13V188H379.32V181.826H381.91ZM383.981 180.776H382.861V190.786H384.051V186.992C384.667 187.832 385.409 188.182 386.473 188.182C388.447 188.182 389.707 186.684 389.707 184.346C389.707 182.008 388.433 180.552 386.417 180.552C385.353 180.552 384.541 180.902 383.981 181.798V180.776ZM386.235 181.546C387.635 181.546 388.475 182.61 388.475 184.36C388.475 186.096 387.635 187.174 386.277 187.174C384.877 187.174 384.009 186.11 384.009 184.36C384.009 182.61 384.849 181.546 386.235 181.546ZM394.324 180.566C392.14 180.566 390.782 182.036 390.782 184.416C390.782 186.796 392.098 188.224 394.31 188.224C396.508 188.224 397.782 186.796 397.782 184.346C397.782 181.952 396.508 180.566 394.324 180.566ZM394.296 181.56C395.696 181.56 396.564 182.652 396.564 184.374C396.564 186.152 395.724 187.216 394.324 187.216C392.868 187.216 392.014 186.166 392.014 184.388C392.014 182.666 392.896 181.56 394.296 181.56ZM404.309 178.032H403.595C403.371 178.704 402.923 179.124 402.195 179.124C401.481 179.124 400.991 178.704 400.795 178.032H400.081C400.221 179.152 401.047 179.964 402.209 179.964C403.427 179.964 404.127 179.152 404.309 178.032ZM400.725 188L403.973 182.106H404.001V188H405.191V180.776H403.665L400.417 186.67H400.389V180.776H399.199V188H400.725ZM413.446 188L410.156 183.618L413.068 180.776H411.472L408.168 184.22V180.776H406.978V188H408.168V185.55L409.302 184.444L411.934 188H413.446ZM420.636 187.048C420.51 187.076 420.454 187.09 420.342 187.09C419.978 187.09 419.852 186.908 419.852 186.376C419.852 185.298 419.908 184.234 419.908 183.156C419.908 182.512 419.922 181.77 419.418 181.28C418.942 180.832 418.116 180.58 417.15 180.58C415.288 180.58 414.168 181.49 414.126 183.03H415.288C415.4 181.966 415.974 181.56 417.08 181.56C418.144 181.56 418.718 181.98 418.718 182.75C418.718 183.73 418.13 183.688 416.408 183.898C414.7 184.108 413.846 184.864 413.846 186.152C413.846 187.412 414.728 188.196 416.156 188.196C417.276 188.196 418.06 187.846 418.774 187.048C418.788 187.734 419.152 188.112 419.824 188.112C420.09 188.112 420.384 188.07 420.636 187.972V187.048ZM418.718 184.248V185.564C418.718 186.488 417.64 187.258 416.52 187.258C415.624 187.258 415.078 186.796 415.078 186.054C415.078 184.892 416.254 184.794 417.122 184.682C417.654 184.612 418.27 184.584 418.718 184.248ZM42.868 206H46.802C48.09 206 49 205.104 49 203.872C49 202.906 48.468 202.262 47.628 202.094V202.08C48.3 201.772 48.692 201.296 48.692 200.526C48.692 199.056 47.474 198.776 46.214 198.776H42.868V206ZM46.088 201.688H44.03V199.798H46.088C47.138 199.798 47.46 200.12 47.46 200.722C47.46 201.338 47.11 201.688 46.088 201.688ZM44.03 202.696H46.368C47.348 202.696 47.768 203.116 47.768 203.774C47.768 204.46 47.334 204.978 46.578 204.978H44.03V202.696ZM56.5895 203.718H55.4275C55.0915 204.81 54.5175 205.258 53.4815 205.258C52.0815 205.258 51.2275 204.334 51.2275 202.794L51.2415 202.71H56.6735V202.542C56.6735 200.456 55.7775 198.566 53.3975 198.566C51.3955 198.566 50.0375 200.148 50.0375 202.486C50.0375 204.838 51.3115 206.238 53.4395 206.238C55.1475 206.238 56.2255 205.384 56.5895 203.718ZM55.4415 201.744H51.2415C51.3955 200.386 52.2075 199.546 53.3695 199.546C54.5595 199.546 55.3295 200.372 55.4415 201.744ZM58.6071 197.768C57.9071 198.846 57.7391 200.526 57.7391 201.912C57.7391 202.388 57.7671 202.836 57.8231 203.228C58.1171 205.216 59.4751 206.238 61.1691 206.238C63.3111 206.238 64.5571 204.852 64.5571 202.444C64.5571 200.092 63.2971 198.748 61.2671 198.748C60.0631 198.748 59.1391 199.434 58.7331 200.386H58.6911C58.9011 198.678 59.7131 197.46 61.2951 197.348C62.5551 197.25 64.0531 197.278 64.3191 195.794H63.1291C62.9331 196.158 62.3731 196.172 61.4631 196.242C60.0911 196.34 59.2511 196.774 58.6071 197.768ZM58.9571 202.486C58.9571 200.792 59.8111 199.742 61.1551 199.742C62.4991 199.742 63.3391 200.778 63.3391 202.472C63.3391 204.222 62.5131 205.23 61.1831 205.23C59.7831 205.23 58.9571 204.11 58.9571 202.486ZM69.8381 201.52H65.7641V202.696H69.8381V201.52ZM77.8135 205.048C77.6875 205.076 77.6315 205.09 77.5195 205.09C77.1555 205.09 77.0295 204.908 77.0295 204.376C77.0295 203.298 77.0855 202.234 77.0855 201.156C77.0855 200.512 77.0995 199.77 76.5955 199.28C76.1195 198.832 75.2935 198.58 74.3275 198.58C72.4655 198.58 71.3455 199.49 71.3035 201.03H72.4655C72.5775 199.966 73.1515 199.56 74.2575 199.56C75.3215 199.56 75.8955 199.98 75.8955 200.75C75.8955 201.73 75.3075 201.688 73.5855 201.898C71.8775 202.108 71.0235 202.864 71.0235 204.152C71.0235 205.412 71.9055 206.196 73.3335 206.196C74.4535 206.196 75.2375 205.846 75.9515 205.048C75.9655 205.734 76.3295 206.112 77.0015 206.112C77.2675 206.112 77.5615 206.07 77.8135 205.972V205.048ZM75.8955 202.248V203.564C75.8955 204.488 74.8175 205.258 73.6975 205.258C72.8015 205.258 72.2555 204.796 72.2555 204.054C72.2555 202.892 73.4315 202.794 74.2995 202.682C74.8315 202.612 75.4475 202.584 75.8955 202.248ZM80.1251 206V202.696H83.7371V206H84.9271V198.776H83.7371V201.646H80.1251V198.776H78.9351V206H80.1251ZM93.1124 205.048C92.9864 205.076 92.9304 205.09 92.8184 205.09C92.4544 205.09 92.3284 204.908 92.3284 204.376C92.3284 203.298 92.3844 202.234 92.3844 201.156C92.3844 200.512 92.3984 199.77 91.8944 199.28C91.4184 198.832 90.5924 198.58 89.6264 198.58C87.7644 198.58 86.6444 199.49 86.6024 201.03H87.7644C87.8764 199.966 88.4504 199.56 89.5564 199.56C90.6204 199.56 91.1944 199.98 91.1944 200.75C91.1944 201.73 90.6064 201.688 88.8844 201.898C87.1764 202.108 86.3224 202.864 86.3224 204.152C86.3224 205.412 87.2044 206.196 88.6324 206.196C89.7524 206.196 90.5364 205.846 91.2504 205.048C91.2644 205.734 91.6284 206.112 92.3004 206.112C92.5664 206.112 92.8604 206.07 93.1124 205.972V205.048ZM91.1944 202.248V203.564C91.1944 204.488 90.1164 205.258 88.9964 205.258C88.1004 205.258 87.5544 204.796 87.5544 204.054C87.5544 202.892 88.7304 202.794 89.5984 202.682C90.1304 202.612 90.7464 202.584 91.1944 202.248ZM100.254 198.776H95.3399L95.2139 203.144C95.1719 204.712 94.6399 205.132 94.1639 205.132C94.0099 205.132 93.6879 205.118 93.5339 205.034V206C93.6879 206.07 94.0379 206.154 94.3879 206.154C95.3959 206.154 96.3199 205.384 96.3899 203.018L96.4879 199.826H99.0639V206H100.254V198.776ZM103.539 206L106.787 200.106H106.815V206H108.005V198.776H106.479L103.231 204.67H103.203V198.776H102.013V206H103.539ZM115.322 199.826V198.776H108.952V199.826H111.542V206H112.732V199.826H115.322ZM117.799 206L121.047 200.106H121.075V206H122.265V198.776H120.739L117.491 204.67H117.463V198.776H116.273V206H117.799ZM130.52 206L127.23 201.618L130.142 198.776H128.546L125.242 202.22V198.776H124.052V206H125.242V203.55L126.376 202.444L129.008 206H130.52ZM132.838 206L136.086 200.106H136.114V206H137.304V198.776H135.778L132.53 204.67H132.502V198.776H131.312V206H132.838ZM144.514 206L147.762 200.106H147.79V206H148.98V198.776H147.454L144.206 204.67H144.178V198.776H142.988V206H144.514ZM157.828 198.566C155.644 198.566 154.286 200.036 154.286 202.416C154.286 204.796 155.602 206.224 157.814 206.224C160.012 206.224 161.286 204.796 161.286 202.346C161.286 199.952 160.012 198.566 157.828 198.566ZM157.8 199.56C159.2 199.56 160.068 200.652 160.068 202.374C160.068 204.152 159.228 205.216 157.828 205.216C156.372 205.216 155.518 204.166 155.518 202.388C155.518 200.666 156.4 199.56 157.8 199.56ZM167.987 199.826V198.776H161.617V199.826H164.207V206H165.397V199.826H167.987ZM174.907 203.368H173.703C173.521 204.558 172.807 205.216 171.729 205.216C170.385 205.216 169.573 204.152 169.573 202.388C169.573 200.652 170.441 199.56 171.813 199.56C172.793 199.56 173.423 200.106 173.633 201.128H174.865C174.669 199.49 173.563 198.566 171.799 198.566C169.671 198.566 168.327 200.078 168.327 202.486C168.327 204.684 169.517 206.21 171.757 206.21C173.549 206.21 174.697 205.09 174.907 203.368ZM181.984 198.776H177.07L176.944 203.144C176.902 204.712 176.37 205.132 175.894 205.132C175.74 205.132 175.418 205.118 175.264 205.034V206C175.418 206.07 175.768 206.154 176.118 206.154C177.126 206.154 178.05 205.384 178.12 203.018L178.218 199.826H180.794V206H181.984V198.776ZM189.918 203.718H188.756C188.42 204.81 187.846 205.258 186.81 205.258C185.41 205.258 184.556 204.334 184.556 202.794L184.57 202.71H190.002V202.542C190.002 200.456 189.106 198.566 186.726 198.566C184.724 198.566 183.366 200.148 183.366 202.486C183.366 204.838 184.64 206.238 186.768 206.238C188.476 206.238 189.554 205.384 189.918 203.718ZM188.77 201.744H184.57C184.724 200.386 185.536 199.546 186.698 199.546C187.888 199.546 188.658 200.372 188.77 201.744ZM194.069 202.5L194.965 203.41V206H196.155V203.41L197.051 202.5L199.529 206H200.999L197.835 201.744L200.593 198.776H199.123L196.183 202.094H196.155V198.776H194.965V202.094H194.937L191.997 198.776H190.527L193.285 201.744L190.121 206H191.591L194.069 202.5ZM203.44 206L206.688 200.106H206.716V206H207.906V198.776H206.38L203.132 204.67H203.104V198.776H201.914V206H203.44ZM209.665 206H213.599C214.887 206 215.797 205.104 215.797 203.872C215.797 202.906 215.265 202.262 214.425 202.094V202.08C215.097 201.772 215.489 201.296 215.489 200.526C215.489 199.056 214.271 198.776 213.011 198.776H209.665V206ZM212.885 201.688H210.827V199.798H212.885C213.935 199.798 214.257 200.12 214.257 200.722C214.257 201.338 213.907 201.688 212.885 201.688ZM210.827 202.696H213.165C214.145 202.696 214.565 203.116 214.565 203.774C214.565 204.46 214.131 204.978 213.375 204.978H210.827V202.696ZM223.61 205.048C223.484 205.076 223.428 205.09 223.316 205.09C222.952 205.09 222.826 204.908 222.826 204.376C222.826 203.298 222.882 202.234 222.882 201.156C222.882 200.512 222.896 199.77 222.392 199.28C221.916 198.832 221.09 198.58 220.124 198.58C218.262 198.58 217.142 199.49 217.1 201.03H218.262C218.374 199.966 218.948 199.56 220.054 199.56C221.118 199.56 221.692 199.98 221.692 200.75C221.692 201.73 221.104 201.688 219.382 201.898C217.674 202.108 216.82 202.864 216.82 204.152C216.82 205.412 217.702 206.196 219.13 206.196C220.25 206.196 221.034 205.846 221.748 205.048C221.762 205.734 222.126 206.112 222.798 206.112C223.064 206.112 223.358 206.07 223.61 205.972V205.048ZM221.692 202.248V203.564C221.692 204.488 220.614 205.258 219.494 205.258C218.598 205.258 218.052 204.796 218.052 204.054C218.052 202.892 219.228 202.794 220.096 202.682C220.628 202.612 221.244 202.584 221.692 202.248ZM225.922 206V202.696H229.534V206H230.724V198.776H229.534V201.646H225.922V198.776H224.732V206H225.922ZM234.037 206L237.285 200.106H237.313V206H238.503V198.776H236.977L233.729 204.67H233.701V198.776H232.511V206H234.037ZM246.465 203.718H245.303C244.967 204.81 244.393 205.258 243.357 205.258C241.957 205.258 241.103 204.334 241.103 202.794L241.117 202.71H246.549V202.542C246.549 200.456 245.653 198.566 243.273 198.566C241.271 198.566 239.913 200.148 239.913 202.486C239.913 204.838 241.187 206.238 243.315 206.238C245.023 206.238 246.101 205.384 246.465 203.718ZM245.317 201.744H241.117C241.271 200.386 242.083 199.546 243.245 199.546C244.435 199.546 245.205 200.372 245.317 201.744ZM258.175 206L254.885 201.618L257.797 198.776H256.201L252.897 202.22V198.776H251.707V206H252.897V203.55L254.031 202.444L256.663 206H258.175ZM262.13 198.566C259.946 198.566 258.588 200.036 258.588 202.416C258.588 204.796 259.904 206.224 262.116 206.224C264.314 206.224 265.588 204.796 265.588 202.346C265.588 199.952 264.314 198.566 262.13 198.566ZM262.102 199.56C263.502 199.56 264.37 200.652 264.37 202.374C264.37 204.152 263.53 205.216 262.13 205.216C260.674 205.216 259.82 204.166 259.82 202.388C259.82 200.666 260.702 199.56 262.102 199.56ZM268.195 206V202.696H271.807V206H272.997V198.776H271.807V201.646H268.195V198.776H267.005V206H268.195ZM274.757 206H278.691C279.979 206 280.889 205.104 280.889 203.872C280.889 202.906 280.357 202.262 279.517 202.094V202.08C280.189 201.772 280.581 201.296 280.581 200.526C280.581 199.056 279.363 198.776 278.103 198.776H274.757V206ZM277.977 201.688H275.919V199.798H277.977C279.027 199.798 279.349 200.12 279.349 200.722C279.349 201.338 278.999 201.688 277.977 201.688ZM275.919 202.696H278.257C279.237 202.696 279.657 203.116 279.657 203.774C279.657 204.46 279.223 204.978 278.467 204.978H275.919V202.696ZM288.478 203.718H287.316C286.98 204.81 286.406 205.258 285.37 205.258C283.97 205.258 283.116 204.334 283.116 202.794L283.13 202.71H288.562V202.542C288.562 200.456 287.666 198.566 285.286 198.566C283.284 198.566 281.926 200.148 281.926 202.486C281.926 204.838 283.2 206.238 285.328 206.238C287.036 206.238 288.114 205.384 288.478 203.718ZM287.33 201.744H283.13C283.284 200.386 284.096 199.546 285.258 199.546C286.448 199.546 287.218 200.372 287.33 201.744ZM290.944 198.776H289.824V208.786H291.014V204.992C291.63 205.832 292.372 206.182 293.436 206.182C295.41 206.182 296.67 204.684 296.67 202.346C296.67 200.008 295.396 198.552 293.38 198.552C292.316 198.552 291.504 198.902 290.944 199.798V198.776ZM293.198 199.546C294.598 199.546 295.438 200.61 295.438 202.36C295.438 204.096 294.598 205.174 293.24 205.174C291.84 205.174 290.972 204.11 290.972 202.36C290.972 200.61 291.812 199.546 293.198 199.546ZM304.339 203.368H303.135C302.953 204.558 302.239 205.216 301.161 205.216C299.817 205.216 299.005 204.152 299.005 202.388C299.005 200.652 299.873 199.56 301.245 199.56C302.225 199.56 302.855 200.106 303.065 201.128H304.297C304.101 199.49 302.995 198.566 301.231 198.566C299.103 198.566 297.759 200.078 297.759 202.486C297.759 204.684 298.949 206.21 301.189 206.21C302.981 206.21 304.129 205.09 304.339 203.368ZM307.168 206L310.416 200.106H310.444V206H311.634V198.776H310.108L306.86 204.67H306.832V198.776H305.642V206H307.168ZM314.947 206L318.195 200.106H318.223V206H319.413V198.776H317.887L314.639 204.67H314.611V198.776H313.421V206H314.947ZM326.287 206V199.826H329.899V206H331.089V198.776H325.097V206H326.287ZM336.04 198.566C333.856 198.566 332.498 200.036 332.498 202.416C332.498 204.796 333.814 206.224 336.026 206.224C338.224 206.224 339.498 204.796 339.498 202.346C339.498 199.952 338.224 198.566 336.04 198.566ZM336.012 199.56C337.412 199.56 338.28 200.652 338.28 202.374C338.28 204.152 337.44 205.216 336.04 205.216C334.584 205.216 333.73 204.166 333.73 202.388C333.73 200.666 334.612 199.56 336.012 199.56ZM340.51 200.862H341.714C341.812 199.882 342.694 199.532 343.548 199.532C344.528 199.532 345.074 200.036 345.074 200.568C345.074 201.422 344.388 201.744 343.548 201.744H342.75V202.71H343.744C344.85 202.71 345.284 203.158 345.284 203.886C345.284 204.628 344.64 205.258 343.506 205.258C342.442 205.258 341.658 204.782 341.588 203.746H340.384C340.468 205.314 341.63 206.224 343.52 206.224C345.046 206.224 346.516 205.426 346.516 203.858C346.516 202.738 345.788 202.192 345.116 202.066V202.038C345.704 201.912 346.278 201.338 346.278 200.512C346.278 199.168 345.046 198.566 343.562 198.566C342.106 198.566 340.622 199.084 340.51 200.862ZM347.888 206H351.822C353.11 206 354.02 205.104 354.02 203.872C354.02 202.906 353.488 202.262 352.648 202.094V202.08C353.32 201.772 353.712 201.296 353.712 200.526C353.712 199.056 352.494 198.776 351.234 198.776H347.888V206ZM351.108 201.688H349.05V199.798H351.108C352.158 199.798 352.48 200.12 352.48 200.722C352.48 201.338 352.13 201.688 351.108 201.688ZM349.05 202.696H351.388C352.368 202.696 352.788 203.116 352.788 203.774C352.788 204.46 352.354 204.978 351.598 204.978H349.05V202.696ZM358.599 198.566C356.415 198.566 355.057 200.036 355.057 202.416C355.057 204.796 356.373 206.224 358.585 206.224C360.783 206.224 362.057 204.796 362.057 202.346C362.057 199.952 360.783 198.566 358.599 198.566ZM358.571 199.56C359.971 199.56 360.839 200.652 360.839 202.374C360.839 204.152 359.999 205.216 358.599 205.216C357.143 205.216 356.289 204.166 356.289 202.388C356.289 200.666 357.171 199.56 358.571 199.56ZM369.152 198.776H364.238L364.112 203.144C364.07 204.712 363.538 205.132 363.062 205.132C362.908 205.132 362.586 205.118 362.432 205.034V206C362.586 206.07 362.936 206.154 363.286 206.154C364.294 206.154 365.218 205.384 365.288 203.018L365.386 199.826H367.962V206H369.152V198.776ZM372.438 206L375.686 200.106H375.714V206H376.904V198.776H375.378L372.13 204.67H372.102V198.776H370.912V206H372.438ZM384.221 199.826V198.776H377.851V199.826H380.441V206H381.631V199.826H384.221ZM396.068 208.296V204.95H395.13V198.776H389.978V200.316C389.978 202.136 389.488 204.152 389.068 204.95H388.284V208.296H389.418V206H394.934V208.296H396.068ZM393.94 204.95H390.3C390.692 204.18 391.14 202.234 391.14 200.428V199.826H393.94V204.95ZM403.281 203.718H402.119C401.783 204.81 401.209 205.258 400.173 205.258C398.773 205.258 397.919 204.334 397.919 202.794L397.933 202.71H403.365V202.542C403.365 200.456 402.469 198.566 400.089 198.566C398.087 198.566 396.729 200.148 396.729 202.486C396.729 204.838 398.003 206.238 400.131 206.238C401.839 206.238 402.917 205.384 403.281 203.718ZM402.133 201.744H397.933C398.087 200.386 398.899 199.546 400.061 199.546C401.251 199.546 402.021 200.372 402.133 201.744ZM405.746 198.776H404.626V208.786H405.816V204.992C406.432 205.832 407.174 206.182 408.238 206.182C410.212 206.182 411.472 204.684 411.472 202.346C411.472 200.008 410.198 198.552 408.182 198.552C407.118 198.552 406.306 198.902 405.746 199.798V198.776ZM408 199.546C409.4 199.546 410.24 200.61 410.24 202.36C410.24 204.096 409.4 205.174 408.042 205.174C406.642 205.174 405.774 204.11 405.774 202.36C405.774 200.61 406.614 199.546 408 199.546ZM415.731 202.5L416.627 203.41V206H417.817V203.41L418.713 202.5L421.191 206H422.661L419.497 201.744L422.255 198.776H420.785L417.845 202.094H417.817V198.776H416.627V202.094H416.599L413.659 198.776H412.189L414.947 201.744L411.783 206H413.253L415.731 202.5ZM429.974 205.048C429.848 205.076 429.792 205.09 429.68 205.09C429.316 205.09 429.19 204.908 429.19 204.376C429.19 203.298 429.246 202.234 429.246 201.156C429.246 200.512 429.26 199.77 428.756 199.28C428.28 198.832 427.454 198.58 426.488 198.58C424.626 198.58 423.506 199.49 423.464 201.03H424.626C424.738 199.966 425.312 199.56 426.418 199.56C427.482 199.56 428.056 199.98 428.056 200.75C428.056 201.73 427.468 201.688 425.746 201.898C424.038 202.108 423.184 202.864 423.184 204.152C423.184 205.412 424.066 206.196 425.494 206.196C426.614 206.196 427.398 205.846 428.112 205.048C428.126 205.734 428.49 206.112 429.162 206.112C429.428 206.112 429.722 206.07 429.974 205.972V205.048ZM428.056 202.248V203.564C428.056 204.488 426.978 205.258 425.858 205.258C424.962 205.258 424.416 204.796 424.416 204.054C424.416 202.892 425.592 202.794 426.46 202.682C426.992 202.612 427.608 202.584 428.056 202.248ZM436.625 199.826V198.776H430.255V199.826H432.845V206H434.035V199.826H436.625ZM443.652 203.746C443.652 202.374 442.714 201.534 441.3 201.534H438.724V198.776H437.534V206H441.356C442.77 206 443.652 205.104 443.652 203.746ZM440.922 202.556C441.916 202.556 442.42 202.976 442.42 203.746C442.42 204.516 441.902 204.95 440.922 204.95H438.724V202.556H440.922ZM44.016 216.776H42.896V226.786H44.086V222.992C44.702 223.832 45.444 224.182 46.508 224.182C48.482 224.182 49.742 222.684 49.742 220.346C49.742 218.008 48.468 216.552 46.452 216.552C45.388 216.552 44.576 216.902 44.016 217.798V216.776ZM46.27 217.546C47.67 217.546 48.51 218.61 48.51 220.36C48.51 222.096 47.67 223.174 46.312 223.174C44.912 223.174 44.044 222.11 44.044 220.36C44.044 218.61 44.884 217.546 46.27 217.546ZM57.0088 216.776H55.7628L53.7328 222.53L51.5908 216.776H50.2468L53.1168 223.958L52.5568 225.274C52.4168 225.61 52.1088 225.876 51.7168 225.876C51.5068 225.876 51.3248 225.834 50.9468 225.722V226.786C51.2408 226.856 51.5208 226.912 51.8288 226.912C53.1168 226.912 53.5228 225.946 53.9148 224.924L57.0088 216.776ZM64.4988 224L61.2088 219.618L64.1208 216.776H62.5248L59.2208 220.22V216.776H58.0308V224H59.2208V221.55L60.3548 220.444L62.9868 224H64.4988ZM71.2685 216.776H70.0225L67.9925 222.53L65.8505 216.776H64.5065L67.3765 223.958L66.8165 225.274C66.6765 225.61 66.3685 225.876 65.9765 225.876C65.7665 225.876 65.5845 225.834 65.2065 225.722V226.786C65.5005 226.856 65.7805 226.912 66.0885 226.912C67.3765 226.912 67.7825 225.946 68.1745 224.924L71.2685 216.776ZM77.377 224V220.696H80.989V224H82.179V216.776H80.989V219.646H77.377V216.776H76.187V224H77.377ZM90.3643 223.048C90.2383 223.076 90.1823 223.09 90.0703 223.09C89.7063 223.09 89.5803 222.908 89.5803 222.376C89.5803 221.298 89.6363 220.234 89.6363 219.156C89.6363 218.512 89.6503 217.77 89.1463 217.28C88.6703 216.832 87.8443 216.58 86.8783 216.58C85.0163 216.58 83.8963 217.49 83.8543 219.03H85.0163C85.1283 217.966 85.7023 217.56 86.8083 217.56C87.8723 217.56 88.4463 217.98 88.4463 218.75C88.4463 219.73 87.8583 219.688 86.1363 219.898C84.4283 220.108 83.5743 220.864 83.5743 222.152C83.5743 223.412 84.4563 224.196 85.8843 224.196C87.0043 224.196 87.7883 223.846 88.5023 223.048C88.5163 223.734 88.8803 224.112 89.5523 224.112C89.8183 224.112 90.1123 224.07 90.3643 223.972V223.048ZM88.4463 220.248V221.564C88.4463 222.488 87.3683 223.258 86.2483 223.258C85.3523 223.258 84.8063 222.796 84.8063 222.054C84.8063 220.892 85.9823 220.794 86.8503 220.682C87.3823 220.612 87.9983 220.584 88.4463 220.248ZM96.5723 224V217.826H100.184V224H101.374V216.776H95.3823V224H96.5723ZM109.14 216.776H107.894L105.864 222.53L103.722 216.776H102.378L105.248 223.958L104.688 225.274C104.548 225.61 104.24 225.876 103.848 225.876C103.638 225.876 103.456 225.834 103.078 225.722V226.786C103.372 226.856 103.652 226.912 103.96 226.912C105.248 226.912 105.654 225.946 106.046 224.924L109.14 216.776ZM115.594 216.776H110.68L110.554 221.144C110.512 222.712 109.98 223.132 109.504 223.132C109.35 223.132 109.028 223.118 108.874 223.034V224C109.028 224.07 109.378 224.154 109.728 224.154C110.736 224.154 111.66 223.384 111.73 221.018L111.828 217.826H114.404V224H115.594V216.776ZM123.429 221.746C123.429 220.374 122.491 219.534 121.077 219.534H118.501V216.776H117.311V224H121.133C122.547 224 123.429 223.104 123.429 221.746ZM120.699 220.556C121.693 220.556 122.197 220.976 122.197 221.746C122.197 222.516 121.679 222.95 120.699 222.95H118.501V220.556H120.699ZM130.829 221.368H129.625C129.443 222.558 128.729 223.216 127.651 223.216C126.307 223.216 125.495 222.152 125.495 220.388C125.495 218.652 126.363 217.56 127.735 217.56C128.715 217.56 129.345 218.106 129.555 219.128H130.787C130.591 217.49 129.485 216.566 127.721 216.566C125.593 216.566 124.249 218.078 124.249 220.486C124.249 222.684 125.439 224.21 127.679 224.21C129.471 224.21 130.619 223.09 130.829 221.368ZM138.306 221.718H137.144C136.808 222.81 136.234 223.258 135.198 223.258C133.798 223.258 132.944 222.334 132.944 220.794L132.958 220.71H138.39V220.542C138.39 218.456 137.494 216.566 135.114 216.566C133.112 216.566 131.754 218.148 131.754 220.486C131.754 222.838 133.028 224.238 135.156 224.238C136.864 224.238 137.942 223.384 138.306 221.718ZM137.158 219.744H132.958C133.112 218.386 133.924 217.546 135.086 217.546C136.276 217.546 137.046 218.372 137.158 219.744ZM141.472 222.446H139.918V224H141.472V222.446Z" fill="#626779"/>
<defs>
<filter id="filter0_d" x="0" y="0" width="511" height="268" filterUnits="userSpaceOnUse" color-interpolation-filters="sRGB">
<feFlood flood-opacity="0" result="BackgroundImageFix"/>
<feColorMatrix in="SourceAlpha" type="matrix" values="0 0 0 0 0 0 0 0 0 0 0 0 0 0 0 0 0 0 127 0"/>
<feOffset dy="2"/>
<feGaussianBlur stdDeviation="2"/>
<feColorMatrix type="matrix" values="0 0 0 0 0 0 0 0 0 0 0 0 0 0 0 0 0 0 0.25 0"/>
<feBlend mode="normal" in2="BackgroundImageFix" result="effect1_dropShadow"/>
<feBlend mode="normal" in="SourceGraphic" in2="effect1_dropShadow" result="shape"/>
</filter>
</defs>
</svg>
