<svg width="50" height="50" viewBox="0 0 50 50" fill="none" xmlns="http://www.w3.org/2000/svg">
<path d="M17.5457 30.7584C17.9412 30.7584 18.2612 30.4374 18.2612 30.0419C18.2612 29.6464 17.9412 29.3263 17.5457 29.3263C17.1502 29.3263 16.8277 29.6464 16.8277 30.0419C16.8277 30.4374 17.1502 30.7584 17.5457 30.7584ZM31.8674 25.0293H33.3004C33.6959 25.0293 34.0159 25.3503 34.0159 25.7448C34.0159 26.1403 33.6959 26.4613 33.3004 26.4613H31.8674C31.4729 26.4613 31.1519 26.7823 31.1519 27.1778C31.1519 27.5733 31.4729 27.8933 31.8674 27.8933H33.3004C33.6959 27.8933 34.0159 28.2158 34.0159 28.6098C34.0159 29.0053 33.6959 29.3263 33.3004 29.3263H31.8674C31.4729 29.3263 31.1519 29.6474 31.1519 30.0419C31.1519 30.4374 31.4729 30.7584 31.8674 30.7584C32.2629 30.7584 32.5854 31.0794 32.5854 31.4749C32.5854 31.8694 32.2629 32.1904 31.8674 32.1904H25.8683C25.1748 32.1904 24.4888 32.0794 23.8298 31.8594L21.1247 30.9584V22.0972C22.2493 21.8837 23.3488 21.1717 24.3413 20.0072C25.3103 18.8697 26.0953 17.3617 26.4433 15.9736L26.6983 14.9541H26.8543C27.6443 14.9541 28.2874 15.5976 28.2874 16.3876V17.1032C28.2874 18.0652 27.9859 19.9097 27.6013 20.7322H26.1393C25.7438 20.7322 25.4213 21.0532 25.4213 21.4477C25.4213 21.8432 25.7438 22.1642 26.1393 22.1642H33.3004C33.6959 22.1642 34.0159 22.4852 34.0159 22.8807C34.0159 23.2753 33.6959 23.5963 33.3004 23.5963H31.8674C31.4729 23.5963 31.1519 23.9173 31.1519 24.3128C31.1519 24.7083 31.4729 25.0293 31.8674 25.0293ZM19.6942 31.4749C19.6942 31.8694 19.3717 32.1904 18.9762 32.1904H15.3966V20.7322H18.9762C19.3717 20.7322 19.6942 21.0532 19.6942 21.4477V31.4749ZM34.8995 24.3128C35.2415 23.9318 35.449 23.4303 35.449 22.8807C35.449 21.6952 34.4845 20.7322 33.3004 20.7322H29.1304C29.5429 19.4787 29.7189 17.8157 29.7189 17.1032V16.3876C29.7189 14.8076 28.4349 13.5226 26.8548 13.5226H26.1393C25.8098 13.5226 25.5243 13.7461 25.4433 14.0646L25.0528 15.6261C24.5073 17.8117 22.7713 20.2237 20.9757 20.6617C20.6607 19.8657 19.8842 19.2992 18.9762 19.2992H14.6791C14.2846 19.2992 13.9636 19.6202 13.9636 20.0157V32.9069C13.9636 33.3024 14.2846 33.6234 14.6791 33.6234H18.9762C19.8307 33.6234 20.5702 33.1229 20.9172 32.3989L23.3768 33.2194C24.1813 33.4869 25.0198 33.6234 25.8683 33.6234H31.8674C33.0529 33.6234 34.0159 32.6589 34.0159 31.4749C34.0159 31.1954 33.9634 30.9279 33.8659 30.6829C34.778 30.4349 35.4495 29.5999 35.4495 28.6098C35.4495 28.0603 35.242 27.5588 34.9 27.1778C35.242 26.7968 35.4495 26.2953 35.4495 25.7448C35.449 25.1953 35.2415 24.6938 34.8995 24.3128ZM34.8095 39.617C34.5335 39.1545 33.9344 39.002 33.4714 39.2765C30.8369 40.8425 27.9119 41.6055 25.0078 41.6055C20.7167 41.6045 16.4662 39.939 13.2616 36.735C8.45704 31.9304 7.06301 24.7813 9.71056 18.5227C9.92056 18.0257 9.68856 17.4532 9.19055 17.2432C8.69504 17.0331 8.12103 17.2652 7.91103 17.7622C6.49 21.1242 6.092 24.8043 6.76101 28.4058C7.44702 32.0949 9.21705 35.4534 11.8806 38.1155C15.4621 41.6971 20.2112 43.5591 25.0073 43.5591C28.2544 43.5591 31.5239 42.7056 34.467 40.956C34.9315 40.6805 35.084 40.081 34.8095 39.617ZM38.12 36.7385C37.7415 36.355 37.124 36.3515 36.7405 36.731L36.726 36.7455C36.3425 37.125 36.3405 37.743 36.7185 38.126C36.909 38.319 37.1605 38.4155 37.412 38.4155C37.661 38.4155 37.91 38.3215 38.1005 38.1335L38.114 38.119C38.497 37.7395 38.5005 37.122 38.12 36.7385ZM43.2371 21.5892C42.5511 17.9002 40.7811 14.5431 38.1175 11.8796C32.1114 5.87347 22.8238 4.70645 15.5311 9.04002C15.0671 9.31603 14.9146 9.91404 15.1891 10.378C15.4651 10.8421 16.0642 10.9946 16.5272 10.7185C23.0533 6.84149 31.3619 7.8865 36.7365 13.2611C41.5411 18.0662 42.9351 25.2148 40.2875 31.4724C40.0775 31.9694 40.3096 32.5419 40.8076 32.7519C40.9311 32.8044 41.0591 32.8299 41.1861 32.8299C41.5671 32.8299 41.9281 32.6054 42.0871 32.2329C43.5096 28.8708 43.9061 25.1903 43.2371 21.5892ZM13.2801 11.8686C12.9006 11.4866 12.2816 11.4831 11.8981 11.8626L11.8846 11.8761C11.5011 12.2556 11.4976 12.8746 11.8786 13.2581C12.0691 13.4511 12.3206 13.5476 12.5721 13.5476C12.8201 13.5476 13.0676 13.4536 13.2581 13.2646L13.2726 13.2511C13.6561 12.8706 13.6586 12.2516 13.2801 11.8686ZM46.2866 26.1938C45.6616 27.2083 45.5126 28.4413 45.8791 29.5739L46.7217 32.1974C47.0267 33.1434 46.6412 34.1604 45.7866 34.6679L43.4496 36.055C42.4216 36.6655 41.7161 37.692 41.5146 38.871L41.0546 41.569C40.8861 42.5556 40.0705 43.2791 39.072 43.3296L36.395 43.4626C35.1925 43.5226 34.084 44.1061 33.3554 45.0656L31.7244 47.2116C31.1249 48.0002 30.0384 48.2687 29.1399 47.8486L26.7218 46.7196C25.6268 46.2081 24.3718 46.2081 23.2758 46.7196L20.8577 47.8486C19.9607 48.2687 18.8742 48.0002 18.2747 47.2116L16.6422 45.0656C15.9147 44.1061 14.8061 43.5226 13.6026 43.4626L10.9266 43.3296C9.92806 43.2791 9.11255 42.5556 8.94404 41.569L8.48404 38.871C8.28253 37.692 7.57702 36.665 6.54901 36.055L4.21247 34.6684C3.35795 34.1604 2.97195 33.1449 3.27695 32.1979L4.11947 29.5744C4.48447 28.4413 4.33547 27.2088 3.71196 26.1943L2.26994 23.8528C1.74993 23.0067 1.88043 21.9287 2.58844 21.2317L4.53697 19.3117C5.38649 18.4757 5.82599 17.3122 5.74049 16.1221L5.54499 13.3801C5.47399 12.3841 6.092 11.4881 7.04751 11.2001L9.62805 10.4225C10.7766 10.076 11.7106 9.24553 12.1881 8.14351L13.2696 5.65097C13.6091 4.86995 14.3901 4.37545 15.2201 4.37545C15.3521 4.37545 15.4861 4.38895 15.6207 4.41595L18.2407 4.92996C19.4247 5.16196 20.6432 4.86045 21.5832 4.10244L23.6683 2.41891C24.4388 1.7964 25.5578 1.7964 26.3293 2.41891L28.4144 4.10144C29.3544 4.86095 30.5729 5.16246 31.7569 4.92896L34.3755 4.41495C35.346 4.22444 36.3345 4.74445 36.728 5.65147L37.8085 8.14401C38.286 9.24502 39.2195 10.0765 40.3686 10.423L42.9506 11.2006C43.9066 11.4886 44.5241 12.3846 44.4536 13.3796L44.2581 16.1226C44.1726 17.3127 44.6121 18.4752 45.4616 19.3122L47.4097 21.2322C48.1177 21.9292 48.2482 23.0072 47.7282 23.8533L46.2866 26.1938ZM49.3912 24.8753C50.3912 23.2503 50.1397 21.1802 48.7807 19.8412L46.8312 17.9212C46.3892 17.4852 46.1611 16.8797 46.2051 16.2611L46.4007 13.5181C46.5362 11.6066 45.3496 9.88404 43.5146 9.33103L40.9326 8.55351C40.3345 8.37301 39.8485 7.9405 39.6005 7.36699L38.5205 4.87345C37.765 3.13143 35.8645 2.13141 33.9999 2.49792L31.3814 3.01192C30.7649 3.13293 30.1314 2.97542 29.6419 2.58092L27.5583 0.89739C26.0753 -0.29913 23.9243 -0.29913 22.4413 0.89739L20.3577 2.58092C19.8682 2.97542 19.2347 3.13293 18.6182 3.01192L15.9982 2.49792C14.1351 2.13191 12.2346 3.13193 11.4791 4.87345L10.3976 7.36599C10.1496 7.9395 9.66405 8.37201 9.06555 8.55251L6.485 9.33003C4.65047 9.88304 3.46395 11.6056 3.59946 13.5171L3.79496 16.2601C3.83896 16.8791 3.61046 17.4847 3.16845 17.9202L1.21792 19.8402C-0.139604 21.1792 -0.391108 23.2498 0.608908 24.8743L2.05043 27.2168C2.37494 27.7443 2.45194 28.3863 2.26294 28.9758L1.41942 31.5984C0.834912 33.4184 1.57342 35.3704 3.21745 36.346L5.55299 37.7325C6.089 38.051 6.455 38.586 6.56 39.1985L7.02001 41.8966C7.34352 43.7926 8.91104 45.1831 10.8326 45.2796L13.5086 45.4116C14.1336 45.4431 14.7096 45.7471 15.0896 46.2466L16.7217 48.3927C17.5082 49.4277 18.7312 49.9967 19.9762 49.9967C20.5547 49.9967 21.1382 49.8732 21.6853 49.6182L24.1048 48.4892C24.6738 48.2232 25.3278 48.2232 25.8968 48.4892L28.3164 49.6182C30.0399 50.4237 32.1289 49.9087 33.2799 48.3927L34.911 46.2466C35.292 45.7471 35.868 45.4436 36.493 45.4131L39.17 45.2801C41.0901 45.1836 42.6576 43.7931 42.9826 41.8971L43.4416 39.2005C43.5466 38.5865 43.9126 38.052 44.4491 37.7345L46.7842 36.348C48.4287 35.3714 49.1672 33.4194 48.5822 31.5994L47.7387 28.9768C47.5497 28.3873 47.6262 27.7453 47.9512 27.2178L49.3912 24.8753Z" fill="white"/>
</svg>
