<svg width="50" height="48" viewBox="0 0 50 48" fill="none" xmlns="http://www.w3.org/2000/svg">
<path d="M29.7604 0C27.1445 0 24.9972 2.14729 24.9972 4.76315C24.9972 5.78912 25.3319 6.73996 25.8913 7.51966C22.4526 8.18893 19.3217 9.72841 16.7405 11.9026H8.33145C6.74372 11.9026 6.74372 14.2848 8.33145 14.2848H14.3479C13.1308 15.7149 12.1124 17.3179 11.3263 19.0479H3.57295C1.98522 19.0479 1.98522 21.4289 3.57295 21.4289H10.4218C9.95234 22.9487 9.65668 24.5436 9.56031 26.1921H1.1908C-0.396932 26.1921 -0.396932 28.5742 1.1908 28.5742H9.56031C9.65652 30.2213 9.95078 31.8145 10.4195 33.3327H3.57295C1.98522 33.3327 1.98522 35.7149 3.57295 35.7149H11.3251C12.1112 37.445 13.1294 39.0478 14.3467 40.4781H8.33145C6.74372 40.4781 6.74372 42.859 8.33145 42.859H16.737C20.2591 45.826 24.8025 47.6175 29.7604 47.6175C40.9237 47.6175 50 38.547 50 27.3837C50 17.5443 42.9473 9.33039 33.6307 7.51966C34.19 6.73996 34.5247 5.78912 34.5247 4.76315C34.5247 2.14729 32.3763 0 29.7604 0ZM29.7604 2.38216C31.0895 2.38216 32.1425 3.43408 32.1425 4.76315C32.1425 6.08904 31.0943 7.1391 29.7697 7.14414C29.7666 7.14414 29.7635 7.14414 29.7604 7.14414C29.7573 7.14414 29.7542 7.14414 29.7511 7.14414C28.4265 7.13909 27.3794 6.08904 27.3794 4.76315C27.3794 3.43408 28.4313 2.38216 29.7604 2.38216ZM29.7604 9.5263C39.6369 9.5263 47.6178 17.5072 47.6178 27.3837C47.6178 37.2603 39.6369 45.2412 29.7604 45.2412C19.8839 45.2412 11.9029 37.2603 11.9029 27.3837C11.9029 17.5072 19.8839 9.5263 29.7604 9.5263Z" fill="white"/>
<path d="M30.952 13.0947C30.952 13.2511 30.9212 13.4059 30.8614 13.5504C30.8016 13.6948 30.7139 13.8261 30.6034 13.9366C30.4928 14.0472 30.3616 14.1348 30.2171 14.1946C30.0727 14.2545 29.9179 14.2853 29.7615 14.2853C29.6052 14.2853 29.4504 14.2545 29.306 14.1946C29.1615 14.1348 29.0303 14.0472 28.9197 13.9366C28.8092 13.8261 28.7215 13.6948 28.6617 13.5504C28.6018 13.4059 28.571 13.2511 28.571 13.0947C28.571 12.779 28.6965 12.4763 28.9197 12.253C29.143 12.0297 29.4458 11.9043 29.7615 11.9043C30.0773 11.9043 30.3801 12.0297 30.6033 12.253C30.8266 12.4763 30.952 12.779 30.952 13.0947Z" fill="white"/>
<path d="M44.0482 28.5743C43.8918 28.5743 43.737 28.5435 43.5926 28.4837C43.4481 28.4239 43.3169 28.3362 43.2064 28.2257C43.0958 28.1151 43.0081 27.9839 42.9483 27.8394C42.8885 27.695 42.8577 27.5401 42.8577 27.3838C42.8577 27.0681 42.9831 26.7653 43.2064 26.5421C43.4296 26.3188 43.7324 26.1934 44.0482 26.1934C44.3639 26.1934 44.6667 26.3188 44.89 26.5421C45.1132 26.7653 45.2387 27.0681 45.2387 27.3838C45.2387 27.5401 45.2079 27.695 45.148 27.8394C45.0882 27.9839 45.0005 28.1151 44.89 28.2257C44.7794 28.3362 44.6482 28.4239 44.5038 28.4837C44.3593 28.5435 44.2045 28.5743 44.0482 28.5743Z" fill="white"/>
<path d="M28.571 41.669C28.571 41.5127 28.6018 41.3579 28.6617 41.2134C28.7215 41.069 28.8092 40.9378 28.9197 40.8272C29.0303 40.7167 29.1615 40.629 29.306 40.5691C29.4504 40.5093 29.6052 40.4785 29.7615 40.4785C29.9179 40.4785 30.0727 40.5093 30.2171 40.5691C30.3616 40.629 30.4928 40.7167 30.6034 40.8272C30.7139 40.9378 30.8016 41.069 30.8614 41.2134C30.9212 41.3579 30.952 41.5127 30.952 41.669C30.952 41.9848 30.8266 42.2876 30.6033 42.5108C30.3801 42.7341 30.0773 42.8595 29.7615 42.8595C29.4458 42.8595 29.143 42.7341 28.9197 42.5108C28.6965 42.2876 28.571 41.9848 28.571 41.669Z" fill="white"/>
<path d="M15.4748 26.1934C15.7905 26.1934 16.0933 26.3187 16.3166 26.542C16.5399 26.7653 16.6653 27.0681 16.6653 27.3838C16.6653 27.5401 16.6345 27.695 16.5747 27.8394C16.5148 27.9839 16.4272 28.1151 16.3166 28.2257C16.2061 28.3362 16.0748 28.4239 15.9304 28.4837C15.7859 28.5435 15.6311 28.5743 15.4748 28.5743C15.3185 28.5743 15.1637 28.5435 15.0192 28.4837C14.8748 28.4239 14.7435 28.3362 14.633 28.2257C14.5224 28.1151 14.4347 27.9839 14.3749 27.8394C14.3151 27.695 14.2843 27.5401 14.2843 27.3838C14.2843 27.0681 14.4097 26.7653 14.633 26.542C14.8563 26.3187 15.1591 26.1934 15.4748 26.1934Z" fill="white"/>
<path d="M20.5011 16.4404C20.6116 16.551 20.6993 16.6823 20.7591 16.8267C20.819 16.9711 20.8498 17.1259 20.8498 17.2822C20.8498 17.4386 20.819 17.5934 20.7591 17.7379C20.6993 17.8823 20.6116 18.0135 20.5011 18.124C20.3905 18.2346 20.2593 18.3223 20.1148 18.3821C19.9704 18.442 19.8156 18.4728 19.6593 18.4728C19.5029 18.4728 19.3481 18.442 19.2037 18.3821C19.0592 18.3223 18.928 18.2346 18.8174 18.124C18.7069 18.0135 18.6192 17.8823 18.5594 17.7379C18.4995 17.5934 18.4687 17.4386 18.4688 17.2822C18.4688 17.1259 18.4995 16.9711 18.5594 16.8267C18.6192 16.6823 18.7069 16.551 18.8175 16.4404C19.0407 16.2172 19.3435 16.0918 19.6593 16.0918C19.975 16.0918 20.2778 16.2172 20.5011 16.4404Z" fill="white"/>
<path d="M39.0222 38.3272C38.9116 38.2167 38.8239 38.0855 38.7641 37.941C38.7043 37.7966 38.6735 37.6418 38.6735 37.4854C38.6735 37.3291 38.7043 37.1743 38.7641 37.0298C38.8239 36.8854 38.9116 36.7542 39.0222 36.6436C39.1327 36.5331 39.2639 36.4454 39.4084 36.3855C39.5528 36.3257 39.7076 36.2949 39.864 36.2949C40.0203 36.2949 40.1751 36.3257 40.3196 36.3855C40.464 36.4454 40.5952 36.5331 40.7058 36.6436C40.929 36.8669 41.0545 37.1697 41.0545 37.4854C41.0545 37.8012 40.929 38.104 40.7058 38.3272C40.4825 38.5505 40.1797 38.6759 39.864 38.676C39.5482 38.676 39.2454 38.5505 39.0222 38.3272Z" fill="white"/>
<path d="M18.8174 36.6436C19.0407 36.4204 19.3435 36.2949 19.6593 36.2949C19.975 36.2949 20.2778 36.4204 20.5011 36.6436C20.7243 36.8669 20.8497 37.1697 20.8497 37.4854C20.8497 37.8012 20.7243 38.104 20.5011 38.3272C20.2778 38.5505 19.975 38.6759 19.6593 38.6759C19.3435 38.6759 19.0407 38.5505 18.8174 38.3272C18.7069 38.2167 18.6192 38.0855 18.5594 37.941C18.4995 37.7966 18.4687 37.6418 18.4688 37.4854C18.4688 37.3291 18.4995 37.1743 18.5594 37.0298C18.6192 36.8854 18.7069 36.7542 18.8174 36.6436Z" fill="white"/>
<path d="M40.7055 18.124C40.595 18.2346 40.4637 18.3223 40.3193 18.3821C40.1749 18.442 40.02 18.4728 39.8637 18.4728C39.7074 18.4728 39.5526 18.442 39.4081 18.3821C39.2637 18.3223 39.1324 18.2346 39.0219 18.124C38.7986 17.9008 38.6732 17.598 38.6732 17.2822C38.6732 16.9665 38.7986 16.6638 39.0219 16.4405C39.2452 16.2172 39.548 16.0918 39.8637 16.0918C40.1794 16.0918 40.4823 16.2172 40.7055 16.4405C40.9288 16.6638 41.0542 16.9665 41.0542 17.2822C41.0542 17.598 40.9288 17.9008 40.7055 18.124Z" fill="white"/>
<path d="M29.7435 16.6486C29.5871 16.6508 29.4327 16.6839 29.2891 16.7459C29.1455 16.8078 29.0155 16.8974 28.9066 17.0096C28.7976 17.1219 28.7119 17.2544 28.6542 17.3998C28.5965 17.5452 28.568 17.7006 28.5703 17.8569V27.3832C28.5718 27.6985 28.6982 28.0003 28.9218 28.2225L34.8714 34.1764C34.9806 34.2928 35.112 34.3861 35.2579 34.4507C35.4038 34.5153 35.5612 34.5499 35.7208 34.5525C35.8803 34.5551 36.0388 34.5255 36.1867 34.4657C36.3346 34.4058 36.469 34.3168 36.5818 34.2039C36.6946 34.0911 36.7836 33.9567 36.8435 33.8088C36.9034 33.6609 36.9329 33.5025 36.9304 33.3429C36.9278 33.1834 36.8932 33.0259 36.8286 32.88C36.764 32.7341 36.6707 32.6027 36.5543 32.4935L30.9519 26.8867V17.8569C30.9543 17.6976 30.9247 17.5393 30.8648 17.3916C30.8049 17.244 30.716 17.1098 30.6033 16.9971C30.4906 16.8845 30.3565 16.7955 30.2088 16.7356C30.0611 16.6758 29.9029 16.6462 29.7435 16.6486Z" fill="white"/>
</svg>
