<svg width="36" height="120" viewBox="0 0 36 120" fill="none" xmlns="http://www.w3.org/2000/svg">
<path fill-rule="evenodd" clip-rule="evenodd" d="M17.4343 72.1724C13.8883 72.2505 11.0522 75.1502 11.0522 78.6977C11.0522 78.7137 11.0522 78.7304 11.0522 78.7462C11.0525 82.3509 13.9758 85.2742 17.5807 85.2742C21.1856 85.2742 24.1089 82.3509 24.1089 78.746C24.1092 78.7302 24.1092 78.7134 24.1092 78.6974C24.1092 75.0933 21.1863 72.1704 17.5822 72.1704C17.5336 72.1704 17.4819 72.1712 17.4341 72.1721H17.4343V72.1724ZM18.1556 75.4303C18.1635 75.4301 18.1713 75.4299 18.1792 75.4299C18.6013 75.4299 18.945 75.7701 18.9492 76.1922V78.7228L21.144 79.9854C21.361 80.1278 21.4921 80.3705 21.4921 80.6302C21.4921 81.056 21.1469 81.4012 20.7211 81.4012C20.5994 81.4012 20.4794 81.3724 20.371 81.3172L17.4146 79.6126V76.1922C17.4188 75.7807 17.7458 75.4451 18.1568 75.4303H18.1558H18.1556ZM24.2462 81.5848C30.7284 81.5848 22.8796 81.5848 24.2462 81.5848V81.5848Z" fill="#4FAAE1"/>
<path fill-rule="evenodd" clip-rule="evenodd" d="M5.79102 68.4692V89.0211H29.3736V68.4692H5.79102ZM17.4136 70.6107C17.4691 70.61 17.5272 70.609 17.5832 70.609C22.0377 70.609 25.6505 74.2216 25.6505 78.6761C25.6505 78.6987 25.6505 78.7224 25.6505 78.745C25.6502 83.2003 22.0372 86.8128 17.5822 86.8128C13.1272 86.8128 9.51444 83.2 9.51444 78.745C9.5142 78.7224 9.5142 78.6987 9.5142 78.6761C9.5142 74.2864 13.0262 70.7014 17.4139 70.6107L17.4136 70.6105V70.6107Z" fill="#4FAAE1"/>
<path fill-rule="evenodd" clip-rule="evenodd" d="M12.8177 3.4642H12.8175C12.6785 3.4642 12.5659 3.57681 12.5659 3.71578C12.5659 3.79783 12.6061 3.87496 12.6733 3.92177L15.504 5.9041L14.3215 9.15196C14.3114 9.1798 14.3062 9.20913 14.3062 9.23845C14.3062 9.37742 14.4188 9.49003 14.5578 9.49003C14.6098 9.49003 14.6606 9.47376 14.703 9.44395L17.5534 7.44832L20.4025 9.44395C20.4449 9.47376 20.4957 9.49003 20.5477 9.49003C20.6866 9.49003 20.7992 9.37742 20.7992 9.23845C20.7992 9.20913 20.7941 9.1798 20.784 9.15196L19.6015 5.9041L22.4322 3.92177C22.4994 3.87471 22.5396 3.79783 22.5396 3.71553C22.5396 3.57656 22.427 3.46396 22.288 3.46396H22.2878H18.8324L17.7924 0.167555C17.7569 0.067022 17.6618 0 17.5553 0C17.4489 0 17.3538 0.067022 17.3183 0.167555L16.2782 3.46396H12.8177V3.4642Z" fill="#4FAAE1"/>
<path fill-rule="evenodd" clip-rule="evenodd" d="M35.1624 90.5615V119.999H25.0219V110.079C25.0219 105.97 21.6897 102.638 17.5807 102.638C13.4716 102.638 10.1395 105.97 10.1395 110.079V119.999H0V90.5615H35.1621H35.1624Z" fill="#4FAAE1"/>
<path fill-rule="evenodd" clip-rule="evenodd" d="M11.6821 119.999H23.4832V110.08C23.4832 106.822 20.8407 104.18 17.5825 104.18C14.3243 104.18 11.6821 106.822 11.6821 110.08V120V119.999Z" fill="#4FAAE1"/>
<path fill-rule="evenodd" clip-rule="evenodd" d="M12.82 58.0394H8.86963V41.4966H12.82V58.0394Z" fill="#4FAAE1"/>
<path fill-rule="evenodd" clip-rule="evenodd" d="M20.8026 58.0394V41.4966H14.3579V58.0394H20.8026Z" fill="#4FAAE1"/>
<path fill-rule="evenodd" clip-rule="evenodd" d="M26.2929 58.0394V41.4966H22.3438V58.0394H26.2929Z" fill="#4FAAE1"/>
<path fill-rule="evenodd" clip-rule="evenodd" d="M8.86963 59.5776H26.2941V66.9299H8.86963V59.5776Z" fill="#4FAAE1"/>
<path fill-rule="evenodd" clip-rule="evenodd" d="M17.5809 11.6211L11.9752 39.9554H23.1888L17.5809 11.6211Z" fill="#4FAAE1"/>
</svg>
