<svg width="38" height="40" viewBox="0 0 38 40" fill="none" xmlns="http://www.w3.org/2000/svg">
<path d="M37.9355 0H0V40H37.9032V0H37.9355ZM36.6452 6.64516H14.6129V1.29032H36.6452V6.64516ZM13.3226 1.29032V6.64516H1.29032V1.29032H13.3226ZM1.29032 38.7097V7.93548H36.6129V38.7097H1.29032Z" fill="white"/>
<path d="M33.9357 3.32227H17.2905V4.61259H33.9357V3.32227Z" fill="white"/>
<path d="M4.19371 3.32227H2.83887V4.61259H4.19371V3.32227Z" fill="white"/>
<path d="M7.9354 3.32227H6.58057V4.61259H7.9354V3.32227Z" fill="white"/>
<path d="M11.7098 3.32227H10.355V4.61259H11.7098V3.32227Z" fill="white"/>
<path d="M6.06482 10H4.19385V11.2903H6.06482V10Z" fill="white"/>
<path d="M18.9678 10H8.96777V11.2903H18.9678V10Z" fill="white"/>
<path d="M6.06482 14.1621H4.19385V15.4524H6.06482V14.1621Z" fill="white"/>
<path d="M18.9678 14.1621H8.96777V15.4524H18.9678V14.1621Z" fill="white"/>
<path d="M6.06482 18.3223H4.19385V19.6126H6.06482V18.3223Z" fill="white"/>
<path d="M18.9678 18.3223H8.96777V19.6126H18.9678V18.3223Z" fill="white"/>
<path d="M6.06482 22.4844H4.19385V23.7747H6.06482V22.4844Z" fill="white"/>
<path d="M18.9676 22.4844H13.1289V23.7747H18.9676V22.4844Z" fill="white"/>
<path d="M6.06482 26.6445H4.19385V27.9349H6.06482V26.6445Z" fill="white"/>
<path d="M16.0323 26.6445H8.96777V27.9349H16.0323V26.6445Z" fill="white"/>
<path d="M6.06482 30.8066H4.19385V32.097H6.06482V30.8066Z" fill="white"/>
<path d="M18.9678 30.8066H8.96777V32.097H18.9678V30.8066Z" fill="white"/>
<path d="M6.06482 34.9668H4.19385V36.2571H6.06482V34.9668Z" fill="white"/>
<path d="M11.6775 34.9668H8.96777V36.2571H11.6775V34.9668Z" fill="white"/>
<path d="M31.4517 18.3223H21.4517V19.6126H31.4517V18.3223Z" fill="white"/>
<path d="M30.2259 22.4844H24.3872V23.7747H30.2259V22.4844Z" fill="white"/>
<path d="M24.355 26.6445H17.2905V27.9349H24.355V26.6445Z" fill="white"/>
<path d="M25.613 30.8066H21.4517V32.097H25.613V30.8066Z" fill="white"/>
<path d="M21.4515 34.9668H13.1289V36.2571H21.4515V34.9668Z" fill="white"/>
<path d="M30.6129 34.9668H23.9678V36.2571H30.6129V34.9668Z" fill="white"/>
</svg>
