<svg width="511" height="268" viewBox="0 0 511 268" fill="none" xmlns="http://www.w3.org/2000/svg">
<g filter="url(#filter0_d)">
<rect x="4" y="2" width="503" height="260" fill="white"/>
</g>
<rect x="4" y="2" width="503" height="138" fill="#F9F6F1"/>
<path d="M71.61 54.45H65.1C64.554 58.818 62.202 61.17 58.254 61.17C53.424 61.17 50.358 57.222 50.358 51.048C50.358 46.05 52.584 40.884 58.338 40.884C61.866 40.884 64.302 42.816 64.974 46.092H71.4C70.896 39.918 65.646 35.382 58.464 35.382C49.308 35.382 43.764 42.312 43.764 51.006C43.764 60.456 49.518 66.714 58.212 66.714C66.402 66.714 70.938 61.758 71.61 54.45ZM98.8769 72.384V61.422H96.0629V44.328H78.7589V48.108C78.7589 53.148 77.2889 58.944 76.0289 61.422H73.4249V72.384H79.0109V66H93.2909V72.384H98.8769ZM90.1409 61.422H81.8669C82.8749 59.154 84.3029 53.862 84.3029 49.284V48.738H90.1409V61.422ZM122.142 59.28H116.43C115.548 61.464 114.204 62.43 112.02 62.43C108.828 62.43 107.022 60.414 106.938 56.676H122.478V56.088C122.478 48.486 118.32 43.698 111.768 43.698C105.468 43.698 100.89 48.57 100.89 55.29C100.89 62.094 105.3 66.63 111.978 66.63C116.892 66.63 120.798 63.984 122.142 59.28ZM116.43 52.896H106.938C107.274 49.872 109.122 48.024 111.768 48.024C114.75 48.024 116.178 50.25 116.43 52.896ZM145.311 66V44.328H127.923L127.587 57.222C127.503 60.33 126.621 61.716 124.899 61.716C124.269 61.716 123.639 61.59 123.219 61.506V66.252C123.849 66.504 125.613 66.672 126.453 66.672C133.005 66.672 133.257 61.044 133.425 56.55L133.677 48.906H139.389V66H145.311ZM170.207 66C169.409 64.152 169.451 62.094 169.451 60.12V50.754C169.451 44.706 164.369 43.698 160.001 43.698C153.743 43.698 150.299 46.176 149.963 51.006H155.549C155.969 48.528 157.103 47.688 159.833 47.688C162.479 47.688 163.739 48.612 163.739 50.586C163.739 52.35 162.311 52.686 158.447 53.19C154.163 53.736 148.997 54.408 148.997 60.078C148.997 64.152 151.937 66.63 156.725 66.63C159.329 66.63 161.891 65.748 163.739 63.9C163.823 64.866 163.865 65.202 164.159 66H170.207ZM163.697 55.458V57.894C163.697 61.002 161.513 62.724 158.405 62.724C156.347 62.724 155.129 61.632 155.129 59.826C155.129 57.18 157.439 56.928 159.497 56.592C161.009 56.34 162.311 56.256 163.697 55.458ZM194.534 59.28H188.822C187.94 61.464 186.596 62.43 184.412 62.43C181.22 62.43 179.414 60.414 179.33 56.676H194.87V56.088C194.87 48.486 190.712 43.698 184.16 43.698C177.86 43.698 173.282 48.57 173.282 55.29C173.282 62.094 177.692 66.63 184.37 66.63C189.284 66.63 193.19 63.984 194.534 59.28ZM188.822 52.896H179.33C179.666 49.872 181.514 48.024 184.16 48.024C187.142 48.024 188.57 50.25 188.822 52.896ZM215.897 48.906V44.328H195.695V48.906H202.835V66H208.757V48.906H215.897ZM250.897 57.642H245.143C244.681 60.498 243.085 62.01 240.523 62.01C237.331 62.01 235.483 59.532 235.483 55.206C235.483 50.754 237.415 48.15 240.649 48.15C242.959 48.15 244.513 49.494 244.933 51.888H250.771C250.267 46.848 246.403 43.698 240.607 43.698C233.887 43.698 229.477 48.318 229.477 55.332C229.477 62.094 233.845 66.546 240.523 66.546C246.277 66.546 250.141 63.27 250.897 57.642ZM274.51 66C273.712 64.152 273.754 62.094 273.754 60.12V50.754C273.754 44.706 268.672 43.698 264.304 43.698C258.046 43.698 254.602 46.176 254.266 51.006H259.852C260.272 48.528 261.406 47.688 264.136 47.688C266.782 47.688 268.042 48.612 268.042 50.586C268.042 52.35 266.614 52.686 262.75 53.19C258.466 53.736 253.3 54.408 253.3 60.078C253.3 64.152 256.24 66.63 261.028 66.63C263.632 66.63 266.194 65.748 268.042 63.9C268.126 64.866 268.168 65.202 268.462 66H274.51ZM268 55.458V57.894C268 61.002 265.816 62.724 262.708 62.724C260.65 62.724 259.432 61.632 259.432 59.826C259.432 57.18 261.742 56.928 263.8 56.592C265.312 56.34 266.614 56.256 268 55.458ZM293.125 36.096C292.747 38.028 290.899 38.868 288.631 38.868C286.363 38.868 284.515 38.028 284.137 36.096H281.785C281.785 40.422 284.557 42.144 288.631 42.144C292.705 42.144 295.477 40.422 295.477 36.096H293.125ZM298.753 66V44.328H291.991L284.263 58.986V44.328H278.551V66H285.313L293.041 51.342V66H298.753ZM321.718 48.906V44.328H301.516V48.906H308.656V66H314.578V48.906H321.718ZM63.966 84.328H57.792L53.004 99.07L48.048 84.328H41.622L49.476 105.034C49.56 105.286 49.644 105.664 49.644 105.874C49.644 107.68 48.594 108.772 46.62 108.772H43.722V113.686C46.62 113.728 45.864 113.728 47.712 113.728C53.214 113.728 54.222 110.704 55.986 105.916L63.966 84.328ZM89.0331 112.384V101.422H86.2191V84.328H68.9151V88.108C68.9151 93.148 67.4451 98.944 66.1851 101.422H63.5811V112.384H69.1671V106H83.4471V112.384H89.0331ZM80.2971 101.422H72.0231C73.0311 99.154 74.4591 93.862 74.4591 89.284V88.738H80.2971V101.422ZM113.684 95.164C113.684 88.276 109.274 83.698 102.596 83.698C95.7922 83.698 91.2982 88.276 91.2982 95.164C91.2982 102.094 95.7502 106.672 102.512 106.672C109.274 106.672 113.684 102.136 113.684 95.164ZM107.72 95.122C107.72 99.574 105.788 102.178 102.512 102.178C99.1942 102.178 97.2622 99.616 97.2622 95.164C97.2622 90.838 99.2362 88.234 102.428 88.234C105.746 88.234 107.72 90.796 107.72 95.122ZM139.276 95.416C139.276 88.696 134.866 84.328 129.322 84.328C124.366 84.328 121.804 87.562 120.754 90.46H120.628C121.09 86.218 122.812 82.312 128.23 81.808C133.27 81.346 137.554 80.632 138.31 75.172H132.64C132.052 76.432 128.734 76.18 126.214 76.852C118.276 78.952 117.478 86.89 117.478 93.316C117.478 99.658 120.166 106.63 127.978 106.63C134.95 106.63 139.276 102.22 139.276 95.416ZM133.312 95.374C133.312 99.742 131.422 102.136 128.398 102.136C125.332 102.136 123.442 99.784 123.442 95.416C123.442 91.174 125.374 88.738 128.314 88.738C131.422 88.738 133.312 91.132 133.312 95.374ZM163.566 106V84.328H157.644V92.182H149.286V84.328H143.364V106H149.286V96.886H157.644V106H163.566ZM188.546 99.28H182.834C181.952 101.464 180.608 102.43 178.424 102.43C175.232 102.43 173.426 100.414 173.342 96.676H188.882V96.088C188.882 88.486 184.724 83.698 178.172 83.698C171.872 83.698 167.294 88.57 167.294 95.29C167.294 102.094 171.704 106.63 178.382 106.63C183.296 106.63 187.202 103.984 188.546 99.28ZM182.834 92.896H173.342C173.678 89.872 175.526 88.024 178.172 88.024C181.154 88.024 182.582 90.25 182.834 92.896ZM212.663 99.28H206.951C206.069 101.464 204.725 102.43 202.541 102.43C199.349 102.43 197.543 100.414 197.459 96.676H212.999V96.088C212.999 88.486 208.841 83.698 202.289 83.698C195.989 83.698 191.411 88.57 191.411 95.29C191.411 102.094 195.821 106.63 202.499 106.63C207.413 106.63 211.319 103.984 212.663 99.28ZM206.951 92.896H197.459C197.795 89.872 199.643 88.024 202.289 88.024C205.271 88.024 206.699 90.25 206.951 92.896ZM251.578 112.384V101.422H248.764V84.328H231.46V88.108C231.46 93.148 229.99 98.944 228.73 101.422H226.126V112.384H231.712V106H245.992V112.384H251.578ZM242.842 101.422H234.568C235.576 99.154 237.004 93.862 237.004 89.284V88.738H242.842V101.422ZM274.633 106V84.328H257.245L256.909 97.222C256.825 100.33 255.943 101.716 254.221 101.716C253.591 101.716 252.961 101.59 252.541 101.506V106.252C253.171 106.504 254.935 106.672 255.775 106.672C262.327 106.672 262.579 101.044 262.747 96.55L262.999 88.906H268.711V106H274.633ZM298.816 106V84.328H285.712C281.512 84.328 278.53 87.1 278.53 90.922C278.53 94.492 280.966 96.97 284.032 97.474L276.85 106H284.158L290.374 97.978H292.894V106H298.816ZM292.894 93.694H288.148C285.376 93.694 284.578 92.812 284.578 91.132C284.578 89.494 285.418 88.612 288.148 88.612H292.894V93.694ZM337.31 106L327.734 92.728L336.134 84.328H329.12L321.182 92.896V84.328H315.344V106H321.182V99.364L323.828 96.676L330.086 106H337.31ZM359.453 106V84.328H342.065L341.729 97.222C341.645 100.33 340.763 101.716 339.041 101.716C338.411 101.716 337.781 101.59 337.361 101.506V106.252C337.991 106.504 339.755 106.672 340.595 106.672C347.147 106.672 347.399 101.044 347.567 96.55L347.819 88.906H353.531V106H359.453ZM384.476 106V84.328H377.714L369.986 98.986V84.328H364.274V106H371.036L378.764 91.342V106H384.476ZM409.456 99.28H403.744C402.862 101.464 401.518 102.43 399.334 102.43C396.142 102.43 394.336 100.414 394.252 96.676H409.792V96.088C409.792 88.486 405.634 83.698 399.082 83.698C392.782 83.698 388.204 88.57 388.204 95.29C388.204 102.094 392.614 106.63 399.292 106.63C404.206 106.63 408.112 103.984 409.456 99.28ZM403.744 92.896H394.252C394.588 89.872 396.436 88.024 399.082 88.024C402.064 88.024 403.492 90.25 403.744 92.896ZM433.49 106V84.328H427.568V92.182H419.21V84.328H413.288V106H419.21V96.886H427.568V106H433.49ZM456.454 88.906V84.328H436.252V88.906H443.392V106H449.314V88.906H456.454ZM478.522 106C477.724 104.152 477.766 102.094 477.766 100.12V90.754C477.766 84.706 472.684 83.698 468.316 83.698C462.058 83.698 458.614 86.176 458.278 91.006H463.864C464.284 88.528 465.418 87.688 468.148 87.688C470.794 87.688 472.054 88.612 472.054 90.586C472.054 92.35 470.626 92.686 466.762 93.19C462.478 93.736 457.312 94.408 457.312 100.078C457.312 104.152 460.252 106.63 465.04 106.63C467.644 106.63 470.206 105.748 472.054 103.9C472.138 104.866 472.18 105.202 472.474 106H478.522ZM472.012 95.458V97.894C472.012 101.002 469.828 102.724 466.72 102.724C464.662 102.724 463.444 101.632 463.444 99.826C463.444 97.18 465.754 96.928 467.812 96.592C469.324 96.34 470.626 96.256 472.012 95.458Z" fill="#1F4B8B"/>
<path d="M51.002 160.032H43.106V170H44.422V161.18H49.686V170H51.002V160.032ZM54.1195 162.776H52.9995V172.786H54.1895V168.992C54.8055 169.832 55.5475 170.182 56.6115 170.182C58.5855 170.182 59.8455 168.684 59.8455 166.346C59.8455 164.008 58.5715 162.552 56.5555 162.552C55.4915 162.552 54.6795 162.902 54.1195 163.798V162.776ZM56.3735 163.546C57.7735 163.546 58.6135 164.61 58.6135 166.36C58.6135 168.096 57.7735 169.174 56.4155 169.174C55.0155 169.174 54.1475 168.11 54.1475 166.36C54.1475 164.61 54.9875 163.546 56.3735 163.546ZM64.4623 162.566C62.2783 162.566 60.9203 164.036 60.9203 166.416C60.9203 168.796 62.2363 170.224 64.4483 170.224C66.6463 170.224 67.9203 168.796 67.9203 166.346C67.9203 163.952 66.6463 162.566 64.4623 162.566ZM64.4343 163.56C65.8343 163.56 66.7023 164.652 66.7023 166.374C66.7023 168.152 65.8623 169.216 64.4623 169.216C63.0063 169.216 62.1523 168.166 62.1523 166.388C62.1523 164.666 63.0343 163.56 64.4343 163.56ZM69.3094 170H73.2434C74.5314 170 75.4414 169.104 75.4414 167.872C75.4414 166.906 74.9094 166.262 74.0694 166.094V166.08C74.7414 165.772 75.1334 165.296 75.1334 164.526C75.1334 163.056 73.9154 162.776 72.6554 162.776H69.3094V170ZM72.5294 165.688H70.4714V163.798H72.5294C73.5794 163.798 73.9014 164.12 73.9014 164.722C73.9014 165.338 73.5514 165.688 72.5294 165.688ZM70.4714 166.696H72.8094C73.7894 166.696 74.2094 167.116 74.2094 167.774C74.2094 168.46 73.7754 168.978 73.0194 168.978H70.4714V166.696ZM83.0309 167.718H81.8689C81.5329 168.81 80.9589 169.258 79.9229 169.258C78.5229 169.258 77.6689 168.334 77.6689 166.794L77.6829 166.71H83.1149V166.542C83.1149 164.456 82.2189 162.566 79.8389 162.566C77.8369 162.566 76.4789 164.148 76.4789 166.486C76.4789 168.838 77.7529 170.238 79.8809 170.238C81.5889 170.238 82.6669 169.384 83.0309 167.718ZM81.8829 165.744H77.6829C77.8369 164.386 78.6489 163.546 79.8109 163.546C81.0009 163.546 81.7709 164.372 81.8829 165.744ZM91.1304 172.296V168.95H90.1924V162.776H85.0404V164.316C85.0404 166.136 84.5504 168.152 84.1304 168.95H83.3464V172.296H84.4804V170H89.9964V172.296H91.1304ZM89.0024 168.95H85.3624C85.7544 168.18 86.2024 166.234 86.2024 164.428V163.826H89.0024V168.95ZM98.3434 167.718H97.1814C96.8454 168.81 96.2714 169.258 95.2354 169.258C93.8354 169.258 92.9814 168.334 92.9814 166.794L92.9954 166.71H98.4274V166.542C98.4274 164.456 97.5314 162.566 95.1514 162.566C93.1494 162.566 91.7914 164.148 91.7914 166.486C91.7914 168.838 93.0654 170.238 95.1934 170.238C96.9014 170.238 97.9794 169.384 98.3434 167.718ZM97.1954 165.744H92.9954C93.1494 164.386 93.9614 163.546 95.1234 163.546C96.3134 163.546 97.0834 164.372 97.1954 165.744ZM107.515 170V162.776H105.807L103.609 168.628H103.581L101.383 162.776H99.675V170H100.865V164.302H100.907L103.049 170H104.141L106.283 164.302H106.325V170H107.515ZM119.161 162.566C117.299 162.566 116.067 163.728 115.815 165.646H114.359V162.776H113.169V170H114.359V166.696H115.759C115.857 168.908 117.103 170.224 119.147 170.224C121.261 170.224 122.479 168.796 122.479 166.346C122.479 163.952 121.261 162.566 119.161 162.566ZM119.133 163.56C120.449 163.56 121.261 164.652 121.261 166.374C121.261 168.152 120.477 169.216 119.161 169.216C117.789 169.216 116.991 168.166 116.991 166.388C116.991 164.666 117.817 163.56 119.133 163.56ZM123.482 164.862H124.686C124.784 163.882 125.666 163.532 126.52 163.532C127.5 163.532 128.046 164.036 128.046 164.568C128.046 165.422 127.36 165.744 126.52 165.744H125.722V166.71H126.716C127.822 166.71 128.256 167.158 128.256 167.886C128.256 168.628 127.612 169.258 126.478 169.258C125.414 169.258 124.63 168.782 124.56 167.746H123.356C123.44 169.314 124.602 170.224 126.492 170.224C128.018 170.224 129.488 169.426 129.488 167.858C129.488 166.738 128.76 166.192 128.088 166.066V166.038C128.676 165.912 129.25 165.338 129.25 164.512C129.25 163.168 128.018 162.566 126.534 162.566C125.078 162.566 123.594 163.084 123.482 164.862ZM137.286 169.048C137.16 169.076 137.104 169.09 136.992 169.09C136.628 169.09 136.502 168.908 136.502 168.376C136.502 167.298 136.558 166.234 136.558 165.156C136.558 164.512 136.572 163.77 136.068 163.28C135.592 162.832 134.766 162.58 133.8 162.58C131.938 162.58 130.818 163.49 130.776 165.03H131.938C132.05 163.966 132.624 163.56 133.73 163.56C134.794 163.56 135.368 163.98 135.368 164.75C135.368 165.73 134.78 165.688 133.058 165.898C131.35 166.108 130.496 166.864 130.496 168.152C130.496 169.412 131.378 170.196 132.806 170.196C133.926 170.196 134.71 169.846 135.424 169.048C135.438 169.734 135.802 170.112 136.474 170.112C136.74 170.112 137.034 170.07 137.286 169.972V169.048ZM135.368 166.248V167.564C135.368 168.488 134.29 169.258 133.17 169.258C132.274 169.258 131.728 168.796 131.728 168.054C131.728 166.892 132.904 166.794 133.772 166.682C134.304 166.612 134.92 166.584 135.368 166.248ZM139.08 161.768C138.38 162.846 138.212 164.526 138.212 165.912C138.212 166.388 138.24 166.836 138.296 167.228C138.59 169.216 139.948 170.238 141.642 170.238C143.784 170.238 145.03 168.852 145.03 166.444C145.03 164.092 143.77 162.748 141.74 162.748C140.536 162.748 139.612 163.434 139.206 164.386H139.164C139.374 162.678 140.186 161.46 141.768 161.348C143.028 161.25 144.526 161.278 144.792 159.794H143.602C143.406 160.158 142.846 160.172 141.936 160.242C140.564 160.34 139.724 160.774 139.08 161.768ZM139.43 166.486C139.43 164.792 140.284 163.742 141.628 163.742C142.972 163.742 143.812 164.778 143.812 166.472C143.812 168.222 142.986 169.23 141.656 169.23C140.256 169.23 139.43 168.11 139.43 166.486ZM147.973 170L151.221 164.106H151.249V170H152.439V162.776H150.913L147.665 168.67H147.637V162.776H146.447V170H147.973ZM160.246 162.776H155.332L155.206 167.144C155.164 168.712 154.632 169.132 154.156 169.132C154.002 169.132 153.68 169.118 153.526 169.034V170C153.68 170.07 154.03 170.154 154.38 170.154C155.388 170.154 156.312 169.384 156.382 167.018L156.48 163.826H159.056V170H160.246V162.776ZM163.531 170L166.779 164.106H166.807V170H167.997V162.776H166.471L163.223 168.67H163.195V162.776H162.005V170H163.531ZM175.315 163.826V162.776H168.945V163.826H171.535V170H172.725V163.826H175.315ZM177.791 170L181.039 164.106H181.067V170H182.257V162.776H180.731L177.483 168.67H177.455V162.776H176.265V170H177.791ZM187.908 165.52H183.834V166.696H187.908V165.52ZM194.114 163.826V162.776H187.744V163.826H190.334V170H191.524V163.826H194.114ZM200.992 167.718H199.83C199.494 168.81 198.92 169.258 197.884 169.258C196.484 169.258 195.63 168.334 195.63 166.794L195.644 166.71H201.076V166.542C201.076 164.456 200.18 162.566 197.8 162.566C195.798 162.566 194.44 164.148 194.44 166.486C194.44 168.838 195.714 170.238 197.842 170.238C199.55 170.238 200.628 169.384 200.992 167.718ZM199.844 165.744H195.644C195.798 164.386 196.61 163.546 197.772 163.546C198.962 163.546 199.732 164.372 199.844 165.744ZM208.553 167.368H207.349C207.167 168.558 206.453 169.216 205.375 169.216C204.031 169.216 203.219 168.152 203.219 166.388C203.219 164.652 204.087 163.56 205.459 163.56C206.439 163.56 207.069 164.106 207.279 165.128H208.511C208.315 163.49 207.209 162.566 205.445 162.566C203.317 162.566 201.973 164.078 201.973 166.486C201.973 168.684 203.163 170.21 205.403 170.21C207.195 170.21 208.343 169.09 208.553 167.368ZM215.387 163.826V162.776H209.017V163.826H211.607V170H212.797V163.826H215.387ZM217.863 170L221.111 164.106H221.139V170H222.329V162.776H220.803L217.555 168.67H217.527V162.776H216.337V170H217.863ZM225.237 162.776H224.117V172.786H225.307V168.992C225.923 169.832 226.665 170.182 227.729 170.182C229.703 170.182 230.963 168.684 230.963 166.346C230.963 164.008 229.689 162.552 227.673 162.552C226.609 162.552 225.797 162.902 225.237 163.798V162.776ZM227.491 163.546C228.891 163.546 229.731 164.61 229.731 166.36C229.731 168.096 228.891 169.174 227.533 169.174C226.133 169.174 225.265 168.11 225.265 166.36C225.265 164.61 226.105 163.546 227.491 163.546ZM235.58 162.566C233.396 162.566 232.038 164.036 232.038 166.416C232.038 168.796 233.354 170.224 235.566 170.224C237.764 170.224 239.038 168.796 239.038 166.346C239.038 163.952 237.764 162.566 235.58 162.566ZM235.552 163.56C236.952 163.56 237.82 164.652 237.82 166.374C237.82 168.152 236.98 169.216 235.58 169.216C234.124 169.216 233.27 168.166 233.27 166.388C233.27 164.666 234.152 163.56 235.552 163.56ZM240.427 170H244.361C245.649 170 246.559 169.104 246.559 167.872C246.559 166.906 246.027 166.262 245.187 166.094V166.08C245.859 165.772 246.251 165.296 246.251 164.526C246.251 163.056 245.033 162.776 243.773 162.776H240.427V170ZM243.647 165.688H241.589V163.798H243.647C244.697 163.798 245.019 164.12 245.019 164.722C245.019 165.338 244.669 165.688 243.647 165.688ZM241.589 166.696H243.927C244.907 166.696 245.327 167.116 245.327 167.774C245.327 168.46 244.893 168.978 244.137 168.978H241.589V166.696ZM254.372 169.048C254.246 169.076 254.19 169.09 254.078 169.09C253.714 169.09 253.588 168.908 253.588 168.376C253.588 167.298 253.644 166.234 253.644 165.156C253.644 164.512 253.658 163.77 253.154 163.28C252.678 162.832 251.852 162.58 250.886 162.58C249.024 162.58 247.904 163.49 247.862 165.03H249.024C249.136 163.966 249.71 163.56 250.816 163.56C251.88 163.56 252.454 163.98 252.454 164.75C252.454 165.73 251.866 165.688 250.144 165.898C248.436 166.108 247.582 166.864 247.582 168.152C247.582 169.412 248.464 170.196 249.892 170.196C251.012 170.196 251.796 169.846 252.51 169.048C252.524 169.734 252.888 170.112 253.56 170.112C253.826 170.112 254.12 170.07 254.372 169.972V169.048ZM252.454 166.248V167.564C252.454 168.488 251.376 169.258 250.256 169.258C249.36 169.258 248.814 168.796 248.814 168.054C248.814 166.892 249.99 166.794 250.858 166.682C251.39 166.612 252.006 166.584 252.454 166.248ZM256.684 170V166.696H260.296V170H261.486V162.776H260.296V165.646H256.684V162.776H255.494V170H256.684ZM264.799 170L268.047 164.106H268.075V170H269.265V162.776H267.739L264.491 168.67H264.463V162.776H263.273V170H264.799ZM277.226 167.718H276.064C275.728 168.81 275.154 169.258 274.118 169.258C272.718 169.258 271.864 168.334 271.864 166.794L271.878 166.71H277.31V166.542C277.31 164.456 276.414 162.566 274.034 162.566C272.032 162.566 270.674 164.148 270.674 166.486C270.674 168.838 271.948 170.238 274.076 170.238C275.784 170.238 276.862 169.384 277.226 167.718ZM276.078 165.744H271.878C272.032 164.386 272.844 163.546 274.006 163.546C275.196 163.546 275.966 164.372 276.078 165.744ZM280.392 168.446H278.838V170H280.392V168.446ZM294.471 160.032H286.575V170H287.891V161.18H293.155V170H294.471V160.032ZM299.632 162.566C297.448 162.566 296.09 164.036 296.09 166.416C296.09 168.796 297.406 170.224 299.618 170.224C301.816 170.224 303.09 168.796 303.09 166.346C303.09 163.952 301.816 162.566 299.632 162.566ZM299.604 163.56C301.004 163.56 301.872 164.652 301.872 166.374C301.872 168.152 301.032 169.216 299.632 169.216C298.176 169.216 297.322 168.166 297.322 166.388C297.322 164.666 298.204 163.56 299.604 163.56ZM311.261 172.296V168.95H310.323V162.776H305.171V164.316C305.171 166.136 304.681 168.152 304.261 168.95H303.477V172.296H304.611V170H310.127V172.296H311.261ZM309.133 168.95H305.493C305.885 168.18 306.333 166.234 306.333 164.428V163.826H309.133V168.95ZM318.516 167.368H317.312C317.13 168.558 316.416 169.216 315.338 169.216C313.994 169.216 313.182 168.152 313.182 166.388C313.182 164.652 314.05 163.56 315.422 163.56C316.402 163.56 317.032 164.106 317.242 165.128H318.474C318.278 163.49 317.172 162.566 315.408 162.566C313.28 162.566 311.936 164.078 311.936 166.486C311.936 168.684 313.126 170.21 315.366 170.21C317.158 170.21 318.306 169.09 318.516 167.368ZM326.288 170L322.998 165.618L325.91 162.776H324.314L321.01 166.22V162.776H319.82V170H321.01V167.55L322.144 166.444L324.776 170H326.288ZM333.478 169.048C333.352 169.076 333.296 169.09 333.184 169.09C332.82 169.09 332.694 168.908 332.694 168.376C332.694 167.298 332.75 166.234 332.75 165.156C332.75 164.512 332.764 163.77 332.26 163.28C331.784 162.832 330.958 162.58 329.992 162.58C328.13 162.58 327.01 163.49 326.968 165.03H328.13C328.242 163.966 328.816 163.56 329.922 163.56C330.986 163.56 331.56 163.98 331.56 164.75C331.56 165.73 330.972 165.688 329.25 165.898C327.542 166.108 326.688 166.864 326.688 168.152C326.688 169.412 327.57 170.196 328.998 170.196C330.118 170.196 330.902 169.846 331.616 169.048C331.63 169.734 331.994 170.112 332.666 170.112C332.932 170.112 333.226 170.07 333.478 169.972V169.048ZM331.56 166.248V167.564C331.56 168.488 330.482 169.258 329.362 169.258C328.466 169.258 327.92 168.796 327.92 168.054C327.92 166.892 329.096 166.794 329.964 166.682C330.496 166.612 331.112 166.584 331.56 166.248ZM337.651 166.5L338.547 167.41V170H339.737V167.41L340.633 166.5L343.111 170H344.581L341.417 165.744L344.175 162.776H342.705L339.765 166.094H339.737V162.776H338.547V166.094H338.519L335.579 162.776H334.109L336.867 165.744L333.703 170H335.173L337.651 166.5ZM351.424 167.718H350.262C349.926 168.81 349.352 169.258 348.316 169.258C346.916 169.258 346.062 168.334 346.062 166.794L346.076 166.71H351.508V166.542C351.508 164.456 350.612 162.566 348.232 162.566C346.23 162.566 344.872 164.148 344.872 166.486C344.872 168.838 346.146 170.238 348.274 170.238C349.982 170.238 351.06 169.384 351.424 167.718ZM350.276 165.744H346.076C346.23 164.386 347.042 163.546 348.204 163.546C349.394 163.546 350.164 164.372 350.276 165.744ZM360.595 170V162.776H358.887L356.689 168.628H356.661L354.463 162.776H352.755V170H353.945V164.302H353.987L356.129 170H357.221L359.363 164.302H359.405V170H360.595ZM364.173 168.446H362.619V170H363.389C363.375 170.77 363.151 171.19 362.619 171.372V172.072C364.005 171.708 364.173 170.644 364.173 169.398V168.446ZM376.614 170L373.324 165.618L376.236 162.776H374.64L371.336 166.22V162.776H370.146V170H371.336V167.55L372.47 166.444L375.102 170H376.614ZM383.804 169.048C383.678 169.076 383.622 169.09 383.51 169.09C383.146 169.09 383.02 168.908 383.02 168.376C383.02 167.298 383.076 166.234 383.076 165.156C383.076 164.512 383.09 163.77 382.586 163.28C382.11 162.832 381.284 162.58 380.318 162.58C378.456 162.58 377.336 163.49 377.294 165.03H378.456C378.568 163.966 379.142 163.56 380.248 163.56C381.312 163.56 381.886 163.98 381.886 164.75C381.886 165.73 381.298 165.688 379.576 165.898C377.868 166.108 377.014 166.864 377.014 168.152C377.014 169.412 377.896 170.196 379.324 170.196C380.444 170.196 381.228 169.846 381.942 169.048C381.956 169.734 382.32 170.112 382.992 170.112C383.258 170.112 383.552 170.07 383.804 169.972V169.048ZM381.886 166.248V167.564C381.886 168.488 380.808 169.258 379.688 169.258C378.792 169.258 378.246 168.796 378.246 168.054C378.246 166.892 379.422 166.794 380.29 166.682C380.822 166.612 381.438 166.584 381.886 166.248ZM391.393 170L388.103 165.618L391.015 162.776H389.419L386.115 166.22V162.776H384.925V170H386.115V167.55L387.249 166.444L389.881 170H391.393ZM396.054 170H399.988C401.276 170 402.186 169.104 402.186 167.872C402.186 166.906 401.654 166.262 400.814 166.094V166.08C401.486 165.772 401.878 165.296 401.878 164.526C401.878 163.056 400.66 162.776 399.4 162.776H396.054V170ZM399.274 165.688H397.216V163.798H399.274C400.324 163.798 400.646 164.12 400.646 164.722C400.646 165.338 400.296 165.688 399.274 165.688ZM397.216 166.696H399.554C400.534 166.696 400.954 167.116 400.954 167.774C400.954 168.46 400.52 168.978 399.764 168.978H397.216V166.696ZM410.489 162.776V170H411.679V162.776H410.489ZM409.341 167.746C409.341 166.374 408.403 165.534 406.989 165.534H404.749V162.776H403.559V170H407.045C408.459 170 409.341 169.104 409.341 167.746ZM406.611 166.556C407.605 166.556 408.109 166.976 408.109 167.746C408.109 168.516 407.591 168.95 406.611 168.95H404.749V166.556H406.611ZM418.443 163.826V162.776H413.486V170H414.677V163.826H418.443ZM422.16 162.566C419.976 162.566 418.618 164.036 418.618 166.416C418.618 168.796 419.934 170.224 422.146 170.224C424.344 170.224 425.618 168.796 425.618 166.346C425.618 163.952 424.344 162.566 422.16 162.566ZM422.132 163.56C423.532 163.56 424.4 164.652 424.4 166.374C424.4 168.152 423.56 169.216 422.16 169.216C420.704 169.216 419.85 168.166 419.85 166.388C419.85 164.666 420.732 163.56 422.132 163.56ZM433.789 172.296V168.95H432.851V162.776H427.699V164.316C427.699 166.136 427.209 168.152 426.789 168.95H426.005V172.296H427.139V170H432.655V172.296H433.789ZM431.661 168.95H428.021C428.413 168.18 428.861 166.234 428.861 164.428V163.826H431.661V168.95ZM436.018 170V166.696H439.63V170H440.82V162.776H439.63V165.646H436.018V162.776H434.828V170H436.018ZM448.781 167.718H447.619C447.283 168.81 446.709 169.258 445.673 169.258C444.273 169.258 443.419 168.334 443.419 166.794L443.433 166.71H448.865V166.542C448.865 164.456 447.969 162.566 445.589 162.566C443.587 162.566 442.229 164.148 442.229 166.486C442.229 168.838 443.503 170.238 445.631 170.238C447.339 170.238 448.417 169.384 448.781 167.718ZM447.633 165.744H443.433C443.587 164.386 444.399 163.546 445.561 163.546C446.751 163.546 447.521 164.372 447.633 165.744ZM456.3 167.718H455.138C454.802 168.81 454.228 169.258 453.192 169.258C451.792 169.258 450.938 168.334 450.938 166.794L450.952 166.71H456.384V166.542C456.384 164.456 455.488 162.566 453.108 162.566C451.106 162.566 449.748 164.148 449.748 166.486C449.748 168.838 451.022 170.238 453.15 170.238C454.858 170.238 455.936 169.384 456.3 167.718ZM455.152 165.744H450.952C451.106 164.386 451.918 163.546 453.08 163.546C454.27 163.546 455.04 164.372 455.152 165.744ZM44.016 180.776H42.896V190.786H44.086V186.992C44.702 187.832 45.444 188.182 46.508 188.182C48.482 188.182 49.742 186.684 49.742 184.346C49.742 182.008 48.468 180.552 46.452 180.552C45.388 180.552 44.576 180.902 44.016 181.798V180.776ZM46.27 181.546C47.67 181.546 48.51 182.61 48.51 184.36C48.51 186.096 47.67 187.174 46.312 187.174C44.912 187.174 44.044 186.11 44.044 184.36C44.044 182.61 44.884 181.546 46.27 181.546ZM57.5928 187.048C57.4668 187.076 57.4108 187.09 57.2988 187.09C56.9348 187.09 56.8088 186.908 56.8088 186.376C56.8088 185.298 56.8648 184.234 56.8648 183.156C56.8648 182.512 56.8788 181.77 56.3748 181.28C55.8988 180.832 55.0728 180.58 54.1068 180.58C52.2448 180.58 51.1248 181.49 51.0828 183.03H52.2448C52.3568 181.966 52.9308 181.56 54.0368 181.56C55.1008 181.56 55.6748 181.98 55.6748 182.75C55.6748 183.73 55.0868 183.688 53.3648 183.898C51.6568 184.108 50.8028 184.864 50.8028 186.152C50.8028 187.412 51.6848 188.196 53.1128 188.196C54.2328 188.196 55.0168 187.846 55.7308 187.048C55.7448 187.734 56.1088 188.112 56.7808 188.112C57.0468 188.112 57.3408 188.07 57.5928 187.972V187.048ZM55.6748 184.248V185.564C55.6748 186.488 54.5968 187.258 53.4768 187.258C52.5808 187.258 52.0348 186.796 52.0348 186.054C52.0348 184.892 53.2108 184.794 54.0788 184.682C54.6108 184.612 55.2268 184.584 55.6748 184.248ZM58.3084 182.862H59.5124C59.6104 181.882 60.4924 181.532 61.3464 181.532C62.3264 181.532 62.8724 182.036 62.8724 182.568C62.8724 183.422 62.1864 183.744 61.3464 183.744H60.5484V184.71H61.5424C62.6484 184.71 63.0824 185.158 63.0824 185.886C63.0824 186.628 62.4384 187.258 61.3044 187.258C60.2404 187.258 59.4564 186.782 59.3864 185.746H58.1824C58.2664 187.314 59.4284 188.224 61.3184 188.224C62.8444 188.224 64.3144 187.426 64.3144 185.858C64.3144 184.738 63.5864 184.192 62.9144 184.066V184.038C63.5024 183.912 64.0764 183.338 64.0764 182.512C64.0764 181.168 62.8444 180.566 61.3604 180.566C59.9044 180.566 58.4204 181.084 58.3084 182.862ZM73.5404 188V180.776H71.8324L69.6344 186.628H69.6064L67.4084 180.776H65.7004V188H66.8904V182.302H66.9324L69.0744 188H70.1664L72.3084 182.302H72.3504V188H73.5404ZM81.4723 185.718H80.3103C79.9743 186.81 79.4003 187.258 78.3643 187.258C76.9643 187.258 76.1103 186.334 76.1103 184.794L76.1243 184.71H81.5563V184.542C81.5563 182.456 80.6603 180.566 78.2803 180.566C76.2783 180.566 74.9203 182.148 74.9203 184.486C74.9203 186.838 76.1943 188.238 78.3223 188.238C80.0303 188.238 81.1083 187.384 81.4723 185.718ZM80.3243 183.744H76.1243C76.2783 182.386 77.0903 181.546 78.2523 181.546C79.4423 181.546 80.2123 182.372 80.3243 183.744ZM89.0339 185.368H87.8299C87.6479 186.558 86.9339 187.216 85.8559 187.216C84.5119 187.216 83.6999 186.152 83.6999 184.388C83.6999 182.652 84.5679 181.56 85.9399 181.56C86.9199 181.56 87.5499 182.106 87.7599 183.128H88.9919C88.7959 181.49 87.6899 180.566 85.9259 180.566C83.7979 180.566 82.4539 182.078 82.4539 184.486C82.4539 186.684 83.6439 188.21 85.8839 188.21C87.6759 188.21 88.8239 187.09 89.0339 185.368ZM95.8674 181.826V180.776H89.4974V181.826H92.0874V188H93.2774V181.826H95.8674ZM98.3439 188L101.592 182.106H101.62V188H102.81V180.776H101.284L98.0359 186.67H98.0079V180.776H96.8179V188H98.3439ZM110.127 181.826V180.776H103.757V181.826H106.347V188H107.537V181.826H110.127ZM117.154 185.746C117.154 184.374 116.216 183.534 114.802 183.534H112.226V180.776H111.036V188H114.858C116.272 188 117.154 187.104 117.154 185.746ZM114.424 184.556C115.418 184.556 115.922 184.976 115.922 185.746C115.922 186.516 115.404 186.95 114.424 186.95H112.226V184.556H114.424ZM123.76 188L127.008 182.106H127.036V188H128.226V180.776H126.7L123.452 186.67H123.424V180.776H122.234V188H123.76ZM131.203 188V184.696H134.815V188H136.005V180.776H134.815V183.646H131.203V180.776H130.013V188H131.203ZM147.536 184.276C147.536 181.994 146.444 180.594 144.722 180.594C144.106 180.594 143.392 181 143.126 181.378H143.084V178.032H141.908V181.378H141.866C141.6 181 140.886 180.594 140.27 180.594C138.548 180.594 137.456 181.994 137.456 184.276C137.456 186.292 138.212 188.168 140.368 188.168C140.9 188.168 141.6 187.804 141.88 187.454H141.908V190.786H143.084V187.454H143.112C143.392 187.804 144.092 188.168 144.624 188.168C146.78 188.168 147.536 186.292 147.536 184.276ZM146.304 184.304C146.304 185.634 145.926 187.174 144.484 187.174C143.756 187.174 143.182 186.754 143.084 186.236V182.596C143.308 181.826 144.036 181.588 144.554 181.588C145.786 181.588 146.304 182.722 146.304 184.304ZM141.908 186.236C141.81 186.754 141.236 187.174 140.508 187.174C139.066 187.174 138.688 185.634 138.688 184.304C138.688 182.722 139.206 181.588 140.438 181.588C140.956 181.588 141.684 181.826 141.908 182.596V186.236ZM152.154 180.566C149.97 180.566 148.612 182.036 148.612 184.416C148.612 186.796 149.928 188.224 152.14 188.224C154.338 188.224 155.612 186.796 155.612 184.346C155.612 181.952 154.338 180.566 152.154 180.566ZM152.126 181.56C153.526 181.56 154.394 182.652 154.394 184.374C154.394 186.152 153.554 187.216 152.154 187.216C150.698 187.216 149.844 186.166 149.844 184.388C149.844 182.666 150.726 181.56 152.126 181.56ZM158.149 180.776H157.029V190.786H158.219V186.992C158.835 187.832 159.577 188.182 160.641 188.182C162.615 188.182 163.875 186.684 163.875 184.346C163.875 182.008 162.601 180.552 160.585 180.552C159.521 180.552 158.709 180.902 158.149 181.798V180.776ZM160.403 181.546C161.803 181.546 162.643 182.61 162.643 184.36C162.643 186.096 161.803 187.174 160.445 187.174C159.045 187.174 158.177 186.11 158.177 184.36C158.177 182.61 159.017 181.546 160.403 181.546ZM173.154 188V180.776H171.446L169.248 186.628H169.22L167.022 180.776H165.314V188H166.504V182.302H166.546L168.688 188H169.78L171.922 182.302H171.964V188H173.154ZM181.31 187.048C181.184 187.076 181.128 187.09 181.016 187.09C180.652 187.09 180.526 186.908 180.526 186.376C180.526 185.298 180.582 184.234 180.582 183.156C180.582 182.512 180.596 181.77 180.092 181.28C179.616 180.832 178.79 180.58 177.824 180.58C175.962 180.58 174.842 181.49 174.8 183.03H175.962C176.074 181.966 176.648 181.56 177.754 181.56C178.818 181.56 179.392 181.98 179.392 182.75C179.392 183.73 178.804 183.688 177.082 183.898C175.374 184.108 174.52 184.864 174.52 186.152C174.52 187.412 175.402 188.196 176.83 188.196C177.95 188.196 178.734 187.846 179.448 187.048C179.462 187.734 179.826 188.112 180.498 188.112C180.764 188.112 181.058 188.07 181.31 187.972V187.048ZM179.392 184.248V185.564C179.392 186.488 178.314 187.258 177.194 187.258C176.298 187.258 175.752 186.796 175.752 186.054C175.752 184.892 176.928 184.794 177.796 184.682C178.328 184.612 178.944 184.584 179.392 184.248ZM188.171 190.296H189.305V186.95H188.367V180.776H187.177V186.95H183.621V180.776H182.431V188H188.171V190.296ZM191.942 188L195.19 182.106H195.218V188H196.408V180.776H194.882L191.634 186.67H191.606V180.776H190.416V188H191.942ZM204.187 180.566C202.325 180.566 201.093 181.728 200.841 183.646H199.385V180.776H198.195V188H199.385V184.696H200.785C200.883 186.908 202.129 188.224 204.173 188.224C206.287 188.224 207.505 186.796 207.505 184.346C207.505 181.952 206.287 180.566 204.187 180.566ZM204.159 181.56C205.475 181.56 206.287 182.652 206.287 184.374C206.287 186.152 205.503 187.216 204.187 187.216C202.815 187.216 202.017 186.166 202.017 184.388C202.017 182.666 202.843 181.56 204.159 181.56ZM210.734 186.446H209.18V188H209.95C209.936 188.77 209.712 189.19 209.18 189.372V190.072C210.566 189.708 210.734 188.644 210.734 187.398V186.446ZM222.293 188V180.776H221.103V183.8C220.837 183.884 219.787 184.122 219.087 184.122C218.205 184.122 217.701 183.786 217.701 182.862V180.776H216.511V183.058C216.511 184.458 217.421 185.13 218.863 185.13C219.591 185.13 220.851 184.878 221.103 184.808V188H222.293ZM229.619 181.826V180.776H223.249V181.826H225.839V188H227.029V181.826H229.619ZM233.488 180.566C231.304 180.566 229.946 182.036 229.946 184.416C229.946 186.796 231.262 188.224 233.474 188.224C235.672 188.224 236.946 186.796 236.946 184.346C236.946 181.952 235.672 180.566 233.488 180.566ZM233.46 181.56C234.86 181.56 235.728 182.652 235.728 184.374C235.728 186.152 234.888 187.216 233.488 187.216C232.032 187.216 231.178 186.166 231.178 184.388C231.178 182.666 232.06 181.56 233.46 181.56ZM239.035 179.768C238.335 180.846 238.167 182.526 238.167 183.912C238.167 184.388 238.195 184.836 238.251 185.228C238.545 187.216 239.903 188.238 241.597 188.238C243.739 188.238 244.985 186.852 244.985 184.444C244.985 182.092 243.725 180.748 241.695 180.748C240.491 180.748 239.567 181.434 239.161 182.386H239.119C239.329 180.678 240.141 179.46 241.723 179.348C242.983 179.25 244.481 179.278 244.747 177.794H243.557C243.361 178.158 242.801 178.172 241.891 178.242C240.519 178.34 239.679 178.774 239.035 179.768ZM239.385 184.486C239.385 182.792 240.239 181.742 241.583 181.742C242.927 181.742 243.767 182.778 243.767 184.472C243.767 186.222 242.941 187.23 241.611 187.23C240.211 187.23 239.385 186.11 239.385 184.486ZM253.29 180.776V188H254.48V180.776H253.29ZM252.142 185.746C252.142 184.374 251.204 183.534 249.79 183.534H247.55V180.776H246.36V188H249.846C251.26 188 252.142 187.104 252.142 185.746ZM249.412 184.556C250.406 184.556 250.91 184.976 250.91 185.746C250.91 186.516 250.392 186.95 249.412 186.95H247.55V184.556H249.412ZM261.346 188V181.826H264.958V188H266.148V180.776H260.156V188H261.346ZM271.099 180.566C268.915 180.566 267.557 182.036 267.557 184.416C267.557 186.796 268.873 188.224 271.085 188.224C273.283 188.224 274.557 186.796 274.557 184.346C274.557 181.952 273.283 180.566 271.099 180.566ZM271.071 181.56C272.471 181.56 273.339 182.652 273.339 184.374C273.339 186.152 272.499 187.216 271.099 187.216C269.643 187.216 268.789 186.166 268.789 184.388C268.789 182.666 269.671 181.56 271.071 181.56ZM281.652 180.776H276.738L276.612 185.144C276.57 186.712 276.038 187.132 275.562 187.132C275.408 187.132 275.086 187.118 274.932 187.034V188C275.086 188.07 275.436 188.154 275.786 188.154C276.794 188.154 277.718 187.384 277.788 185.018L277.886 181.826H280.462V188H281.652V180.776ZM289.488 185.746C289.488 184.374 288.55 183.534 287.136 183.534H284.56V180.776H283.37V188H287.192C288.606 188 289.488 187.104 289.488 185.746ZM286.758 184.556C287.752 184.556 288.256 184.976 288.256 185.746C288.256 186.516 287.738 186.95 286.758 186.95H284.56V184.556H286.758ZM290.265 182.862H291.469C291.567 181.882 292.449 181.532 293.303 181.532C294.283 181.532 294.829 182.036 294.829 182.568C294.829 183.422 294.143 183.744 293.303 183.744H292.505V184.71H293.499C294.605 184.71 295.039 185.158 295.039 185.886C295.039 186.628 294.395 187.258 293.261 187.258C292.197 187.258 291.413 186.782 291.343 185.746H290.139C290.223 187.314 291.385 188.224 293.275 188.224C294.801 188.224 296.271 187.426 296.271 185.858C296.271 184.738 295.543 184.192 294.871 184.066V184.038C295.459 183.912 296.033 183.338 296.033 182.512C296.033 181.168 294.801 180.566 293.317 180.566C291.861 180.566 290.377 181.084 290.265 182.862ZM300.835 180.566C298.651 180.566 297.293 182.036 297.293 184.416C297.293 186.796 298.609 188.224 300.821 188.224C303.019 188.224 304.293 186.796 304.293 184.346C304.293 181.952 303.019 180.566 300.835 180.566ZM300.807 181.56C302.207 181.56 303.075 182.652 303.075 184.374C303.075 186.152 302.235 187.216 300.835 187.216C299.379 187.216 298.525 186.166 298.525 184.388C298.525 182.666 299.407 181.56 300.807 181.56ZM305.682 188H309.616C310.904 188 311.814 187.104 311.814 185.872C311.814 184.906 311.282 184.262 310.442 184.094V184.08C311.114 183.772 311.506 183.296 311.506 182.526C311.506 181.056 310.288 180.776 309.028 180.776H305.682V188ZM308.902 183.688H306.844V181.798H308.902C309.952 181.798 310.274 182.12 310.274 182.722C310.274 183.338 309.924 183.688 308.902 183.688ZM306.844 184.696H309.182C310.162 184.696 310.582 185.116 310.582 185.774C310.582 186.46 310.148 186.978 309.392 186.978H306.844V184.696ZM319.628 187.048C319.502 187.076 319.446 187.09 319.334 187.09C318.97 187.09 318.844 186.908 318.844 186.376C318.844 185.298 318.9 184.234 318.9 183.156C318.9 182.512 318.914 181.77 318.41 181.28C317.934 180.832 317.108 180.58 316.142 180.58C314.28 180.58 313.16 181.49 313.118 183.03H314.28C314.392 181.966 314.966 181.56 316.072 181.56C317.136 181.56 317.71 181.98 317.71 182.75C317.71 183.73 317.122 183.688 315.4 183.898C313.692 184.108 312.838 184.864 312.838 186.152C312.838 187.412 313.72 188.196 315.148 188.196C316.268 188.196 317.052 187.846 317.766 187.048C317.78 187.734 318.144 188.112 318.816 188.112C319.082 188.112 319.376 188.07 319.628 187.972V187.048ZM317.71 184.248V185.564C317.71 186.488 316.632 187.258 315.512 187.258C314.616 187.258 314.07 186.796 314.07 186.054C314.07 184.892 315.246 184.794 316.114 184.682C316.646 184.612 317.262 184.584 317.71 184.248ZM326.28 181.826V180.776H319.91V181.826H322.5V188H323.69V181.826H326.28ZM333.158 185.718H331.996C331.66 186.81 331.086 187.258 330.05 187.258C328.65 187.258 327.796 186.334 327.796 184.794L327.81 184.71H333.242V184.542C333.242 182.456 332.346 180.566 329.966 180.566C327.964 180.566 326.606 182.148 326.606 184.486C326.606 186.838 327.88 188.238 330.008 188.238C331.716 188.238 332.794 187.384 333.158 185.718ZM332.01 183.744H327.81C327.964 182.386 328.776 181.546 329.938 181.546C331.128 181.546 331.898 182.372 332.01 183.744ZM340.277 180.776H335.363L335.237 185.144C335.195 186.712 334.663 187.132 334.187 187.132C334.033 187.132 333.711 187.118 333.557 187.034V188C333.711 188.07 334.061 188.154 334.411 188.154C335.419 188.154 336.343 187.384 336.413 185.018L336.511 181.826H339.087V188H340.277V180.776ZM347.749 188V180.776H344.081C342.681 180.776 341.813 181.546 341.813 182.904C341.813 184.094 342.583 184.85 343.605 185.004L341.113 188H342.695L344.977 185.046H346.559V188H347.749ZM346.559 181.826V183.996H344.459C343.465 183.996 343.031 183.646 343.031 182.904C343.031 182.176 343.479 181.826 344.459 181.826H346.559ZM357.382 188V180.776H355.674L353.476 186.628H353.448L351.25 180.776H349.542V188H350.732V182.302H350.774L352.916 188H354.008L356.15 182.302H356.192V188H357.382ZM363.709 179.768C363.009 180.846 362.841 182.526 362.841 183.912C362.841 184.388 362.869 184.836 362.925 185.228C363.219 187.216 364.577 188.238 366.271 188.238C368.413 188.238 369.659 186.852 369.659 184.444C369.659 182.092 368.399 180.748 366.369 180.748C365.165 180.748 364.241 181.434 363.835 182.386H363.793C364.003 180.678 364.815 179.46 366.397 179.348C367.657 179.25 369.155 179.278 369.421 177.794H368.231C368.035 178.158 367.475 178.172 366.565 178.242C365.193 178.34 364.353 178.774 363.709 179.768ZM364.059 184.486C364.059 182.792 364.913 181.742 366.257 181.742C367.601 181.742 368.441 182.778 368.441 184.472C368.441 186.222 367.615 187.23 366.285 187.23C364.885 187.23 364.059 186.11 364.059 184.486ZM377.964 180.776V188H379.154V180.776H377.964ZM376.816 185.746C376.816 184.374 375.878 183.534 374.464 183.534H372.224V180.776H371.034V188H374.52C375.934 188 376.816 187.104 376.816 185.746ZM374.086 184.556C375.08 184.556 375.584 184.976 375.584 185.746C375.584 186.516 375.066 186.95 374.086 186.95H372.224V184.556H374.086ZM386.953 180.776H382.039L381.913 185.144C381.871 186.712 381.339 187.132 380.863 187.132C380.709 187.132 380.387 187.118 380.233 187.034V188C380.387 188.07 380.737 188.154 381.087 188.154C382.095 188.154 383.019 187.384 383.089 185.018L383.187 181.826H385.763V188H386.953V180.776ZM391.876 180.566C389.692 180.566 388.334 182.036 388.334 184.416C388.334 186.796 389.65 188.224 391.862 188.224C394.06 188.224 395.334 186.796 395.334 184.346C395.334 181.952 394.06 180.566 391.876 180.566ZM391.848 181.56C393.248 181.56 394.116 182.652 394.116 184.374C394.116 186.152 393.276 187.216 391.876 187.216C390.42 187.216 389.566 186.166 389.566 184.388C389.566 182.666 390.448 181.56 391.848 181.56ZM406.668 180.776H401.754L401.628 185.144C401.586 186.712 401.054 187.132 400.578 187.132C400.424 187.132 400.102 187.118 399.948 187.034V188C400.102 188.07 400.452 188.154 400.802 188.154C401.81 188.154 402.734 187.384 402.804 185.018L402.902 181.826H405.478V188H406.668V180.776ZM414.601 185.718H413.439C413.103 186.81 412.529 187.258 411.493 187.258C410.093 187.258 409.239 186.334 409.239 184.794L409.253 184.71H414.685V184.542C414.685 182.456 413.789 180.566 411.409 180.566C409.407 180.566 408.049 182.148 408.049 184.486C408.049 186.838 409.323 188.238 411.451 188.238C413.159 188.238 414.237 187.384 414.601 185.718ZM413.453 183.744H409.253C409.407 182.386 410.219 181.546 411.381 181.546C412.571 181.546 413.341 182.372 413.453 183.744ZM420.931 181.826V180.776H415.975V188H417.165V181.826H420.931ZM427.412 188V180.776H426.222V183.8C425.956 183.884 424.906 184.122 424.206 184.122C423.324 184.122 422.82 183.786 422.82 182.862V180.776H421.63V183.058C421.63 184.458 422.54 185.13 423.982 185.13C424.71 185.13 425.97 184.878 426.222 184.808V188H427.412ZM435.382 185.718H434.221C433.885 186.81 433.311 187.258 432.275 187.258C430.875 187.258 430.021 186.334 430.021 184.794L430.035 184.71H435.467V184.542C435.467 182.456 434.571 180.566 432.191 180.566C430.189 180.566 428.831 182.148 428.831 184.486C428.831 186.838 430.105 188.238 432.233 188.238C433.941 188.238 435.019 187.384 435.382 185.718ZM434.235 183.744H430.035C430.189 182.386 431.001 181.546 432.163 181.546C433.353 181.546 434.123 182.372 434.235 183.744ZM44.086 206V199.826H47.698V206H48.888V198.776H42.896V206H44.086ZM51.7953 198.776H50.6753V208.786H51.8653V204.992C52.4813 205.832 53.2233 206.182 54.2873 206.182C56.2613 206.182 57.5213 204.684 57.5213 202.346C57.5213 200.008 56.2473 198.552 54.2313 198.552C53.1673 198.552 52.3553 198.902 51.7953 199.798V198.776ZM54.0493 199.546C55.4493 199.546 56.2893 200.61 56.2893 202.36C56.2893 204.096 55.4493 205.174 54.0913 205.174C52.6913 205.174 51.8233 204.11 51.8233 202.36C51.8233 200.61 52.6633 199.546 54.0493 199.546ZM60.5001 206L63.7481 200.106H63.7761V206H64.9661V198.776H63.4401L60.1921 204.67H60.1641V198.776H58.9741V206H60.5001ZM67.9434 206V202.696H71.5554V206H72.7454V198.776H71.5554V201.646H67.9434V198.776H66.7534V206H67.9434ZM80.2447 206V198.776H76.5767C75.1767 198.776 74.3087 199.546 74.3087 200.904C74.3087 202.094 75.0787 202.85 76.1007 203.004L73.6087 206H75.1907L77.4727 203.046H79.0547V206H80.2447ZM79.0547 199.826V201.996H76.9547C75.9607 201.996 75.5267 201.646 75.5267 200.904C75.5267 200.176 75.9747 199.826 76.9547 199.826H79.0547ZM87.5823 199.826V198.776H81.2123V199.826H83.8023V206H84.9923V199.826H87.5823ZM94.6087 203.746C94.6087 202.374 93.6707 201.534 92.2567 201.534H89.6807V198.776H88.4907V206H92.3127C93.7267 206 94.6087 205.104 94.6087 203.746ZM91.8787 202.556C92.8727 202.556 93.3767 202.976 93.3767 203.746C93.3767 204.516 92.8587 204.95 91.8787 204.95H89.6807V202.556H91.8787ZM100.809 198.776H99.689V208.786H100.879V204.992C101.495 205.832 102.237 206.182 103.301 206.182C105.275 206.182 106.535 204.684 106.535 202.346C106.535 200.008 105.261 198.552 103.245 198.552C102.181 198.552 101.369 198.902 100.809 199.798V198.776ZM103.063 199.546C104.463 199.546 105.303 200.61 105.303 202.36C105.303 204.096 104.463 205.174 103.105 205.174C101.705 205.174 100.837 204.11 100.837 202.36C100.837 200.61 101.677 199.546 103.063 199.546ZM114.162 203.718H113C112.664 204.81 112.09 205.258 111.054 205.258C109.654 205.258 108.8 204.334 108.8 202.794L108.814 202.71H114.246V202.542C114.246 200.456 113.35 198.566 110.97 198.566C108.968 198.566 107.61 200.148 107.61 202.486C107.61 204.838 108.884 206.238 111.012 206.238C112.72 206.238 113.798 205.384 114.162 203.718ZM113.014 201.744H108.814C108.968 200.386 109.78 199.546 110.942 199.546C112.132 199.546 112.902 200.372 113.014 201.744ZM115.507 206H125.041V198.776H123.851V204.95H120.869V198.776H119.679V204.95H116.697V198.776H115.507V206ZM133.002 203.718H131.84C131.504 204.81 130.93 205.258 129.894 205.258C128.494 205.258 127.64 204.334 127.64 202.794L127.654 202.71H133.086V202.542C133.086 200.456 132.19 198.566 129.81 198.566C127.808 198.566 126.45 200.148 126.45 202.486C126.45 204.838 127.724 206.238 129.852 206.238C131.56 206.238 132.638 205.384 133.002 203.718ZM131.854 201.744H127.654C127.808 200.386 128.62 199.546 129.782 199.546C130.972 199.546 131.742 200.372 131.854 201.744ZM135.537 206V202.696H139.149V206H140.339V198.776H139.149V201.646H135.537V198.776H134.347V206H135.537ZM143.652 206L146.9 200.106H146.928V206H148.118V198.776H146.592L143.344 204.67H143.316V198.776H142.126V206H143.652ZM156.08 203.718H154.918C154.582 204.81 154.008 205.258 152.972 205.258C151.572 205.258 150.718 204.334 150.718 202.794L150.732 202.71H156.164V202.542C156.164 200.456 155.268 198.566 152.888 198.566C150.886 198.566 149.528 200.148 149.528 202.486C149.528 204.838 150.802 206.238 152.93 206.238C154.638 206.238 155.716 205.384 156.08 203.718ZM154.932 201.744H150.732C150.886 200.386 151.698 199.546 152.86 199.546C154.05 199.546 154.82 200.372 154.932 201.744ZM164.486 198.566C162.302 198.566 160.944 200.036 160.944 202.416C160.944 204.796 162.26 206.224 164.472 206.224C166.67 206.224 167.944 204.796 167.944 202.346C167.944 199.952 166.67 198.566 164.486 198.566ZM164.458 199.56C165.858 199.56 166.726 200.652 166.726 202.374C166.726 204.152 165.886 205.216 164.486 205.216C163.03 205.216 162.176 204.166 162.176 202.388C162.176 200.666 163.058 199.56 164.458 199.56ZM174.447 206V199.826H178.059V206H179.249V198.776H173.257V206H174.447ZM184.201 198.566C182.017 198.566 180.659 200.036 180.659 202.416C180.659 204.796 181.975 206.224 184.187 206.224C186.385 206.224 187.659 204.796 187.659 202.346C187.659 199.952 186.385 198.566 184.201 198.566ZM184.173 199.56C185.573 199.56 186.441 200.652 186.441 202.374C186.441 204.152 185.601 205.216 184.201 205.216C182.745 205.216 181.891 204.166 181.891 202.388C181.891 200.666 182.773 199.56 184.173 199.56ZM195.544 206L192.254 201.618L195.166 198.776H193.57L190.266 202.22V198.776H189.076V206H190.266V203.55L191.4 202.444L194.032 206H195.544ZM202.313 198.776H201.067L199.037 204.53L196.895 198.776H195.551L198.421 205.958L197.861 207.274C197.721 207.61 197.413 207.876 197.021 207.876C196.811 207.876 196.629 207.834 196.251 207.722V208.786C196.545 208.856 196.825 208.912 197.133 208.912C198.421 208.912 198.827 207.946 199.219 206.924L202.313 198.776ZM204.525 206V199.826H208.137V206H209.327V198.776H203.335V206H204.525ZM217.583 206L214.293 201.618L217.205 198.776H215.609L212.305 202.22V198.776H211.115V206H212.305V203.55L213.439 202.444L216.071 206H217.583ZM224.549 203.718H223.387C223.051 204.81 222.477 205.258 221.441 205.258C220.041 205.258 219.187 204.334 219.187 202.794L219.201 202.71H224.633V202.542C224.633 200.456 223.737 198.566 221.357 198.566C219.355 198.566 217.997 200.148 217.997 202.486C217.997 204.838 219.271 206.238 221.399 206.238C223.107 206.238 224.185 205.384 224.549 203.718ZM223.401 201.744H219.201C219.355 200.386 220.167 199.546 221.329 199.546C222.519 199.546 223.289 200.372 223.401 201.744ZM231.317 206L234.565 200.106H234.593V206H235.783V198.776H234.257L231.009 204.67H230.981V198.776H229.791V206H231.317ZM244.63 198.566C242.446 198.566 241.088 200.036 241.088 202.416C241.088 204.796 242.404 206.224 244.616 206.224C246.814 206.224 248.088 204.796 248.088 202.346C248.088 199.952 246.814 198.566 244.63 198.566ZM244.602 199.56C246.002 199.56 246.87 200.652 246.87 202.374C246.87 204.152 246.03 205.216 244.63 205.216C243.174 205.216 242.32 204.166 242.32 202.388C242.32 200.666 243.202 199.56 244.602 199.56ZM259.249 202.276C259.249 199.994 258.157 198.594 256.435 198.594C255.819 198.594 255.105 199 254.839 199.378H254.797V196.032H253.621V199.378H253.579C253.313 199 252.599 198.594 251.983 198.594C250.261 198.594 249.169 199.994 249.169 202.276C249.169 204.292 249.925 206.168 252.081 206.168C252.613 206.168 253.313 205.804 253.593 205.454H253.621V208.786H254.797V205.454H254.825C255.105 205.804 255.805 206.168 256.337 206.168C258.493 206.168 259.249 204.292 259.249 202.276ZM258.017 202.304C258.017 203.634 257.639 205.174 256.197 205.174C255.469 205.174 254.895 204.754 254.797 204.236V200.596C255.021 199.826 255.749 199.588 256.267 199.588C257.499 199.588 258.017 200.722 258.017 202.304ZM253.621 204.236C253.523 204.754 252.949 205.174 252.221 205.174C250.779 205.174 250.401 203.634 250.401 202.304C250.401 200.722 250.919 199.588 252.151 199.588C252.669 199.588 253.397 199.826 253.621 200.596V204.236ZM263.867 198.566C261.683 198.566 260.325 200.036 260.325 202.416C260.325 204.796 261.641 206.224 263.853 206.224C266.051 206.224 267.325 204.796 267.325 202.346C267.325 199.952 266.051 198.566 263.867 198.566ZM263.839 199.56C265.239 199.56 266.107 200.652 266.107 202.374C266.107 204.152 265.267 205.216 263.867 205.216C262.411 205.216 261.557 204.166 261.557 202.388C261.557 200.666 262.439 199.56 263.839 199.56ZM269.862 198.776H268.742V208.786H269.932V204.992C270.548 205.832 271.29 206.182 272.354 206.182C274.328 206.182 275.588 204.684 275.588 202.346C275.588 200.008 274.314 198.552 272.298 198.552C271.234 198.552 270.422 198.902 269.862 199.798V198.776ZM272.116 199.546C273.516 199.546 274.356 200.61 274.356 202.36C274.356 204.096 273.516 205.174 272.158 205.174C270.758 205.174 269.89 204.11 269.89 202.36C269.89 200.61 270.73 199.546 272.116 199.546ZM284.867 206V198.776H283.159L280.961 204.628H280.933L278.735 198.776H277.027V206H278.217V200.302H278.259L280.401 206H281.493L283.635 200.302H283.677V206H284.867ZM288.151 206L291.399 200.106H291.427V206H292.617V198.776H291.091L287.843 204.67H287.815V198.776H286.625V206H288.151ZM299.934 199.826V198.776H293.564V199.826H296.154V206H297.344V199.826H299.934ZM306.96 203.746C306.96 202.374 306.022 201.534 304.608 201.534H302.032V198.776H300.842V206H304.664C306.078 206 306.96 205.104 306.96 203.746ZM304.23 202.556C305.224 202.556 305.728 202.976 305.728 203.746C305.728 204.516 305.21 204.95 304.23 204.95H302.032V202.556H304.23ZM311.635 200.862H312.839C312.937 199.882 313.819 199.532 314.673 199.532C315.653 199.532 316.199 200.036 316.199 200.568C316.199 201.422 315.513 201.744 314.673 201.744H313.875V202.71H314.869C315.975 202.71 316.409 203.158 316.409 203.886C316.409 204.628 315.765 205.258 314.631 205.258C313.567 205.258 312.783 204.782 312.713 203.746H311.509C311.593 205.314 312.755 206.224 314.645 206.224C316.171 206.224 317.641 205.426 317.641 203.858C317.641 202.738 316.913 202.192 316.241 202.066V202.038C316.829 201.912 317.403 201.338 317.403 200.512C317.403 199.168 316.171 198.566 314.687 198.566C313.231 198.566 311.747 199.084 311.635 200.862ZM325.439 205.048C325.313 205.076 325.257 205.09 325.145 205.09C324.781 205.09 324.655 204.908 324.655 204.376C324.655 203.298 324.711 202.234 324.711 201.156C324.711 200.512 324.725 199.77 324.221 199.28C323.745 198.832 322.919 198.58 321.953 198.58C320.091 198.58 318.971 199.49 318.929 201.03H320.091C320.203 199.966 320.777 199.56 321.883 199.56C322.947 199.56 323.521 199.98 323.521 200.75C323.521 201.73 322.933 201.688 321.211 201.898C319.503 202.108 318.649 202.864 318.649 204.152C318.649 205.412 319.531 206.196 320.959 206.196C322.079 206.196 322.863 205.846 323.577 205.048C323.591 205.734 323.955 206.112 324.627 206.112C324.893 206.112 325.187 206.07 325.439 205.972V205.048ZM323.521 202.248V203.564C323.521 204.488 322.443 205.258 321.323 205.258C320.427 205.258 319.881 204.796 319.881 204.054C319.881 202.892 321.057 202.794 321.925 202.682C322.457 202.612 323.073 202.584 323.521 202.248ZM333.028 206L329.738 201.618L332.65 198.776H331.054L327.75 202.22V198.776H326.56V206H327.75V203.55L328.884 202.444L331.516 206H333.028ZM340.218 205.048C340.092 205.076 340.036 205.09 339.924 205.09C339.56 205.09 339.434 204.908 339.434 204.376C339.434 203.298 339.49 202.234 339.49 201.156C339.49 200.512 339.504 199.77 339 199.28C338.524 198.832 337.698 198.58 336.732 198.58C334.87 198.58 333.75 199.49 333.708 201.03H334.87C334.982 199.966 335.556 199.56 336.662 199.56C337.726 199.56 338.3 199.98 338.3 200.75C338.3 201.73 337.712 201.688 335.99 201.898C334.282 202.108 333.428 202.864 333.428 204.152C333.428 205.412 334.31 206.196 335.738 206.196C336.858 206.196 337.642 205.846 338.356 205.048C338.37 205.734 338.734 206.112 339.406 206.112C339.672 206.112 339.966 206.07 340.218 205.972V205.048ZM338.3 202.248V203.564C338.3 204.488 337.222 205.258 336.102 205.258C335.206 205.258 334.66 204.796 334.66 204.054C334.66 202.892 335.836 202.794 336.704 202.682C337.236 202.612 337.852 202.584 338.3 202.248ZM340.933 200.862H342.137C342.235 199.882 343.117 199.532 343.971 199.532C344.951 199.532 345.497 200.036 345.497 200.568C345.497 201.422 344.811 201.744 343.971 201.744H343.173V202.71H344.167C345.273 202.71 345.707 203.158 345.707 203.886C345.707 204.628 345.063 205.258 343.929 205.258C342.865 205.258 342.081 204.782 342.011 203.746H340.807C340.891 205.314 342.053 206.224 343.943 206.224C345.469 206.224 346.939 205.426 346.939 203.858C346.939 202.738 346.211 202.192 345.539 202.066V202.038C346.127 201.912 346.701 201.338 346.701 200.512C346.701 199.168 345.469 198.566 343.985 198.566C342.529 198.566 341.045 199.084 340.933 200.862ZM350.159 204.446H348.605V206H350.159V204.446ZM356.342 196.032V206H360.444C362.348 206 364.224 205.482 364.224 203.186C364.224 201.87 363.538 200.946 362.306 200.666C363.202 200.344 363.776 199.504 363.776 198.524C363.776 196.69 362.25 196.032 360.598 196.032H356.342ZM357.63 197.152H360.122C361.298 197.152 362.46 197.222 362.46 198.72C362.46 200.218 361.116 200.302 359.996 200.302H357.63V197.152ZM357.63 201.338H360.038C361.368 201.338 362.894 201.324 362.894 203.06C362.894 204.81 361.592 204.894 360.262 204.894H357.63V201.338ZM371.932 203.368H370.728C370.546 204.558 369.832 205.216 368.754 205.216C367.41 205.216 366.598 204.152 366.598 202.388C366.598 200.652 367.466 199.56 368.838 199.56C369.818 199.56 370.448 200.106 370.658 201.128H371.89C371.694 199.49 370.588 198.566 368.824 198.566C366.696 198.566 365.352 200.078 365.352 202.486C365.352 204.684 366.542 206.21 368.782 206.21C370.574 206.21 371.722 205.09 371.932 203.368ZM379.41 203.718H378.248C377.912 204.81 377.338 205.258 376.302 205.258C374.902 205.258 374.048 204.334 374.048 202.794L374.062 202.71H379.494V202.542C379.494 200.456 378.598 198.566 376.218 198.566C374.216 198.566 372.858 200.148 372.858 202.486C372.858 204.838 374.132 206.238 376.26 206.238C377.968 206.238 379.046 205.384 379.41 203.718ZM378.262 201.744H374.062C374.216 200.386 375.028 199.546 376.19 199.546C377.38 199.546 378.15 200.372 378.262 201.744ZM385.842 206V199.826H389.454V206H390.644V198.776H384.652V206H385.842ZM393.551 198.776H392.431V208.786H393.621V204.992C394.237 205.832 394.979 206.182 396.043 206.182C398.017 206.182 399.277 204.684 399.277 202.346C399.277 200.008 398.003 198.552 395.987 198.552C394.923 198.552 394.111 198.902 393.551 199.798V198.776ZM395.805 199.546C397.205 199.546 398.045 200.61 398.045 202.36C398.045 204.096 397.205 205.174 395.847 205.174C394.447 205.174 393.579 204.11 393.579 202.36C393.579 200.61 394.419 199.546 395.805 199.546ZM403.894 198.566C401.71 198.566 400.352 200.036 400.352 202.416C400.352 204.796 401.668 206.224 403.88 206.224C406.078 206.224 407.352 204.796 407.352 202.346C407.352 199.952 406.078 198.566 403.894 198.566ZM403.866 199.56C405.266 199.56 406.134 200.652 406.134 202.374C406.134 204.152 405.294 205.216 403.894 205.216C402.438 205.216 401.584 204.166 401.584 202.388C401.584 200.666 402.466 199.56 403.866 199.56ZM408.363 200.862H409.567C409.665 199.882 410.547 199.532 411.401 199.532C412.381 199.532 412.927 200.036 412.927 200.568C412.927 201.422 412.241 201.744 411.401 201.744H410.603V202.71H411.597C412.703 202.71 413.137 203.158 413.137 203.886C413.137 204.628 412.493 205.258 411.359 205.258C410.295 205.258 409.511 204.782 409.441 203.746H408.237C408.321 205.314 409.483 206.224 411.373 206.224C412.899 206.224 414.369 205.426 414.369 203.858C414.369 202.738 413.641 202.192 412.969 202.066V202.038C413.557 201.912 414.131 201.338 414.131 200.512C414.131 199.168 412.899 198.566 411.415 198.566C409.959 198.566 408.475 199.084 408.363 200.862ZM416.889 198.776H415.769V208.786H416.959V204.992C417.575 205.832 418.317 206.182 419.381 206.182C421.355 206.182 422.615 204.684 422.615 202.346C422.615 200.008 421.341 198.552 419.325 198.552C418.261 198.552 417.449 198.902 416.889 199.798V198.776ZM419.143 199.546C420.543 199.546 421.383 200.61 421.383 202.36C421.383 204.096 420.543 205.174 419.185 205.174C417.785 205.174 416.917 204.11 416.917 202.36C416.917 200.61 417.757 199.546 419.143 199.546ZM430.466 205.048C430.34 205.076 430.284 205.09 430.172 205.09C429.808 205.09 429.682 204.908 429.682 204.376C429.682 203.298 429.738 202.234 429.738 201.156C429.738 200.512 429.752 199.77 429.248 199.28C428.772 198.832 427.946 198.58 426.98 198.58C425.118 198.58 423.998 199.49 423.956 201.03H425.118C425.23 199.966 425.804 199.56 426.91 199.56C427.974 199.56 428.548 199.98 428.548 200.75C428.548 201.73 427.96 201.688 426.238 201.898C424.53 202.108 423.676 202.864 423.676 204.152C423.676 205.412 424.558 206.196 425.986 206.196C427.106 206.196 427.89 205.846 428.604 205.048C428.618 205.734 428.982 206.112 429.654 206.112C429.92 206.112 430.214 206.07 430.466 205.972V205.048ZM428.548 202.248V203.564C428.548 204.488 427.47 205.258 426.35 205.258C425.454 205.258 424.908 204.796 424.908 204.054C424.908 202.892 426.084 202.794 426.952 202.682C427.484 202.612 428.1 202.584 428.548 202.248ZM437.173 206V198.776H435.983V201.8C435.717 201.884 434.667 202.122 433.967 202.122C433.085 202.122 432.581 201.786 432.581 200.862V198.776H431.391V201.058C431.391 202.458 432.301 203.13 433.743 203.13C434.471 203.13 435.731 202.878 435.983 202.808V206H437.173ZM440.16 206V202.696H443.772V206H444.962V198.776H443.772V201.646H440.16V198.776H438.97V206H440.16ZM449.914 198.566C447.73 198.566 446.372 200.036 446.372 202.416C446.372 204.796 447.688 206.224 449.9 206.224C452.098 206.224 453.372 204.796 453.372 202.346C453.372 199.952 452.098 198.566 449.914 198.566ZM449.886 199.56C451.286 199.56 452.154 200.652 452.154 202.374C452.154 204.152 451.314 205.216 449.914 205.216C448.458 205.216 447.604 204.166 447.604 202.388C447.604 200.666 448.486 199.56 449.886 199.56ZM456.609 204.446H455.055V206H455.825C455.811 206.77 455.587 207.19 455.055 207.372V208.072C456.441 207.708 456.609 206.644 456.609 205.398V204.446ZM44.086 224V217.826H47.698V224H48.888V216.776H42.896V224H44.086ZM51.7953 216.776H50.6753V226.786H51.8653V222.992C52.4813 223.832 53.2233 224.182 54.2873 224.182C56.2613 224.182 57.5213 222.684 57.5213 220.346C57.5213 218.008 56.2473 216.552 54.2313 216.552C53.1673 216.552 52.3553 216.902 51.7953 217.798V216.776ZM54.0493 217.546C55.4493 217.546 56.2893 218.61 56.2893 220.36C56.2893 222.096 55.4493 223.174 54.0913 223.174C52.6913 223.174 51.8233 222.11 51.8233 220.36C51.8233 218.61 52.6633 217.546 54.0493 217.546ZM62.1381 216.566C59.9541 216.566 58.5961 218.036 58.5961 220.416C58.5961 222.796 59.9121 224.224 62.1241 224.224C64.3221 224.224 65.5961 222.796 65.5961 220.346C65.5961 217.952 64.3221 216.566 62.1381 216.566ZM62.1101 217.56C63.5101 217.56 64.3781 218.652 64.3781 220.374C64.3781 222.152 63.5381 223.216 62.1381 223.216C60.6821 223.216 59.8281 222.166 59.8281 220.388C59.8281 218.666 60.7101 217.56 62.1101 217.56ZM73.2292 221.368H72.0252C71.8432 222.558 71.1292 223.216 70.0512 223.216C68.7072 223.216 67.8952 222.152 67.8952 220.388C67.8952 218.652 68.7632 217.56 70.1352 217.56C71.1152 217.56 71.7452 218.106 71.9552 219.128H73.1872C72.9912 217.49 71.8852 216.566 70.1212 216.566C67.9932 216.566 66.6492 218.078 66.6492 220.486C66.6492 222.684 67.8392 224.21 70.0792 224.21C71.8712 224.21 73.0192 223.09 73.2292 221.368ZM80.0627 217.826V216.776H73.6927V217.826H76.2827V224H77.4727V217.826H80.0627ZM83.9311 216.566C81.7471 216.566 80.3891 218.036 80.3891 220.416C80.3891 222.796 81.7051 224.224 83.9171 224.224C86.1151 224.224 87.3891 222.796 87.3891 220.346C87.3891 217.952 86.1151 216.566 83.9311 216.566ZM83.9031 217.56C85.3031 217.56 86.1711 218.652 86.1711 220.374C86.1711 222.152 85.3311 223.216 83.9311 223.216C82.4751 223.216 81.6211 222.166 81.6211 220.388C81.6211 218.666 82.5031 217.56 83.9031 217.56ZM94.2286 224L97.4766 218.106H97.5046V224H98.6946V216.776H97.1686L93.9206 222.67H93.8926V216.776H92.7026V224H94.2286ZM111.378 226.296V222.95H110.44V216.776H105.288V218.316C105.288 220.136 104.798 222.152 104.378 222.95H103.594V226.296H104.728V224H110.244V226.296H111.378ZM109.25 222.95H105.61C106.002 222.18 106.45 220.234 106.45 218.428V217.826H109.25V222.95ZM115.581 216.566C113.397 216.566 112.039 218.036 112.039 220.416C112.039 222.796 113.355 224.224 115.567 224.224C117.765 224.224 119.039 222.796 119.039 220.346C119.039 217.952 117.765 216.566 115.581 216.566ZM115.553 217.56C116.953 217.56 117.821 218.652 117.821 220.374C117.821 222.152 116.981 223.216 115.581 223.216C114.125 223.216 113.271 222.166 113.271 220.388C113.271 218.666 114.153 217.56 115.553 217.56ZM126.673 221.368H125.469C125.287 222.558 124.573 223.216 123.495 223.216C122.151 223.216 121.339 222.152 121.339 220.388C121.339 218.652 122.207 217.56 123.579 217.56C124.559 217.56 125.189 218.106 125.399 219.128H126.631C126.435 217.49 125.329 216.566 123.565 216.566C121.437 216.566 120.093 218.078 120.093 220.486C120.093 222.684 121.283 224.21 123.523 224.21C125.315 224.21 126.463 223.09 126.673 221.368ZM133.506 217.826V216.776H127.136V217.826H129.726V224H130.916V217.826H133.506ZM140.435 216.776H139.189L137.159 222.53L135.017 216.776H133.673L136.543 223.958L135.983 225.274C135.843 225.61 135.535 225.876 135.143 225.876C134.933 225.876 134.751 225.834 134.373 225.722V226.786C134.667 226.856 134.947 226.912 135.255 226.912C136.543 226.912 136.949 225.946 137.341 224.924L140.435 216.776ZM142.647 224V217.826H146.259V224H147.449V216.776H141.457V224H142.647ZM150.426 224V220.696H154.038V224H155.228V216.776H154.038V219.646H150.426V216.776H149.236V224H150.426ZM160.179 216.566C157.995 216.566 156.637 218.036 156.637 220.416C156.637 222.796 157.953 224.224 160.165 224.224C162.363 224.224 163.637 222.796 163.637 220.346C163.637 217.952 162.363 216.566 160.179 216.566ZM160.151 217.56C161.551 217.56 162.419 218.652 162.419 220.374C162.419 222.152 161.579 223.216 160.179 223.216C158.723 223.216 157.869 222.166 157.869 220.388C157.869 218.666 158.751 217.56 160.151 217.56ZM166.636 214.032H165.32V217.084L165.642 221.522H166.286L166.636 217.084V214.032ZM166.706 222.586H165.236V224H166.706V222.586Z" fill="#626779"/>
<defs>
<filter id="filter0_d" x="0" y="0" width="511" height="268" filterUnits="userSpaceOnUse" color-interpolation-filters="sRGB">
<feFlood flood-opacity="0" result="BackgroundImageFix"/>
<feColorMatrix in="SourceAlpha" type="matrix" values="0 0 0 0 0 0 0 0 0 0 0 0 0 0 0 0 0 0 127 0"/>
<feOffset dy="2"/>
<feGaussianBlur stdDeviation="2"/>
<feColorMatrix type="matrix" values="0 0 0 0 0 0 0 0 0 0 0 0 0 0 0 0 0 0 0.25 0"/>
<feBlend mode="normal" in2="BackgroundImageFix" result="effect1_dropShadow"/>
<feBlend mode="normal" in="SourceGraphic" in2="effect1_dropShadow" result="shape"/>
</filter>
</defs>
</svg>
