<svg width="511" height="268" viewBox="0 0 511 268" fill="none" xmlns="http://www.w3.org/2000/svg">
<g filter="url(#filter0_d)">
<rect x="4" y="2" width="503" height="260" fill="white"/>
</g>
<rect x="4" y="2" width="503" height="138" fill="#F9F6F1"/>
<path d="M70.224 36.096H44.898V66H51.45V41.682H63.672V66H70.224V36.096ZM97.1549 55.164C97.1549 48.276 92.7449 43.698 86.0669 43.698C79.2629 43.698 74.7689 48.276 74.7689 55.164C74.7689 62.094 79.2209 66.672 85.9829 66.672C92.7449 66.672 97.1549 62.136 97.1549 55.164ZM91.1909 55.122C91.1909 59.574 89.2589 62.178 85.9829 62.178C82.6649 62.178 80.7329 59.616 80.7329 55.164C80.7329 50.838 82.7069 48.234 85.8989 48.234C89.2169 48.234 91.1909 50.796 91.1909 55.122ZM100.991 44.328V66H114.053C118.127 66 121.403 63.774 121.403 59.532C121.403 56.55 119.681 54.87 117.455 54.24C119.219 53.442 120.395 51.888 120.395 49.788C120.395 45.924 117.287 44.328 113.465 44.328H100.991ZM106.871 53.022V48.108H110.819C112.667 48.108 114.347 48.444 114.347 50.544C114.347 52.686 112.583 53.022 110.819 53.022H106.871ZM106.871 62.136V56.382H111.029C113.171 56.382 115.229 56.76 115.229 59.28C115.229 61.758 113.339 62.136 111.281 62.136H106.871ZM146.15 44.328V66H152.072V44.328H146.15ZM143.42 58.86C143.42 54.156 139.85 51.762 135.482 51.762H130.778V44.328H124.898V66H135.23C139.934 66 143.42 63.648 143.42 58.86ZM130.778 55.794H133.76C135.818 55.794 137.414 56.76 137.414 58.86C137.414 60.96 135.986 61.884 133.802 61.884H130.778V55.794ZM176.987 57.642H171.233C170.771 60.498 169.175 62.01 166.613 62.01C163.421 62.01 161.573 59.532 161.573 55.206C161.573 50.754 163.505 48.15 166.739 48.15C169.049 48.15 170.603 49.494 171.023 51.888H176.861C176.357 46.848 172.493 43.698 166.697 43.698C159.977 43.698 155.567 48.318 155.567 55.332C155.567 62.094 159.935 66.546 166.613 66.546C172.367 66.546 176.231 63.27 176.987 57.642ZM200.726 66V44.328H193.964L186.236 58.986V44.328H180.524V66H187.286L195.014 51.342V66H200.726ZM223.69 48.906V44.328H203.488V48.906H210.628V66H216.55V48.906H223.69ZM259.782 55.164C259.782 48.276 255.372 43.698 248.694 43.698C241.89 43.698 237.396 48.276 237.396 55.164C237.396 62.094 241.848 66.672 248.61 66.672C255.372 66.672 259.782 62.136 259.782 55.164ZM253.818 55.122C253.818 59.574 251.886 62.178 248.61 62.178C245.292 62.178 243.36 59.616 243.36 55.164C243.36 50.838 245.334 48.234 248.526 48.234C251.844 48.234 253.818 50.796 253.818 55.122ZM281.317 48.906V44.328H261.115V48.906H268.255V66H274.177V48.906H281.317ZM307.441 72.384V61.422H304.627V44.328H287.323V48.108C287.323 53.148 285.853 58.944 284.593 61.422H281.989V72.384H287.575V66H301.855V72.384H307.441ZM298.705 61.422H290.431C291.439 59.154 292.867 53.862 292.867 49.284V48.738H298.705V61.422ZM330.496 66C329.698 64.152 329.74 62.094 329.74 60.12V50.754C329.74 44.706 324.658 43.698 320.29 43.698C314.032 43.698 310.588 46.176 310.252 51.006H315.838C316.258 48.528 317.392 47.688 320.122 47.688C322.768 47.688 324.028 48.612 324.028 50.586C324.028 52.35 322.6 52.686 318.736 53.19C314.452 53.736 309.286 54.408 309.286 60.078C309.286 64.152 312.226 66.63 317.014 66.63C319.618 66.63 322.18 65.748 324.028 63.9C324.112 64.866 324.154 65.202 324.448 66H330.496ZM323.986 55.458V57.894C323.986 61.002 321.802 62.724 318.694 62.724C316.636 62.724 315.418 61.632 315.418 59.826C315.418 57.18 317.728 56.928 319.786 56.592C321.298 56.34 322.6 56.256 323.986 55.458ZM348.062 53.316C347.138 53.568 344.534 53.946 343.106 53.946C340.46 53.946 339.788 52.854 339.788 49.704V44.328H333.866V50.922C333.866 55.542 336.344 58.44 341.132 58.44C343.862 58.44 346.886 57.768 348.062 57.474V66H353.984V44.328H348.062V53.316ZM378.269 44.328H372.095L367.307 59.07L362.351 44.328H355.925L363.779 65.034C363.863 65.286 363.947 65.664 363.947 65.874C363.947 67.68 362.897 68.772 360.923 68.772H358.025V73.686C360.923 73.728 360.167 73.728 362.015 73.728C367.517 73.728 368.525 70.704 370.289 65.916L378.269 44.328ZM66.024 95.164C66.024 88.276 61.614 83.698 54.936 83.698C48.132 83.698 43.638 88.276 43.638 95.164C43.638 102.094 48.09 106.672 54.852 106.672C61.614 106.672 66.024 102.136 66.024 95.164ZM60.06 95.122C60.06 99.574 58.128 102.178 54.852 102.178C51.534 102.178 49.602 99.616 49.602 95.164C49.602 90.838 51.576 88.234 54.768 88.234C58.086 88.234 60.06 90.796 60.06 95.122ZM87.5595 88.906V84.328H67.3575V88.906H74.4975V106H80.4195V88.906H87.5595ZM122.055 106V84.328H104.667L104.331 97.222C104.247 100.33 103.365 101.716 101.643 101.716C101.013 101.716 100.383 101.59 99.963 101.506V106.252C100.593 106.504 102.357 106.672 103.197 106.672C109.749 106.672 110.001 101.044 110.169 96.55L110.421 88.906H116.133V106H122.055ZM136.955 96.76C137.501 102.808 141.323 106.672 147.455 106.672C154.007 106.672 157.997 102.136 157.997 95.164C157.997 88.276 154.007 83.698 147.539 83.698C141.743 83.698 137.963 87.142 137.081 92.56H132.797V84.328H126.875V106H132.797V96.76H136.955ZM152.033 95.122C152.033 99.574 150.395 102.178 147.455 102.178C144.473 102.178 142.835 99.616 142.835 95.164C142.835 90.838 144.473 88.234 147.371 88.234C150.353 88.234 152.033 90.796 152.033 95.122ZM183.573 95.416C183.573 88.696 179.163 84.328 173.619 84.328C168.663 84.328 166.101 87.562 165.051 90.46H164.925C165.387 86.218 167.109 82.312 172.527 81.808C177.567 81.346 181.851 80.632 182.607 75.172H176.937C176.349 76.432 173.031 76.18 170.511 76.852C162.573 78.952 161.775 86.89 161.775 93.316C161.775 99.658 164.463 106.63 172.275 106.63C179.247 106.63 183.573 102.22 183.573 95.416ZM177.609 95.374C177.609 99.742 175.719 102.136 172.695 102.136C169.629 102.136 167.739 99.784 167.739 95.416C167.739 91.174 169.671 88.738 172.611 88.738C175.719 88.738 177.609 91.132 177.609 95.374ZM209.333 95.164C209.333 88.276 204.923 83.698 198.245 83.698C191.441 83.698 186.947 88.276 186.947 95.164C186.947 102.094 191.399 106.672 198.161 106.672C204.923 106.672 209.333 102.136 209.333 95.164ZM203.369 95.122C203.369 99.574 201.437 102.178 198.161 102.178C194.843 102.178 192.911 99.616 192.911 95.164C192.911 90.838 194.885 88.234 198.077 88.234C201.395 88.234 203.369 90.796 203.369 95.122ZM227.91 76.096C227.532 78.028 225.684 78.868 223.416 78.868C221.148 78.868 219.3 78.028 218.922 76.096H216.57C216.57 80.422 219.342 82.144 223.416 82.144C227.49 82.144 230.262 80.422 230.262 76.096H227.91ZM233.538 106V84.328H226.776L219.048 98.986V84.328H213.336V106H220.098L227.826 91.342V106H233.538ZM255.466 84.328H249.838V113.686H255.76V103.312C257.356 105.538 259.708 106.546 262.438 106.546C268.108 106.546 271.846 102.094 271.846 95.29C271.846 88.318 268.024 83.74 262.186 83.74C259.414 83.74 257.062 84.79 255.466 87.016V84.328ZM260.716 88.528C263.908 88.528 265.882 91.048 265.882 95.29C265.882 99.406 263.95 101.884 260.758 101.884C257.482 101.884 255.55 99.406 255.55 95.206C255.55 91.006 257.482 88.528 260.716 88.528ZM295.884 99.28H290.172C289.29 101.464 287.946 102.43 285.762 102.43C282.57 102.43 280.764 100.414 280.68 96.676H296.22V96.088C296.22 88.486 292.062 83.698 285.51 83.698C279.21 83.698 274.632 88.57 274.632 95.29C274.632 102.094 279.042 106.63 285.72 106.63C290.634 106.63 294.54 103.984 295.884 99.28ZM290.172 92.896H280.68C281.016 89.872 282.864 88.024 285.51 88.024C288.492 88.024 289.92 90.25 290.172 92.896ZM321.765 106L312.189 92.728L320.589 84.328H313.575L305.637 92.896V84.328H299.799V106H305.637V99.364L308.283 96.676L314.541 106H321.765ZM343.908 106V84.328H326.52L326.184 97.222C326.1 100.33 325.218 101.716 323.496 101.716C322.866 101.716 322.236 101.59 321.816 101.506V106.252C322.446 106.504 324.21 106.672 325.05 106.672C331.602 106.672 331.854 101.044 332.022 96.55L332.274 88.906H337.986V106H343.908ZM368.805 106C368.007 104.152 368.049 102.094 368.049 100.12V90.754C368.049 84.706 362.967 83.698 358.599 83.698C352.341 83.698 348.897 86.176 348.561 91.006H354.147C354.567 88.528 355.701 87.688 358.431 87.688C361.077 87.688 362.337 88.612 362.337 90.586C362.337 92.35 360.909 92.686 357.045 93.19C352.761 93.736 347.595 94.408 347.595 100.078C347.595 104.152 350.535 106.63 355.323 106.63C357.927 106.63 360.489 105.748 362.337 103.9C362.421 104.866 362.463 105.202 362.757 106H368.805ZM362.295 95.458V97.894C362.295 101.002 360.111 102.724 357.003 102.724C354.945 102.724 353.727 101.632 353.727 99.826C353.727 97.18 356.037 96.928 358.095 96.592C359.607 96.34 360.909 96.256 362.295 95.458ZM398.466 106V84.328H389.814L385.74 100.078H385.572L381.498 84.328H372.846V106H378.474V89.536H378.6L382.842 106H388.47L392.712 89.536H392.838V106H398.466ZM424.031 84.328V106H429.953V84.328H424.031ZM421.301 98.86C421.301 94.156 417.731 91.762 413.363 91.762H408.659V84.328H402.779V106H413.111C417.815 106 421.301 103.648 421.301 98.86ZM408.659 95.794H411.641C413.699 95.794 415.295 96.76 415.295 98.86C415.295 100.96 413.867 101.884 411.683 101.884H408.659V95.794Z" fill="#1F4B8B"/>
<path d="M51.002 160.032H43.106V170H44.422V161.18H49.686V170H51.002V160.032ZM56.1635 162.566C53.9795 162.566 52.6215 164.036 52.6215 166.416C52.6215 168.796 53.9375 170.224 56.1495 170.224C58.3475 170.224 59.6215 168.796 59.6215 166.346C59.6215 163.952 58.3475 162.566 56.1635 162.566ZM56.1355 163.56C57.5355 163.56 58.4035 164.652 58.4035 166.374C58.4035 168.152 57.5635 169.216 56.1635 169.216C54.7075 169.216 53.8535 168.166 53.8535 166.388C53.8535 164.666 54.7355 163.56 56.1355 163.56ZM67.7925 172.296V168.95H66.8545V162.776H61.7025V164.316C61.7025 166.136 61.2125 168.152 60.7925 168.95H60.0085V172.296H61.1425V170H66.6585V172.296H67.7925ZM65.6645 168.95H62.0245C62.4165 168.18 62.8645 166.234 62.8645 164.428V163.826H65.6645V168.95ZM73.8155 163.826V162.776H68.8595V170H70.0495V163.826H73.8155ZM77.5327 162.566C75.3487 162.566 73.9907 164.036 73.9907 166.416C73.9907 168.796 75.3067 170.224 77.5187 170.224C79.7167 170.224 80.9907 168.796 80.9907 166.346C80.9907 163.952 79.7167 162.566 77.5327 162.566ZM77.5047 163.56C78.9047 163.56 79.7727 164.652 79.7727 166.374C79.7727 168.152 78.9327 169.216 77.5327 169.216C76.0767 169.216 75.2227 168.166 75.2227 166.388C75.2227 164.666 76.1047 163.56 77.5047 163.56ZM87.6916 163.826V162.776H81.3216V163.826H83.9116V170H85.1016V163.826H87.6916ZM91.56 162.566C89.376 162.566 88.018 164.036 88.018 166.416C88.018 168.796 89.334 170.224 91.546 170.224C93.744 170.224 95.018 168.796 95.018 166.346C95.018 163.952 93.744 162.566 91.56 162.566ZM91.532 163.56C92.932 163.56 93.8 164.652 93.8 166.374C93.8 168.152 92.96 169.216 91.56 169.216C90.104 169.216 89.25 168.166 89.25 166.388C89.25 164.666 90.132 163.56 91.532 163.56ZM96.4071 170H100.341C101.629 170 102.539 169.104 102.539 167.872C102.539 166.906 102.007 166.262 101.167 166.094V166.08C101.839 165.772 102.231 165.296 102.231 164.526C102.231 163.056 101.013 162.776 99.7531 162.776H96.4071V170ZM99.6271 165.688H97.5691V163.798H99.6271C100.677 163.798 100.999 164.12 100.999 164.722C100.999 165.338 100.649 165.688 99.6271 165.688ZM97.5691 166.696H99.9071C100.887 166.696 101.307 167.116 101.307 167.774C101.307 168.46 100.873 168.978 100.117 168.978H97.5691V166.696ZM105.481 170L108.729 164.106H108.757V170H109.947V162.776H108.421L105.173 168.67H105.145V162.776H103.955V170H105.481ZM119.56 170V162.776H117.852L115.654 168.628H115.626L113.428 162.776H111.72V170H112.91V164.302H112.952L115.094 170H116.186L118.328 164.302H118.37V170H119.56ZM131.43 167.368H130.226C130.044 168.558 129.33 169.216 128.252 169.216C126.908 169.216 126.096 168.152 126.096 166.388C126.096 164.652 126.964 163.56 128.336 163.56C129.316 163.56 129.946 164.106 130.156 165.128H131.388C131.192 163.49 130.086 162.566 128.322 162.566C126.194 162.566 124.85 164.078 124.85 166.486C124.85 168.684 126.04 170.21 128.28 170.21C130.072 170.21 131.22 169.09 131.43 167.368ZM139.132 169.048C139.006 169.076 138.95 169.09 138.838 169.09C138.474 169.09 138.348 168.908 138.348 168.376C138.348 167.298 138.404 166.234 138.404 165.156C138.404 164.512 138.418 163.77 137.914 163.28C137.438 162.832 136.612 162.58 135.646 162.58C133.784 162.58 132.664 163.49 132.622 165.03H133.784C133.896 163.966 134.47 163.56 135.576 163.56C136.64 163.56 137.214 163.98 137.214 164.75C137.214 165.73 136.626 165.688 134.904 165.898C133.196 166.108 132.342 166.864 132.342 168.152C132.342 169.412 133.224 170.196 134.652 170.196C135.772 170.196 136.556 169.846 137.27 169.048C137.284 169.734 137.648 170.112 138.32 170.112C138.586 170.112 138.88 170.07 139.132 169.972V169.048ZM137.214 166.248V167.564C137.214 168.488 136.136 169.258 135.016 169.258C134.12 169.258 133.574 168.796 133.574 168.054C133.574 166.892 134.75 166.794 135.618 166.682C136.15 166.612 136.766 166.584 137.214 166.248ZM145.363 160.032H144.649C144.425 160.704 143.977 161.124 143.249 161.124C142.535 161.124 142.045 160.704 141.849 160.032H141.135C141.275 161.152 142.101 161.964 143.263 161.964C144.481 161.964 145.181 161.152 145.363 160.032ZM141.779 170L145.027 164.106H145.055V170H146.245V162.776H144.719L141.471 168.67H141.443V162.776H140.253V170H141.779ZM153.563 163.826V162.776H147.193V163.826H149.783V170H150.973V163.826H153.563ZM164.878 170L161.588 165.618L164.5 162.776H162.904L159.6 166.22V162.776H158.41V170H159.6V167.55L160.734 166.444L163.366 170H164.878ZM169.16 164.862H170.364C170.462 163.882 171.344 163.532 172.198 163.532C173.178 163.532 173.724 164.036 173.724 164.568C173.724 165.422 173.038 165.744 172.198 165.744H171.4V166.71H172.394C173.5 166.71 173.934 167.158 173.934 167.886C173.934 168.628 173.29 169.258 172.156 169.258C171.092 169.258 170.308 168.782 170.238 167.746H169.034C169.118 169.314 170.28 170.224 172.17 170.224C173.696 170.224 175.166 169.426 175.166 167.858C175.166 166.738 174.438 166.192 173.766 166.066V166.038C174.354 165.912 174.928 165.338 174.928 164.512C174.928 163.168 173.696 162.566 172.212 162.566C170.756 162.566 169.272 163.084 169.16 164.862ZM182.964 169.048C182.838 169.076 182.782 169.09 182.67 169.09C182.306 169.09 182.18 168.908 182.18 168.376C182.18 167.298 182.236 166.234 182.236 165.156C182.236 164.512 182.25 163.77 181.746 163.28C181.27 162.832 180.444 162.58 179.478 162.58C177.616 162.58 176.496 163.49 176.454 165.03H177.616C177.728 163.966 178.302 163.56 179.408 163.56C180.472 163.56 181.046 163.98 181.046 164.75C181.046 165.73 180.458 165.688 178.736 165.898C177.028 166.108 176.174 166.864 176.174 168.152C176.174 169.412 177.056 170.196 178.484 170.196C179.604 170.196 180.388 169.846 181.102 169.048C181.116 169.734 181.48 170.112 182.152 170.112C182.418 170.112 182.712 170.07 182.964 169.972V169.048ZM181.046 166.248V167.564C181.046 168.488 179.968 169.258 178.848 169.258C177.952 169.258 177.406 168.796 177.406 168.054C177.406 166.892 178.582 166.794 179.45 166.682C179.982 166.612 180.598 166.584 181.046 166.248ZM185.275 170V163.826H188.887V170H190.077V162.776H184.085V170H185.275ZM197.843 162.776H196.597L194.567 168.53L192.425 162.776H191.081L193.951 169.958L193.391 171.274C193.251 171.61 192.943 171.876 192.551 171.876C192.341 171.876 192.159 171.834 191.781 171.722V172.786C192.075 172.856 192.355 172.912 192.663 172.912C193.951 172.912 194.357 171.946 194.749 170.924L197.843 162.776ZM204.917 167.368H203.713C203.531 168.558 202.817 169.216 201.739 169.216C200.395 169.216 199.583 168.152 199.583 166.388C199.583 164.652 200.451 163.56 201.823 163.56C202.803 163.56 203.433 164.106 203.643 165.128H204.875C204.679 163.49 203.573 162.566 201.809 162.566C199.681 162.566 198.337 164.078 198.337 166.486C198.337 168.684 199.527 170.21 201.767 170.21C203.559 170.21 204.707 169.09 204.917 167.368ZM212.688 170L209.398 165.618L212.31 162.776H210.714L207.41 166.22V162.776H206.22V170H207.41V167.55L208.544 166.444L211.176 170H212.688ZM219.458 162.776H218.212L216.182 168.53L214.04 162.776H212.696L215.566 169.958L215.006 171.274C214.866 171.61 214.558 171.876 214.166 171.876C213.956 171.876 213.774 171.834 213.396 171.722V172.786C213.69 172.856 213.97 172.912 214.278 172.912C215.566 172.912 215.972 171.946 216.364 170.924L219.458 162.776ZM225.496 162.776H224.376V172.786H225.566V168.992C226.182 169.832 226.924 170.182 227.988 170.182C229.962 170.182 231.222 168.684 231.222 166.346C231.222 164.008 229.948 162.552 227.932 162.552C226.868 162.552 226.056 162.902 225.496 163.798V162.776ZM227.75 163.546C229.15 163.546 229.99 164.61 229.99 166.36C229.99 168.096 229.15 169.174 227.792 169.174C226.392 169.174 225.524 168.11 225.524 166.36C225.524 164.61 226.364 163.546 227.75 163.546ZM238.849 167.718H237.687C237.351 168.81 236.777 169.258 235.741 169.258C234.341 169.258 233.487 168.334 233.487 166.794L233.501 166.71H238.933V166.542C238.933 164.456 238.037 162.566 235.657 162.566C233.655 162.566 232.297 164.148 232.297 166.486C232.297 168.838 233.571 170.238 235.699 170.238C237.407 170.238 238.485 169.384 238.849 167.718ZM237.701 165.744H233.501C233.655 164.386 234.467 163.546 235.629 163.546C236.819 163.546 237.589 164.372 237.701 165.744ZM246.663 170L243.373 165.618L246.285 162.776H244.689L241.385 166.22V162.776H240.195V170H241.385V167.55L242.519 166.444L245.151 170H246.663ZM253.475 162.776H248.561L248.435 167.144C248.393 168.712 247.861 169.132 247.385 169.132C247.231 169.132 246.909 169.118 246.755 169.034V170C246.909 170.07 247.259 170.154 247.609 170.154C248.617 170.154 249.541 169.384 249.611 167.018L249.709 163.826H252.285V170H253.475V162.776ZM261.632 169.048C261.506 169.076 261.45 169.09 261.338 169.09C260.974 169.09 260.848 168.908 260.848 168.376C260.848 167.298 260.904 166.234 260.904 165.156C260.904 164.512 260.918 163.77 260.414 163.28C259.938 162.832 259.112 162.58 258.146 162.58C256.284 162.58 255.164 163.49 255.122 165.03H256.284C256.396 163.966 256.97 163.56 258.076 163.56C259.14 163.56 259.714 163.98 259.714 164.75C259.714 165.73 259.126 165.688 257.404 165.898C255.696 166.108 254.842 166.864 254.842 168.152C254.842 169.412 255.724 170.196 257.152 170.196C258.272 170.196 259.056 169.846 259.77 169.048C259.784 169.734 260.148 170.112 260.82 170.112C261.086 170.112 261.38 170.07 261.632 169.972V169.048ZM259.714 166.248V167.564C259.714 168.488 258.636 169.258 257.516 169.258C256.62 169.258 256.074 168.796 256.074 168.054C256.074 166.892 257.25 166.794 258.118 166.682C258.65 166.612 259.266 166.584 259.714 166.248ZM270.579 170V162.776H268.871L266.673 168.628H266.645L264.447 162.776H262.739V170H263.929V164.302H263.971L266.113 170H267.205L269.347 164.302H269.389V170H270.579ZM279.225 162.776V170H280.415V162.776H279.225ZM278.077 167.746C278.077 166.374 277.139 165.534 275.725 165.534H273.485V162.776H272.295V170H275.781C277.195 170 278.077 169.104 278.077 167.746ZM275.347 166.556C276.341 166.556 276.845 166.976 276.845 167.746C276.845 168.516 276.327 168.95 275.347 168.95H273.485V166.556H275.347ZM284.015 168.446H282.461V170H283.231C283.217 170.77 282.993 171.19 282.461 171.372V172.072C283.847 171.708 284.015 170.644 284.015 169.398V168.446ZM289.96 170H293.894C295.182 170 296.092 169.104 296.092 167.872C296.092 166.906 295.56 166.262 294.72 166.094V166.08C295.392 165.772 295.784 165.296 295.784 164.526C295.784 163.056 294.566 162.776 293.306 162.776H289.96V170ZM293.18 165.688H291.122V163.798H293.18C294.23 163.798 294.552 164.12 294.552 164.722C294.552 165.338 294.202 165.688 293.18 165.688ZM291.122 166.696H293.46C294.44 166.696 294.86 167.116 294.86 167.774C294.86 168.46 294.426 168.978 293.67 168.978H291.122V166.696ZM304.395 162.776V170H305.585V162.776H304.395ZM303.247 167.746C303.247 166.374 302.309 165.534 300.895 165.534H298.655V162.776H297.465V170H300.951C302.365 170 303.247 169.104 303.247 167.746ZM300.517 166.556C301.511 166.556 302.015 166.976 302.015 167.746C302.015 168.516 301.497 168.95 300.517 168.95H298.655V166.556H300.517ZM313.077 170V162.776H309.409C308.009 162.776 307.141 163.546 307.141 164.904C307.141 166.094 307.911 166.85 308.933 167.004L306.441 170H308.023L310.305 167.046H311.887V170H313.077ZM311.887 163.826V165.996H309.787C308.793 165.996 308.359 165.646 308.359 164.904C308.359 164.176 308.807 163.826 309.787 163.826H311.887ZM314.856 170H318.79C320.078 170 320.988 169.104 320.988 167.872C320.988 166.906 320.456 166.262 319.616 166.094V166.08C320.288 165.772 320.68 165.296 320.68 164.526C320.68 163.056 319.462 162.776 318.202 162.776H314.856V170ZM318.076 165.688H316.018V163.798H318.076C319.126 163.798 319.448 164.12 319.448 164.722C319.448 165.338 319.098 165.688 318.076 165.688ZM316.018 166.696H318.356C319.336 166.696 319.756 167.116 319.756 167.774C319.756 168.46 319.322 168.978 318.566 168.978H316.018V166.696ZM323.93 170L327.178 164.106H327.206V170H328.396V162.776H326.87L323.622 168.67H323.594V162.776H322.404V170H323.93ZM338.009 170V162.776H336.301L334.103 168.628H334.075L331.877 162.776H330.169V170H331.359V164.302H331.401L333.543 170H334.635L336.777 164.302H336.819V170H338.009ZM344.854 170V163.826H348.466V170H349.656V162.776H343.664V170H344.854ZM352.563 162.776H351.443V172.786H352.633V168.992C353.249 169.832 353.991 170.182 355.055 170.182C357.029 170.182 358.289 168.684 358.289 166.346C358.289 164.008 357.015 162.552 354.999 162.552C353.935 162.552 353.123 162.902 352.563 163.798V162.776ZM354.817 163.546C356.217 163.546 357.057 164.61 357.057 166.36C357.057 168.096 356.217 169.174 354.859 169.174C353.459 169.174 352.591 168.11 352.591 166.36C352.591 164.61 353.431 163.546 354.817 163.546ZM362.906 162.566C360.722 162.566 359.364 164.036 359.364 166.416C359.364 168.796 360.68 170.224 362.892 170.224C365.09 170.224 366.364 168.796 366.364 166.346C366.364 163.952 365.09 162.566 362.906 162.566ZM362.878 163.56C364.278 163.56 365.146 164.652 365.146 166.374C365.146 168.152 364.306 169.216 362.906 169.216C361.45 169.216 360.596 168.166 360.596 166.388C360.596 164.666 361.478 163.56 362.878 163.56ZM368.453 161.768C367.753 162.846 367.585 164.526 367.585 165.912C367.585 166.388 367.613 166.836 367.669 167.228C367.963 169.216 369.321 170.238 371.015 170.238C373.157 170.238 374.403 168.852 374.403 166.444C374.403 164.092 373.143 162.748 371.113 162.748C369.909 162.748 368.985 163.434 368.579 164.386H368.537C368.747 162.678 369.559 161.46 371.141 161.348C372.401 161.25 373.899 161.278 374.165 159.794H372.975C372.779 160.158 372.219 160.172 371.309 160.242C369.937 160.34 369.097 160.774 368.453 161.768ZM368.803 166.486C368.803 164.792 369.657 163.742 371.001 163.742C372.345 163.742 373.185 164.778 373.185 166.472C373.185 168.222 372.359 169.23 371.029 169.23C369.629 169.23 368.803 168.11 368.803 166.486ZM381.498 162.776H376.584L376.458 167.144C376.416 168.712 375.884 169.132 375.408 169.132C375.254 169.132 374.932 169.118 374.778 169.034V170C374.932 170.07 375.282 170.154 375.632 170.154C376.64 170.154 377.564 169.384 377.634 167.018L377.732 163.826H380.308V170H381.498V162.776ZM389.431 167.718H388.269C387.933 168.81 387.359 169.258 386.323 169.258C384.923 169.258 384.069 168.334 384.069 166.794L384.083 166.71H389.515V166.542C389.515 164.456 388.619 162.566 386.239 162.566C384.237 162.566 382.879 164.148 382.879 166.486C382.879 168.838 384.153 170.238 386.281 170.238C387.989 170.238 389.067 169.384 389.431 167.718ZM388.283 165.744H384.083C384.237 164.386 385.049 163.546 386.211 163.546C387.401 163.546 388.171 164.372 388.283 165.744ZM398.603 170V162.776H396.895L394.697 168.628H394.669L392.471 162.776H390.763V170H391.953V164.302H391.995L394.137 170H395.229L397.371 164.302H397.413V170H398.603ZM407.249 162.776V170H408.439V162.776H407.249ZM406.101 167.746C406.101 166.374 405.163 165.534 403.749 165.534H401.509V162.776H400.319V170H403.805C405.219 170 406.101 169.104 406.101 167.746ZM403.371 166.556C404.365 166.556 404.869 166.976 404.869 167.746C404.869 168.516 404.351 168.95 403.371 168.95H401.509V166.556H403.371ZM412.038 168.446H410.484V170H411.254C411.24 170.77 411.016 171.19 410.484 171.372V172.072C411.87 171.708 412.038 170.644 412.038 169.398V168.446ZM424.479 170L421.189 165.618L424.101 162.776H422.505L419.201 166.22V162.776H418.011V170H419.201V167.55L420.335 166.444L422.967 170H424.479ZM428.435 162.566C426.251 162.566 424.893 164.036 424.893 166.416C424.893 168.796 426.209 170.224 428.421 170.224C430.619 170.224 431.893 168.796 431.893 166.346C431.893 163.952 430.619 162.566 428.435 162.566ZM428.407 163.56C429.807 163.56 430.675 164.652 430.675 166.374C430.675 168.152 429.835 169.216 428.435 169.216C426.979 169.216 426.125 168.166 426.125 166.388C426.125 164.666 427.007 163.56 428.407 163.56ZM438.594 163.826V162.776H432.224V163.826H434.814V170H436.004V163.826H438.594ZM442.462 162.566C440.278 162.566 438.92 164.036 438.92 166.416C438.92 168.796 440.236 170.224 442.448 170.224C444.646 170.224 445.92 168.796 445.92 166.346C445.92 163.952 444.646 162.566 442.462 162.566ZM442.434 163.56C443.834 163.56 444.702 164.652 444.702 166.374C444.702 168.152 443.862 169.216 442.462 169.216C441.006 169.216 440.152 168.166 440.152 166.388C440.152 164.666 441.034 163.56 442.434 163.56ZM448.457 162.776H447.337V172.786H448.527V168.992C449.143 169.832 449.885 170.182 450.949 170.182C452.923 170.182 454.183 168.684 454.183 166.346C454.183 164.008 452.909 162.552 450.893 162.552C449.829 162.552 449.017 162.902 448.457 163.798V162.776ZM450.711 163.546C452.111 163.546 452.951 164.61 452.951 166.36C452.951 168.096 452.111 169.174 450.753 169.174C449.353 169.174 448.485 168.11 448.485 166.36C448.485 164.61 449.325 163.546 450.711 163.546ZM462.524 162.776V170H463.714V162.776H462.524ZM461.376 167.746C461.376 166.374 460.438 165.534 459.024 165.534H456.784V162.776H455.594V170H459.08C460.494 170 461.376 169.104 461.376 167.746ZM458.646 166.556C459.64 166.556 460.144 166.976 460.144 167.746C460.144 168.516 459.626 168.95 458.646 168.95H456.784V166.556H458.646ZM471.668 167.718H470.506C470.17 168.81 469.596 169.258 468.56 169.258C467.16 169.258 466.306 168.334 466.306 166.794L466.32 166.71H471.752V166.542C471.752 164.456 470.856 162.566 468.476 162.566C466.474 162.566 465.116 164.148 465.116 166.486C465.116 168.838 466.39 170.238 468.518 170.238C470.226 170.238 471.304 169.384 471.668 167.718ZM470.52 165.744H466.32C466.474 164.386 467.286 163.546 468.448 163.546C469.638 163.546 470.408 164.372 470.52 165.744ZM50.722 188V180.776H49.014L46.816 186.628H46.788L44.59 180.776H42.882V188H44.072V182.302H44.114L46.256 188H47.348L49.49 182.302H49.532V188H50.722ZM55.644 180.566C53.46 180.566 52.102 182.036 52.102 184.416C52.102 186.796 53.418 188.224 55.63 188.224C57.828 188.224 59.102 186.796 59.102 184.346C59.102 181.952 57.828 180.566 55.644 180.566ZM55.616 181.56C57.016 181.56 57.884 182.652 57.884 184.374C57.884 186.152 57.044 187.216 55.644 187.216C54.188 187.216 53.334 186.166 53.334 184.388C53.334 182.666 54.216 181.56 55.616 181.56ZM65.503 181.826V180.776H60.547V188H61.737V181.826H65.503ZM72.376 180.776H71.13L69.1 186.53L66.958 180.776H65.614L68.484 187.958L67.924 189.274C67.784 189.61 67.476 189.876 67.084 189.876C66.874 189.876 66.692 189.834 66.314 189.722V190.786C66.608 190.856 66.888 190.912 67.196 190.912C68.484 190.912 68.89 189.946 69.282 188.924L72.376 180.776ZM78.928 181.826V180.776H72.558V181.826H75.148V188H76.338V181.826H78.928ZM83.7469 188H87.6809C88.9689 188 89.8789 187.104 89.8789 185.872C89.8789 184.906 89.3469 184.262 88.5069 184.094V184.08C89.1789 183.772 89.5709 183.296 89.5709 182.526C89.5709 181.056 88.3529 180.776 87.0929 180.776H83.7469V188ZM86.9669 183.688H84.9089V181.798H86.9669C88.0169 181.798 88.3389 182.12 88.3389 182.722C88.3389 183.338 87.9889 183.688 86.9669 183.688ZM84.9089 184.696H87.2469C88.2269 184.696 88.6469 185.116 88.6469 185.774C88.6469 186.46 88.2129 186.978 87.4569 186.978H84.9089V184.696ZM94.4584 180.566C92.2744 180.566 90.9164 182.036 90.9164 184.416C90.9164 186.796 92.2324 188.224 94.4444 188.224C96.6424 188.224 97.9164 186.796 97.9164 184.346C97.9164 181.952 96.6424 180.566 94.4584 180.566ZM94.4304 181.56C95.8304 181.56 96.6984 182.652 96.6984 184.374C96.6984 186.152 95.8584 187.216 94.4584 187.216C93.0024 187.216 92.1484 186.166 92.1484 184.388C92.1484 182.666 93.0304 181.56 94.4304 181.56ZM98.9275 182.862H100.132C100.23 181.882 101.112 181.532 101.966 181.532C102.946 181.532 103.492 182.036 103.492 182.568C103.492 183.422 102.806 183.744 101.966 183.744H101.168V184.71H102.162C103.268 184.71 103.702 185.158 103.702 185.886C103.702 186.628 103.058 187.258 101.924 187.258C100.86 187.258 100.076 186.782 100.006 185.746H98.8015C98.8855 187.314 100.048 188.224 101.938 188.224C103.464 188.224 104.934 187.426 104.934 185.858C104.934 184.738 104.206 184.192 103.534 184.066V184.038C104.122 183.912 104.696 183.338 104.696 182.512C104.696 181.168 103.464 180.566 101.98 180.566C100.524 180.566 99.0395 181.084 98.9275 182.862ZM107.524 188V184.696H111.136V188H112.326V180.776H111.136V183.646H107.524V180.776H106.334V188H107.524ZM115.639 188L118.887 182.106H118.915V188H120.105V180.776H118.579L115.331 186.67H115.303V180.776H114.113V188H115.639ZM128.36 188L125.07 183.618L127.982 180.776H126.386L123.082 184.22V180.776H121.892V188H123.082V185.55L124.216 184.444L126.848 188H128.36ZM130.342 188V184.696H133.954V188H135.144V180.776H133.954V183.646H130.342V180.776H129.152V188H130.342ZM142.909 180.776H141.663L139.633 186.53L137.491 180.776H136.147L139.017 187.958L138.457 189.274C138.317 189.61 138.009 189.876 137.617 189.876C137.407 189.876 137.225 189.834 136.847 189.722V190.786C137.141 190.856 137.421 190.912 137.729 190.912C139.017 190.912 139.423 189.946 139.815 188.924L142.909 180.776ZM149.461 181.826V180.776H143.091V181.826H145.681V188H146.871V181.826H149.461ZM156.488 185.746C156.488 184.374 155.55 183.534 154.136 183.534H151.56V180.776H150.37V188H154.192C155.606 188 156.488 187.104 156.488 185.746ZM153.758 184.556C154.752 184.556 155.256 184.976 155.256 185.746C155.256 186.516 154.738 186.95 153.758 186.95H151.56V184.556H153.758ZM167.546 180.776H166.3L164.27 186.53L162.128 180.776H160.784L163.654 187.958L163.094 189.274C162.954 189.61 162.646 189.876 162.254 189.876C162.044 189.876 161.862 189.834 161.484 189.722V190.786C161.778 190.856 162.058 190.912 162.366 190.912C163.654 190.912 164.06 189.946 164.452 188.924L167.546 180.776ZM173.654 188V181.826H177.266V188H178.456V180.776H172.464V188H173.654ZM183.408 180.566C181.224 180.566 179.866 182.036 179.866 184.416C179.866 186.796 181.182 188.224 183.394 188.224C185.592 188.224 186.866 186.796 186.866 184.346C186.866 181.952 185.592 180.566 183.408 180.566ZM183.38 181.56C184.78 181.56 185.648 182.652 185.648 184.374C185.648 186.152 184.808 187.216 183.408 187.216C181.952 187.216 181.098 186.166 181.098 184.388C181.098 182.666 181.98 181.56 183.38 181.56ZM193.961 180.776H189.047L188.921 185.144C188.879 186.712 188.347 187.132 187.871 187.132C187.717 187.132 187.395 187.118 187.241 187.034V188C187.395 188.07 187.745 188.154 188.095 188.154C189.103 188.154 190.027 187.384 190.097 185.018L190.195 181.826H192.771V188H193.961V180.776ZM201.796 185.746C201.796 184.374 200.858 183.534 199.444 183.534H196.868V180.776H195.678V188H199.5C200.914 188 201.796 187.104 201.796 185.746ZM199.066 184.556C200.06 184.556 200.564 184.976 200.564 185.746C200.564 186.516 200.046 186.95 199.066 186.95H196.868V184.556H199.066ZM202.574 182.862H203.778C203.876 181.882 204.758 181.532 205.612 181.532C206.592 181.532 207.138 182.036 207.138 182.568C207.138 183.422 206.452 183.744 205.612 183.744H204.814V184.71H205.808C206.914 184.71 207.348 185.158 207.348 185.886C207.348 186.628 206.704 187.258 205.57 187.258C204.506 187.258 203.722 186.782 203.652 185.746H202.448C202.532 187.314 203.694 188.224 205.584 188.224C207.11 188.224 208.58 187.426 208.58 185.858C208.58 184.738 207.852 184.192 207.18 184.066V184.038C207.768 183.912 208.342 183.338 208.342 182.512C208.342 181.168 207.11 180.566 205.626 180.566C204.17 180.566 202.686 181.084 202.574 182.862ZM213.144 180.566C210.96 180.566 209.602 182.036 209.602 184.416C209.602 186.796 210.918 188.224 213.13 188.224C215.328 188.224 216.602 186.796 216.602 184.346C216.602 181.952 215.328 180.566 213.144 180.566ZM213.116 181.56C214.516 181.56 215.384 182.652 215.384 184.374C215.384 186.152 214.544 187.216 213.144 187.216C211.688 187.216 210.834 186.166 210.834 184.388C210.834 182.666 211.716 181.56 213.116 181.56ZM217.991 188H221.925C223.213 188 224.123 187.104 224.123 185.872C224.123 184.906 223.591 184.262 222.751 184.094V184.08C223.423 183.772 223.815 183.296 223.815 182.526C223.815 181.056 222.597 180.776 221.337 180.776H217.991V188ZM221.211 183.688H219.153V181.798H221.211C222.261 181.798 222.583 182.12 222.583 182.722C222.583 183.338 222.233 183.688 221.211 183.688ZM219.153 184.696H221.491C222.471 184.696 222.891 185.116 222.891 185.774C222.891 186.46 222.457 186.978 221.701 186.978H219.153V184.696ZM231.937 187.048C231.811 187.076 231.755 187.09 231.643 187.09C231.279 187.09 231.153 186.908 231.153 186.376C231.153 185.298 231.209 184.234 231.209 183.156C231.209 182.512 231.223 181.77 230.719 181.28C230.243 180.832 229.417 180.58 228.451 180.58C226.589 180.58 225.469 181.49 225.427 183.03H226.589C226.701 181.966 227.275 181.56 228.381 181.56C229.445 181.56 230.019 181.98 230.019 182.75C230.019 183.73 229.431 183.688 227.709 183.898C226.001 184.108 225.147 184.864 225.147 186.152C225.147 187.412 226.029 188.196 227.457 188.196C228.577 188.196 229.361 187.846 230.075 187.048C230.089 187.734 230.453 188.112 231.125 188.112C231.391 188.112 231.685 188.07 231.937 187.972V187.048ZM230.019 184.248V185.564C230.019 186.488 228.941 187.258 227.821 187.258C226.925 187.258 226.379 186.796 226.379 186.054C226.379 184.892 227.555 184.794 228.423 184.682C228.955 184.612 229.571 184.584 230.019 184.248ZM238.588 181.826V180.776H232.218V181.826H234.808V188H235.998V181.826H238.588ZM245.466 185.718H244.304C243.968 186.81 243.394 187.258 242.358 187.258C240.958 187.258 240.104 186.334 240.104 184.794L240.118 184.71H245.55V184.542C245.55 182.456 244.654 180.566 242.274 180.566C240.272 180.566 238.914 182.148 238.914 184.486C238.914 186.838 240.188 188.238 242.316 188.238C244.024 188.238 245.102 187.384 245.466 185.718ZM244.318 183.744H240.118C240.272 182.386 241.084 181.546 242.246 181.546C243.436 181.546 244.206 182.372 244.318 183.744ZM252.586 180.776H247.672L247.546 185.144C247.504 186.712 246.972 187.132 246.496 187.132C246.342 187.132 246.02 187.118 245.866 187.034V188C246.02 188.07 246.37 188.154 246.72 188.154C247.728 188.154 248.652 187.384 248.722 185.018L248.82 181.826H251.396V188H252.586V180.776ZM260.519 185.718H259.357C259.021 186.81 258.447 187.258 257.411 187.258C256.011 187.258 255.157 186.334 255.157 184.794L255.171 184.71H260.603V184.542C260.603 182.456 259.707 180.566 257.327 180.566C255.325 180.566 253.967 182.148 253.967 184.486C253.967 186.838 255.241 188.238 257.369 188.238C259.077 188.238 260.155 187.384 260.519 185.718ZM259.371 183.744H255.171C255.325 182.386 256.137 181.546 257.299 181.546C258.489 181.546 259.259 182.372 259.371 183.744ZM266.975 178.032H266.261C266.037 178.704 265.589 179.124 264.861 179.124C264.147 179.124 263.657 178.704 263.461 178.032H262.747C262.887 179.152 263.713 179.964 264.875 179.964C266.093 179.964 266.793 179.152 266.975 178.032ZM263.391 188L266.639 182.106H266.667V188H267.857V180.776H266.331L263.083 186.67H263.055V180.776H261.865V188H263.391ZM274.731 188V184.696H278.343V188H279.533V180.776H278.343V183.646H274.731V180.776H273.541V188H274.731ZM287.718 187.048C287.592 187.076 287.536 187.09 287.424 187.09C287.06 187.09 286.934 186.908 286.934 186.376C286.934 185.298 286.99 184.234 286.99 183.156C286.99 182.512 287.004 181.77 286.5 181.28C286.024 180.832 285.198 180.58 284.232 180.58C282.37 180.58 281.25 181.49 281.208 183.03H282.37C282.482 181.966 283.056 181.56 284.162 181.56C285.226 181.56 285.8 181.98 285.8 182.75C285.8 183.73 285.212 183.688 283.49 183.898C281.782 184.108 280.928 184.864 280.928 186.152C280.928 187.412 281.81 188.196 283.238 188.196C284.358 188.196 285.142 187.846 285.856 187.048C285.87 187.734 286.234 188.112 286.906 188.112C287.172 188.112 287.466 188.07 287.718 187.972V187.048ZM285.8 184.248V185.564C285.8 186.488 284.722 187.258 283.602 187.258C282.706 187.258 282.16 186.796 282.16 186.054C282.16 184.892 283.336 184.794 284.204 184.682C284.736 184.612 285.352 184.584 285.8 184.248ZM293.926 188V181.826H297.538V188H298.728V180.776H292.736V188H293.926ZM306.493 180.776H305.247L303.217 186.53L301.075 180.776H299.731L302.601 187.958L302.041 189.274C301.901 189.61 301.593 189.876 301.201 189.876C300.991 189.876 300.809 189.834 300.431 189.722V190.786C300.725 190.856 301.005 190.912 301.313 190.912C302.601 190.912 303.007 189.946 303.399 188.924L306.493 180.776ZM313.045 181.826V180.776H306.675V181.826H309.265V188H310.455V181.826H313.045ZM315.522 188L318.77 182.106H318.798V188H319.988V180.776H318.462L315.214 186.67H315.186V180.776H313.996V188H315.522ZM332.139 188L328.849 183.618L331.761 180.776H330.165L326.861 184.22V180.776H325.671V188H326.861V185.55L327.995 184.444L330.627 188H332.139ZM343.296 188L340.006 183.618L342.918 180.776H341.322L338.018 184.22V180.776H336.828V188H338.018V185.55L339.152 184.444L341.784 188H343.296ZM347.251 180.566C345.067 180.566 343.709 182.036 343.709 184.416C343.709 186.796 345.025 188.224 347.237 188.224C349.435 188.224 350.709 186.796 350.709 184.346C350.709 181.952 349.435 180.566 347.251 180.566ZM347.223 181.56C348.623 181.56 349.491 182.652 349.491 184.374C349.491 186.152 348.651 187.216 347.251 187.216C345.795 187.216 344.941 186.166 344.941 184.388C344.941 182.666 345.823 181.56 347.223 181.56ZM353.316 188V184.696H356.928V188H358.118V180.776H356.928V183.646H353.316V180.776H352.126V188H353.316ZM359.878 188H363.812C365.1 188 366.01 187.104 366.01 185.872C366.01 184.906 365.478 184.262 364.638 184.094V184.08C365.31 183.772 365.702 183.296 365.702 182.526C365.702 181.056 364.484 180.776 363.224 180.776H359.878V188ZM363.098 183.688H361.04V181.798H363.098C364.148 181.798 364.47 182.12 364.47 182.722C364.47 183.338 364.12 183.688 363.098 183.688ZM361.04 184.696H363.378C364.358 184.696 364.778 185.116 364.778 185.774C364.778 186.46 364.344 186.978 363.588 186.978H361.04V184.696ZM373.599 185.718H372.437C372.101 186.81 371.527 187.258 370.491 187.258C369.091 187.258 368.237 186.334 368.237 184.794L368.251 184.71H373.683V184.542C373.683 182.456 372.787 180.566 370.407 180.566C368.405 180.566 367.047 182.148 367.047 184.486C367.047 186.838 368.321 188.238 370.449 188.238C372.157 188.238 373.235 187.384 373.599 185.718ZM372.451 183.744H368.251C368.405 182.386 369.217 181.546 370.379 181.546C371.569 181.546 372.339 182.372 372.451 183.744ZM376.065 180.776H374.945V190.786H376.135V186.992C376.751 187.832 377.493 188.182 378.557 188.182C380.531 188.182 381.791 186.684 381.791 184.346C381.791 182.008 380.517 180.552 378.501 180.552C377.437 180.552 376.625 180.902 376.065 181.798V180.776ZM378.319 181.546C379.719 181.546 380.559 182.61 380.559 184.36C380.559 186.096 379.719 187.174 378.361 187.174C376.961 187.174 376.093 186.11 376.093 184.36C376.093 182.61 376.933 181.546 378.319 181.546ZM389.46 185.368H388.256C388.074 186.558 387.36 187.216 386.282 187.216C384.938 187.216 384.126 186.152 384.126 184.388C384.126 182.652 384.994 181.56 386.366 181.56C387.346 181.56 387.976 182.106 388.186 183.128H389.418C389.222 181.49 388.116 180.566 386.352 180.566C384.224 180.566 382.88 182.078 382.88 184.486C382.88 186.684 384.07 188.21 386.31 188.21C388.102 188.21 389.25 187.09 389.46 185.368ZM392.289 188L395.537 182.106H395.565V188H396.755V180.776H395.229L391.981 186.67H391.953V180.776H390.763V188H392.289ZM400.068 188L403.316 182.106H403.344V188H404.534V180.776H403.008L399.76 186.67H399.732V180.776H398.542V188H400.068ZM408.142 186.446H406.588V188H408.142V186.446ZM422.221 178.032H420.905V182.19H415.641V178.032H414.325V188H415.641V183.338H420.905V188H422.221V178.032ZM430.392 185.718H429.23C428.894 186.81 428.32 187.258 427.284 187.258C425.884 187.258 425.03 186.334 425.03 184.794L425.044 184.71H430.476V184.542C430.476 182.456 429.58 180.566 427.2 180.566C425.198 180.566 423.84 182.148 423.84 184.486C423.84 186.838 425.114 188.238 427.242 188.238C428.95 188.238 430.028 187.384 430.392 185.718ZM429.244 183.744H425.044C425.198 182.386 426.01 181.546 427.172 181.546C428.362 181.546 429.132 182.372 429.244 183.744ZM49.896 208.296V204.95H48.958V198.776H43.806V200.316C43.806 202.136 43.316 204.152 42.896 204.95H42.112V208.296H43.246V206H48.762V208.296H49.896ZM47.768 204.95H44.128C44.52 204.18 44.968 202.234 44.968 200.428V199.826H47.768V204.95ZM57.3331 205.048C57.2071 205.076 57.1511 205.09 57.0391 205.09C56.6751 205.09 56.5491 204.908 56.5491 204.376C56.5491 203.298 56.6051 202.234 56.6051 201.156C56.6051 200.512 56.6191 199.77 56.1151 199.28C55.6391 198.832 54.8131 198.58 53.8471 198.58C51.9851 198.58 50.8651 199.49 50.8231 201.03H51.9851C52.0971 199.966 52.6711 199.56 53.7771 199.56C54.8411 199.56 55.4151 199.98 55.4151 200.75C55.4151 201.73 54.8271 201.688 53.1051 201.898C51.3971 202.108 50.5431 202.864 50.5431 204.152C50.5431 205.412 51.4251 206.196 52.8531 206.196C53.9731 206.196 54.7571 205.846 55.4711 205.048C55.4851 205.734 55.8491 206.112 56.5211 206.112C56.7871 206.112 57.0811 206.07 57.3331 205.972V205.048ZM55.4151 202.248V203.564C55.4151 204.488 54.3371 205.258 53.2171 205.258C52.3211 205.258 51.7751 204.796 51.7751 204.054C51.7751 202.892 52.9511 202.794 53.8191 202.682C54.3511 202.612 54.9671 202.584 55.4151 202.248ZM65.4546 208.296V204.95H64.5166V198.776H59.3646V200.316C59.3646 202.136 58.8746 204.152 58.4546 204.95H57.6706V208.296H58.8046V206H64.3206V208.296H65.4546ZM63.3266 204.95H59.6866C60.0786 204.18 60.5266 202.234 60.5266 200.428V199.826H63.3266V204.95ZM68.0197 206L71.2677 200.106H71.2957V206H72.4857V198.776H70.9597L67.7117 204.67H67.6837V198.776H66.4937V206H68.0197ZM82.099 206V198.776H80.391L78.193 204.628H78.165L75.967 198.776H74.259V206H75.449V200.302H75.491L77.633 206H78.725L80.867 200.302H80.909V206H82.099ZM87.7254 206H91.6594C92.9474 206 93.8574 205.104 93.8574 203.872C93.8574 202.906 93.3254 202.262 92.4854 202.094V202.08C93.1574 201.772 93.5494 201.296 93.5494 200.526C93.5494 199.056 92.3314 198.776 91.0714 198.776H87.7254V206ZM90.9454 201.688H88.8874V199.798H90.9454C91.9954 199.798 92.3174 200.12 92.3174 200.722C92.3174 201.338 91.9674 201.688 90.9454 201.688ZM88.8874 202.696H91.2254C92.2054 202.696 92.6254 203.116 92.6254 203.774C92.6254 204.46 92.1914 204.978 91.4354 204.978H88.8874V202.696ZM101.671 205.048C101.545 205.076 101.489 205.09 101.377 205.09C101.013 205.09 100.887 204.908 100.887 204.376C100.887 203.298 100.943 202.234 100.943 201.156C100.943 200.512 100.957 199.77 100.453 199.28C99.977 198.832 99.151 198.58 98.185 198.58C96.323 198.58 95.203 199.49 95.161 201.03H96.323C96.435 199.966 97.009 199.56 98.115 199.56C99.179 199.56 99.753 199.98 99.753 200.75C99.753 201.73 99.165 201.688 97.443 201.898C95.735 202.108 94.881 202.864 94.881 204.152C94.881 205.412 95.763 206.196 97.191 206.196C98.311 206.196 99.095 205.846 99.809 205.048C99.823 205.734 100.187 206.112 100.859 206.112C101.125 206.112 101.419 206.07 101.671 205.972V205.048ZM99.753 202.248V203.564C99.753 204.488 98.675 205.258 97.555 205.258C96.659 205.258 96.113 204.796 96.113 204.054C96.113 202.892 97.289 202.794 98.157 202.682C98.689 202.612 99.305 202.584 99.753 202.248ZM110.618 206V198.776H108.91L106.712 204.628H106.684L104.486 198.776H102.778V206H103.968V200.302H104.01L106.152 206H107.244L109.386 200.302H109.428V206H110.618ZM122.489 203.368H121.285C121.103 204.558 120.389 205.216 119.311 205.216C117.967 205.216 117.155 204.152 117.155 202.388C117.155 200.652 118.023 199.56 119.395 199.56C120.375 199.56 121.005 200.106 121.215 201.128H122.447C122.251 199.49 121.145 198.566 119.381 198.566C117.253 198.566 115.909 200.078 115.909 202.486C115.909 204.684 117.099 206.21 119.339 206.21C121.131 206.21 122.279 205.09 122.489 203.368ZM129.566 198.776H124.652L124.526 203.144C124.484 204.712 123.952 205.132 123.476 205.132C123.322 205.132 123 205.118 122.846 205.034V206C123 206.07 123.35 206.154 123.7 206.154C124.708 206.154 125.632 205.384 125.702 203.018L125.8 199.826H128.376V206H129.566V198.776ZM132.852 206L136.1 200.106H136.128V206H137.318V198.776H135.792L132.544 204.67H132.516V198.776H131.326V206H132.852ZM144.635 199.826V198.776H138.265V199.826H140.855V206H142.045V199.826H144.635ZM151.661 203.746C151.661 202.374 150.723 201.534 149.309 201.534H146.733V198.776H145.543V206H149.365C150.779 206 151.661 205.104 151.661 203.746ZM148.931 202.556C149.925 202.556 150.429 202.976 150.429 203.746C150.429 204.516 149.911 204.95 148.931 204.95H146.733V202.556H148.931ZM157.414 197.768C156.714 198.846 156.546 200.526 156.546 201.912C156.546 202.388 156.574 202.836 156.63 203.228C156.924 205.216 158.282 206.238 159.976 206.238C162.118 206.238 163.364 204.852 163.364 202.444C163.364 200.092 162.104 198.748 160.074 198.748C158.87 198.748 157.946 199.434 157.54 200.386H157.498C157.708 198.678 158.52 197.46 160.102 197.348C161.362 197.25 162.86 197.278 163.126 195.794H161.936C161.74 196.158 161.18 196.172 160.27 196.242C158.898 196.34 158.058 196.774 157.414 197.768ZM157.764 202.486C157.764 200.792 158.618 199.742 159.962 199.742C161.306 199.742 162.146 200.778 162.146 202.472C162.146 204.222 161.32 205.23 159.99 205.23C158.59 205.23 157.764 204.11 157.764 202.486ZM170.773 198.566C168.911 198.566 167.679 199.728 167.427 201.646H165.971V198.776H164.781V206H165.971V202.696H167.371C167.469 204.908 168.715 206.224 170.759 206.224C172.873 206.224 174.091 204.796 174.091 202.346C174.091 199.952 172.873 198.566 170.773 198.566ZM170.745 199.56C172.061 199.56 172.873 200.652 172.873 202.374C172.873 204.152 172.089 205.216 170.773 205.216C169.401 205.216 168.603 204.166 168.603 202.388C168.603 200.666 169.429 199.56 170.745 199.56ZM182.253 208.296V204.95H181.315V198.776H176.163V200.316C176.163 202.136 175.673 204.152 175.253 204.95H174.469V208.296H175.603V206H181.119V208.296H182.253ZM180.125 204.95H176.485C176.877 204.18 177.325 202.234 177.325 200.428V199.826H180.125V204.95ZM186.344 202.5L187.24 203.41V206H188.43V203.41L189.326 202.5L191.804 206H193.274L190.11 201.744L192.868 198.776H191.398L188.458 202.094H188.43V198.776H187.24V202.094H187.212L184.272 198.776H182.802L185.56 201.744L182.396 206H183.866L186.344 202.5ZM200.117 203.718H198.955C198.619 204.81 198.045 205.258 197.009 205.258C195.609 205.258 194.755 204.334 194.755 202.794L194.769 202.71H200.201V202.542C200.201 200.456 199.305 198.566 196.925 198.566C194.923 198.566 193.565 200.148 193.565 202.486C193.565 204.838 194.839 206.238 196.967 206.238C198.675 206.238 199.753 205.384 200.117 203.718ZM198.969 201.744H194.769C194.923 200.386 195.735 199.546 196.897 199.546C198.087 199.546 198.857 200.372 198.969 201.744ZM206.746 199.826V198.776H200.376V199.826H202.966V206H204.156V199.826H206.746ZM209.279 196.032H207.963V199.084L208.285 203.522H208.929L209.279 199.084V196.032ZM209.349 204.586H207.879V206H209.349V204.586Z" fill="#626779"/>
<defs>
<filter id="filter0_d" x="0" y="0" width="511" height="268" filterUnits="userSpaceOnUse" color-interpolation-filters="sRGB">
<feFlood flood-opacity="0" result="BackgroundImageFix"/>
<feColorMatrix in="SourceAlpha" type="matrix" values="0 0 0 0 0 0 0 0 0 0 0 0 0 0 0 0 0 0 127 0"/>
<feOffset dy="2"/>
<feGaussianBlur stdDeviation="2"/>
<feColorMatrix type="matrix" values="0 0 0 0 0 0 0 0 0 0 0 0 0 0 0 0 0 0 0.25 0"/>
<feBlend mode="normal" in2="BackgroundImageFix" result="effect1_dropShadow"/>
<feBlend mode="normal" in="SourceGraphic" in2="effect1_dropShadow" result="shape"/>
</filter>
</defs>
</svg>
