<svg width="511" height="268" viewBox="0 0 511 268" fill="none" xmlns="http://www.w3.org/2000/svg">
<g filter="url(#filter0_d)">
<rect x="4" y="2" width="503" height="260" fill="white"/>
</g>
<rect x="4" y="2" width="503" height="138" fill="#F9F6F1"/>
<path d="M70.224 36.096H44.898V66H51.45V41.682H63.672V66H70.224V36.096ZM81.0269 44.328H75.3989V73.686H81.3209V63.312C82.9169 65.538 85.2689 66.546 87.9989 66.546C93.6689 66.546 97.4069 62.094 97.4069 55.29C97.4069 48.318 93.5849 43.74 87.7469 43.74C84.9749 43.74 82.6229 44.79 81.0269 47.016V44.328ZM86.2769 48.528C89.4689 48.528 91.4429 51.048 91.4429 55.29C91.4429 59.406 89.5109 61.884 86.3189 61.884C83.0429 61.884 81.1109 59.406 81.1109 55.206C81.1109 51.006 83.0429 48.528 86.2769 48.528ZM121.361 66V44.328H114.599L106.871 58.986V44.328H101.159V66H107.921L115.649 51.342V66H121.361ZM125.887 44.328V66H138.949C143.023 66 146.299 63.774 146.299 59.532C146.299 56.55 144.577 54.87 142.351 54.24C144.115 53.442 145.291 51.888 145.291 49.788C145.291 45.924 142.183 44.328 138.361 44.328H125.887ZM131.767 53.022V48.108H135.715C137.563 48.108 139.243 48.444 139.243 50.544C139.243 52.686 137.479 53.022 135.715 53.022H131.767ZM131.767 62.136V56.382H135.925C138.067 56.382 140.125 56.76 140.125 59.28C140.125 61.758 138.235 62.136 136.177 62.136H131.767ZM170.458 59.28H164.746C163.864 61.464 162.52 62.43 160.336 62.43C157.144 62.43 155.338 60.414 155.254 56.676H170.794V56.088C170.794 48.486 166.636 43.698 160.084 43.698C153.784 43.698 149.206 48.57 149.206 55.29C149.206 62.094 153.616 66.63 160.294 66.63C165.208 66.63 169.114 63.984 170.458 59.28ZM164.746 52.896H155.254C155.59 49.872 157.438 48.024 160.084 48.024C163.066 48.024 164.494 50.25 164.746 52.896ZM196.945 72.384V61.422H194.131V44.328H176.827V48.108C176.827 53.148 175.357 58.944 174.097 61.422H171.493V72.384H177.079V66H191.359V72.384H196.945ZM188.209 61.422H179.935C180.943 59.154 182.371 53.862 182.371 49.284V48.738H188.209V61.422ZM220.21 59.28H214.498C213.616 61.464 212.272 62.43 210.088 62.43C206.896 62.43 205.09 60.414 205.006 56.676H220.546V56.088C220.546 48.486 216.388 43.698 209.836 43.698C203.536 43.698 198.958 48.57 198.958 55.29C198.958 62.094 203.368 66.63 210.046 66.63C214.96 66.63 218.866 63.984 220.21 59.28ZM214.498 52.896H205.006C205.342 49.872 207.19 48.024 209.836 48.024C212.818 48.024 214.246 50.25 214.498 52.896ZM241.573 48.906V44.328H221.371V48.906H228.511V66H234.433V48.906H241.573ZM277.581 55.416C277.581 48.696 273.171 44.328 267.627 44.328C262.671 44.328 260.109 47.562 259.059 50.46H258.933C259.395 46.218 261.117 42.312 266.535 41.808C271.575 41.346 275.859 40.632 276.615 35.172H270.945C270.357 36.432 267.039 36.18 264.519 36.852C256.581 38.952 255.783 46.89 255.783 53.316C255.783 59.658 258.471 66.63 266.283 66.63C273.255 66.63 277.581 62.22 277.581 55.416ZM271.617 55.374C271.617 59.742 269.727 62.136 266.703 62.136C263.637 62.136 261.747 59.784 261.747 55.416C261.747 51.174 263.679 48.738 266.619 48.738C269.727 48.738 271.617 51.132 271.617 55.374ZM303.34 55.164C303.34 48.276 298.93 43.698 292.252 43.698C285.448 43.698 280.954 48.276 280.954 55.164C280.954 62.094 285.406 66.672 292.168 66.672C298.93 66.672 303.34 62.136 303.34 55.164ZM297.376 55.122C297.376 59.574 295.444 62.178 292.168 62.178C288.85 62.178 286.918 59.616 286.918 55.164C286.918 50.838 288.892 48.234 292.084 48.234C295.402 48.234 297.376 50.796 297.376 55.122ZM326.682 66V44.328H309.294L308.958 57.222C308.874 60.33 307.992 61.716 306.27 61.716C305.64 61.716 305.01 61.59 304.59 61.506V66.252C305.22 66.504 306.984 66.672 307.824 66.672C314.376 66.672 314.628 61.044 314.796 56.55L315.048 48.906H320.76V66H326.682ZM350.864 58.86C350.864 54.156 347.294 51.762 342.926 51.762H337.172V44.328H331.292V66H342.674C347.378 66 350.864 63.648 350.864 58.86ZM337.172 55.794H341.204C343.262 55.794 344.858 56.76 344.858 58.86C344.858 60.96 343.43 61.884 341.246 61.884H337.172V55.794ZM384.763 66V44.328H378.841V61.422H372.373V44.328H366.451V61.422H359.983V44.328H354.061V66H384.763ZM409.743 59.28H404.031C403.149 61.464 401.805 62.43 399.621 62.43C396.429 62.43 394.623 60.414 394.539 56.676H410.079V56.088C410.079 48.486 405.921 43.698 399.369 43.698C393.069 43.698 388.491 48.57 388.491 55.29C388.491 62.094 392.901 66.63 399.579 66.63C404.493 66.63 408.399 63.984 409.743 59.28ZM404.031 52.896H394.539C394.875 49.872 396.723 48.024 399.369 48.024C402.351 48.024 403.779 50.25 404.031 52.896ZM66.402 106L56.826 92.728L65.226 84.328H58.212L50.274 92.896V84.328H44.436V106H50.274V99.364L52.92 96.676L59.178 106H66.402ZM88.5452 106V84.328H71.1572L70.8212 97.222C70.7372 100.33 69.8552 101.716 68.1332 101.716C67.5032 101.716 66.8732 101.59 66.4532 101.506V106.252C67.0832 106.504 68.8472 106.672 69.6872 106.672C76.2392 106.672 76.4912 101.044 76.6592 96.55L76.9112 88.906H82.6232V106H88.5452ZM113.568 106V84.328H106.806L99.0777 98.986V84.328H93.3657V106H100.128L107.856 91.342V106H113.568ZM138.548 99.28H132.836C131.954 101.464 130.61 102.43 128.426 102.43C125.234 102.43 123.428 100.414 123.344 96.676H138.884V96.088C138.884 88.486 134.726 83.698 128.174 83.698C121.874 83.698 117.296 88.57 117.296 95.29C117.296 102.094 121.706 106.63 128.384 106.63C133.298 106.63 137.204 103.984 138.548 99.28ZM132.836 92.896H123.344C123.68 89.872 125.528 88.024 128.174 88.024C131.156 88.024 132.584 90.25 132.836 92.896ZM162.581 106V84.328H156.659V92.182H148.301V84.328H142.379V106H148.301V96.886H156.659V106H162.581ZM185.546 88.906V84.328H165.344V88.906H172.484V106H178.406V88.906H185.546ZM209.21 95.164C209.21 88.276 204.8 83.698 198.122 83.698C191.318 83.698 186.824 88.276 186.824 95.164C186.824 102.094 191.276 106.672 198.038 106.672C204.8 106.672 209.21 102.136 209.21 95.164ZM203.246 95.122C203.246 99.574 201.314 102.178 198.038 102.178C194.72 102.178 192.788 99.616 192.788 95.164C192.788 90.838 194.762 88.234 197.954 88.234C201.272 88.234 203.246 90.796 203.246 95.122ZM213.045 84.328V106H226.107C230.181 106 233.457 103.774 233.457 99.532C233.457 96.55 231.735 94.87 229.509 94.24C231.273 93.442 232.449 91.888 232.449 89.788C232.449 85.924 229.341 84.328 225.519 84.328H213.045ZM218.925 93.022V88.108H222.873C224.721 88.108 226.401 88.444 226.401 90.544C226.401 92.686 224.637 93.022 222.873 93.022H218.925ZM218.925 102.136V96.382H223.083C225.225 96.382 227.283 96.76 227.283 99.28C227.283 101.758 225.393 102.136 223.335 102.136H218.925Z" fill="#1F4B8B"/>
<path d="M47.292 160.032H45.808L41.888 170H43.288L44.422 166.948H48.608L49.714 170H51.184L47.292 160.032ZM48.216 165.898H44.8L46.522 161.292L48.216 165.898ZM53.1641 170V166.696H56.7761V170H57.9661V162.776H56.7761V165.646H53.1641V162.776H51.9741V170H53.1641ZM66.1514 169.048C66.0254 169.076 65.9694 169.09 65.8574 169.09C65.4934 169.09 65.3674 168.908 65.3674 168.376C65.3674 167.298 65.4234 166.234 65.4234 165.156C65.4234 164.512 65.4374 163.77 64.9334 163.28C64.4574 162.832 63.6314 162.58 62.6654 162.58C60.8034 162.58 59.6834 163.49 59.6414 165.03H60.8034C60.9154 163.966 61.4894 163.56 62.5954 163.56C63.6594 163.56 64.2334 163.98 64.2334 164.75C64.2334 165.73 63.6454 165.688 61.9234 165.898C60.2154 166.108 59.3614 166.864 59.3614 168.152C59.3614 169.412 60.2434 170.196 61.6714 170.196C62.7914 170.196 63.5754 169.846 64.2894 169.048C64.3034 169.734 64.6674 170.112 65.3394 170.112C65.6054 170.112 65.8994 170.07 66.1514 169.972V169.048ZM64.2334 166.248V167.564C64.2334 168.488 63.1554 169.258 62.0354 169.258C61.1394 169.258 60.5934 168.796 60.5934 168.054C60.5934 166.892 61.7694 166.794 62.6374 166.682C63.1694 166.612 63.7854 166.584 64.2334 166.248ZM73.293 162.776H68.379L68.253 167.144C68.211 168.712 67.679 169.132 67.203 169.132C67.049 169.132 66.727 169.118 66.573 169.034V170C66.727 170.07 67.077 170.154 67.427 170.154C68.435 170.154 69.359 169.384 69.429 167.018L69.527 163.826H72.103V170H73.293V162.776ZM76.5783 170L79.8263 164.106H79.8543V170H81.0443V162.776H79.5183L76.2703 168.67H76.2423V162.776H75.0523V170H76.5783ZM82.4255 164.862H83.6295C83.7275 163.882 84.6095 163.532 85.4635 163.532C86.4435 163.532 86.9895 164.036 86.9895 164.568C86.9895 165.422 86.3035 165.744 85.4635 165.744H84.6655V166.71H85.6595C86.7655 166.71 87.1995 167.158 87.1995 167.886C87.1995 168.628 86.5555 169.258 85.4215 169.258C84.3575 169.258 83.5735 168.782 83.5035 167.746H82.2995C82.3835 169.314 83.5455 170.224 85.4355 170.224C86.9615 170.224 88.4315 169.426 88.4315 167.858C88.4315 166.738 87.7035 166.192 87.0315 166.066V166.038C87.6195 165.912 88.1935 165.338 88.1935 164.512C88.1935 163.168 86.9615 162.566 85.4775 162.566C84.0215 162.566 82.5375 163.084 82.4255 164.862ZM99.258 163.826V162.776H92.888V163.826H95.478V170H96.668V163.826H99.258ZM106.136 167.718H104.974C104.638 168.81 104.064 169.258 103.028 169.258C101.628 169.258 100.774 168.334 100.774 166.794L100.788 166.71H106.22V166.542C106.22 164.456 105.324 162.566 102.944 162.566C100.942 162.566 99.5844 164.148 99.5844 166.486C99.5844 168.838 100.858 170.238 102.986 170.238C104.694 170.238 105.772 169.384 106.136 167.718ZM104.988 165.744H100.788C100.942 164.386 101.754 163.546 102.916 163.546C104.106 163.546 104.876 164.372 104.988 165.744ZM113.172 162.776H111.73L109.938 165.254L108.188 162.776H106.676L109.182 166.192L106.466 170H107.908L109.91 167.032L111.94 170H113.466L110.652 166.108L113.172 162.776ZM115.672 170V166.696H119.284V170H120.474V162.776H119.284V165.646H115.672V162.776H114.482V170H115.672ZM123.787 170L127.035 164.106H127.063V170H128.253V162.776H126.727L123.479 168.67H123.451V162.776H122.261V170H123.787ZM135.627 170V162.776H134.437V165.8C134.171 165.884 133.121 166.122 132.421 166.122C131.539 166.122 131.035 165.786 131.035 164.862V162.776H129.845V165.058C129.845 166.458 130.755 167.13 132.197 167.13C132.925 167.13 134.185 166.878 134.437 166.808V170H135.627ZM143.597 167.718H142.435C142.099 168.81 141.525 169.258 140.489 169.258C139.089 169.258 138.235 168.334 138.235 166.794L138.249 166.71H143.681V166.542C143.681 164.456 142.785 162.566 140.405 162.566C138.403 162.566 137.045 164.148 137.045 166.486C137.045 168.838 138.319 170.238 140.447 170.238C142.155 170.238 143.233 169.384 143.597 167.718ZM142.449 165.744H138.249C138.403 164.386 139.215 163.546 140.377 163.546C141.567 163.546 142.337 164.372 142.449 165.744ZM151.159 167.368H149.955C149.773 168.558 149.059 169.216 147.981 169.216C146.637 169.216 145.825 168.152 145.825 166.388C145.825 164.652 146.693 163.56 148.065 163.56C149.045 163.56 149.675 164.106 149.885 165.128H151.117C150.921 163.49 149.815 162.566 148.051 162.566C145.923 162.566 144.579 164.078 144.579 166.486C144.579 168.684 145.769 170.21 148.009 170.21C149.801 170.21 150.949 169.09 151.159 167.368ZM158.93 170L155.64 165.618L158.552 162.776H156.956L153.652 166.22V162.776H152.462V170H153.652V167.55L154.786 166.444L157.418 170H158.93ZM161.248 170L164.496 164.106H164.524V170H165.714V162.776H164.188L160.94 168.67H160.912V162.776H159.722V170H161.248ZM173.437 162.776H171.995L170.203 165.254L168.453 162.776H166.941L169.447 166.192L166.731 170H168.173L170.175 167.032L172.205 170H173.731L170.917 166.108L173.437 162.776ZM184.58 162.776H183.138L181.346 165.254L179.596 162.776H178.084L180.59 166.192L177.874 170H179.316L181.318 167.032L183.348 170H184.874L182.06 166.108L184.58 162.776ZM192.288 169.048C192.162 169.076 192.106 169.09 191.994 169.09C191.63 169.09 191.504 168.908 191.504 168.376C191.504 167.298 191.56 166.234 191.56 165.156C191.56 164.512 191.574 163.77 191.07 163.28C190.594 162.832 189.768 162.58 188.802 162.58C186.94 162.58 185.82 163.49 185.778 165.03H186.94C187.052 163.966 187.626 163.56 188.732 163.56C189.796 163.56 190.37 163.98 190.37 164.75C190.37 165.73 189.782 165.688 188.06 165.898C186.352 166.108 185.498 166.864 185.498 168.152C185.498 169.412 186.38 170.196 187.808 170.196C188.928 170.196 189.712 169.846 190.426 169.048C190.44 169.734 190.804 170.112 191.476 170.112C191.742 170.112 192.036 170.07 192.288 169.972V169.048ZM190.37 166.248V167.564C190.37 168.488 189.292 169.258 188.172 169.258C187.276 169.258 186.73 168.796 186.73 168.054C186.73 166.892 187.906 166.794 188.774 166.682C189.306 166.612 189.922 166.584 190.37 166.248ZM194.53 162.776H193.41V172.786H194.6V168.992C195.216 169.832 195.958 170.182 197.022 170.182C198.996 170.182 200.256 168.684 200.256 166.346C200.256 164.008 198.982 162.552 196.966 162.552C195.902 162.552 195.09 162.902 194.53 163.798V162.776ZM196.784 163.546C198.184 163.546 199.024 164.61 199.024 166.36C199.024 168.096 198.184 169.174 196.826 169.174C195.426 169.174 194.558 168.11 194.558 166.36C194.558 164.61 195.398 163.546 196.784 163.546ZM208.107 169.048C207.981 169.076 207.925 169.09 207.812 169.09C207.449 169.09 207.323 168.908 207.323 168.376C207.323 167.298 207.379 166.234 207.379 165.156C207.379 164.512 207.393 163.77 206.889 163.28C206.413 162.832 205.587 162.58 204.621 162.58C202.759 162.58 201.639 163.49 201.597 165.03H202.759C202.87 163.966 203.445 163.56 204.551 163.56C205.615 163.56 206.189 163.98 206.189 164.75C206.189 165.73 205.601 165.688 203.879 165.898C202.171 166.108 201.317 166.864 201.317 168.152C201.317 169.412 202.199 170.196 203.627 170.196C204.747 170.196 205.531 169.846 206.245 169.048C206.259 169.734 206.623 170.112 207.295 170.112C207.561 170.112 207.855 170.07 208.107 169.972V169.048ZM206.189 166.248V167.564C206.189 168.488 205.111 169.258 203.991 169.258C203.095 169.258 202.549 168.796 202.549 168.054C202.549 166.892 203.725 166.794 204.593 166.682C205.125 166.612 205.741 166.584 206.189 166.248ZM215.696 170L212.406 165.618L215.318 162.776H213.722L210.418 166.22V162.776H209.228V170H210.418V167.55L211.552 166.444L214.184 170H215.696ZM222.018 163.826V162.776H215.648V163.826H218.238V170H219.428V163.826H222.018ZM228.896 167.718H227.734C227.398 168.81 226.824 169.258 225.788 169.258C224.388 169.258 223.534 168.334 223.534 166.794L223.548 166.71H228.98V166.542C228.98 164.456 228.084 162.566 225.704 162.566C223.702 162.566 222.344 164.148 222.344 166.486C222.344 168.838 223.618 170.238 225.746 170.238C227.454 170.238 228.532 169.384 228.896 167.718ZM227.748 165.744H223.548C223.702 164.386 224.514 163.546 225.676 163.546C226.866 163.546 227.636 164.372 227.748 165.744ZM231.362 162.776H230.242V172.786H231.432V168.992C232.048 169.832 232.79 170.182 233.854 170.182C235.828 170.182 237.088 168.684 237.088 166.346C237.088 164.008 235.814 162.552 233.798 162.552C232.734 162.552 231.922 162.902 231.362 163.798V162.776ZM233.616 163.546C235.016 163.546 235.856 164.61 235.856 166.36C235.856 168.096 235.016 169.174 233.658 169.174C232.258 169.174 231.39 168.11 231.39 166.36C231.39 164.61 232.23 163.546 233.616 163.546ZM240.067 170L243.315 164.106H243.343V170H244.533V162.776H243.007L239.759 168.67H239.731V162.776H238.541V170H240.067ZM252.536 167.368H251.332C251.15 168.558 250.436 169.216 249.358 169.216C248.014 169.216 247.202 168.152 247.202 166.388C247.202 164.652 248.07 163.56 249.442 163.56C250.422 163.56 251.052 164.106 251.262 165.128H252.494C252.298 163.49 251.192 162.566 249.428 162.566C247.3 162.566 245.956 164.078 245.956 166.486C245.956 168.684 247.146 170.21 249.386 170.21C251.178 170.21 252.326 169.09 252.536 167.368ZM259.369 163.826V162.776H252.999V163.826H255.589V170H256.779V163.826H259.369ZM261.846 170L265.094 164.106H265.122V170H266.312V162.776H264.786L261.538 168.67H261.51V162.776H260.32V170H261.846ZM274.567 170L271.277 165.618L274.189 162.776H272.593L269.289 166.22V162.776H268.099V170H269.289V167.55L270.423 166.444L273.055 170H274.567ZM280.445 170V163.826H284.057V170H285.247V162.776H279.255V170H280.445ZM290.199 162.566C288.015 162.566 286.657 164.036 286.657 166.416C286.657 168.796 287.973 170.224 290.185 170.224C292.383 170.224 293.657 168.796 293.657 166.346C293.657 163.952 292.383 162.566 290.199 162.566ZM290.171 163.56C291.571 163.56 292.439 164.652 292.439 166.374C292.439 168.152 291.599 169.216 290.199 169.216C288.743 169.216 287.889 168.166 287.889 166.388C287.889 164.666 288.771 163.56 290.171 163.56ZM294.668 164.862H295.872C295.97 163.882 296.852 163.532 297.706 163.532C298.686 163.532 299.232 164.036 299.232 164.568C299.232 165.422 298.546 165.744 297.706 165.744H296.908V166.71H297.902C299.008 166.71 299.442 167.158 299.442 167.886C299.442 168.628 298.798 169.258 297.664 169.258C296.6 169.258 295.816 168.782 295.746 167.746H294.542C294.626 169.314 295.788 170.224 297.678 170.224C299.204 170.224 300.674 169.426 300.674 167.858C300.674 166.738 299.946 166.192 299.274 166.066V166.038C299.862 165.912 300.436 165.338 300.436 164.512C300.436 163.168 299.204 162.566 297.72 162.566C296.264 162.566 294.78 163.084 294.668 164.862ZM302.046 170H305.98C307.268 170 308.178 169.104 308.178 167.872C308.178 166.906 307.646 166.262 306.806 166.094V166.08C307.478 165.772 307.87 165.296 307.87 164.526C307.87 163.056 306.652 162.776 305.392 162.776H302.046V170ZM305.266 165.688H303.208V163.798H305.266C306.316 163.798 306.638 164.12 306.638 164.722C306.638 165.338 306.288 165.688 305.266 165.688ZM303.208 166.696H305.546C306.526 166.696 306.946 167.116 306.946 167.774C306.946 168.46 306.512 168.978 305.756 168.978H303.208V166.696ZM312.757 162.566C310.573 162.566 309.215 164.036 309.215 166.416C309.215 168.796 310.531 170.224 312.743 170.224C314.941 170.224 316.215 168.796 316.215 166.346C316.215 163.952 314.941 162.566 312.757 162.566ZM312.729 163.56C314.129 163.56 314.997 164.652 314.997 166.374C314.997 168.152 314.157 169.216 312.757 169.216C311.301 169.216 310.447 168.166 310.447 166.388C310.447 164.666 311.329 163.56 312.729 163.56ZM323.311 162.776H318.397L318.271 167.144C318.229 168.712 317.697 169.132 317.221 169.132C317.067 169.132 316.745 169.118 316.591 169.034V170C316.745 170.07 317.095 170.154 317.445 170.154C318.453 170.154 319.377 169.384 319.447 167.018L319.545 163.826H322.121V170H323.311V162.776ZM326.596 170L329.844 164.106H329.872V170H331.062V162.776H329.536L326.288 168.67H326.26V162.776H325.07V170H326.596ZM338.379 163.826V162.776H332.009V163.826H334.599V170H335.789V163.826H338.379ZM344.416 170V166.696H348.028V170H349.218V162.776H348.028V165.646H344.416V162.776H343.226V170H344.416ZM357.403 169.048C357.277 169.076 357.221 169.09 357.109 169.09C356.745 169.09 356.619 168.908 356.619 168.376C356.619 167.298 356.675 166.234 356.675 165.156C356.675 164.512 356.689 163.77 356.185 163.28C355.709 162.832 354.883 162.58 353.917 162.58C352.055 162.58 350.935 163.49 350.893 165.03H352.055C352.167 163.966 352.741 163.56 353.847 163.56C354.911 163.56 355.485 163.98 355.485 164.75C355.485 165.73 354.897 165.688 353.175 165.898C351.467 166.108 350.613 166.864 350.613 168.152C350.613 169.412 351.495 170.196 352.923 170.196C354.043 170.196 354.827 169.846 355.541 169.048C355.555 169.734 355.919 170.112 356.591 170.112C356.857 170.112 357.151 170.07 357.403 169.972V169.048ZM355.485 166.248V167.564C355.485 168.488 354.407 169.258 353.287 169.258C352.391 169.258 351.845 168.796 351.845 168.054C351.845 166.892 353.021 166.794 353.889 166.682C354.421 166.612 355.037 166.584 355.485 166.248ZM364.741 167.368H363.537C363.355 168.558 362.641 169.216 361.563 169.216C360.219 169.216 359.407 168.152 359.407 166.388C359.407 164.652 360.275 163.56 361.647 163.56C362.627 163.56 363.257 164.106 363.467 165.128H364.699C364.503 163.49 363.397 162.566 361.633 162.566C359.505 162.566 358.161 164.078 358.161 166.486C358.161 168.684 359.351 170.21 361.591 170.21C363.383 170.21 364.531 169.09 364.741 167.368ZM371.574 163.826V162.776H365.204V163.826H367.794V170H368.984V163.826H371.574ZM373.645 162.776H372.525V172.786H373.715V168.992C374.331 169.832 375.073 170.182 376.137 170.182C378.111 170.182 379.371 168.684 379.371 166.346C379.371 164.008 378.097 162.552 376.081 162.552C375.017 162.552 374.205 162.902 373.645 163.798V162.776ZM375.899 163.546C377.299 163.546 378.139 164.61 378.139 166.36C378.139 168.096 377.299 169.174 375.941 169.174C374.541 169.174 373.673 168.11 373.673 166.36C373.673 164.61 374.513 163.546 375.899 163.546ZM383.988 162.566C381.804 162.566 380.446 164.036 380.446 166.416C380.446 168.796 381.762 170.224 383.974 170.224C386.172 170.224 387.446 168.796 387.446 166.346C387.446 163.952 386.172 162.566 383.988 162.566ZM383.96 163.56C385.36 163.56 386.228 164.652 386.228 166.374C386.228 168.152 385.388 169.216 383.988 169.216C382.532 169.216 381.678 168.166 381.678 166.388C381.678 164.666 382.56 163.56 383.96 163.56ZM390.389 170L393.637 164.106H393.665V170H394.855V162.776H393.329L390.081 168.67H390.053V162.776H388.863V170H390.389ZM402.172 163.826V162.776H395.802V163.826H398.392V170H399.582V163.826H402.172ZM409.199 167.746C409.199 166.374 408.261 165.534 406.847 165.534H404.271V162.776H403.081V170H406.903C408.317 170 409.199 169.104 409.199 167.746ZM406.469 166.556C407.463 166.556 407.967 166.976 407.967 167.746C407.967 168.516 407.449 168.95 406.469 168.95H404.271V166.556H406.469ZM420.495 167.368H419.291C419.109 168.558 418.395 169.216 417.317 169.216C415.973 169.216 415.161 168.152 415.161 166.388C415.161 164.652 416.029 163.56 417.401 163.56C418.381 163.56 419.011 164.106 419.221 165.128H420.453C420.257 163.49 419.151 162.566 417.387 162.566C415.259 162.566 413.915 164.078 413.915 166.486C413.915 168.684 415.105 170.21 417.345 170.21C419.137 170.21 420.285 169.09 420.495 167.368ZM428.196 169.048C428.07 169.076 428.014 169.09 427.902 169.09C427.538 169.09 427.412 168.908 427.412 168.376C427.412 167.298 427.468 166.234 427.468 165.156C427.468 164.512 427.482 163.77 426.978 163.28C426.502 162.832 425.676 162.58 424.71 162.58C422.848 162.58 421.728 163.49 421.686 165.03H422.848C422.96 163.966 423.534 163.56 424.64 163.56C425.704 163.56 426.278 163.98 426.278 164.75C426.278 165.73 425.69 165.688 423.968 165.898C422.26 166.108 421.406 166.864 421.406 168.152C421.406 169.412 422.288 170.196 423.716 170.196C424.836 170.196 425.62 169.846 426.334 169.048C426.348 169.734 426.712 170.112 427.384 170.112C427.65 170.112 427.944 170.07 428.196 169.972V169.048ZM426.278 166.248V167.564C426.278 168.488 425.2 169.258 424.08 169.258C423.184 169.258 422.638 168.796 422.638 168.054C422.638 166.892 423.814 166.794 424.682 166.682C425.214 166.612 425.83 166.584 426.278 166.248ZM434.428 160.032H433.714C433.49 160.704 433.042 161.124 432.314 161.124C431.6 161.124 431.11 160.704 430.914 160.032H430.2C430.34 161.152 431.166 161.964 432.328 161.964C433.546 161.964 434.246 161.152 434.428 160.032ZM430.844 170L434.092 164.106H434.12V170H435.31V162.776H433.784L430.536 168.67H430.508V162.776H429.318V170H430.844ZM442.627 163.826V162.776H436.257V163.826H438.847V170H440.037V163.826H442.627ZM448.664 170V163.826H452.276V170H453.466V162.776H447.474V170H448.664ZM458.417 162.566C456.233 162.566 454.875 164.036 454.875 166.416C454.875 168.796 456.191 170.224 458.403 170.224C460.601 170.224 461.875 168.796 461.875 166.346C461.875 163.952 460.601 162.566 458.417 162.566ZM458.389 163.56C459.789 163.56 460.657 164.652 460.657 166.374C460.657 168.152 459.817 169.216 458.417 169.216C456.961 169.216 456.107 168.166 456.107 166.388C456.107 164.666 456.989 163.56 458.389 163.56ZM470.046 172.296V168.95H469.108V162.776H463.956V164.316C463.956 166.136 463.466 168.152 463.046 168.95H462.262V172.296H463.396V170H468.912V172.296H470.046ZM467.918 168.95H464.278C464.67 168.18 465.118 166.234 465.118 164.428V163.826H467.918V168.95ZM49.294 187.048C49.168 187.076 49.112 187.09 49 187.09C48.636 187.09 48.51 186.908 48.51 186.376C48.51 185.298 48.566 184.234 48.566 183.156C48.566 182.512 48.58 181.77 48.076 181.28C47.6 180.832 46.774 180.58 45.808 180.58C43.946 180.58 42.826 181.49 42.784 183.03H43.946C44.058 181.966 44.632 181.56 45.738 181.56C46.802 181.56 47.376 181.98 47.376 182.75C47.376 183.73 46.788 183.688 45.066 183.898C43.358 184.108 42.504 184.864 42.504 186.152C42.504 187.412 43.386 188.196 44.814 188.196C45.934 188.196 46.718 187.846 47.432 187.048C47.446 187.734 47.81 188.112 48.482 188.112C48.748 188.112 49.042 188.07 49.294 187.972V187.048ZM47.376 184.248V185.564C47.376 186.488 46.298 187.258 45.178 187.258C44.282 187.258 43.736 186.796 43.736 186.054C43.736 184.892 44.912 184.794 45.78 184.682C46.312 184.612 46.928 184.584 47.376 184.248ZM56.8835 188L53.5935 183.618L56.5055 180.776H54.9095L51.6055 184.22V180.776H50.4155V188H51.6055V185.55L52.7395 184.444L55.3715 188H56.8835ZM63.2053 181.826V180.776H56.8353V181.826H59.4253V188H60.6153V181.826H63.2053ZM70.1338 180.776H68.8878L66.8578 186.53L64.7158 180.776H63.3718L66.2418 187.958L65.6818 189.274C65.5418 189.61 65.2338 189.876 64.8418 189.876C64.6318 189.876 64.4498 189.834 64.0718 189.722V190.786C64.3658 190.856 64.6458 190.912 64.9538 190.912C66.2418 190.912 66.6478 189.946 67.0398 188.924L70.1338 180.776ZM77.3897 187.048C77.2637 187.076 77.2077 187.09 77.0957 187.09C76.7317 187.09 76.6057 186.908 76.6057 186.376C76.6057 185.298 76.6617 184.234 76.6617 183.156C76.6617 182.512 76.6757 181.77 76.1717 181.28C75.6957 180.832 74.8697 180.58 73.9037 180.58C72.0417 180.58 70.9217 181.49 70.8797 183.03H72.0417C72.1537 181.966 72.7277 181.56 73.8337 181.56C74.8977 181.56 75.4717 181.98 75.4717 182.75C75.4717 183.73 74.8837 183.688 73.1617 183.898C71.4537 184.108 70.5997 184.864 70.5997 186.152C70.5997 187.412 71.4817 188.196 72.9097 188.196C74.0297 188.196 74.8137 187.846 75.5277 187.048C75.5417 187.734 75.9057 188.112 76.5777 188.112C76.8437 188.112 77.1377 188.07 77.3897 187.972V187.048ZM75.4717 184.248V185.564C75.4717 186.488 74.3937 187.258 73.2737 187.258C72.3777 187.258 71.8317 186.796 71.8317 186.054C71.8317 184.892 73.0077 184.794 73.8757 184.682C74.4077 184.612 75.0237 184.584 75.4717 184.248ZM84.5312 180.776H79.6172L79.4912 185.144C79.4492 186.712 78.9172 187.132 78.4412 187.132C78.2872 187.132 77.9652 187.118 77.8112 187.034V188C77.9652 188.07 78.3152 188.154 78.6652 188.154C79.6732 188.154 80.5972 187.384 80.6672 185.018L80.7652 181.826H83.3412V188H84.5312V180.776ZM92.3665 185.746C92.3665 184.374 91.4285 183.534 90.0145 183.534H87.4385V180.776H86.2485V188H90.0705C91.4845 188 92.3665 187.104 92.3665 185.746ZM89.6365 184.556C90.6305 184.556 91.1345 184.976 91.1345 185.746C91.1345 186.516 90.6165 186.95 89.6365 186.95H87.4385V184.556H89.6365ZM94.7403 188V184.696H98.3523V188H99.5423V180.776H98.3523V183.646H94.7403V180.776H93.5503V188H94.7403ZM108.218 180.776V188H109.408V180.776H108.218ZM107.07 185.746C107.07 184.374 106.132 183.534 104.718 183.534H102.478V180.776H101.288V188H104.774C106.188 188 107.07 187.104 107.07 185.746ZM104.34 184.556C105.334 184.556 105.838 184.976 105.838 185.746C105.838 186.516 105.32 186.95 104.34 186.95H102.478V184.556H104.34ZM117.361 185.718H116.199C115.863 186.81 115.289 187.258 114.253 187.258C112.853 187.258 111.999 186.334 111.999 184.794L112.013 184.71H117.445V184.542C117.445 182.456 116.549 180.566 114.169 180.566C112.167 180.566 110.809 182.148 110.809 184.486C110.809 186.838 112.083 188.238 114.211 188.238C115.919 188.238 116.997 187.384 117.361 185.718ZM116.213 183.744H112.013C112.167 182.386 112.979 181.546 114.141 181.546C115.331 181.546 116.101 182.372 116.213 183.744ZM128.133 181.826V180.776H121.763V181.826H124.353V188H125.543V181.826H128.133ZM130.204 180.776H129.084V190.786H130.274V186.992C130.89 187.832 131.632 188.182 132.696 188.182C134.67 188.182 135.93 186.684 135.93 184.346C135.93 182.008 134.656 180.552 132.64 180.552C131.576 180.552 130.764 180.902 130.204 181.798V180.776ZM132.458 181.546C133.858 181.546 134.698 182.61 134.698 184.36C134.698 186.096 133.858 187.174 132.5 187.174C131.1 187.174 130.232 186.11 130.232 184.36C130.232 182.61 131.072 181.546 132.458 181.546ZM143.556 185.718H142.394C142.058 186.81 141.484 187.258 140.448 187.258C139.048 187.258 138.194 186.334 138.194 184.794L138.208 184.71H143.64V184.542C143.64 182.456 142.744 180.566 140.364 180.566C138.362 180.566 137.004 182.148 137.004 184.486C137.004 186.838 138.278 188.238 140.406 188.238C142.114 188.238 143.192 187.384 143.556 185.718ZM142.408 183.744H138.208C138.362 182.386 139.174 181.546 140.336 181.546C141.526 181.546 142.296 182.372 142.408 183.744ZM145.574 179.768C144.874 180.846 144.706 182.526 144.706 183.912C144.706 184.388 144.734 184.836 144.79 185.228C145.084 187.216 146.442 188.238 148.136 188.238C150.278 188.238 151.524 186.852 151.524 184.444C151.524 182.092 150.264 180.748 148.234 180.748C147.03 180.748 146.106 181.434 145.7 182.386H145.658C145.868 180.678 146.68 179.46 148.262 179.348C149.522 179.25 151.02 179.278 151.286 177.794H150.096C149.9 178.158 149.34 178.172 148.43 178.242C147.058 178.34 146.218 178.774 145.574 179.768ZM145.924 184.486C145.924 182.792 146.778 181.742 148.122 181.742C149.466 181.742 150.306 182.778 150.306 184.472C150.306 186.222 149.48 187.23 148.15 187.23C146.75 187.23 145.924 186.11 145.924 184.486ZM156.105 180.566C153.921 180.566 152.563 182.036 152.563 184.416C152.563 186.796 153.879 188.224 156.091 188.224C158.289 188.224 159.563 186.796 159.563 184.346C159.563 181.952 158.289 180.566 156.105 180.566ZM156.077 181.56C157.477 181.56 158.345 182.652 158.345 184.374C158.345 186.152 157.505 187.216 156.105 187.216C154.649 187.216 153.795 186.166 153.795 184.388C153.795 182.666 154.677 181.56 156.077 181.56ZM160.952 188H164.886C166.174 188 167.084 187.104 167.084 185.872C167.084 184.906 166.552 184.262 165.712 184.094V184.08C166.384 183.772 166.776 183.296 166.776 182.526C166.776 181.056 165.558 180.776 164.298 180.776H160.952V188ZM164.172 183.688H162.114V181.798H164.172C165.222 181.798 165.544 182.12 165.544 182.722C165.544 183.338 165.194 183.688 164.172 183.688ZM162.114 184.696H164.452C165.432 184.696 165.852 185.116 165.852 185.774C165.852 186.46 165.418 186.978 164.662 186.978H162.114V184.696ZM174.898 187.048C174.772 187.076 174.716 187.09 174.604 187.09C174.24 187.09 174.114 186.908 174.114 186.376C174.114 185.298 174.17 184.234 174.17 183.156C174.17 182.512 174.184 181.77 173.68 181.28C173.204 180.832 172.378 180.58 171.412 180.58C169.55 180.58 168.43 181.49 168.388 183.03H169.55C169.662 181.966 170.236 181.56 171.342 181.56C172.406 181.56 172.98 181.98 172.98 182.75C172.98 183.73 172.392 183.688 170.67 183.898C168.962 184.108 168.108 184.864 168.108 186.152C168.108 187.412 168.99 188.196 170.418 188.196C171.538 188.196 172.322 187.846 173.036 187.048C173.05 187.734 173.414 188.112 174.086 188.112C174.352 188.112 174.646 188.07 174.898 187.972V187.048ZM172.98 184.248V185.564C172.98 186.488 171.902 187.258 170.782 187.258C169.886 187.258 169.34 186.796 169.34 186.054C169.34 184.892 170.516 184.794 171.384 184.682C171.916 184.612 172.532 184.584 172.98 184.248ZM177.209 188V184.696H180.821V188H182.011V180.776H180.821V183.646H177.209V180.776H176.019V188H177.209ZM185.324 188L188.572 182.106H188.6V188H189.79V180.776H188.264L185.016 186.67H184.988V180.776H183.798V188H185.324ZM197.29 188V180.776H193.622C192.222 180.776 191.354 181.546 191.354 182.904C191.354 184.094 192.124 184.85 193.146 185.004L190.654 188H192.236L194.518 185.046H196.1V188H197.29ZM196.1 181.826V183.996H194C193.006 183.996 192.572 183.646 192.572 182.904C192.572 182.176 193.02 181.826 194 181.826H196.1ZM204.184 188V181.826H207.796V188H208.986V180.776H202.994V188H204.184ZM213.937 180.566C211.753 180.566 210.395 182.036 210.395 184.416C210.395 186.796 211.711 188.224 213.923 188.224C216.121 188.224 217.395 186.796 217.395 184.346C217.395 181.952 216.121 180.566 213.937 180.566ZM213.909 181.56C215.309 181.56 216.177 182.652 216.177 184.374C216.177 186.152 215.337 187.216 213.937 187.216C212.481 187.216 211.627 186.166 211.627 184.388C211.627 182.666 212.509 181.56 213.909 181.56ZM220.338 188L223.586 182.106H223.614V188H224.804V180.776H223.278L220.03 186.67H220.002V180.776H218.812V188H220.338ZM232.807 185.368H231.603C231.421 186.558 230.707 187.216 229.629 187.216C228.285 187.216 227.473 186.152 227.473 184.388C227.473 182.652 228.341 181.56 229.713 181.56C230.693 181.56 231.323 182.106 231.533 183.128H232.765C232.569 181.49 231.463 180.566 229.699 180.566C227.571 180.566 226.227 182.078 226.227 184.486C226.227 186.684 227.417 188.21 229.657 188.21C231.449 188.21 232.597 187.09 232.807 185.368ZM240.579 188L237.289 183.618L240.201 180.776H238.605L235.301 184.22V180.776H234.111V188H235.301V185.55L236.435 184.444L239.067 188H240.579ZM244.535 180.566C242.351 180.566 240.993 182.036 240.993 184.416C240.993 186.796 242.309 188.224 244.521 188.224C246.719 188.224 247.993 186.796 247.993 184.346C247.993 181.952 246.719 180.566 244.535 180.566ZM244.507 181.56C245.907 181.56 246.775 182.652 246.775 184.374C246.775 186.152 245.935 187.216 244.535 187.216C243.079 187.216 242.225 186.166 242.225 184.388C242.225 182.666 243.107 181.56 244.507 181.56ZM249.382 188H253.316C254.604 188 255.514 187.104 255.514 185.872C255.514 184.906 254.982 184.262 254.142 184.094V184.08C254.814 183.772 255.206 183.296 255.206 182.526C255.206 181.056 253.988 180.776 252.728 180.776H249.382V188ZM252.602 183.688H250.544V181.798H252.602C253.652 181.798 253.974 182.12 253.974 182.722C253.974 183.338 253.624 183.688 252.602 183.688ZM250.544 184.696H252.882C253.862 184.696 254.282 185.116 254.282 185.774C254.282 186.46 253.848 186.978 253.092 186.978H250.544V184.696ZM263.817 180.776V188H265.007V180.776H263.817ZM262.669 185.746C262.669 184.374 261.731 183.534 260.317 183.534H258.077V180.776H256.887V188H260.373C261.787 188 262.669 187.104 262.669 185.746ZM259.939 184.556C260.933 184.556 261.437 184.976 261.437 185.746C261.437 186.516 260.919 186.95 259.939 186.95H258.077V184.556H259.939ZM272.723 180.776H271.281L269.489 183.254L267.739 180.776H266.227L268.733 184.192L266.017 188H267.459L269.461 185.032L271.491 188H273.017L270.203 184.108L272.723 180.776ZM284.145 185.368H282.941C282.759 186.558 282.045 187.216 280.967 187.216C279.623 187.216 278.811 186.152 278.811 184.388C278.811 182.652 279.679 181.56 281.051 181.56C282.031 181.56 282.661 182.106 282.871 183.128H284.103C283.907 181.49 282.801 180.566 281.037 180.566C278.909 180.566 277.565 182.078 277.565 184.486C277.565 186.684 278.755 188.21 280.995 188.21C282.787 188.21 283.935 187.09 284.145 185.368ZM286.975 188L290.223 182.106H290.251V188H291.441V180.776H289.915L286.667 186.67H286.639V180.776H285.449V188H286.975ZM299.444 185.368H298.24C298.058 186.558 297.344 187.216 296.266 187.216C294.922 187.216 294.11 186.152 294.11 184.388C294.11 182.652 294.978 181.56 296.35 181.56C297.33 181.56 297.96 182.106 298.17 183.128H299.402C299.206 181.49 298.1 180.566 296.336 180.566C294.208 180.566 292.864 182.078 292.864 184.486C292.864 186.684 294.054 188.21 296.294 188.21C298.086 188.21 299.234 187.09 299.444 185.368ZM306.278 181.826V180.776H299.908V181.826H302.498V188H303.688V181.826H306.278ZM313.156 185.718H311.994C311.658 186.81 311.084 187.258 310.048 187.258C308.648 187.258 307.794 186.334 307.794 184.794L307.808 184.71H313.24V184.542C313.24 182.456 312.344 180.566 309.964 180.566C307.962 180.566 306.604 182.148 306.604 184.486C306.604 186.838 307.878 188.238 310.006 188.238C311.714 188.238 312.792 187.384 313.156 185.718ZM312.008 183.744H307.808C307.962 182.386 308.774 181.546 309.936 181.546C311.126 181.546 311.896 182.372 312.008 183.744ZM322.327 188V180.776H320.619L318.421 186.628H318.393L316.195 180.776H314.487V188H315.677V182.302H315.719L317.861 188H318.953L321.095 182.302H321.137V188H322.327ZM329.508 188L332.756 182.106H332.784V188H333.974V180.776H332.448L329.2 186.67H329.172V180.776H327.982V188H329.508ZM340.848 188V181.826H344.46V188H345.65V180.776H339.658V188H340.848ZM350.601 180.566C348.417 180.566 347.059 182.036 347.059 184.416C347.059 186.796 348.375 188.224 350.587 188.224C352.785 188.224 354.059 186.796 354.059 184.346C354.059 181.952 352.785 180.566 350.601 180.566ZM350.573 181.56C351.973 181.56 352.841 182.652 352.841 184.374C352.841 186.152 352.001 187.216 350.601 187.216C349.145 187.216 348.291 186.166 348.291 184.388C348.291 182.666 349.173 181.56 350.573 181.56ZM362.23 190.296V186.95H361.292V180.776H356.14V182.316C356.14 184.136 355.65 186.152 355.23 186.95H354.446V190.296H355.58V188H361.096V190.296H362.23ZM360.102 186.95H356.462C356.854 186.18 357.302 184.234 357.302 182.428V181.826H360.102V186.95ZM364.459 188V184.696H368.071V188H369.261V180.776H368.071V183.646H364.459V180.776H363.269V188H364.459ZM376.76 188V180.776H373.092C371.692 180.776 370.824 181.546 370.824 182.904C370.824 184.094 371.594 184.85 372.616 185.004L370.124 188H371.706L373.988 185.046H375.57V188H376.76ZM375.57 181.826V183.996H373.47C372.476 183.996 372.042 183.646 372.042 182.904C372.042 182.176 372.49 181.826 373.47 181.826H375.57ZM384.098 181.826V180.776H377.728V181.826H380.318V188H381.508V181.826H384.098ZM391.124 185.746C391.124 184.374 390.186 183.534 388.772 183.534H386.196V180.776H385.006V188H388.828C390.242 188 391.124 187.104 391.124 185.746ZM388.394 184.556C389.388 184.556 389.892 184.976 389.892 185.746C389.892 186.516 389.374 186.95 388.394 186.95H386.196V184.556H388.394ZM398.524 185.368H397.32C397.138 186.558 396.424 187.216 395.346 187.216C394.002 187.216 393.19 186.152 393.19 184.388C393.19 182.652 394.058 181.56 395.43 181.56C396.41 181.56 397.04 182.106 397.25 183.128H398.482C398.286 181.49 397.18 180.566 395.416 180.566C393.288 180.566 391.944 182.078 391.944 184.486C391.944 186.684 393.134 188.21 395.374 188.21C397.166 188.21 398.314 187.09 398.524 185.368ZM405.54 188V180.776H401.872C400.472 180.776 399.604 181.546 399.604 182.904C399.604 184.094 400.374 184.85 401.396 185.004L398.904 188H400.486L402.768 185.046H404.35V188H405.54ZM404.35 181.826V183.996H402.25C401.256 183.996 400.822 183.646 400.822 182.904C400.822 182.176 401.27 181.826 402.25 181.826H404.35ZM411.216 188H415.15C416.438 188 417.348 187.104 417.348 185.872C417.348 184.906 416.816 184.262 415.976 184.094V184.08C416.648 183.772 417.04 183.296 417.04 182.526C417.04 181.056 415.822 180.776 414.562 180.776H411.216V188ZM414.436 183.688H412.378V181.798H414.436C415.486 181.798 415.808 182.12 415.808 182.722C415.808 183.338 415.458 183.688 414.436 183.688ZM412.378 184.696H414.716C415.696 184.696 416.116 185.116 416.116 185.774C416.116 186.46 415.682 186.978 414.926 186.978H412.378V184.696ZM422.632 188H426.566C427.854 188 428.764 187.104 428.764 185.872C428.764 184.906 428.232 184.262 427.392 184.094V184.08C428.064 183.772 428.456 183.296 428.456 182.526C428.456 181.056 427.238 180.776 425.978 180.776H422.632V188ZM425.852 183.688H423.794V181.798H425.852C426.902 181.798 427.224 182.12 427.224 182.722C427.224 183.338 426.874 183.688 425.852 183.688ZM423.794 184.696H426.132C427.112 184.696 427.532 185.116 427.532 185.774C427.532 186.46 427.098 186.978 426.342 186.978H423.794V184.696ZM437.067 180.776V188H438.257V180.776H437.067ZM435.919 185.746C435.919 184.374 434.981 183.534 433.567 183.534H431.327V180.776H430.137V188H433.623C435.037 188 435.919 187.104 435.919 185.746ZM433.189 184.556C434.183 184.556 434.687 184.976 434.687 185.746C434.687 186.516 434.169 186.95 433.189 186.95H431.327V184.556H433.189ZM447.037 190.296V186.95H446.099V180.776H440.947V182.316C440.947 184.136 440.457 186.152 440.037 186.95H439.253V190.296H440.387V188H445.903V190.296H447.037ZM444.909 186.95H441.269C441.661 186.18 442.109 184.234 442.109 182.428V181.826H444.909V186.95ZM454.474 187.048C454.348 187.076 454.292 187.09 454.18 187.09C453.816 187.09 453.69 186.908 453.69 186.376C453.69 185.298 453.746 184.234 453.746 183.156C453.746 182.512 453.76 181.77 453.256 181.28C452.78 180.832 451.954 180.58 450.988 180.58C449.126 180.58 448.006 181.49 447.964 183.03H449.126C449.238 181.966 449.812 181.56 450.918 181.56C451.982 181.56 452.556 181.98 452.556 182.75C452.556 183.73 451.968 183.688 450.246 183.898C448.538 184.108 447.684 184.864 447.684 186.152C447.684 187.412 448.566 188.196 449.994 188.196C451.114 188.196 451.898 187.846 452.612 187.048C452.626 187.734 452.99 188.112 453.662 188.112C453.928 188.112 454.222 188.07 454.474 187.972V187.048ZM452.556 184.248V185.564C452.556 186.488 451.478 187.258 450.358 187.258C449.462 187.258 448.916 186.796 448.916 186.054C448.916 184.892 450.092 184.794 450.96 184.682C451.492 184.612 452.108 184.584 452.556 184.248ZM461.181 188V180.776H459.991V183.8C459.725 183.884 458.675 184.122 457.975 184.122C457.093 184.122 456.589 183.786 456.589 182.862V180.776H455.399V183.058C455.399 184.458 456.309 185.13 457.751 185.13C458.479 185.13 459.739 184.878 459.991 184.808V188H461.181ZM469.152 185.718H467.99C467.654 186.81 467.08 187.258 466.044 187.258C464.644 187.258 463.79 186.334 463.79 184.794L463.804 184.71H469.236V184.542C469.236 182.456 468.34 180.566 465.96 180.566C463.958 180.566 462.6 182.148 462.6 184.486C462.6 186.838 463.874 188.238 466.002 188.238C467.71 188.238 468.788 187.384 469.152 185.718ZM468.004 183.744H463.804C463.958 182.386 464.77 181.546 465.932 181.546C467.122 181.546 467.892 182.372 468.004 183.744ZM472.318 186.446H470.764V188H472.318V186.446ZM50.022 196.032H42.014V197.18H45.36V206H46.676V197.18H50.022V196.032ZM55.5505 203.718H54.3885C54.0525 204.81 53.4785 205.258 52.4425 205.258C51.0425 205.258 50.1885 204.334 50.1885 202.794L50.2025 202.71H55.6345V202.542C55.6345 200.456 54.7385 198.566 52.3585 198.566C50.3565 198.566 48.9985 200.148 48.9985 202.486C48.9985 204.838 50.2725 206.238 52.4005 206.238C54.1085 206.238 55.1865 205.384 55.5505 203.718ZM54.4025 201.744H50.2025C50.3565 200.386 51.1685 199.546 52.3305 199.546C53.5205 199.546 54.2905 200.372 54.4025 201.744ZM58.086 206V199.826H61.698V206H62.888V198.776H56.896V206H58.086ZM70.6953 198.776H65.7813L65.6553 203.144C65.6133 204.712 65.0813 205.132 64.6053 205.132C64.4513 205.132 64.1293 205.118 63.9753 205.034V206C64.1293 206.07 64.4793 206.154 64.8293 206.154C65.8373 206.154 66.7613 205.384 66.8313 203.018L66.9293 199.826H69.5053V206H70.6953V198.776ZM75.6186 198.566C73.4346 198.566 72.0766 200.036 72.0766 202.416C72.0766 204.796 73.3926 206.224 75.6046 206.224C77.8026 206.224 79.0766 204.796 79.0766 202.346C79.0766 199.952 77.8026 198.566 75.6186 198.566ZM75.5906 199.56C76.9906 199.56 77.8586 200.652 77.8586 202.374C77.8586 204.152 77.0186 205.216 75.6186 205.216C74.1626 205.216 73.3086 204.166 73.3086 202.388C73.3086 200.666 74.1906 199.56 75.5906 199.56ZM86.6677 203.718H85.5057C85.1697 204.81 84.5957 205.258 83.5597 205.258C82.1597 205.258 81.3057 204.334 81.3057 202.794L81.3197 202.71H86.7517V202.542C86.7517 200.456 85.8557 198.566 83.4757 198.566C81.4737 198.566 80.1157 200.148 80.1157 202.486C80.1157 204.838 81.3897 206.238 83.5177 206.238C85.2257 206.238 86.3037 205.384 86.6677 203.718ZM85.5197 201.744H81.3197C81.4737 200.386 82.2857 199.546 83.4477 199.546C84.6377 199.546 85.4077 200.372 85.5197 201.744ZM99.7357 206V198.776H98.0277L95.8297 204.628H95.8017L93.6037 198.776H91.8957V206H93.0857V200.302H93.1277L95.2697 206H96.3617L98.5037 200.302H98.5457V206H99.7357ZM107.668 203.718H106.506C106.17 204.81 105.596 205.258 104.56 205.258C103.16 205.258 102.306 204.334 102.306 202.794L102.32 202.71H107.752V202.542C107.752 200.456 106.856 198.566 104.476 198.566C102.474 198.566 101.116 200.148 101.116 202.486C101.116 204.838 102.39 206.238 104.518 206.238C106.226 206.238 107.304 205.384 107.668 203.718ZM106.52 201.744H102.32C102.474 200.386 103.286 199.546 104.448 199.546C105.638 199.546 106.408 200.372 106.52 201.744ZM115.229 203.368H114.025C113.843 204.558 113.129 205.216 112.051 205.216C110.707 205.216 109.895 204.152 109.895 202.388C109.895 200.652 110.763 199.56 112.135 199.56C113.115 199.56 113.745 200.106 113.955 201.128H115.187C114.991 199.49 113.885 198.566 112.121 198.566C109.993 198.566 108.649 200.078 108.649 202.486C108.649 204.684 109.839 206.21 112.079 206.21C113.871 206.21 115.019 205.09 115.229 203.368ZM122.063 199.826V198.776H115.693V199.826H118.283V206H119.473V199.826H122.063ZM128.941 203.718H127.779C127.443 204.81 126.869 205.258 125.833 205.258C124.433 205.258 123.579 204.334 123.579 202.794L123.593 202.71H129.025V202.542C129.025 200.456 128.129 198.566 125.749 198.566C123.747 198.566 122.389 200.148 122.389 202.486C122.389 204.838 123.663 206.238 125.791 206.238C127.499 206.238 128.577 205.384 128.941 203.718ZM127.793 201.744H123.593C123.747 200.386 124.559 199.546 125.721 199.546C126.911 199.546 127.681 200.372 127.793 201.744ZM135.873 206V198.776H134.683V201.8C134.417 201.884 133.367 202.122 132.667 202.122C131.785 202.122 131.281 201.786 131.281 200.862V198.776H130.091V201.058C130.091 202.458 131.001 203.13 132.443 203.13C133.171 203.13 134.431 202.878 134.683 202.808V206H135.873ZM144.137 206L140.847 201.618L143.759 198.776H142.163L138.859 202.22V198.776H137.669V206H138.859V203.55L139.993 202.444L142.625 206H144.137ZM148.093 198.566C145.909 198.566 144.551 200.036 144.551 202.416C144.551 204.796 145.867 206.224 148.079 206.224C150.277 206.224 151.551 204.796 151.551 202.346C151.551 199.952 150.277 198.566 148.093 198.566ZM148.065 199.56C149.465 199.56 150.333 200.652 150.333 202.374C150.333 204.152 149.493 205.216 148.093 205.216C146.637 205.216 145.783 204.166 145.783 202.388C145.783 200.666 146.665 199.56 148.065 199.56ZM156.837 206H160.771C162.059 206 162.969 205.104 162.969 203.872C162.969 202.906 162.437 202.262 161.597 202.094V202.08C162.269 201.772 162.661 201.296 162.661 200.526C162.661 199.056 161.443 198.776 160.183 198.776H156.837V206ZM160.057 201.688H157.999V199.798H160.057C161.107 199.798 161.429 200.12 161.429 200.722C161.429 201.338 161.079 201.688 160.057 201.688ZM157.999 202.696H160.337C161.317 202.696 161.737 203.116 161.737 203.774C161.737 204.46 161.303 204.978 160.547 204.978H157.999V202.696ZM175.407 196.032H167.399V197.18H170.745V206H172.061V197.18H175.407V196.032ZM180.484 195.794C177.586 195.794 175.724 197.796 175.724 200.904C175.724 203.802 177.306 206.238 180.498 206.238C183.662 206.238 185.272 203.858 185.272 200.932C185.272 197.964 183.578 195.794 180.484 195.794ZM180.484 196.942C182.598 196.942 183.956 198.538 183.956 201.002C183.956 203.48 182.598 205.104 180.512 205.104C178.398 205.104 177.04 203.494 177.04 201.002C177.04 198.874 178.132 196.942 180.484 196.942ZM194.816 196.032H186.92V206H188.236V197.18H193.5V206H194.816V196.032ZM202.988 203.718H201.826C201.49 204.81 200.916 205.258 199.88 205.258C198.48 205.258 197.626 204.334 197.626 202.794L197.64 202.71H203.072V202.542C203.072 200.456 202.176 198.566 199.796 198.566C197.794 198.566 196.436 200.148 196.436 202.486C196.436 204.838 197.71 206.238 199.838 206.238C201.546 206.238 202.624 205.384 202.988 203.718ZM201.84 201.744H197.64C197.794 200.386 198.606 199.546 199.768 199.546C200.958 199.546 201.728 200.372 201.84 201.744ZM214.208 198.776H212.962L210.932 204.53L208.79 198.776H207.446L210.316 205.958L209.756 207.274C209.616 207.61 209.308 207.876 208.916 207.876C208.706 207.876 208.524 207.834 208.146 207.722V208.786C208.44 208.856 208.72 208.912 209.028 208.912C210.316 208.912 210.722 207.946 211.114 206.924L214.208 198.776ZM218.282 202.5L219.178 203.41V206H220.368V203.41L221.264 202.5L223.742 206H225.212L222.048 201.744L224.806 198.776H223.336L220.396 202.094H220.368V198.776H219.178V202.094H219.15L216.21 198.776H214.74L217.498 201.744L214.334 206H215.804L218.282 202.5ZM232.054 203.718H230.892C230.556 204.81 229.982 205.258 228.946 205.258C227.546 205.258 226.692 204.334 226.692 202.794L226.706 202.71H232.138V202.542C232.138 200.456 231.242 198.566 228.862 198.566C226.86 198.566 225.502 200.148 225.502 202.486C225.502 204.838 226.776 206.238 228.904 206.238C230.612 206.238 231.69 205.384 232.054 203.718ZM230.906 201.744H226.706C226.86 200.386 227.672 199.546 228.834 199.546C230.024 199.546 230.794 200.372 230.906 201.744ZM240.348 202.5L241.244 203.41V206H242.434V203.41L243.33 202.5L245.808 206H247.278L244.114 201.744L246.872 198.776H245.402L242.462 202.094H242.434V198.776H241.244V202.094H241.216L238.276 198.776H236.806L239.564 201.744L236.4 206H237.87L240.348 202.5ZM255.193 208.296V204.95H254.255V198.776H249.103V200.316C249.103 202.136 248.613 204.152 248.193 204.95H247.409V208.296H248.543V206H254.059V208.296H255.193ZM253.065 204.95H249.425C249.817 204.18 250.265 202.234 250.265 200.428V199.826H253.065V204.95ZM262.406 203.718H261.244C260.908 204.81 260.334 205.258 259.298 205.258C257.898 205.258 257.044 204.334 257.044 202.794L257.058 202.71H262.49V202.542C262.49 200.456 261.594 198.566 259.214 198.566C257.212 198.566 255.854 200.148 255.854 202.486C255.854 204.838 257.128 206.238 259.256 206.238C260.964 206.238 262.042 205.384 262.406 203.718ZM261.258 201.744H257.058C257.212 200.386 258.024 199.546 259.186 199.546C260.376 199.546 261.146 200.372 261.258 201.744ZM269.035 199.826V198.776H262.665V199.826H265.255V206H266.445V199.826H269.035ZM271.568 196.032H270.252V199.084L270.574 203.522H271.218L271.568 199.084V196.032ZM271.638 204.586H270.168V206H271.638V204.586Z" fill="#626779"/>
<defs>
<filter id="filter0_d" x="0" y="0" width="511" height="268" filterUnits="userSpaceOnUse" color-interpolation-filters="sRGB">
<feFlood flood-opacity="0" result="BackgroundImageFix"/>
<feColorMatrix in="SourceAlpha" type="matrix" values="0 0 0 0 0 0 0 0 0 0 0 0 0 0 0 0 0 0 127 0"/>
<feOffset dy="2"/>
<feGaussianBlur stdDeviation="2"/>
<feColorMatrix type="matrix" values="0 0 0 0 0 0 0 0 0 0 0 0 0 0 0 0 0 0 0.25 0"/>
<feBlend mode="normal" in2="BackgroundImageFix" result="effect1_dropShadow"/>
<feBlend mode="normal" in="SourceGraphic" in2="effect1_dropShadow" result="shape"/>
</filter>
</defs>
</svg>
