<?xml version="1.0" encoding="UTF-8"?>
<!DOCTYPE svg PUBLIC "-//W3C//DTD SVG 1.1//EN" "http://www.w3.org/Graphics/SVG/1.1/DTD/svg11.dtd">
<!-- Creator: CorelDRAW X8 -->
<svg xmlns="http://www.w3.org/2000/svg" xml:space="preserve" width="10000px" height="10000px" version="1.1" style="shape-rendering:geometricPrecision; text-rendering:geometricPrecision; image-rendering:optimizeQuality; fill-rule:evenodd; clip-rule:evenodd"
viewBox="0 0 853 853"
 xmlns:xlink="http://www.w3.org/1999/xlink">
 <defs>
  <style type="text/css">
   <![CDATA[
    .fil1 {fill:#2B2A29}
    .fil0 {fill:#2B2A29;fill-rule:nonzero}
   ]]>
  </style>
 </defs>
 <g id="Слой_x0020_1">
  <metadata id="CorelCorpID_0Corel-Layer"/>
  <path class="fil0" d="M427 0c117,0 224,48 301,125 78,77 125,184 125,302 0,117 -47,224 -125,301 -77,78 -184,125 -301,125 -118,0 -225,-47 -302,-125 -77,-77 -125,-184 -125,-301 0,-118 48,-225 125,-302 77,-77 184,-125 302,-125zm273 153c-70,-70 -166,-113 -273,-113 -107,0 -204,43 -274,113 -70,70 -113,167 -113,274 0,107 43,203 113,273 70,71 167,114 274,114 107,0 203,-43 273,-114 71,-70 114,-166 114,-273 0,-107 -43,-204 -114,-274z"/>
  <path class="fil1" d="M355 367l-78 1 0 95 81 1 2 253 103 0 1 -254 84 -2 11 -98 -97 1c-7,-112 37,-115 102,-115l1 -89c-181,-9 -217,38 -210,207z"/>
 </g>
</svg>
