<?xml version="1.0" encoding="UTF-8"?>
<!DOCTYPE svg PUBLIC "-//W3C//DTD SVG 1.1//EN" "http://www.w3.org/Graphics/SVG/1.1/DTD/svg11.dtd">
<!-- Creator: CorelDRAW X8 -->
<svg xmlns="http://www.w3.org/2000/svg" xml:space="preserve" width="10000px" height="10000px" version="1.1" style="shape-rendering:geometricPrecision; text-rendering:geometricPrecision; image-rendering:optimizeQuality; fill-rule:evenodd; clip-rule:evenodd"
viewBox="0 0 1554 1554"
 xmlns:xlink="http://www.w3.org/1999/xlink">
 <defs>
  <style type="text/css">
   <![CDATA[
    .fil0 {fill:black}
    .fil1 {fill:#2B2A29;fill-rule:nonzero}
   ]]>
  </style>
 </defs>
 <g id="Слой_x0020_1">
  <metadata id="CorelCorpID_0Corel-Layer"/>
  <g id="_859896448">
   <g>
    <path class="fil0" d="M434 942l0 -331c0,-55 21,-102 62,-137 32,-27 73,-40 115,-40l331 0c32,0 66,8 89,22 5,3 9,5 14,8 9,6 16,13 23,20 10,10 12,13 21,24 20,28 30,65 30,103l0 332c0,42 -11,77 -34,108 -2,2 -3,4 -5,6 -7,8 -14,15 -22,22 -10,8 -21,16 -33,22 -8,4 -15,7 -24,9 -17,6 -37,9 -57,9l-334 0c-43,0 -76,-11 -108,-35 -15,-11 -32,-30 -42,-46l-11 -22c-9,-21 -15,-44 -15,-74zm-63 -336l0 343c0,24 4,46 11,68 0,2 1,4 2,6l8 21c3,7 10,20 15,28 11,16 14,19 25,33 2,2 5,5 7,7 17,17 29,26 49,38 12,7 27,14 40,19 23,8 47,14 73,14l351 0c18,0 36,-4 51,-7 16,-4 29,-9 42,-15 14,-6 25,-13 37,-21l20 -16 18 -18c11,-10 23,-29 31,-41 3,-7 6,-12 10,-19 6,-13 11,-29 15,-43 3,-14 7,-33 7,-51l0 -351c0,-29 -10,-68 -23,-94 -14,-29 -26,-46 -48,-68l-11 -10c-13,-13 -43,-31 -57,-37 -26,-12 -59,-21 -96,-21l-342 0c-41,0 -81,11 -116,31 -10,6 -29,19 -38,27 -6,6 -14,13 -19,19 -8,10 -11,13 -19,24 -5,6 -8,12 -12,18l-5 9c-5,11 -9,20 -13,31 -3,8 -5,15 -7,23 -3,15 -6,35 -6,53z"/>
    <path class="fil0" d="M769 622l16 0c31,0 61,13 85,30l10 8c2,2 3,3 5,5 14,13 28,33 35,52 8,20 9,25 12,46 1,6 1,21 0,27 0,2 -1,6 -1,8 -3,22 -9,39 -20,57 -2,4 -5,8 -7,12 -5,6 -13,16 -18,21 -4,4 -16,14 -21,17 -22,14 -43,23 -70,26l-18 2c-9,0 -26,-3 -34,-4 -12,-3 -31,-10 -42,-16 -13,-8 -21,-13 -33,-25 -20,-21 -35,-45 -42,-73 -1,-5 -2,-10 -3,-16 -4,-27 -1,-58 10,-82 2,-5 4,-8 6,-13 2,-4 5,-8 7,-12 3,-4 6,-8 8,-11 14,-19 33,-33 54,-43 17,-9 40,-16 61,-16zm-211 148c0,23 1,38 7,60 6,25 16,47 30,68l15 19c1,2 1,2 3,4l16 16c1,1 2,2 3,3 12,12 37,28 52,35 4,1 6,2 9,4 4,1 7,2 10,4 6,2 14,4 20,6 65,16 135,2 187,-39l8 -6c1,-2 2,-2 3,-3l11 -10c4,-5 8,-9 12,-14 22,-27 36,-51 45,-87 11,-43 8,-84 -6,-127 -7,-19 -16,-35 -28,-52 -5,-8 -16,-21 -24,-29l-10 -9c-1,-1 -1,-2 -3,-3 -3,-2 -5,-4 -8,-6 -2,-2 -4,-4 -7,-6l-34 -19 -18 -8c-7,-2 -14,-4 -21,-6 -3,-1 -7,-2 -10,-3 -40,-7 -80,-5 -117,9 -20,8 -26,11 -44,22 -11,6 -27,20 -37,29 -6,7 -19,22 -24,29 -13,19 -19,30 -27,52 -7,19 -13,45 -13,67z"/>
    <path class="fil0" d="M995 524c0,11 1,18 9,26 16,15 41,10 50,-8 10,-20 -2,-46 -29,-46 -16,0 -30,15 -30,28z"/>
   </g>
  </g>
  <path class="fil1" d="M777 0c214,0 408,87 549,228 141,140 228,334 228,549 0,214 -87,408 -228,549 -141,141 -335,228 -549,228 -215,0 -409,-87 -549,-228 -141,-141 -228,-335 -228,-549 0,-215 87,-409 228,-549 140,-141 334,-228 549,-228zm498 278c-127,-127 -304,-206 -498,-206 -195,0 -371,79 -499,206 -127,128 -206,304 -206,499 0,194 79,371 206,498 128,128 304,207 499,207 194,0 371,-79 498,-207 128,-127 207,-304 207,-498 0,-195 -79,-371 -207,-499z"/>
 </g>
</svg>
