<?xml version="1.0" encoding="UTF-8"?>
<!DOCTYPE svg PUBLIC "-//W3C//DTD SVG 1.1//EN" "http://www.w3.org/Graphics/SVG/1.1/DTD/svg11.dtd">
<!-- Creator: CorelDRAW X8 -->
<svg xmlns="http://www.w3.org/2000/svg" xml:space="preserve" width="10000px" height="10000px" version="1.1" style="shape-rendering:geometricPrecision; text-rendering:geometricPrecision; image-rendering:optimizeQuality; fill-rule:evenodd; clip-rule:evenodd"
viewBox="0 0 1105 1105"
 xmlns:xlink="http://www.w3.org/1999/xlink">
 <defs>
  <style type="text/css">
   <![CDATA[
    .fil1 {fill:#2B2A29}
    .fil0 {fill:#2B2A29;fill-rule:nonzero}
   ]]>
  </style>
 </defs>
 <g id="Слой_x0020_1">
  <metadata id="CorelCorpID_0Corel-Layer"/>
  <path class="fil0" d="M553 0c152,0 290,62 390,162 100,100 162,238 162,391 0,152 -62,290 -162,390 -100,100 -238,162 -390,162 -153,0 -291,-62 -391,-162 -100,-100 -162,-238 -162,-390 0,-153 62,-291 162,-391 100,-100 238,-162 391,-162zm354 198c-91,-91 -216,-147 -354,-147 -139,0 -264,56 -355,147 -91,91 -147,216 -147,355 0,138 56,263 147,354 91,91 216,147 355,147 138,0 263,-56 354,-147 91,-91 147,-216 147,-354 0,-139 -56,-264 -147,-355z"/>
  <path class="fil1" d="M333 640c33,39 47,61 96,90 29,17 155,63 170,5 9,-37 4,-111 73,-29 11,12 34,36 47,45 31,19 131,12 158,-2 2,-47 -40,-72 -57,-98 -142,-78 75,-162 55,-259 -25,-10 -114,-8 -143,-4 -27,11 -67,180 -124,169 -26,-40 1,-131 -15,-179 -46,-14 -135,-20 -163,14 30,28 38,4 41,70 2,42 0,63 -10,98 -35,-1 -42,-24 -60,-51 -54,-85 -40,-122 -90,-123 -28,-1 -78,-1 -102,5 -6,49 101,212 124,249z"/>
 </g>
</svg>
